%TF.GenerationSoftware,KiCad,Pcbnew,9.0.5*%
%TF.CreationDate,2025-10-31T19:38:18+05:30*%
%TF.ProjectId,MoistureSensor,4d6f6973-7475-4726-9553-656e736f722e,rev?*%
%TF.SameCoordinates,Original*%
%TF.FileFunction,Paste,Top*%
%TF.FilePolarity,Positive*%
%FSLAX46Y46*%
G04 Gerber Fmt 4.6, Leading zero omitted, Abs format (unit mm)*
G04 Created by KiCad (PCBNEW 9.0.5) date 2025-10-31 19:38:18*
%MOMM*%
%LPD*%
G01*
G04 APERTURE LIST*
G04 Aperture macros list*
%AMRoundRect*
0 Rectangle with rounded corners*
0 $1 Rounding radius*
0 $2 $3 $4 $5 $6 $7 $8 $9 X,Y pos of 4 corners*
0 Add a 4 corners polygon primitive as box body*
4,1,4,$2,$3,$4,$5,$6,$7,$8,$9,$2,$3,0*
0 Add four circle primitives for the rounded corners*
1,1,$1+$1,$2,$3*
1,1,$1+$1,$4,$5*
1,1,$1+$1,$6,$7*
1,1,$1+$1,$8,$9*
0 Add four rect primitives between the rounded corners*
20,1,$1+$1,$2,$3,$4,$5,0*
20,1,$1+$1,$4,$5,$6,$7,0*
20,1,$1+$1,$6,$7,$8,$9,0*
20,1,$1+$1,$8,$9,$2,$3,0*%
G04 Aperture macros list end*
%ADD10RoundRect,0.250000X-0.250000X-0.475000X0.250000X-0.475000X0.250000X0.475000X-0.250000X0.475000X0*%
%ADD11RoundRect,0.250000X-0.375000X-0.625000X0.375000X-0.625000X0.375000X0.625000X-0.375000X0.625000X0*%
%ADD12RoundRect,0.225000X0.225000X0.250000X-0.225000X0.250000X-0.225000X-0.250000X0.225000X-0.250000X0*%
%ADD13RoundRect,0.150000X-0.150000X0.512500X-0.150000X-0.512500X0.150000X-0.512500X0.150000X0.512500X0*%
%ADD14RoundRect,0.225000X-0.225000X-0.250000X0.225000X-0.250000X0.225000X0.250000X-0.225000X0.250000X0*%
%ADD15RoundRect,0.250000X0.295000X-0.295000X0.295000X0.295000X-0.295000X0.295000X-0.295000X-0.295000X0*%
%ADD16RoundRect,0.062500X0.062500X-0.350000X0.062500X0.350000X-0.062500X0.350000X-0.062500X-0.350000X0*%
%ADD17RoundRect,0.062500X0.350000X-0.062500X0.350000X0.062500X-0.350000X0.062500X-0.350000X-0.062500X0*%
%ADD18R,0.800000X1.000000*%
%ADD19R,1.500000X0.700000*%
%ADD20RoundRect,0.200000X0.335876X0.053033X0.053033X0.335876X-0.335876X-0.053033X-0.053033X-0.335876X0*%
%ADD21RoundRect,0.250000X0.475000X-0.250000X0.475000X0.250000X-0.475000X0.250000X-0.475000X-0.250000X0*%
%ADD22RoundRect,0.150000X-0.512500X-0.150000X0.512500X-0.150000X0.512500X0.150000X-0.512500X0.150000X0*%
%ADD23R,1.500000X0.900000*%
%ADD24R,0.900000X1.500000*%
%ADD25RoundRect,0.218750X-0.218750X-0.256250X0.218750X-0.256250X0.218750X0.256250X-0.218750X0.256250X0*%
%ADD26RoundRect,0.140000X0.205000X0.140000X-0.205000X0.140000X-0.205000X-0.140000X0.205000X-0.140000X0*%
%ADD27RoundRect,0.062500X0.337500X0.062500X-0.337500X0.062500X-0.337500X-0.062500X0.337500X-0.062500X0*%
%ADD28RoundRect,0.218750X0.026517X-0.335876X0.335876X-0.026517X-0.026517X0.335876X-0.335876X0.026517X0*%
%ADD29RoundRect,0.250000X0.250000X0.475000X-0.250000X0.475000X-0.250000X-0.475000X0.250000X-0.475000X0*%
%ADD30RoundRect,0.200000X0.200000X0.275000X-0.200000X0.275000X-0.200000X-0.275000X0.200000X-0.275000X0*%
%ADD31RoundRect,0.200000X-0.200000X-0.275000X0.200000X-0.275000X0.200000X0.275000X-0.200000X0.275000X0*%
G04 APERTURE END LIST*
D10*
%TO.C,C4*%
X140550000Y-99175000D03*
X142450000Y-99175000D03*
%TD*%
D11*
%TO.C,F1*%
X129100000Y-105175000D03*
X131900000Y-105175000D03*
%TD*%
D12*
%TO.C,C2*%
X138775000Y-101175000D03*
X137225000Y-101175000D03*
%TD*%
D13*
%TO.C,U3*%
X145500000Y-101400000D03*
X144550001Y-101400000D03*
X143600002Y-101400000D03*
X143600002Y-103675000D03*
X145500000Y-103675000D03*
%TD*%
D14*
%TO.C,C8*%
X158225000Y-108675000D03*
X159775000Y-108675000D03*
%TD*%
D15*
%TO.C,U5*%
X149325000Y-108350000D03*
X150675000Y-108350000D03*
X149325000Y-107000000D03*
X150675000Y-107000000D03*
D16*
X148750000Y-109637501D03*
X149250000Y-109637500D03*
X149750000Y-109637500D03*
X150250000Y-109637500D03*
X150750000Y-109637500D03*
X151250000Y-109637501D03*
D17*
X151962501Y-108925000D03*
X151962500Y-108425000D03*
X151962500Y-107925000D03*
X151962500Y-107425000D03*
X151962500Y-106925000D03*
X151962501Y-106425000D03*
D16*
X151250000Y-105712499D03*
X150750000Y-105712500D03*
X150250000Y-105712500D03*
X149750000Y-105712500D03*
X149250000Y-105712500D03*
X148750000Y-105712499D03*
D17*
X148037499Y-106425000D03*
X148037500Y-106925000D03*
X148037500Y-107425000D03*
X148037500Y-107925000D03*
X148037500Y-108425000D03*
X148037499Y-108925000D03*
%TD*%
D18*
%TO.C,SW_MAIN1*%
X175220000Y-104825000D03*
X177430000Y-104825000D03*
X175220000Y-97525000D03*
X177430000Y-97525000D03*
D19*
X174570000Y-103425000D03*
X174570000Y-100425000D03*
X174570000Y-98925000D03*
%TD*%
D20*
%TO.C,R3*%
X129310070Y-95914409D03*
X128143344Y-94747683D03*
%TD*%
D21*
%TO.C,C5*%
X142685063Y-107410170D03*
X142685063Y-105510172D03*
%TD*%
D22*
%TO.C,U6*%
X137000000Y-103775000D03*
X137000000Y-104725000D03*
X137000000Y-105675000D03*
X139275000Y-105675000D03*
X139275000Y-104725000D03*
X139275000Y-103775000D03*
%TD*%
D23*
%TO.C,U4*%
X142762500Y-81527007D03*
X142762500Y-82626907D03*
X142762500Y-83726907D03*
X142762500Y-84827007D03*
X142762500Y-85926807D03*
X142762500Y-87026907D03*
X142762500Y-88127007D03*
X142762500Y-89226807D03*
X142762500Y-90326907D03*
X142762500Y-91426907D03*
X142762500Y-92527007D03*
X142762500Y-93626807D03*
X142762500Y-94726907D03*
D24*
X144262600Y-95726907D03*
X145362400Y-95726907D03*
X146462500Y-95726907D03*
X147562600Y-95726907D03*
X151962600Y-95726907D03*
X153062500Y-95726907D03*
X154162500Y-95726907D03*
X155262600Y-95726907D03*
D23*
X156762500Y-94726907D03*
X156762500Y-93626807D03*
X156762500Y-92527007D03*
X156762500Y-91426907D03*
X156762500Y-90326907D03*
X156762500Y-89226807D03*
X156762500Y-88127007D03*
X156762500Y-87026907D03*
X156762500Y-85926807D03*
X156762500Y-84827007D03*
X156762500Y-83726907D03*
X156762500Y-82626907D03*
X156762500Y-81527007D03*
%TD*%
D25*
%TO.C,D_USER1*%
X158212499Y-119675000D03*
X159787501Y-119675000D03*
%TD*%
D26*
%TO.C,U2*%
X134425000Y-100025000D03*
X134425000Y-99325000D03*
X133575000Y-100025000D03*
X133575000Y-99325000D03*
D27*
X135450000Y-100425000D03*
X135450000Y-99925000D03*
X135450000Y-99425000D03*
X135450000Y-98925000D03*
X132550000Y-98925000D03*
X132550000Y-99425000D03*
X132550000Y-99925000D03*
X132550000Y-100425000D03*
%TD*%
D28*
%TO.C,D_CHG1*%
X124613013Y-93944740D03*
X125726707Y-92831046D03*
%TD*%
D29*
%TO.C,C1*%
X132949999Y-107675000D03*
X131050001Y-107675000D03*
%TD*%
D14*
%TO.C,C10*%
X144725000Y-109675000D03*
X146275000Y-109675000D03*
%TD*%
D30*
%TO.C,R4*%
X150325000Y-116675000D03*
X148675000Y-116675000D03*
%TD*%
D31*
%TO.C,R8*%
X132175000Y-103175000D03*
X133825000Y-103175000D03*
%TD*%
D10*
%TO.C,C3*%
X137050000Y-96175000D03*
X138950000Y-96175000D03*
%TD*%
D31*
%TO.C,R5*%
X155175000Y-117675000D03*
X156825000Y-117675000D03*
%TD*%
M02*
