%TF.GenerationSoftware,KiCad,Pcbnew,9.0.5*%
%TF.CreationDate,2025-10-31T19:38:18+05:30*%
%TF.ProjectId,MoistureSensor,4d6f6973-7475-4726-9553-656e736f722e,rev?*%
%TF.SameCoordinates,Original*%
%TF.FileFunction,Soldermask,Top*%
%TF.FilePolarity,Negative*%
%FSLAX46Y46*%
G04 Gerber Fmt 4.6, Leading zero omitted, Abs format (unit mm)*
G04 Created by KiCad (PCBNEW 9.0.5) date 2025-10-31 19:38:18*
%MOMM*%
%LPD*%
G01*
G04 APERTURE LIST*
G04 Aperture macros list*
%AMRoundRect*
0 Rectangle with rounded corners*
0 $1 Rounding radius*
0 $2 $3 $4 $5 $6 $7 $8 $9 X,Y pos of 4 corners*
0 Add a 4 corners polygon primitive as box body*
4,1,4,$2,$3,$4,$5,$6,$7,$8,$9,$2,$3,0*
0 Add four circle primitives for the rounded corners*
1,1,$1+$1,$2,$3*
1,1,$1+$1,$4,$5*
1,1,$1+$1,$6,$7*
1,1,$1+$1,$8,$9*
0 Add four rect primitives between the rounded corners*
20,1,$1+$1,$2,$3,$4,$5,0*
20,1,$1+$1,$4,$5,$6,$7,0*
20,1,$1+$1,$6,$7,$8,$9,0*
20,1,$1+$1,$8,$9,$2,$3,0*%
%AMHorizOval*
0 Thick line with rounded ends*
0 $1 width*
0 $2 $3 position (X,Y) of the first rounded end (center of the circle)*
0 $4 $5 position (X,Y) of the second rounded end (center of the circle)*
0 Add line between two ends*
20,1,$1,$2,$3,$4,$5,0*
0 Add two circle primitives to create the rounded ends*
1,1,$1,$2,$3*
1,1,$1,$4,$5*%
%AMRotRect*
0 Rectangle, with rotation*
0 The origin of the aperture is its center*
0 $1 length*
0 $2 width*
0 $3 Rotation angle, in degrees counterclockwise*
0 Add horizontal line*
21,1,$1,$2,0,0,$3*%
G04 Aperture macros list end*
%ADD10C,0.000000*%
%ADD11RoundRect,0.250000X-0.250000X-0.475000X0.250000X-0.475000X0.250000X0.475000X-0.250000X0.475000X0*%
%ADD12RoundRect,0.250000X-0.375000X-0.625000X0.375000X-0.625000X0.375000X0.625000X-0.375000X0.625000X0*%
%ADD13RoundRect,0.225000X0.225000X0.250000X-0.225000X0.250000X-0.225000X-0.250000X0.225000X-0.250000X0*%
%ADD14RoundRect,0.150000X-0.150000X0.512500X-0.150000X-0.512500X0.150000X-0.512500X0.150000X0.512500X0*%
%ADD15C,2.700000*%
%ADD16C,1.100000*%
%ADD17RoundRect,0.249999X-0.850001X-0.850001X0.850001X-0.850001X0.850001X0.850001X-0.850001X0.850001X0*%
%ADD18C,2.200000*%
%ADD19RoundRect,0.225000X-0.225000X-0.250000X0.225000X-0.250000X0.225000X0.250000X-0.225000X0.250000X0*%
%ADD20RoundRect,0.062500X0.062500X-0.350000X0.062500X0.350000X-0.062500X0.350000X-0.062500X-0.350000X0*%
%ADD21RoundRect,0.062500X0.350000X-0.062500X0.350000X0.062500X-0.350000X0.062500X-0.350000X-0.062500X0*%
%ADD22R,2.700000X2.700000*%
%ADD23RoundRect,0.250000X-0.194454X0.689429X-0.689429X0.194454X0.194454X-0.689429X0.689429X-0.194454X0*%
%ADD24HorizOval,1.200000X-0.194454X0.194454X0.194454X-0.194454X0*%
%ADD25R,1.700000X1.700000*%
%ADD26C,1.700000*%
%ADD27C,0.700000*%
%ADD28O,2.400000X0.900000*%
%ADD29O,1.700000X0.900000*%
%ADD30R,0.800000X1.000000*%
%ADD31C,0.900000*%
%ADD32R,1.500000X0.700000*%
%ADD33RoundRect,0.200000X0.335876X0.053033X0.053033X0.335876X-0.335876X-0.053033X-0.053033X-0.335876X0*%
%ADD34RoundRect,0.250000X0.475000X-0.250000X0.475000X0.250000X-0.475000X0.250000X-0.475000X-0.250000X0*%
%ADD35R,1.000000X1.500000*%
%ADD36RoundRect,0.150000X-0.512500X-0.150000X0.512500X-0.150000X0.512500X0.150000X-0.512500X0.150000X0*%
%ADD37RoundRect,0.101600X-0.750000X-0.450000X0.750000X-0.450000X0.750000X0.450000X-0.750000X0.450000X0*%
%ADD38RoundRect,0.101600X0.450000X-0.750000X0.450000X0.750000X-0.450000X0.750000X-0.450000X-0.750000X0*%
%ADD39RoundRect,0.218750X-0.218750X-0.256250X0.218750X-0.256250X0.218750X0.256250X-0.218750X0.256250X0*%
%ADD40RoundRect,0.062500X0.337500X0.062500X-0.337500X0.062500X-0.337500X-0.062500X0.337500X-0.062500X0*%
%ADD41R,1.700000X1.400000*%
%ADD42R,1.500000X1.000000*%
%ADD43RoundRect,0.218750X0.026517X-0.335876X0.335876X-0.026517X-0.026517X0.335876X-0.335876X0.026517X0*%
%ADD44RoundRect,0.250000X0.250000X0.475000X-0.250000X0.475000X-0.250000X-0.475000X0.250000X-0.475000X0*%
%ADD45RoundRect,0.200000X0.200000X0.275000X-0.200000X0.275000X-0.200000X-0.275000X0.200000X-0.275000X0*%
%ADD46RotRect,1.700000X1.700000X45.000000*%
%ADD47RoundRect,0.200000X-0.200000X-0.275000X0.200000X-0.275000X0.200000X0.275000X-0.200000X0.275000X0*%
G04 APERTURE END LIST*
%TO.C,JP1*%
G36*
X130626707Y-110081046D02*
G01*
X132226707Y-110081046D01*
X132226707Y-111581046D01*
X130626707Y-111581046D01*
X130626707Y-110081046D01*
G37*
D10*
%TO.C,JP3*%
G36*
X154299999Y-114425000D02*
G01*
X153999999Y-114425000D01*
X153999999Y-112925000D01*
X154299999Y-112925000D01*
X154299999Y-114425000D01*
G37*
%TO.C,JP4*%
G36*
X159600001Y-113825000D02*
G01*
X158100001Y-113825000D01*
X158100001Y-113525000D01*
X159600001Y-113525000D01*
X159600001Y-113825000D01*
G37*
%TD*%
D11*
%TO.C,C4*%
X140550000Y-99175000D03*
X142450000Y-99175000D03*
%TD*%
D12*
%TO.C,F1*%
X129100000Y-105175000D03*
X131900000Y-105175000D03*
%TD*%
D13*
%TO.C,C2*%
X138775000Y-101175000D03*
X137225000Y-101175000D03*
%TD*%
D14*
%TO.C,U3*%
X145500000Y-101400000D03*
X144550001Y-101400000D03*
X143600002Y-101400000D03*
X143600002Y-103675000D03*
X145500000Y-103675000D03*
%TD*%
D15*
%TO.C,H3*%
X124226707Y-110831046D03*
%TD*%
D16*
%TO.C,J5*%
X132730000Y-122407500D03*
X135270000Y-122407500D03*
D17*
X132730000Y-119867500D03*
D18*
X135270000Y-119867500D03*
%TD*%
D19*
%TO.C,C8*%
X158225000Y-108675000D03*
X159775000Y-108675000D03*
%TD*%
D20*
%TO.C,U5*%
X148750000Y-109637501D03*
X149250000Y-109637500D03*
X149750000Y-109637500D03*
X150250000Y-109637500D03*
X150750000Y-109637500D03*
X151250000Y-109637501D03*
D21*
X151962501Y-108925000D03*
X151962500Y-108425000D03*
X151962500Y-107925000D03*
X151962500Y-107425000D03*
X151962500Y-106925000D03*
X151962501Y-106425000D03*
D20*
X151250000Y-105712499D03*
X150750000Y-105712500D03*
X150250000Y-105712500D03*
X149750000Y-105712500D03*
X149250000Y-105712500D03*
X148750000Y-105712499D03*
D21*
X148037499Y-106425000D03*
X148037500Y-106925000D03*
X148037500Y-107425000D03*
X148037500Y-107925000D03*
X148037500Y-108425000D03*
X148037499Y-108925000D03*
D22*
X150000000Y-107675000D03*
%TD*%
D23*
%TO.C,J3*%
X134166226Y-92856351D03*
D24*
X132752012Y-94270565D03*
%TD*%
D25*
%TO.C,J2*%
X152266707Y-119831046D03*
D26*
X149726707Y-119831046D03*
X147186708Y-119831046D03*
%TD*%
D27*
%TO.C,J1*%
X126850000Y-99075000D03*
X126850000Y-99925000D03*
X126850000Y-100775001D03*
X126850000Y-101625000D03*
X126850000Y-102475000D03*
X126850000Y-103325000D03*
X126850000Y-104175001D03*
X126850000Y-105025000D03*
X125500000Y-105025000D03*
X125500000Y-104175000D03*
X125500000Y-103325000D03*
X125500000Y-102475000D03*
X125500000Y-101625000D03*
X125500000Y-100775000D03*
X125500000Y-99925000D03*
X125500000Y-99075000D03*
D28*
X125870000Y-97725000D03*
D29*
X122490000Y-97725000D03*
D28*
X125870000Y-106375000D03*
D29*
X122490000Y-106375000D03*
%TD*%
D30*
%TO.C,SW_MAIN1*%
X175220000Y-104825000D03*
X177430000Y-104825000D03*
D31*
X176330000Y-102675000D03*
X176330000Y-99675000D03*
D30*
X175220000Y-97525000D03*
X177430000Y-97525000D03*
D32*
X174570000Y-103425000D03*
X174570000Y-100425000D03*
X174570000Y-98925000D03*
%TD*%
D33*
%TO.C,R3*%
X129310070Y-95914409D03*
X128143344Y-94747683D03*
%TD*%
D34*
%TO.C,C5*%
X142685063Y-107410170D03*
X142685063Y-105510172D03*
%TD*%
D35*
%TO.C,JP1*%
X130126707Y-110831046D03*
X131426707Y-110831046D03*
X132726707Y-110831046D03*
%TD*%
D36*
%TO.C,U6*%
X137000000Y-103775000D03*
X137000000Y-104725000D03*
X137000000Y-105675000D03*
X139275000Y-105675000D03*
X139275000Y-104725000D03*
X139275000Y-103775000D03*
%TD*%
D37*
%TO.C,U4*%
X142762500Y-81527007D03*
X142762500Y-82626907D03*
X142762500Y-83726907D03*
X142762500Y-84827007D03*
X142762500Y-85926807D03*
X142762500Y-87026907D03*
X142762500Y-88127007D03*
X142762500Y-89226807D03*
X142762500Y-90326907D03*
X142762500Y-91426907D03*
X142762500Y-92527007D03*
X142762500Y-93626807D03*
X142762500Y-94726907D03*
D38*
X144262600Y-95726907D03*
X145362400Y-95726907D03*
X146462500Y-95726907D03*
X147562600Y-95726907D03*
X151962600Y-95726907D03*
X153062500Y-95726907D03*
X154162500Y-95726907D03*
X155262600Y-95726907D03*
D37*
X156762500Y-94726907D03*
X156762500Y-93626807D03*
X156762500Y-92527007D03*
X156762500Y-91426907D03*
X156762500Y-90326907D03*
X156762500Y-89226807D03*
X156762500Y-88127007D03*
X156762500Y-87026907D03*
X156762500Y-85926807D03*
X156762500Y-84827007D03*
X156762500Y-83726907D03*
X156762500Y-82626907D03*
X156762500Y-81527007D03*
%TD*%
D35*
%TO.C,JP3*%
X154799998Y-113675000D03*
X153500000Y-113675000D03*
%TD*%
D15*
%TO.C,H4*%
X175226707Y-110831046D03*
%TD*%
D39*
%TO.C,D_USER1*%
X158212499Y-119675000D03*
X159787501Y-119675000D03*
%TD*%
D40*
%TO.C,U2*%
X135450000Y-100425000D03*
X135450000Y-99925000D03*
X135450000Y-99425000D03*
X135450000Y-98925000D03*
X132550000Y-98925000D03*
X132550000Y-99425000D03*
X132550000Y-99925000D03*
X132550000Y-100425000D03*
D41*
X134000000Y-99675000D03*
%TD*%
D15*
%TO.C,H1*%
X136226707Y-85831046D03*
%TD*%
D42*
%TO.C,JP4*%
X158850001Y-114324999D03*
X158850001Y-113025001D03*
%TD*%
D15*
%TO.C,H2*%
X163226707Y-85831046D03*
%TD*%
D43*
%TO.C,D_CHG1*%
X124613013Y-93944740D03*
X125726707Y-92831046D03*
%TD*%
D44*
%TO.C,C1*%
X132949999Y-107675000D03*
X131050001Y-107675000D03*
%TD*%
D16*
%TO.C,J6*%
X164230000Y-122407500D03*
X166770000Y-122407500D03*
D17*
X164230000Y-119867500D03*
D18*
X166770000Y-119867500D03*
%TD*%
D19*
%TO.C,C10*%
X144725000Y-109675000D03*
X146275000Y-109675000D03*
%TD*%
D45*
%TO.C,R4*%
X150325000Y-116675000D03*
X148675000Y-116675000D03*
%TD*%
D46*
%TO.C,J7*%
X168111846Y-88786846D03*
D26*
X169907897Y-90582897D03*
X171703948Y-92378948D03*
X173500000Y-94175000D03*
%TD*%
D25*
%TO.C,J4*%
X140460000Y-113675000D03*
D26*
X143000000Y-113675000D03*
X145539999Y-113675000D03*
X148080000Y-113675000D03*
%TD*%
D47*
%TO.C,R8*%
X132175000Y-103175000D03*
X133825000Y-103175000D03*
%TD*%
D11*
%TO.C,C3*%
X137050000Y-96175000D03*
X138950000Y-96175000D03*
%TD*%
D47*
%TO.C,R5*%
X155175000Y-117675000D03*
X156825000Y-117675000D03*
%TD*%
M02*
