%TF.GenerationSoftware,KiCad,Pcbnew,9.0.5*%
%TF.CreationDate,2025-10-31T19:38:18+05:30*%
%TF.ProjectId,MoistureSensor,4d6f6973-7475-4726-9553-656e736f722e,rev?*%
%TF.SameCoordinates,Original*%
%TF.FileFunction,Legend,Top*%
%TF.FilePolarity,Positive*%
%FSLAX46Y46*%
G04 Gerber Fmt 4.6, Leading zero omitted, Abs format (unit mm)*
G04 Created by KiCad (PCBNEW 9.0.5) date 2025-10-31 19:38:18*
%MOMM*%
%LPD*%
G01*
G04 APERTURE LIST*
%ADD10C,0.080000*%
%ADD11C,0.100000*%
%ADD12C,0.150000*%
%ADD13C,0.120000*%
%ADD14C,0.254000*%
G04 APERTURE END LIST*
D10*
X167484968Y-91648351D02*
X167538842Y-91756101D01*
X167538842Y-91756101D02*
X167673529Y-91890788D01*
X167673529Y-91890788D02*
X167754342Y-91917725D01*
X167754342Y-91917725D02*
X167808216Y-91917725D01*
X167808216Y-91917725D02*
X167889029Y-91890788D01*
X167889029Y-91890788D02*
X167942903Y-91836913D01*
X167942903Y-91836913D02*
X167969841Y-91756101D01*
X167969841Y-91756101D02*
X167969841Y-91702226D01*
X167969841Y-91702226D02*
X167942903Y-91621414D01*
X167942903Y-91621414D02*
X167862091Y-91486727D01*
X167862091Y-91486727D02*
X167835154Y-91405915D01*
X167835154Y-91405915D02*
X167835154Y-91352040D01*
X167835154Y-91352040D02*
X167862091Y-91271228D01*
X167862091Y-91271228D02*
X167915966Y-91217353D01*
X167915966Y-91217353D02*
X167996778Y-91190415D01*
X167996778Y-91190415D02*
X168050653Y-91190415D01*
X168050653Y-91190415D02*
X168131465Y-91217353D01*
X168131465Y-91217353D02*
X168266152Y-91352040D01*
X168266152Y-91352040D02*
X168320027Y-91459789D01*
X168400839Y-92510348D02*
X168346965Y-92510348D01*
X168346965Y-92510348D02*
X168239215Y-92456473D01*
X168239215Y-92456473D02*
X168185340Y-92402599D01*
X168185340Y-92402599D02*
X168131465Y-92294849D01*
X168131465Y-92294849D02*
X168131465Y-92187099D01*
X168131465Y-92187099D02*
X168158403Y-92106287D01*
X168158403Y-92106287D02*
X168239215Y-91971600D01*
X168239215Y-91971600D02*
X168320027Y-91890788D01*
X168320027Y-91890788D02*
X168454714Y-91809976D01*
X168454714Y-91809976D02*
X168535526Y-91783038D01*
X168535526Y-91783038D02*
X168643276Y-91783038D01*
X168643276Y-91783038D02*
X168751026Y-91836913D01*
X168751026Y-91836913D02*
X168804900Y-91890788D01*
X168804900Y-91890788D02*
X168858775Y-91998538D01*
X168858775Y-91998538D02*
X168858775Y-92052412D01*
X168858775Y-93076034D02*
X168589401Y-92806660D01*
X168589401Y-92806660D02*
X169155087Y-92240974D01*
D11*
X138372419Y-120865476D02*
X137896228Y-121198809D01*
X138372419Y-121436904D02*
X137372419Y-121436904D01*
X137372419Y-121436904D02*
X137372419Y-121055952D01*
X137372419Y-121055952D02*
X137420038Y-120960714D01*
X137420038Y-120960714D02*
X137467657Y-120913095D01*
X137467657Y-120913095D02*
X137562895Y-120865476D01*
X137562895Y-120865476D02*
X137705752Y-120865476D01*
X137705752Y-120865476D02*
X137800990Y-120913095D01*
X137800990Y-120913095D02*
X137848609Y-120960714D01*
X137848609Y-120960714D02*
X137896228Y-121055952D01*
X137896228Y-121055952D02*
X137896228Y-121436904D01*
X137372419Y-120579761D02*
X137372419Y-120008333D01*
X138372419Y-120294047D02*
X137372419Y-120294047D01*
X138372419Y-119674999D02*
X137372419Y-119674999D01*
X137372419Y-119674999D02*
X137372419Y-119436904D01*
X137372419Y-119436904D02*
X137420038Y-119294047D01*
X137420038Y-119294047D02*
X137515276Y-119198809D01*
X137515276Y-119198809D02*
X137610514Y-119151190D01*
X137610514Y-119151190D02*
X137800990Y-119103571D01*
X137800990Y-119103571D02*
X137943847Y-119103571D01*
X137943847Y-119103571D02*
X138134323Y-119151190D01*
X138134323Y-119151190D02*
X138229561Y-119198809D01*
X138229561Y-119198809D02*
X138324800Y-119294047D01*
X138324800Y-119294047D02*
X138372419Y-119436904D01*
X138372419Y-119436904D02*
X138372419Y-119674999D01*
X137991466Y-118674999D02*
X137991466Y-117913095D01*
X138372419Y-118294047D02*
X137610514Y-118294047D01*
X129773930Y-109099709D02*
X129440597Y-109099709D01*
X129440597Y-109623519D02*
X129440597Y-108623519D01*
X129440597Y-108623519D02*
X129916787Y-108623519D01*
X130297740Y-109242566D02*
X131059645Y-109242566D01*
X130678692Y-109623519D02*
X130678692Y-108861614D01*
X174814133Y-96769073D02*
X174107026Y-96061966D01*
X174373706Y-95776430D02*
X174373706Y-95722555D01*
X174373706Y-95722555D02*
X174400643Y-95641743D01*
X174400643Y-95641743D02*
X174535330Y-95507056D01*
X174535330Y-95507056D02*
X174616142Y-95480118D01*
X174616142Y-95480118D02*
X174670017Y-95480118D01*
X174670017Y-95480118D02*
X174750829Y-95507056D01*
X174750829Y-95507056D02*
X174804704Y-95560930D01*
X174804704Y-95560930D02*
X174858579Y-95668680D01*
X174858579Y-95668680D02*
X174858579Y-96315178D01*
X174858579Y-96315178D02*
X175208765Y-95964991D01*
X176026316Y-95422203D02*
X176026316Y-95489546D01*
X176026316Y-95489546D02*
X175958972Y-95624233D01*
X175958972Y-95624233D02*
X175891629Y-95691577D01*
X175891629Y-95691577D02*
X175756942Y-95758920D01*
X175756942Y-95758920D02*
X175622255Y-95758920D01*
X175622255Y-95758920D02*
X175521239Y-95725248D01*
X175521239Y-95725248D02*
X175352881Y-95624233D01*
X175352881Y-95624233D02*
X175251865Y-95523218D01*
X175251865Y-95523218D02*
X175150850Y-95354859D01*
X175150850Y-95354859D02*
X175117178Y-95253844D01*
X175117178Y-95253844D02*
X175117178Y-95119157D01*
X175117178Y-95119157D02*
X175184522Y-94984470D01*
X175184522Y-94984470D02*
X175251865Y-94917126D01*
X175251865Y-94917126D02*
X175386552Y-94849783D01*
X175386552Y-94849783D02*
X175453896Y-94849783D01*
D10*
X144680953Y-112040935D02*
X144680953Y-111240935D01*
X144680953Y-111240935D02*
X144871429Y-111240935D01*
X144871429Y-111240935D02*
X144985715Y-111279030D01*
X144985715Y-111279030D02*
X145061905Y-111355220D01*
X145061905Y-111355220D02*
X145100000Y-111431411D01*
X145100000Y-111431411D02*
X145138096Y-111583792D01*
X145138096Y-111583792D02*
X145138096Y-111698078D01*
X145138096Y-111698078D02*
X145100000Y-111850459D01*
X145100000Y-111850459D02*
X145061905Y-111926649D01*
X145061905Y-111926649D02*
X144985715Y-112002840D01*
X144985715Y-112002840D02*
X144871429Y-112040935D01*
X144871429Y-112040935D02*
X144680953Y-112040935D01*
X145480953Y-112040935D02*
X145480953Y-111240935D01*
X146014286Y-111240935D02*
X146166667Y-111240935D01*
X146166667Y-111240935D02*
X146242857Y-111279030D01*
X146242857Y-111279030D02*
X146319048Y-111355220D01*
X146319048Y-111355220D02*
X146357143Y-111507601D01*
X146357143Y-111507601D02*
X146357143Y-111774268D01*
X146357143Y-111774268D02*
X146319048Y-111926649D01*
X146319048Y-111926649D02*
X146242857Y-112002840D01*
X146242857Y-112002840D02*
X146166667Y-112040935D01*
X146166667Y-112040935D02*
X146014286Y-112040935D01*
X146014286Y-112040935D02*
X145938095Y-112002840D01*
X145938095Y-112002840D02*
X145861905Y-111926649D01*
X145861905Y-111926649D02*
X145823809Y-111774268D01*
X145823809Y-111774268D02*
X145823809Y-111507601D01*
X145823809Y-111507601D02*
X145861905Y-111355220D01*
X145861905Y-111355220D02*
X145938095Y-111279030D01*
X145938095Y-111279030D02*
X146014286Y-111240935D01*
X142302977Y-111296530D02*
X142226787Y-111258435D01*
X142226787Y-111258435D02*
X142112501Y-111258435D01*
X142112501Y-111258435D02*
X141998215Y-111296530D01*
X141998215Y-111296530D02*
X141922025Y-111372720D01*
X141922025Y-111372720D02*
X141883930Y-111448911D01*
X141883930Y-111448911D02*
X141845834Y-111601292D01*
X141845834Y-111601292D02*
X141845834Y-111715578D01*
X141845834Y-111715578D02*
X141883930Y-111867959D01*
X141883930Y-111867959D02*
X141922025Y-111944149D01*
X141922025Y-111944149D02*
X141998215Y-112020340D01*
X141998215Y-112020340D02*
X142112501Y-112058435D01*
X142112501Y-112058435D02*
X142188692Y-112058435D01*
X142188692Y-112058435D02*
X142302977Y-112020340D01*
X142302977Y-112020340D02*
X142341073Y-111982244D01*
X142341073Y-111982244D02*
X142341073Y-111715578D01*
X142341073Y-111715578D02*
X142188692Y-111715578D01*
X142683930Y-112058435D02*
X142683930Y-111258435D01*
X142683930Y-111258435D02*
X143141073Y-112058435D01*
X143141073Y-112058435D02*
X143141073Y-111258435D01*
X143522025Y-112058435D02*
X143522025Y-111258435D01*
X143522025Y-111258435D02*
X143712501Y-111258435D01*
X143712501Y-111258435D02*
X143826787Y-111296530D01*
X143826787Y-111296530D02*
X143902977Y-111372720D01*
X143902977Y-111372720D02*
X143941072Y-111448911D01*
X143941072Y-111448911D02*
X143979168Y-111601292D01*
X143979168Y-111601292D02*
X143979168Y-111715578D01*
X143979168Y-111715578D02*
X143941072Y-111867959D01*
X143941072Y-111867959D02*
X143902977Y-111944149D01*
X143902977Y-111944149D02*
X143826787Y-112020340D01*
X143826787Y-112020340D02*
X143712501Y-112058435D01*
X143712501Y-112058435D02*
X143522025Y-112058435D01*
X148736230Y-117428981D02*
X149231468Y-117428981D01*
X149231468Y-117428981D02*
X148964802Y-117733743D01*
X148964802Y-117733743D02*
X149079087Y-117733743D01*
X149079087Y-117733743D02*
X149155278Y-117771838D01*
X149155278Y-117771838D02*
X149193373Y-117809933D01*
X149193373Y-117809933D02*
X149231468Y-117886124D01*
X149231468Y-117886124D02*
X149231468Y-118076600D01*
X149231468Y-118076600D02*
X149193373Y-118152790D01*
X149193373Y-118152790D02*
X149155278Y-118190886D01*
X149155278Y-118190886D02*
X149079087Y-118228981D01*
X149079087Y-118228981D02*
X148850516Y-118228981D01*
X148850516Y-118228981D02*
X148774325Y-118190886D01*
X148774325Y-118190886D02*
X148736230Y-118152790D01*
X149460040Y-117428981D02*
X149726707Y-118228981D01*
X149726707Y-118228981D02*
X149993373Y-117428981D01*
X150183849Y-117428981D02*
X150679087Y-117428981D01*
X150679087Y-117428981D02*
X150412421Y-117733743D01*
X150412421Y-117733743D02*
X150526706Y-117733743D01*
X150526706Y-117733743D02*
X150602897Y-117771838D01*
X150602897Y-117771838D02*
X150640992Y-117809933D01*
X150640992Y-117809933D02*
X150679087Y-117886124D01*
X150679087Y-117886124D02*
X150679087Y-118076600D01*
X150679087Y-118076600D02*
X150640992Y-118152790D01*
X150640992Y-118152790D02*
X150602897Y-118190886D01*
X150602897Y-118190886D02*
X150526706Y-118228981D01*
X150526706Y-118228981D02*
X150298135Y-118228981D01*
X150298135Y-118228981D02*
X150221944Y-118190886D01*
X150221944Y-118190886D02*
X150183849Y-118152790D01*
D11*
X141261904Y-115632419D02*
X141261904Y-116346704D01*
X141261904Y-116346704D02*
X141214285Y-116489561D01*
X141214285Y-116489561D02*
X141119047Y-116584800D01*
X141119047Y-116584800D02*
X140976190Y-116632419D01*
X140976190Y-116632419D02*
X140880952Y-116632419D01*
X141595238Y-115632419D02*
X142166666Y-115632419D01*
X141880952Y-116632419D02*
X141880952Y-115632419D01*
X142452381Y-116346704D02*
X142928571Y-116346704D01*
X142357143Y-116632419D02*
X142690476Y-115632419D01*
X142690476Y-115632419D02*
X143023809Y-116632419D01*
X143880952Y-115680038D02*
X143785714Y-115632419D01*
X143785714Y-115632419D02*
X143642857Y-115632419D01*
X143642857Y-115632419D02*
X143500000Y-115680038D01*
X143500000Y-115680038D02*
X143404762Y-115775276D01*
X143404762Y-115775276D02*
X143357143Y-115870514D01*
X143357143Y-115870514D02*
X143309524Y-116060990D01*
X143309524Y-116060990D02*
X143309524Y-116203847D01*
X143309524Y-116203847D02*
X143357143Y-116394323D01*
X143357143Y-116394323D02*
X143404762Y-116489561D01*
X143404762Y-116489561D02*
X143500000Y-116584800D01*
X143500000Y-116584800D02*
X143642857Y-116632419D01*
X143642857Y-116632419D02*
X143738095Y-116632419D01*
X143738095Y-116632419D02*
X143880952Y-116584800D01*
X143880952Y-116584800D02*
X143928571Y-116537180D01*
X143928571Y-116537180D02*
X143928571Y-116203847D01*
X143928571Y-116203847D02*
X143738095Y-116203847D01*
X145071428Y-115584800D02*
X144214286Y-116870514D01*
X145357143Y-116584800D02*
X145500000Y-116632419D01*
X145500000Y-116632419D02*
X145738095Y-116632419D01*
X145738095Y-116632419D02*
X145833333Y-116584800D01*
X145833333Y-116584800D02*
X145880952Y-116537180D01*
X145880952Y-116537180D02*
X145928571Y-116441942D01*
X145928571Y-116441942D02*
X145928571Y-116346704D01*
X145928571Y-116346704D02*
X145880952Y-116251466D01*
X145880952Y-116251466D02*
X145833333Y-116203847D01*
X145833333Y-116203847D02*
X145738095Y-116156228D01*
X145738095Y-116156228D02*
X145547619Y-116108609D01*
X145547619Y-116108609D02*
X145452381Y-116060990D01*
X145452381Y-116060990D02*
X145404762Y-116013371D01*
X145404762Y-116013371D02*
X145357143Y-115918133D01*
X145357143Y-115918133D02*
X145357143Y-115822895D01*
X145357143Y-115822895D02*
X145404762Y-115727657D01*
X145404762Y-115727657D02*
X145452381Y-115680038D01*
X145452381Y-115680038D02*
X145547619Y-115632419D01*
X145547619Y-115632419D02*
X145785714Y-115632419D01*
X145785714Y-115632419D02*
X145928571Y-115680038D01*
X146690476Y-116108609D02*
X146833333Y-116156228D01*
X146833333Y-116156228D02*
X146880952Y-116203847D01*
X146880952Y-116203847D02*
X146928571Y-116299085D01*
X146928571Y-116299085D02*
X146928571Y-116441942D01*
X146928571Y-116441942D02*
X146880952Y-116537180D01*
X146880952Y-116537180D02*
X146833333Y-116584800D01*
X146833333Y-116584800D02*
X146738095Y-116632419D01*
X146738095Y-116632419D02*
X146357143Y-116632419D01*
X146357143Y-116632419D02*
X146357143Y-115632419D01*
X146357143Y-115632419D02*
X146690476Y-115632419D01*
X146690476Y-115632419D02*
X146785714Y-115680038D01*
X146785714Y-115680038D02*
X146833333Y-115727657D01*
X146833333Y-115727657D02*
X146880952Y-115822895D01*
X146880952Y-115822895D02*
X146880952Y-115918133D01*
X146880952Y-115918133D02*
X146833333Y-116013371D01*
X146833333Y-116013371D02*
X146785714Y-116060990D01*
X146785714Y-116060990D02*
X146690476Y-116108609D01*
X146690476Y-116108609D02*
X146357143Y-116108609D01*
X147261905Y-115632419D02*
X147500000Y-116632419D01*
X147500000Y-116632419D02*
X147690476Y-115918133D01*
X147690476Y-115918133D02*
X147880952Y-116632419D01*
X147880952Y-116632419D02*
X148119048Y-115632419D01*
D10*
X165613559Y-89893704D02*
X165667434Y-90001454D01*
X165667434Y-90001454D02*
X165802121Y-90136141D01*
X165802121Y-90136141D02*
X165882933Y-90163078D01*
X165882933Y-90163078D02*
X165936808Y-90163078D01*
X165936808Y-90163078D02*
X166017620Y-90136141D01*
X166017620Y-90136141D02*
X166071495Y-90082266D01*
X166071495Y-90082266D02*
X166098432Y-90001454D01*
X166098432Y-90001454D02*
X166098432Y-89947579D01*
X166098432Y-89947579D02*
X166071495Y-89866767D01*
X166071495Y-89866767D02*
X165990683Y-89732080D01*
X165990683Y-89732080D02*
X165963745Y-89651267D01*
X165963745Y-89651267D02*
X165963745Y-89597393D01*
X165963745Y-89597393D02*
X165990683Y-89516580D01*
X165990683Y-89516580D02*
X166044558Y-89462706D01*
X166044558Y-89462706D02*
X166125370Y-89435768D01*
X166125370Y-89435768D02*
X166179245Y-89435768D01*
X166179245Y-89435768D02*
X166260057Y-89462706D01*
X166260057Y-89462706D02*
X166394744Y-89597393D01*
X166394744Y-89597393D02*
X166448619Y-89705142D01*
X166152307Y-90486327D02*
X166717993Y-89920642D01*
X166717993Y-89920642D02*
X166852680Y-90055329D01*
X166852680Y-90055329D02*
X166906555Y-90163078D01*
X166906555Y-90163078D02*
X166906555Y-90270828D01*
X166906555Y-90270828D02*
X166879617Y-90351640D01*
X166879617Y-90351640D02*
X166798805Y-90486327D01*
X166798805Y-90486327D02*
X166717993Y-90567139D01*
X166717993Y-90567139D02*
X166583306Y-90647951D01*
X166583306Y-90647951D02*
X166502494Y-90674889D01*
X166502494Y-90674889D02*
X166394744Y-90674889D01*
X166394744Y-90674889D02*
X166286994Y-90621014D01*
X166286994Y-90621014D02*
X166152307Y-90486327D01*
X166852680Y-90863451D02*
X167122054Y-91132825D01*
X166637181Y-90971200D02*
X167391428Y-90594077D01*
X167391428Y-90594077D02*
X167014304Y-91348324D01*
D11*
X129848609Y-120151190D02*
X129848609Y-120484523D01*
X130372419Y-120484523D02*
X129372419Y-120484523D01*
X129372419Y-120484523D02*
X129372419Y-120008333D01*
X129991466Y-119627380D02*
X129991466Y-118865476D01*
X130372419Y-119246428D02*
X129610514Y-119246428D01*
X162240481Y-120889022D02*
X161764290Y-121222355D01*
X162240481Y-121460450D02*
X161240481Y-121460450D01*
X161240481Y-121460450D02*
X161240481Y-121079498D01*
X161240481Y-121079498D02*
X161288100Y-120984260D01*
X161288100Y-120984260D02*
X161335719Y-120936641D01*
X161335719Y-120936641D02*
X161430957Y-120889022D01*
X161430957Y-120889022D02*
X161573814Y-120889022D01*
X161573814Y-120889022D02*
X161669052Y-120936641D01*
X161669052Y-120936641D02*
X161716671Y-120984260D01*
X161716671Y-120984260D02*
X161764290Y-121079498D01*
X161764290Y-121079498D02*
X161764290Y-121460450D01*
X161240481Y-120603307D02*
X161240481Y-120031879D01*
X162240481Y-120317593D02*
X161240481Y-120317593D01*
X162240481Y-119698545D02*
X161240481Y-119698545D01*
X161240481Y-119698545D02*
X161240481Y-119460450D01*
X161240481Y-119460450D02*
X161288100Y-119317593D01*
X161288100Y-119317593D02*
X161383338Y-119222355D01*
X161383338Y-119222355D02*
X161478576Y-119174736D01*
X161478576Y-119174736D02*
X161669052Y-119127117D01*
X161669052Y-119127117D02*
X161811909Y-119127117D01*
X161811909Y-119127117D02*
X162002385Y-119174736D01*
X162002385Y-119174736D02*
X162097623Y-119222355D01*
X162097623Y-119222355D02*
X162192862Y-119317593D01*
X162192862Y-119317593D02*
X162240481Y-119460450D01*
X162240481Y-119460450D02*
X162240481Y-119698545D01*
X161859528Y-118698545D02*
X161859528Y-117936641D01*
D10*
X146655278Y-118000409D02*
X147036231Y-118000409D01*
X146579088Y-118228981D02*
X146845755Y-117428981D01*
X146845755Y-117428981D02*
X147112421Y-118228981D01*
X147531469Y-117428981D02*
X147607659Y-117428981D01*
X147607659Y-117428981D02*
X147683850Y-117467076D01*
X147683850Y-117467076D02*
X147721945Y-117505171D01*
X147721945Y-117505171D02*
X147760040Y-117581362D01*
X147760040Y-117581362D02*
X147798135Y-117733743D01*
X147798135Y-117733743D02*
X147798135Y-117924219D01*
X147798135Y-117924219D02*
X147760040Y-118076600D01*
X147760040Y-118076600D02*
X147721945Y-118152790D01*
X147721945Y-118152790D02*
X147683850Y-118190886D01*
X147683850Y-118190886D02*
X147607659Y-118228981D01*
X147607659Y-118228981D02*
X147531469Y-118228981D01*
X147531469Y-118228981D02*
X147455278Y-118190886D01*
X147455278Y-118190886D02*
X147417183Y-118152790D01*
X147417183Y-118152790D02*
X147379088Y-118076600D01*
X147379088Y-118076600D02*
X147340992Y-117924219D01*
X147340992Y-117924219D02*
X147340992Y-117733743D01*
X147340992Y-117733743D02*
X147379088Y-117581362D01*
X147379088Y-117581362D02*
X147417183Y-117505171D01*
X147417183Y-117505171D02*
X147455278Y-117467076D01*
X147455278Y-117467076D02*
X147531469Y-117428981D01*
D11*
X169348609Y-120151190D02*
X169348609Y-120484523D01*
X169872419Y-120484523D02*
X168872419Y-120484523D01*
X168872419Y-120484523D02*
X168872419Y-120008333D01*
X169491466Y-119627380D02*
X169491466Y-118865476D01*
D10*
X170081227Y-93196242D02*
X170054290Y-93115430D01*
X170054290Y-93115430D02*
X169973478Y-93034617D01*
X169973478Y-93034617D02*
X169865728Y-92980743D01*
X169865728Y-92980743D02*
X169757978Y-92980743D01*
X169757978Y-92980743D02*
X169677166Y-93007680D01*
X169677166Y-93007680D02*
X169542479Y-93088492D01*
X169542479Y-93088492D02*
X169461667Y-93169304D01*
X169461667Y-93169304D02*
X169380855Y-93303991D01*
X169380855Y-93303991D02*
X169353917Y-93384804D01*
X169353917Y-93384804D02*
X169353917Y-93492553D01*
X169353917Y-93492553D02*
X169407792Y-93600303D01*
X169407792Y-93600303D02*
X169461667Y-93654178D01*
X169461667Y-93654178D02*
X169569417Y-93708052D01*
X169569417Y-93708052D02*
X169623291Y-93708052D01*
X169623291Y-93708052D02*
X169811853Y-93519491D01*
X169811853Y-93519491D02*
X169704104Y-93411741D01*
X169811853Y-94004364D02*
X170377539Y-93438678D01*
X170377539Y-93438678D02*
X170135102Y-94327613D01*
X170135102Y-94327613D02*
X170700787Y-93761927D01*
X170404476Y-94596986D02*
X170970161Y-94031301D01*
X170970161Y-94031301D02*
X171104848Y-94165988D01*
X171104848Y-94165988D02*
X171158723Y-94273738D01*
X171158723Y-94273738D02*
X171158723Y-94381487D01*
X171158723Y-94381487D02*
X171131786Y-94462299D01*
X171131786Y-94462299D02*
X171050974Y-94596986D01*
X171050974Y-94596986D02*
X170970161Y-94677799D01*
X170970161Y-94677799D02*
X170835474Y-94758611D01*
X170835474Y-94758611D02*
X170754662Y-94785548D01*
X170754662Y-94785548D02*
X170646913Y-94785548D01*
X170646913Y-94785548D02*
X170539163Y-94731673D01*
X170539163Y-94731673D02*
X170404476Y-94596986D01*
X171606557Y-94667697D02*
X171956743Y-95017883D01*
X171956743Y-95017883D02*
X171552682Y-95044820D01*
X171552682Y-95044820D02*
X171633495Y-95125633D01*
X171633495Y-95125633D02*
X171660432Y-95206445D01*
X171660432Y-95206445D02*
X171660432Y-95260320D01*
X171660432Y-95260320D02*
X171633495Y-95341132D01*
X171633495Y-95341132D02*
X171498808Y-95475819D01*
X171498808Y-95475819D02*
X171417995Y-95502756D01*
X171417995Y-95502756D02*
X171364121Y-95502756D01*
X171364121Y-95502756D02*
X171283308Y-95475819D01*
X171283308Y-95475819D02*
X171121684Y-95314194D01*
X171121684Y-95314194D02*
X171094747Y-95233382D01*
X171094747Y-95233382D02*
X171094747Y-95179507D01*
X172118368Y-95179508D02*
X171741244Y-95933755D01*
X171741244Y-95933755D02*
X172495492Y-95556631D01*
X172630178Y-95691318D02*
X172980365Y-96041504D01*
X172980365Y-96041504D02*
X172576304Y-96068442D01*
X172576304Y-96068442D02*
X172657116Y-96149254D01*
X172657116Y-96149254D02*
X172684053Y-96230066D01*
X172684053Y-96230066D02*
X172684053Y-96283941D01*
X172684053Y-96283941D02*
X172657116Y-96364753D01*
X172657116Y-96364753D02*
X172522429Y-96499440D01*
X172522429Y-96499440D02*
X172441617Y-96526378D01*
X172441617Y-96526378D02*
X172387742Y-96526378D01*
X172387742Y-96526378D02*
X172306930Y-96499440D01*
X172306930Y-96499440D02*
X172145305Y-96337816D01*
X172145305Y-96337816D02*
X172118368Y-96257004D01*
X172118368Y-96257004D02*
X172118368Y-96203129D01*
X146971428Y-111240935D02*
X147428571Y-111240935D01*
X147199999Y-112040935D02*
X147199999Y-111240935D01*
X148152381Y-111964744D02*
X148114285Y-112002840D01*
X148114285Y-112002840D02*
X148000000Y-112040935D01*
X148000000Y-112040935D02*
X147923809Y-112040935D01*
X147923809Y-112040935D02*
X147809523Y-112002840D01*
X147809523Y-112002840D02*
X147733333Y-111926649D01*
X147733333Y-111926649D02*
X147695238Y-111850459D01*
X147695238Y-111850459D02*
X147657142Y-111698078D01*
X147657142Y-111698078D02*
X147657142Y-111583792D01*
X147657142Y-111583792D02*
X147695238Y-111431411D01*
X147695238Y-111431411D02*
X147733333Y-111355220D01*
X147733333Y-111355220D02*
X147809523Y-111279030D01*
X147809523Y-111279030D02*
X147923809Y-111240935D01*
X147923809Y-111240935D02*
X148000000Y-111240935D01*
X148000000Y-111240935D02*
X148114285Y-111279030D01*
X148114285Y-111279030D02*
X148152381Y-111317125D01*
X148495238Y-112040935D02*
X148495238Y-111240935D01*
X148952381Y-112040935D02*
X148609523Y-111583792D01*
X148952381Y-111240935D02*
X148495238Y-111698078D01*
X151617183Y-117467076D02*
X151540993Y-117428981D01*
X151540993Y-117428981D02*
X151426707Y-117428981D01*
X151426707Y-117428981D02*
X151312421Y-117467076D01*
X151312421Y-117467076D02*
X151236231Y-117543266D01*
X151236231Y-117543266D02*
X151198136Y-117619457D01*
X151198136Y-117619457D02*
X151160040Y-117771838D01*
X151160040Y-117771838D02*
X151160040Y-117886124D01*
X151160040Y-117886124D02*
X151198136Y-118038505D01*
X151198136Y-118038505D02*
X151236231Y-118114695D01*
X151236231Y-118114695D02*
X151312421Y-118190886D01*
X151312421Y-118190886D02*
X151426707Y-118228981D01*
X151426707Y-118228981D02*
X151502898Y-118228981D01*
X151502898Y-118228981D02*
X151617183Y-118190886D01*
X151617183Y-118190886D02*
X151655279Y-118152790D01*
X151655279Y-118152790D02*
X151655279Y-117886124D01*
X151655279Y-117886124D02*
X151502898Y-117886124D01*
X151998136Y-118228981D02*
X151998136Y-117428981D01*
X151998136Y-117428981D02*
X152455279Y-118228981D01*
X152455279Y-118228981D02*
X152455279Y-117428981D01*
X152836231Y-118228981D02*
X152836231Y-117428981D01*
X152836231Y-117428981D02*
X153026707Y-117428981D01*
X153026707Y-117428981D02*
X153140993Y-117467076D01*
X153140993Y-117467076D02*
X153217183Y-117543266D01*
X153217183Y-117543266D02*
X153255278Y-117619457D01*
X153255278Y-117619457D02*
X153293374Y-117771838D01*
X153293374Y-117771838D02*
X153293374Y-117886124D01*
X153293374Y-117886124D02*
X153255278Y-118038505D01*
X153255278Y-118038505D02*
X153217183Y-118114695D01*
X153217183Y-118114695D02*
X153140993Y-118190886D01*
X153140993Y-118190886D02*
X153026707Y-118228981D01*
X153026707Y-118228981D02*
X152836231Y-118228981D01*
X139377062Y-111340997D02*
X139872300Y-111340997D01*
X139872300Y-111340997D02*
X139605634Y-111645759D01*
X139605634Y-111645759D02*
X139719919Y-111645759D01*
X139719919Y-111645759D02*
X139796110Y-111683854D01*
X139796110Y-111683854D02*
X139834205Y-111721949D01*
X139834205Y-111721949D02*
X139872300Y-111798140D01*
X139872300Y-111798140D02*
X139872300Y-111988616D01*
X139872300Y-111988616D02*
X139834205Y-112064806D01*
X139834205Y-112064806D02*
X139796110Y-112102902D01*
X139796110Y-112102902D02*
X139719919Y-112140997D01*
X139719919Y-112140997D02*
X139491348Y-112140997D01*
X139491348Y-112140997D02*
X139415157Y-112102902D01*
X139415157Y-112102902D02*
X139377062Y-112064806D01*
X140100872Y-111340997D02*
X140367539Y-112140997D01*
X140367539Y-112140997D02*
X140634205Y-111340997D01*
X140824681Y-111340997D02*
X141319919Y-111340997D01*
X141319919Y-111340997D02*
X141053253Y-111645759D01*
X141053253Y-111645759D02*
X141167538Y-111645759D01*
X141167538Y-111645759D02*
X141243729Y-111683854D01*
X141243729Y-111683854D02*
X141281824Y-111721949D01*
X141281824Y-111721949D02*
X141319919Y-111798140D01*
X141319919Y-111798140D02*
X141319919Y-111988616D01*
X141319919Y-111988616D02*
X141281824Y-112064806D01*
X141281824Y-112064806D02*
X141243729Y-112102902D01*
X141243729Y-112102902D02*
X141167538Y-112140997D01*
X141167538Y-112140997D02*
X140938967Y-112140997D01*
X140938967Y-112140997D02*
X140862776Y-112102902D01*
X140862776Y-112102902D02*
X140824681Y-112064806D01*
D11*
X132015577Y-108683857D02*
X131920339Y-108636238D01*
X131920339Y-108636238D02*
X131777482Y-108636238D01*
X131777482Y-108636238D02*
X131634625Y-108683857D01*
X131634625Y-108683857D02*
X131539387Y-108779095D01*
X131539387Y-108779095D02*
X131491768Y-108874333D01*
X131491768Y-108874333D02*
X131444149Y-109064809D01*
X131444149Y-109064809D02*
X131444149Y-109207666D01*
X131444149Y-109207666D02*
X131491768Y-109398142D01*
X131491768Y-109398142D02*
X131539387Y-109493380D01*
X131539387Y-109493380D02*
X131634625Y-109588619D01*
X131634625Y-109588619D02*
X131777482Y-109636238D01*
X131777482Y-109636238D02*
X131872720Y-109636238D01*
X131872720Y-109636238D02*
X132015577Y-109588619D01*
X132015577Y-109588619D02*
X132063196Y-109540999D01*
X132063196Y-109540999D02*
X132063196Y-109207666D01*
X132063196Y-109207666D02*
X131872720Y-109207666D01*
X132491768Y-109636238D02*
X132491768Y-108636238D01*
X132491768Y-108636238D02*
X133063196Y-109636238D01*
X133063196Y-109636238D02*
X133063196Y-108636238D01*
X133539387Y-109636238D02*
X133539387Y-108636238D01*
X133539387Y-108636238D02*
X133777482Y-108636238D01*
X133777482Y-108636238D02*
X133920339Y-108683857D01*
X133920339Y-108683857D02*
X134015577Y-108779095D01*
X134015577Y-108779095D02*
X134063196Y-108874333D01*
X134063196Y-108874333D02*
X134110815Y-109064809D01*
X134110815Y-109064809D02*
X134110815Y-109207666D01*
X134110815Y-109207666D02*
X134063196Y-109398142D01*
X134063196Y-109398142D02*
X134015577Y-109493380D01*
X134015577Y-109493380D02*
X133920339Y-109588619D01*
X133920339Y-109588619D02*
X133777482Y-109636238D01*
X133777482Y-109636238D02*
X133539387Y-109636238D01*
D10*
X138866667Y-99464744D02*
X138828571Y-99502840D01*
X138828571Y-99502840D02*
X138714286Y-99540935D01*
X138714286Y-99540935D02*
X138638095Y-99540935D01*
X138638095Y-99540935D02*
X138523809Y-99502840D01*
X138523809Y-99502840D02*
X138447619Y-99426649D01*
X138447619Y-99426649D02*
X138409524Y-99350459D01*
X138409524Y-99350459D02*
X138371428Y-99198078D01*
X138371428Y-99198078D02*
X138371428Y-99083792D01*
X138371428Y-99083792D02*
X138409524Y-98931411D01*
X138409524Y-98931411D02*
X138447619Y-98855220D01*
X138447619Y-98855220D02*
X138523809Y-98779030D01*
X138523809Y-98779030D02*
X138638095Y-98740935D01*
X138638095Y-98740935D02*
X138714286Y-98740935D01*
X138714286Y-98740935D02*
X138828571Y-98779030D01*
X138828571Y-98779030D02*
X138866667Y-98817125D01*
X139552381Y-99007601D02*
X139552381Y-99540935D01*
X139361905Y-98702840D02*
X139171428Y-99274268D01*
X139171428Y-99274268D02*
X139666667Y-99274268D01*
X130233333Y-103291887D02*
X129966667Y-103291887D01*
X129966667Y-103710935D02*
X129966667Y-102910935D01*
X129966667Y-102910935D02*
X130347619Y-102910935D01*
X131071428Y-103710935D02*
X130614285Y-103710935D01*
X130842857Y-103710935D02*
X130842857Y-102910935D01*
X130842857Y-102910935D02*
X130766666Y-103025220D01*
X130766666Y-103025220D02*
X130690476Y-103101411D01*
X130690476Y-103101411D02*
X130614285Y-103139506D01*
X140366667Y-101464744D02*
X140328571Y-101502840D01*
X140328571Y-101502840D02*
X140214286Y-101540935D01*
X140214286Y-101540935D02*
X140138095Y-101540935D01*
X140138095Y-101540935D02*
X140023809Y-101502840D01*
X140023809Y-101502840D02*
X139947619Y-101426649D01*
X139947619Y-101426649D02*
X139909524Y-101350459D01*
X139909524Y-101350459D02*
X139871428Y-101198078D01*
X139871428Y-101198078D02*
X139871428Y-101083792D01*
X139871428Y-101083792D02*
X139909524Y-100931411D01*
X139909524Y-100931411D02*
X139947619Y-100855220D01*
X139947619Y-100855220D02*
X140023809Y-100779030D01*
X140023809Y-100779030D02*
X140138095Y-100740935D01*
X140138095Y-100740935D02*
X140214286Y-100740935D01*
X140214286Y-100740935D02*
X140328571Y-100779030D01*
X140328571Y-100779030D02*
X140366667Y-100817125D01*
X140671428Y-100817125D02*
X140709524Y-100779030D01*
X140709524Y-100779030D02*
X140785714Y-100740935D01*
X140785714Y-100740935D02*
X140976190Y-100740935D01*
X140976190Y-100740935D02*
X141052381Y-100779030D01*
X141052381Y-100779030D02*
X141090476Y-100817125D01*
X141090476Y-100817125D02*
X141128571Y-100893316D01*
X141128571Y-100893316D02*
X141128571Y-100969506D01*
X141128571Y-100969506D02*
X141090476Y-101083792D01*
X141090476Y-101083792D02*
X140633333Y-101540935D01*
X140633333Y-101540935D02*
X141128571Y-101540935D01*
X146515936Y-103147023D02*
X147163555Y-103147023D01*
X147163555Y-103147023D02*
X147239745Y-103108928D01*
X147239745Y-103108928D02*
X147277841Y-103070833D01*
X147277841Y-103070833D02*
X147315936Y-102994642D01*
X147315936Y-102994642D02*
X147315936Y-102842261D01*
X147315936Y-102842261D02*
X147277841Y-102766071D01*
X147277841Y-102766071D02*
X147239745Y-102727976D01*
X147239745Y-102727976D02*
X147163555Y-102689880D01*
X147163555Y-102689880D02*
X146515936Y-102689880D01*
X146515936Y-102385119D02*
X146515936Y-101889881D01*
X146515936Y-101889881D02*
X146820698Y-102156547D01*
X146820698Y-102156547D02*
X146820698Y-102042262D01*
X146820698Y-102042262D02*
X146858793Y-101966071D01*
X146858793Y-101966071D02*
X146896888Y-101927976D01*
X146896888Y-101927976D02*
X146973079Y-101889881D01*
X146973079Y-101889881D02*
X147163555Y-101889881D01*
X147163555Y-101889881D02*
X147239745Y-101927976D01*
X147239745Y-101927976D02*
X147277841Y-101966071D01*
X147277841Y-101966071D02*
X147315936Y-102042262D01*
X147315936Y-102042262D02*
X147315936Y-102270833D01*
X147315936Y-102270833D02*
X147277841Y-102347024D01*
X147277841Y-102347024D02*
X147239745Y-102385119D01*
X128242642Y-111440569D02*
X127442642Y-111440569D01*
X127823594Y-111440569D02*
X127823594Y-110983426D01*
X128242642Y-110983426D02*
X127442642Y-110983426D01*
X127442642Y-110678665D02*
X127442642Y-110183427D01*
X127442642Y-110183427D02*
X127747404Y-110450093D01*
X127747404Y-110450093D02*
X127747404Y-110335808D01*
X127747404Y-110335808D02*
X127785499Y-110259617D01*
X127785499Y-110259617D02*
X127823594Y-110221522D01*
X127823594Y-110221522D02*
X127899785Y-110183427D01*
X127899785Y-110183427D02*
X128090261Y-110183427D01*
X128090261Y-110183427D02*
X128166451Y-110221522D01*
X128166451Y-110221522D02*
X128204547Y-110259617D01*
X128204547Y-110259617D02*
X128242642Y-110335808D01*
X128242642Y-110335808D02*
X128242642Y-110564379D01*
X128242642Y-110564379D02*
X128204547Y-110640570D01*
X128204547Y-110640570D02*
X128166451Y-110678665D01*
D12*
X133666666Y-115102319D02*
X133666666Y-115816604D01*
X133666666Y-115816604D02*
X133619047Y-115959461D01*
X133619047Y-115959461D02*
X133523809Y-116054700D01*
X133523809Y-116054700D02*
X133380952Y-116102319D01*
X133380952Y-116102319D02*
X133285714Y-116102319D01*
X134619047Y-115102319D02*
X134142857Y-115102319D01*
X134142857Y-115102319D02*
X134095238Y-115578509D01*
X134095238Y-115578509D02*
X134142857Y-115530890D01*
X134142857Y-115530890D02*
X134238095Y-115483271D01*
X134238095Y-115483271D02*
X134476190Y-115483271D01*
X134476190Y-115483271D02*
X134571428Y-115530890D01*
X134571428Y-115530890D02*
X134619047Y-115578509D01*
X134619047Y-115578509D02*
X134666666Y-115673747D01*
X134666666Y-115673747D02*
X134666666Y-115911842D01*
X134666666Y-115911842D02*
X134619047Y-116007080D01*
X134619047Y-116007080D02*
X134571428Y-116054700D01*
X134571428Y-116054700D02*
X134476190Y-116102319D01*
X134476190Y-116102319D02*
X134238095Y-116102319D01*
X134238095Y-116102319D02*
X134142857Y-116054700D01*
X134142857Y-116054700D02*
X134095238Y-116007080D01*
D10*
X160866667Y-108964744D02*
X160828571Y-109002840D01*
X160828571Y-109002840D02*
X160714286Y-109040935D01*
X160714286Y-109040935D02*
X160638095Y-109040935D01*
X160638095Y-109040935D02*
X160523809Y-109002840D01*
X160523809Y-109002840D02*
X160447619Y-108926649D01*
X160447619Y-108926649D02*
X160409524Y-108850459D01*
X160409524Y-108850459D02*
X160371428Y-108698078D01*
X160371428Y-108698078D02*
X160371428Y-108583792D01*
X160371428Y-108583792D02*
X160409524Y-108431411D01*
X160409524Y-108431411D02*
X160447619Y-108355220D01*
X160447619Y-108355220D02*
X160523809Y-108279030D01*
X160523809Y-108279030D02*
X160638095Y-108240935D01*
X160638095Y-108240935D02*
X160714286Y-108240935D01*
X160714286Y-108240935D02*
X160828571Y-108279030D01*
X160828571Y-108279030D02*
X160866667Y-108317125D01*
X161323809Y-108583792D02*
X161247619Y-108545697D01*
X161247619Y-108545697D02*
X161209524Y-108507601D01*
X161209524Y-108507601D02*
X161171428Y-108431411D01*
X161171428Y-108431411D02*
X161171428Y-108393316D01*
X161171428Y-108393316D02*
X161209524Y-108317125D01*
X161209524Y-108317125D02*
X161247619Y-108279030D01*
X161247619Y-108279030D02*
X161323809Y-108240935D01*
X161323809Y-108240935D02*
X161476190Y-108240935D01*
X161476190Y-108240935D02*
X161552381Y-108279030D01*
X161552381Y-108279030D02*
X161590476Y-108317125D01*
X161590476Y-108317125D02*
X161628571Y-108393316D01*
X161628571Y-108393316D02*
X161628571Y-108431411D01*
X161628571Y-108431411D02*
X161590476Y-108507601D01*
X161590476Y-108507601D02*
X161552381Y-108545697D01*
X161552381Y-108545697D02*
X161476190Y-108583792D01*
X161476190Y-108583792D02*
X161323809Y-108583792D01*
X161323809Y-108583792D02*
X161247619Y-108621887D01*
X161247619Y-108621887D02*
X161209524Y-108659982D01*
X161209524Y-108659982D02*
X161171428Y-108736173D01*
X161171428Y-108736173D02*
X161171428Y-108888554D01*
X161171428Y-108888554D02*
X161209524Y-108964744D01*
X161209524Y-108964744D02*
X161247619Y-109002840D01*
X161247619Y-109002840D02*
X161323809Y-109040935D01*
X161323809Y-109040935D02*
X161476190Y-109040935D01*
X161476190Y-109040935D02*
X161552381Y-109002840D01*
X161552381Y-109002840D02*
X161590476Y-108964744D01*
X161590476Y-108964744D02*
X161628571Y-108888554D01*
X161628571Y-108888554D02*
X161628571Y-108736173D01*
X161628571Y-108736173D02*
X161590476Y-108659982D01*
X161590476Y-108659982D02*
X161552381Y-108621887D01*
X161552381Y-108621887D02*
X161476190Y-108583792D01*
X146235934Y-108284523D02*
X146883553Y-108284523D01*
X146883553Y-108284523D02*
X146959743Y-108246428D01*
X146959743Y-108246428D02*
X146997839Y-108208333D01*
X146997839Y-108208333D02*
X147035934Y-108132142D01*
X147035934Y-108132142D02*
X147035934Y-107979761D01*
X147035934Y-107979761D02*
X146997839Y-107903571D01*
X146997839Y-107903571D02*
X146959743Y-107865476D01*
X146959743Y-107865476D02*
X146883553Y-107827380D01*
X146883553Y-107827380D02*
X146235934Y-107827380D01*
X146235934Y-107065476D02*
X146235934Y-107446428D01*
X146235934Y-107446428D02*
X146616886Y-107484524D01*
X146616886Y-107484524D02*
X146578791Y-107446428D01*
X146578791Y-107446428D02*
X146540696Y-107370238D01*
X146540696Y-107370238D02*
X146540696Y-107179762D01*
X146540696Y-107179762D02*
X146578791Y-107103571D01*
X146578791Y-107103571D02*
X146616886Y-107065476D01*
X146616886Y-107065476D02*
X146693077Y-107027381D01*
X146693077Y-107027381D02*
X146883553Y-107027381D01*
X146883553Y-107027381D02*
X146959743Y-107065476D01*
X146959743Y-107065476D02*
X146997839Y-107103571D01*
X146997839Y-107103571D02*
X147035934Y-107179762D01*
X147035934Y-107179762D02*
X147035934Y-107370238D01*
X147035934Y-107370238D02*
X146997839Y-107446428D01*
X146997839Y-107446428D02*
X146959743Y-107484524D01*
X134766750Y-95248211D02*
X135170811Y-95652272D01*
X135170811Y-95652272D02*
X135224686Y-95760022D01*
X135224686Y-95760022D02*
X135224686Y-95867771D01*
X135224686Y-95867771D02*
X135170811Y-95975521D01*
X135170811Y-95975521D02*
X135116936Y-96029396D01*
X134982249Y-95032712D02*
X135332435Y-94682525D01*
X135332435Y-94682525D02*
X135359373Y-95086586D01*
X135359373Y-95086586D02*
X135440185Y-95005774D01*
X135440185Y-95005774D02*
X135520997Y-94978837D01*
X135520997Y-94978837D02*
X135574872Y-94978837D01*
X135574872Y-94978837D02*
X135655684Y-95005774D01*
X135655684Y-95005774D02*
X135790371Y-95140461D01*
X135790371Y-95140461D02*
X135817309Y-95221273D01*
X135817309Y-95221273D02*
X135817309Y-95275148D01*
X135817309Y-95275148D02*
X135790371Y-95355960D01*
X135790371Y-95355960D02*
X135628747Y-95517585D01*
X135628747Y-95517585D02*
X135547935Y-95544522D01*
X135547935Y-95544522D02*
X135494060Y-95544522D01*
X154212642Y-120097712D02*
X154784070Y-120097712D01*
X154784070Y-120097712D02*
X154898356Y-120135807D01*
X154898356Y-120135807D02*
X154974547Y-120211998D01*
X154974547Y-120211998D02*
X155012642Y-120326283D01*
X155012642Y-120326283D02*
X155012642Y-120402474D01*
X154288832Y-119754855D02*
X154250737Y-119716759D01*
X154250737Y-119716759D02*
X154212642Y-119640569D01*
X154212642Y-119640569D02*
X154212642Y-119450093D01*
X154212642Y-119450093D02*
X154250737Y-119373902D01*
X154250737Y-119373902D02*
X154288832Y-119335807D01*
X154288832Y-119335807D02*
X154365023Y-119297712D01*
X154365023Y-119297712D02*
X154441213Y-119297712D01*
X154441213Y-119297712D02*
X154555499Y-119335807D01*
X154555499Y-119335807D02*
X155012642Y-119792950D01*
X155012642Y-119792950D02*
X155012642Y-119297712D01*
X128215935Y-102316666D02*
X128787363Y-102316666D01*
X128787363Y-102316666D02*
X128901649Y-102354761D01*
X128901649Y-102354761D02*
X128977840Y-102430952D01*
X128977840Y-102430952D02*
X129015935Y-102545237D01*
X129015935Y-102545237D02*
X129015935Y-102621428D01*
X129015935Y-101516666D02*
X129015935Y-101973809D01*
X129015935Y-101745237D02*
X128215935Y-101745237D01*
X128215935Y-101745237D02*
X128330220Y-101821428D01*
X128330220Y-101821428D02*
X128406411Y-101897618D01*
X128406411Y-101897618D02*
X128444506Y-101973809D01*
X173127840Y-103955952D02*
X173165935Y-103841666D01*
X173165935Y-103841666D02*
X173165935Y-103651190D01*
X173165935Y-103651190D02*
X173127840Y-103574999D01*
X173127840Y-103574999D02*
X173089744Y-103536904D01*
X173089744Y-103536904D02*
X173013554Y-103498809D01*
X173013554Y-103498809D02*
X172937363Y-103498809D01*
X172937363Y-103498809D02*
X172861173Y-103536904D01*
X172861173Y-103536904D02*
X172823078Y-103574999D01*
X172823078Y-103574999D02*
X172784982Y-103651190D01*
X172784982Y-103651190D02*
X172746887Y-103803571D01*
X172746887Y-103803571D02*
X172708792Y-103879761D01*
X172708792Y-103879761D02*
X172670697Y-103917856D01*
X172670697Y-103917856D02*
X172594506Y-103955952D01*
X172594506Y-103955952D02*
X172518316Y-103955952D01*
X172518316Y-103955952D02*
X172442125Y-103917856D01*
X172442125Y-103917856D02*
X172404030Y-103879761D01*
X172404030Y-103879761D02*
X172365935Y-103803571D01*
X172365935Y-103803571D02*
X172365935Y-103613094D01*
X172365935Y-103613094D02*
X172404030Y-103498809D01*
X172365935Y-103232142D02*
X173165935Y-103041666D01*
X173165935Y-103041666D02*
X172594506Y-102889285D01*
X172594506Y-102889285D02*
X173165935Y-102736904D01*
X173165935Y-102736904D02*
X172365935Y-102546428D01*
X173242125Y-102432142D02*
X173242125Y-101822618D01*
X173165935Y-101632141D02*
X172365935Y-101632141D01*
X172365935Y-101632141D02*
X172937363Y-101365475D01*
X172937363Y-101365475D02*
X172365935Y-101098808D01*
X172365935Y-101098808D02*
X173165935Y-101098808D01*
X172937363Y-100755951D02*
X172937363Y-100374998D01*
X173165935Y-100832141D02*
X172365935Y-100565474D01*
X172365935Y-100565474D02*
X173165935Y-100298808D01*
X173165935Y-100032141D02*
X172365935Y-100032141D01*
X173165935Y-99651189D02*
X172365935Y-99651189D01*
X172365935Y-99651189D02*
X173165935Y-99194046D01*
X173165935Y-99194046D02*
X172365935Y-99194046D01*
X173165935Y-98394047D02*
X173165935Y-98851190D01*
X173165935Y-98622618D02*
X172365935Y-98622618D01*
X172365935Y-98622618D02*
X172480220Y-98698809D01*
X172480220Y-98698809D02*
X172556411Y-98774999D01*
X172556411Y-98774999D02*
X172594506Y-98851190D01*
X127362508Y-96506683D02*
X127443320Y-96048747D01*
X127039259Y-96183434D02*
X127604944Y-95617749D01*
X127604944Y-95617749D02*
X127820443Y-95833248D01*
X127820443Y-95833248D02*
X127847381Y-95914060D01*
X127847381Y-95914060D02*
X127847381Y-95967935D01*
X127847381Y-95967935D02*
X127820443Y-96048747D01*
X127820443Y-96048747D02*
X127739631Y-96129560D01*
X127739631Y-96129560D02*
X127658819Y-96156497D01*
X127658819Y-96156497D02*
X127604944Y-96156497D01*
X127604944Y-96156497D02*
X127524132Y-96129560D01*
X127524132Y-96129560D02*
X127308633Y-95914060D01*
X128116755Y-96129560D02*
X128466941Y-96479746D01*
X128466941Y-96479746D02*
X128062880Y-96506683D01*
X128062880Y-96506683D02*
X128143692Y-96587495D01*
X128143692Y-96587495D02*
X128170630Y-96668308D01*
X128170630Y-96668308D02*
X128170630Y-96722182D01*
X128170630Y-96722182D02*
X128143692Y-96802995D01*
X128143692Y-96802995D02*
X128009005Y-96937682D01*
X128009005Y-96937682D02*
X127928193Y-96964619D01*
X127928193Y-96964619D02*
X127874318Y-96964619D01*
X127874318Y-96964619D02*
X127793506Y-96937682D01*
X127793506Y-96937682D02*
X127631882Y-96776057D01*
X127631882Y-96776057D02*
X127604944Y-96695245D01*
X127604944Y-96695245D02*
X127604944Y-96641370D01*
X141595285Y-106618815D02*
X141633381Y-106656911D01*
X141633381Y-106656911D02*
X141671476Y-106771196D01*
X141671476Y-106771196D02*
X141671476Y-106847387D01*
X141671476Y-106847387D02*
X141633381Y-106961673D01*
X141633381Y-106961673D02*
X141557190Y-107037863D01*
X141557190Y-107037863D02*
X141481000Y-107075958D01*
X141481000Y-107075958D02*
X141328619Y-107114054D01*
X141328619Y-107114054D02*
X141214333Y-107114054D01*
X141214333Y-107114054D02*
X141061952Y-107075958D01*
X141061952Y-107075958D02*
X140985761Y-107037863D01*
X140985761Y-107037863D02*
X140909571Y-106961673D01*
X140909571Y-106961673D02*
X140871476Y-106847387D01*
X140871476Y-106847387D02*
X140871476Y-106771196D01*
X140871476Y-106771196D02*
X140909571Y-106656911D01*
X140909571Y-106656911D02*
X140947666Y-106618815D01*
X140871476Y-105895006D02*
X140871476Y-106275958D01*
X140871476Y-106275958D02*
X141252428Y-106314054D01*
X141252428Y-106314054D02*
X141214333Y-106275958D01*
X141214333Y-106275958D02*
X141176238Y-106199768D01*
X141176238Y-106199768D02*
X141176238Y-106009292D01*
X141176238Y-106009292D02*
X141214333Y-105933101D01*
X141214333Y-105933101D02*
X141252428Y-105895006D01*
X141252428Y-105895006D02*
X141328619Y-105856911D01*
X141328619Y-105856911D02*
X141519095Y-105856911D01*
X141519095Y-105856911D02*
X141595285Y-105895006D01*
X141595285Y-105895006D02*
X141633381Y-105933101D01*
X141633381Y-105933101D02*
X141671476Y-106009292D01*
X141671476Y-106009292D02*
X141671476Y-106199768D01*
X141671476Y-106199768D02*
X141633381Y-106275958D01*
X141633381Y-106275958D02*
X141595285Y-106314054D01*
X134260040Y-110396981D02*
X134260040Y-110968409D01*
X134260040Y-110968409D02*
X134221945Y-111082695D01*
X134221945Y-111082695D02*
X134145754Y-111158886D01*
X134145754Y-111158886D02*
X134031469Y-111196981D01*
X134031469Y-111196981D02*
X133955278Y-111196981D01*
X134640993Y-111196981D02*
X134640993Y-110396981D01*
X134640993Y-110396981D02*
X134945755Y-110396981D01*
X134945755Y-110396981D02*
X135021945Y-110435076D01*
X135021945Y-110435076D02*
X135060040Y-110473171D01*
X135060040Y-110473171D02*
X135098136Y-110549362D01*
X135098136Y-110549362D02*
X135098136Y-110663647D01*
X135098136Y-110663647D02*
X135060040Y-110739838D01*
X135060040Y-110739838D02*
X135021945Y-110777933D01*
X135021945Y-110777933D02*
X134945755Y-110816028D01*
X134945755Y-110816028D02*
X134640993Y-110816028D01*
X135860040Y-111196981D02*
X135402897Y-111196981D01*
X135631469Y-111196981D02*
X135631469Y-110396981D01*
X135631469Y-110396981D02*
X135555278Y-110511266D01*
X135555278Y-110511266D02*
X135479088Y-110587457D01*
X135479088Y-110587457D02*
X135402897Y-110625552D01*
X137527976Y-101890935D02*
X137527976Y-102538554D01*
X137527976Y-102538554D02*
X137566071Y-102614744D01*
X137566071Y-102614744D02*
X137604166Y-102652840D01*
X137604166Y-102652840D02*
X137680357Y-102690935D01*
X137680357Y-102690935D02*
X137832738Y-102690935D01*
X137832738Y-102690935D02*
X137908928Y-102652840D01*
X137908928Y-102652840D02*
X137947023Y-102614744D01*
X137947023Y-102614744D02*
X137985119Y-102538554D01*
X137985119Y-102538554D02*
X137985119Y-101890935D01*
X138708928Y-101890935D02*
X138556547Y-101890935D01*
X138556547Y-101890935D02*
X138480356Y-101929030D01*
X138480356Y-101929030D02*
X138442261Y-101967125D01*
X138442261Y-101967125D02*
X138366071Y-102081411D01*
X138366071Y-102081411D02*
X138327975Y-102233792D01*
X138327975Y-102233792D02*
X138327975Y-102538554D01*
X138327975Y-102538554D02*
X138366071Y-102614744D01*
X138366071Y-102614744D02*
X138404166Y-102652840D01*
X138404166Y-102652840D02*
X138480356Y-102690935D01*
X138480356Y-102690935D02*
X138632737Y-102690935D01*
X138632737Y-102690935D02*
X138708928Y-102652840D01*
X138708928Y-102652840D02*
X138747023Y-102614744D01*
X138747023Y-102614744D02*
X138785118Y-102538554D01*
X138785118Y-102538554D02*
X138785118Y-102348078D01*
X138785118Y-102348078D02*
X138747023Y-102271887D01*
X138747023Y-102271887D02*
X138708928Y-102233792D01*
X138708928Y-102233792D02*
X138632737Y-102195697D01*
X138632737Y-102195697D02*
X138480356Y-102195697D01*
X138480356Y-102195697D02*
X138404166Y-102233792D01*
X138404166Y-102233792D02*
X138366071Y-102271887D01*
X138366071Y-102271887D02*
X138327975Y-102348078D01*
D11*
X146803884Y-78217419D02*
X146803884Y-77217419D01*
X146803884Y-77217419D02*
X147375312Y-78217419D01*
X147375312Y-78217419D02*
X147375312Y-77217419D01*
X147994360Y-78217419D02*
X147899122Y-78169800D01*
X147899122Y-78169800D02*
X147851503Y-78122180D01*
X147851503Y-78122180D02*
X147803884Y-78026942D01*
X147803884Y-78026942D02*
X147803884Y-77741228D01*
X147803884Y-77741228D02*
X147851503Y-77645990D01*
X147851503Y-77645990D02*
X147899122Y-77598371D01*
X147899122Y-77598371D02*
X147994360Y-77550752D01*
X147994360Y-77550752D02*
X148137217Y-77550752D01*
X148137217Y-77550752D02*
X148232455Y-77598371D01*
X148232455Y-77598371D02*
X148280074Y-77645990D01*
X148280074Y-77645990D02*
X148327693Y-77741228D01*
X148327693Y-77741228D02*
X148327693Y-78026942D01*
X148327693Y-78026942D02*
X148280074Y-78122180D01*
X148280074Y-78122180D02*
X148232455Y-78169800D01*
X148232455Y-78169800D02*
X148137217Y-78217419D01*
X148137217Y-78217419D02*
X147994360Y-78217419D01*
X150041979Y-77265038D02*
X149946741Y-77217419D01*
X149946741Y-77217419D02*
X149803884Y-77217419D01*
X149803884Y-77217419D02*
X149661027Y-77265038D01*
X149661027Y-77265038D02*
X149565789Y-77360276D01*
X149565789Y-77360276D02*
X149518170Y-77455514D01*
X149518170Y-77455514D02*
X149470551Y-77645990D01*
X149470551Y-77645990D02*
X149470551Y-77788847D01*
X149470551Y-77788847D02*
X149518170Y-77979323D01*
X149518170Y-77979323D02*
X149565789Y-78074561D01*
X149565789Y-78074561D02*
X149661027Y-78169800D01*
X149661027Y-78169800D02*
X149803884Y-78217419D01*
X149803884Y-78217419D02*
X149899122Y-78217419D01*
X149899122Y-78217419D02*
X150041979Y-78169800D01*
X150041979Y-78169800D02*
X150089598Y-78122180D01*
X150089598Y-78122180D02*
X150089598Y-77788847D01*
X150089598Y-77788847D02*
X149899122Y-77788847D01*
X150518170Y-78217419D02*
X150518170Y-77550752D01*
X150518170Y-77741228D02*
X150565789Y-77645990D01*
X150565789Y-77645990D02*
X150613408Y-77598371D01*
X150613408Y-77598371D02*
X150708646Y-77550752D01*
X150708646Y-77550752D02*
X150803884Y-77550752D01*
X151280075Y-78217419D02*
X151184837Y-78169800D01*
X151184837Y-78169800D02*
X151137218Y-78122180D01*
X151137218Y-78122180D02*
X151089599Y-78026942D01*
X151089599Y-78026942D02*
X151089599Y-77741228D01*
X151089599Y-77741228D02*
X151137218Y-77645990D01*
X151137218Y-77645990D02*
X151184837Y-77598371D01*
X151184837Y-77598371D02*
X151280075Y-77550752D01*
X151280075Y-77550752D02*
X151422932Y-77550752D01*
X151422932Y-77550752D02*
X151518170Y-77598371D01*
X151518170Y-77598371D02*
X151565789Y-77645990D01*
X151565789Y-77645990D02*
X151613408Y-77741228D01*
X151613408Y-77741228D02*
X151613408Y-78026942D01*
X151613408Y-78026942D02*
X151565789Y-78122180D01*
X151565789Y-78122180D02*
X151518170Y-78169800D01*
X151518170Y-78169800D02*
X151422932Y-78217419D01*
X151422932Y-78217419D02*
X151280075Y-78217419D01*
X152470551Y-77550752D02*
X152470551Y-78217419D01*
X152041980Y-77550752D02*
X152041980Y-78074561D01*
X152041980Y-78074561D02*
X152089599Y-78169800D01*
X152089599Y-78169800D02*
X152184837Y-78217419D01*
X152184837Y-78217419D02*
X152327694Y-78217419D01*
X152327694Y-78217419D02*
X152422932Y-78169800D01*
X152422932Y-78169800D02*
X152470551Y-78122180D01*
X152946742Y-77550752D02*
X152946742Y-78217419D01*
X152946742Y-77645990D02*
X152994361Y-77598371D01*
X152994361Y-77598371D02*
X153089599Y-77550752D01*
X153089599Y-77550752D02*
X153232456Y-77550752D01*
X153232456Y-77550752D02*
X153327694Y-77598371D01*
X153327694Y-77598371D02*
X153375313Y-77693609D01*
X153375313Y-77693609D02*
X153375313Y-78217419D01*
X154280075Y-78217419D02*
X154280075Y-77217419D01*
X154280075Y-78169800D02*
X154184837Y-78217419D01*
X154184837Y-78217419D02*
X153994361Y-78217419D01*
X153994361Y-78217419D02*
X153899123Y-78169800D01*
X153899123Y-78169800D02*
X153851504Y-78122180D01*
X153851504Y-78122180D02*
X153803885Y-78026942D01*
X153803885Y-78026942D02*
X153803885Y-77741228D01*
X153803885Y-77741228D02*
X153851504Y-77645990D01*
X153851504Y-77645990D02*
X153899123Y-77598371D01*
X153899123Y-77598371D02*
X153994361Y-77550752D01*
X153994361Y-77550752D02*
X154184837Y-77550752D01*
X154184837Y-77550752D02*
X154280075Y-77598371D01*
D10*
X153483332Y-111740935D02*
X153483332Y-112312363D01*
X153483332Y-112312363D02*
X153445237Y-112426649D01*
X153445237Y-112426649D02*
X153369046Y-112502840D01*
X153369046Y-112502840D02*
X153254761Y-112540935D01*
X153254761Y-112540935D02*
X153178570Y-112540935D01*
X153864285Y-112540935D02*
X153864285Y-111740935D01*
X153864285Y-111740935D02*
X154169047Y-111740935D01*
X154169047Y-111740935D02*
X154245237Y-111779030D01*
X154245237Y-111779030D02*
X154283332Y-111817125D01*
X154283332Y-111817125D02*
X154321428Y-111893316D01*
X154321428Y-111893316D02*
X154321428Y-112007601D01*
X154321428Y-112007601D02*
X154283332Y-112083792D01*
X154283332Y-112083792D02*
X154245237Y-112121887D01*
X154245237Y-112121887D02*
X154169047Y-112159982D01*
X154169047Y-112159982D02*
X153864285Y-112159982D01*
X154588094Y-111740935D02*
X155083332Y-111740935D01*
X155083332Y-111740935D02*
X154816666Y-112045697D01*
X154816666Y-112045697D02*
X154930951Y-112045697D01*
X154930951Y-112045697D02*
X155007142Y-112083792D01*
X155007142Y-112083792D02*
X155045237Y-112121887D01*
X155045237Y-112121887D02*
X155083332Y-112198078D01*
X155083332Y-112198078D02*
X155083332Y-112388554D01*
X155083332Y-112388554D02*
X155045237Y-112464744D01*
X155045237Y-112464744D02*
X155007142Y-112502840D01*
X155007142Y-112502840D02*
X154930951Y-112540935D01*
X154930951Y-112540935D02*
X154702380Y-112540935D01*
X154702380Y-112540935D02*
X154626189Y-112502840D01*
X154626189Y-112502840D02*
X154588094Y-112464744D01*
X171942642Y-111440569D02*
X171142642Y-111440569D01*
X171523594Y-111440569D02*
X171523594Y-110983426D01*
X171942642Y-110983426D02*
X171142642Y-110983426D01*
X171409308Y-110259617D02*
X171942642Y-110259617D01*
X171104547Y-110450093D02*
X171675975Y-110640570D01*
X171675975Y-110640570D02*
X171675975Y-110145331D01*
X155835750Y-121455149D02*
X155835750Y-120655149D01*
X155835750Y-120655149D02*
X156026226Y-120655149D01*
X156026226Y-120655149D02*
X156140512Y-120693244D01*
X156140512Y-120693244D02*
X156216702Y-120769434D01*
X156216702Y-120769434D02*
X156254797Y-120845625D01*
X156254797Y-120845625D02*
X156292893Y-120998006D01*
X156292893Y-120998006D02*
X156292893Y-121112292D01*
X156292893Y-121112292D02*
X156254797Y-121264673D01*
X156254797Y-121264673D02*
X156216702Y-121340863D01*
X156216702Y-121340863D02*
X156140512Y-121417054D01*
X156140512Y-121417054D02*
X156026226Y-121455149D01*
X156026226Y-121455149D02*
X155835750Y-121455149D01*
X156445274Y-121531339D02*
X157054797Y-121531339D01*
X157245274Y-120655149D02*
X157245274Y-121302768D01*
X157245274Y-121302768D02*
X157283369Y-121378958D01*
X157283369Y-121378958D02*
X157321464Y-121417054D01*
X157321464Y-121417054D02*
X157397655Y-121455149D01*
X157397655Y-121455149D02*
X157550036Y-121455149D01*
X157550036Y-121455149D02*
X157626226Y-121417054D01*
X157626226Y-121417054D02*
X157664321Y-121378958D01*
X157664321Y-121378958D02*
X157702417Y-121302768D01*
X157702417Y-121302768D02*
X157702417Y-120655149D01*
X158045273Y-121417054D02*
X158159559Y-121455149D01*
X158159559Y-121455149D02*
X158350035Y-121455149D01*
X158350035Y-121455149D02*
X158426226Y-121417054D01*
X158426226Y-121417054D02*
X158464321Y-121378958D01*
X158464321Y-121378958D02*
X158502416Y-121302768D01*
X158502416Y-121302768D02*
X158502416Y-121226577D01*
X158502416Y-121226577D02*
X158464321Y-121150387D01*
X158464321Y-121150387D02*
X158426226Y-121112292D01*
X158426226Y-121112292D02*
X158350035Y-121074196D01*
X158350035Y-121074196D02*
X158197654Y-121036101D01*
X158197654Y-121036101D02*
X158121464Y-120998006D01*
X158121464Y-120998006D02*
X158083369Y-120959911D01*
X158083369Y-120959911D02*
X158045273Y-120883720D01*
X158045273Y-120883720D02*
X158045273Y-120807530D01*
X158045273Y-120807530D02*
X158083369Y-120731339D01*
X158083369Y-120731339D02*
X158121464Y-120693244D01*
X158121464Y-120693244D02*
X158197654Y-120655149D01*
X158197654Y-120655149D02*
X158388131Y-120655149D01*
X158388131Y-120655149D02*
X158502416Y-120693244D01*
X158845274Y-121036101D02*
X159111940Y-121036101D01*
X159226226Y-121455149D02*
X158845274Y-121455149D01*
X158845274Y-121455149D02*
X158845274Y-120655149D01*
X158845274Y-120655149D02*
X159226226Y-120655149D01*
X160026227Y-121455149D02*
X159759560Y-121074196D01*
X159569084Y-121455149D02*
X159569084Y-120655149D01*
X159569084Y-120655149D02*
X159873846Y-120655149D01*
X159873846Y-120655149D02*
X159950036Y-120693244D01*
X159950036Y-120693244D02*
X159988131Y-120731339D01*
X159988131Y-120731339D02*
X160026227Y-120807530D01*
X160026227Y-120807530D02*
X160026227Y-120921815D01*
X160026227Y-120921815D02*
X159988131Y-120998006D01*
X159988131Y-120998006D02*
X159950036Y-121036101D01*
X159950036Y-121036101D02*
X159873846Y-121074196D01*
X159873846Y-121074196D02*
X159569084Y-121074196D01*
X160788131Y-121455149D02*
X160330988Y-121455149D01*
X160559560Y-121455149D02*
X160559560Y-120655149D01*
X160559560Y-120655149D02*
X160483369Y-120769434D01*
X160483369Y-120769434D02*
X160407179Y-120845625D01*
X160407179Y-120845625D02*
X160330988Y-120883720D01*
X133390476Y-101190935D02*
X133390476Y-101838554D01*
X133390476Y-101838554D02*
X133428571Y-101914744D01*
X133428571Y-101914744D02*
X133466666Y-101952840D01*
X133466666Y-101952840D02*
X133542857Y-101990935D01*
X133542857Y-101990935D02*
X133695238Y-101990935D01*
X133695238Y-101990935D02*
X133771428Y-101952840D01*
X133771428Y-101952840D02*
X133809523Y-101914744D01*
X133809523Y-101914744D02*
X133847619Y-101838554D01*
X133847619Y-101838554D02*
X133847619Y-101190935D01*
X134190475Y-101267125D02*
X134228571Y-101229030D01*
X134228571Y-101229030D02*
X134304761Y-101190935D01*
X134304761Y-101190935D02*
X134495237Y-101190935D01*
X134495237Y-101190935D02*
X134571428Y-101229030D01*
X134571428Y-101229030D02*
X134609523Y-101267125D01*
X134609523Y-101267125D02*
X134647618Y-101343316D01*
X134647618Y-101343316D02*
X134647618Y-101419506D01*
X134647618Y-101419506D02*
X134609523Y-101533792D01*
X134609523Y-101533792D02*
X134152380Y-101990935D01*
X134152380Y-101990935D02*
X134647618Y-101990935D01*
X140242642Y-86440569D02*
X139442642Y-86440569D01*
X139823594Y-86440569D02*
X139823594Y-85983426D01*
X140242642Y-85983426D02*
X139442642Y-85983426D01*
X140242642Y-85183427D02*
X140242642Y-85640570D01*
X140242642Y-85411998D02*
X139442642Y-85411998D01*
X139442642Y-85411998D02*
X139556927Y-85488189D01*
X139556927Y-85488189D02*
X139633118Y-85564379D01*
X139633118Y-85564379D02*
X139671213Y-85640570D01*
X156615936Y-114341666D02*
X157187364Y-114341666D01*
X157187364Y-114341666D02*
X157301650Y-114379761D01*
X157301650Y-114379761D02*
X157377841Y-114455952D01*
X157377841Y-114455952D02*
X157415936Y-114570237D01*
X157415936Y-114570237D02*
X157415936Y-114646428D01*
X157415936Y-113960713D02*
X156615936Y-113960713D01*
X156615936Y-113960713D02*
X156615936Y-113655951D01*
X156615936Y-113655951D02*
X156654031Y-113579761D01*
X156654031Y-113579761D02*
X156692126Y-113541666D01*
X156692126Y-113541666D02*
X156768317Y-113503570D01*
X156768317Y-113503570D02*
X156882602Y-113503570D01*
X156882602Y-113503570D02*
X156958793Y-113541666D01*
X156958793Y-113541666D02*
X156996888Y-113579761D01*
X156996888Y-113579761D02*
X157034983Y-113655951D01*
X157034983Y-113655951D02*
X157034983Y-113960713D01*
X156882602Y-112817856D02*
X157415936Y-112817856D01*
X156577841Y-113008332D02*
X157149269Y-113198809D01*
X157149269Y-113198809D02*
X157149269Y-112703570D01*
X159942642Y-86440569D02*
X159142642Y-86440569D01*
X159523594Y-86440569D02*
X159523594Y-85983426D01*
X159942642Y-85983426D02*
X159142642Y-85983426D01*
X159218832Y-85640570D02*
X159180737Y-85602474D01*
X159180737Y-85602474D02*
X159142642Y-85526284D01*
X159142642Y-85526284D02*
X159142642Y-85335808D01*
X159142642Y-85335808D02*
X159180737Y-85259617D01*
X159180737Y-85259617D02*
X159218832Y-85221522D01*
X159218832Y-85221522D02*
X159295023Y-85183427D01*
X159295023Y-85183427D02*
X159371213Y-85183427D01*
X159371213Y-85183427D02*
X159485499Y-85221522D01*
X159485499Y-85221522D02*
X159942642Y-85678665D01*
X159942642Y-85678665D02*
X159942642Y-85183427D01*
X124990436Y-96084827D02*
X124424751Y-95519141D01*
X124424751Y-95519141D02*
X124559438Y-95384454D01*
X124559438Y-95384454D02*
X124667187Y-95330579D01*
X124667187Y-95330579D02*
X124774937Y-95330579D01*
X124774937Y-95330579D02*
X124855749Y-95357517D01*
X124855749Y-95357517D02*
X124990436Y-95438329D01*
X124990436Y-95438329D02*
X125071248Y-95519141D01*
X125071248Y-95519141D02*
X125152060Y-95653828D01*
X125152060Y-95653828D02*
X125178998Y-95734640D01*
X125178998Y-95734640D02*
X125178998Y-95842390D01*
X125178998Y-95842390D02*
X125125123Y-95950140D01*
X125125123Y-95950140D02*
X124990436Y-96084827D01*
X125475309Y-95707703D02*
X125906308Y-95276705D01*
X126256494Y-94711019D02*
X126256494Y-94764894D01*
X126256494Y-94764894D02*
X126202619Y-94872643D01*
X126202619Y-94872643D02*
X126148744Y-94926518D01*
X126148744Y-94926518D02*
X126040995Y-94980393D01*
X126040995Y-94980393D02*
X125933245Y-94980393D01*
X125933245Y-94980393D02*
X125852433Y-94953456D01*
X125852433Y-94953456D02*
X125717746Y-94872643D01*
X125717746Y-94872643D02*
X125636934Y-94791831D01*
X125636934Y-94791831D02*
X125556122Y-94657144D01*
X125556122Y-94657144D02*
X125529184Y-94576332D01*
X125529184Y-94576332D02*
X125529184Y-94468582D01*
X125529184Y-94468582D02*
X125583059Y-94360833D01*
X125583059Y-94360833D02*
X125636934Y-94306958D01*
X125636934Y-94306958D02*
X125744683Y-94253083D01*
X125744683Y-94253083D02*
X125798558Y-94253083D01*
X126552805Y-94522457D02*
X125987120Y-93956772D01*
X126256494Y-94226146D02*
X126579743Y-93902897D01*
X126876054Y-94199208D02*
X126310369Y-93633523D01*
X126902991Y-93094775D02*
X126822179Y-93121713D01*
X126822179Y-93121713D02*
X126741367Y-93202525D01*
X126741367Y-93202525D02*
X126687492Y-93310274D01*
X126687492Y-93310274D02*
X126687492Y-93418024D01*
X126687492Y-93418024D02*
X126714430Y-93498836D01*
X126714430Y-93498836D02*
X126795242Y-93633523D01*
X126795242Y-93633523D02*
X126876054Y-93714335D01*
X126876054Y-93714335D02*
X127010741Y-93795148D01*
X127010741Y-93795148D02*
X127091553Y-93822085D01*
X127091553Y-93822085D02*
X127199303Y-93822085D01*
X127199303Y-93822085D02*
X127307052Y-93768210D01*
X127307052Y-93768210D02*
X127360927Y-93714335D01*
X127360927Y-93714335D02*
X127414802Y-93606586D01*
X127414802Y-93606586D02*
X127414802Y-93552711D01*
X127414802Y-93552711D02*
X127226240Y-93364149D01*
X127226240Y-93364149D02*
X127118491Y-93471899D01*
X128007425Y-93067838D02*
X127684176Y-93391087D01*
X127845800Y-93229462D02*
X127280115Y-92663777D01*
X127280115Y-92663777D02*
X127307052Y-92798464D01*
X127307052Y-92798464D02*
X127307052Y-92906213D01*
X127307052Y-92906213D02*
X127280115Y-92987026D01*
X134366667Y-107964744D02*
X134328571Y-108002840D01*
X134328571Y-108002840D02*
X134214286Y-108040935D01*
X134214286Y-108040935D02*
X134138095Y-108040935D01*
X134138095Y-108040935D02*
X134023809Y-108002840D01*
X134023809Y-108002840D02*
X133947619Y-107926649D01*
X133947619Y-107926649D02*
X133909524Y-107850459D01*
X133909524Y-107850459D02*
X133871428Y-107698078D01*
X133871428Y-107698078D02*
X133871428Y-107583792D01*
X133871428Y-107583792D02*
X133909524Y-107431411D01*
X133909524Y-107431411D02*
X133947619Y-107355220D01*
X133947619Y-107355220D02*
X134023809Y-107279030D01*
X134023809Y-107279030D02*
X134138095Y-107240935D01*
X134138095Y-107240935D02*
X134214286Y-107240935D01*
X134214286Y-107240935D02*
X134328571Y-107279030D01*
X134328571Y-107279030D02*
X134366667Y-107317125D01*
X135128571Y-108040935D02*
X134671428Y-108040935D01*
X134900000Y-108040935D02*
X134900000Y-107240935D01*
X134900000Y-107240935D02*
X134823809Y-107355220D01*
X134823809Y-107355220D02*
X134747619Y-107431411D01*
X134747619Y-107431411D02*
X134671428Y-107469506D01*
D12*
X165166666Y-115102319D02*
X165166666Y-115816604D01*
X165166666Y-115816604D02*
X165119047Y-115959461D01*
X165119047Y-115959461D02*
X165023809Y-116054700D01*
X165023809Y-116054700D02*
X164880952Y-116102319D01*
X164880952Y-116102319D02*
X164785714Y-116102319D01*
X166071428Y-115102319D02*
X165880952Y-115102319D01*
X165880952Y-115102319D02*
X165785714Y-115149938D01*
X165785714Y-115149938D02*
X165738095Y-115197557D01*
X165738095Y-115197557D02*
X165642857Y-115340414D01*
X165642857Y-115340414D02*
X165595238Y-115530890D01*
X165595238Y-115530890D02*
X165595238Y-115911842D01*
X165595238Y-115911842D02*
X165642857Y-116007080D01*
X165642857Y-116007080D02*
X165690476Y-116054700D01*
X165690476Y-116054700D02*
X165785714Y-116102319D01*
X165785714Y-116102319D02*
X165976190Y-116102319D01*
X165976190Y-116102319D02*
X166071428Y-116054700D01*
X166071428Y-116054700D02*
X166119047Y-116007080D01*
X166119047Y-116007080D02*
X166166666Y-115911842D01*
X166166666Y-115911842D02*
X166166666Y-115673747D01*
X166166666Y-115673747D02*
X166119047Y-115578509D01*
X166119047Y-115578509D02*
X166071428Y-115530890D01*
X166071428Y-115530890D02*
X165976190Y-115483271D01*
X165976190Y-115483271D02*
X165785714Y-115483271D01*
X165785714Y-115483271D02*
X165690476Y-115530890D01*
X165690476Y-115530890D02*
X165642857Y-115578509D01*
X165642857Y-115578509D02*
X165595238Y-115673747D01*
D10*
X143985714Y-108964744D02*
X143947618Y-109002840D01*
X143947618Y-109002840D02*
X143833333Y-109040935D01*
X143833333Y-109040935D02*
X143757142Y-109040935D01*
X143757142Y-109040935D02*
X143642856Y-109002840D01*
X143642856Y-109002840D02*
X143566666Y-108926649D01*
X143566666Y-108926649D02*
X143528571Y-108850459D01*
X143528571Y-108850459D02*
X143490475Y-108698078D01*
X143490475Y-108698078D02*
X143490475Y-108583792D01*
X143490475Y-108583792D02*
X143528571Y-108431411D01*
X143528571Y-108431411D02*
X143566666Y-108355220D01*
X143566666Y-108355220D02*
X143642856Y-108279030D01*
X143642856Y-108279030D02*
X143757142Y-108240935D01*
X143757142Y-108240935D02*
X143833333Y-108240935D01*
X143833333Y-108240935D02*
X143947618Y-108279030D01*
X143947618Y-108279030D02*
X143985714Y-108317125D01*
X144747618Y-109040935D02*
X144290475Y-109040935D01*
X144519047Y-109040935D02*
X144519047Y-108240935D01*
X144519047Y-108240935D02*
X144442856Y-108355220D01*
X144442856Y-108355220D02*
X144366666Y-108431411D01*
X144366666Y-108431411D02*
X144290475Y-108469506D01*
X145242857Y-108240935D02*
X145319047Y-108240935D01*
X145319047Y-108240935D02*
X145395238Y-108279030D01*
X145395238Y-108279030D02*
X145433333Y-108317125D01*
X145433333Y-108317125D02*
X145471428Y-108393316D01*
X145471428Y-108393316D02*
X145509523Y-108545697D01*
X145509523Y-108545697D02*
X145509523Y-108736173D01*
X145509523Y-108736173D02*
X145471428Y-108888554D01*
X145471428Y-108888554D02*
X145433333Y-108964744D01*
X145433333Y-108964744D02*
X145395238Y-109002840D01*
X145395238Y-109002840D02*
X145319047Y-109040935D01*
X145319047Y-109040935D02*
X145242857Y-109040935D01*
X145242857Y-109040935D02*
X145166666Y-109002840D01*
X145166666Y-109002840D02*
X145128571Y-108964744D01*
X145128571Y-108964744D02*
X145090476Y-108888554D01*
X145090476Y-108888554D02*
X145052380Y-108736173D01*
X145052380Y-108736173D02*
X145052380Y-108545697D01*
X145052380Y-108545697D02*
X145090476Y-108393316D01*
X145090476Y-108393316D02*
X145128571Y-108317125D01*
X145128571Y-108317125D02*
X145166666Y-108279030D01*
X145166666Y-108279030D02*
X145242857Y-108240935D01*
X151609062Y-116865937D02*
X151342395Y-116484984D01*
X151151919Y-116865937D02*
X151151919Y-116065937D01*
X151151919Y-116065937D02*
X151456681Y-116065937D01*
X151456681Y-116065937D02*
X151532871Y-116104032D01*
X151532871Y-116104032D02*
X151570966Y-116142127D01*
X151570966Y-116142127D02*
X151609062Y-116218318D01*
X151609062Y-116218318D02*
X151609062Y-116332603D01*
X151609062Y-116332603D02*
X151570966Y-116408794D01*
X151570966Y-116408794D02*
X151532871Y-116446889D01*
X151532871Y-116446889D02*
X151456681Y-116484984D01*
X151456681Y-116484984D02*
X151151919Y-116484984D01*
X152294776Y-116332603D02*
X152294776Y-116865937D01*
X152104300Y-116027842D02*
X151913823Y-116599270D01*
X151913823Y-116599270D02*
X152409062Y-116599270D01*
X165933440Y-86985563D02*
X166337501Y-87389624D01*
X166337501Y-87389624D02*
X166391376Y-87497374D01*
X166391376Y-87497374D02*
X166391376Y-87605123D01*
X166391376Y-87605123D02*
X166337501Y-87712873D01*
X166337501Y-87712873D02*
X166283626Y-87766748D01*
X166148939Y-86770064D02*
X166526063Y-86392940D01*
X166526063Y-86392940D02*
X166849312Y-87201062D01*
X137645935Y-113941666D02*
X138217363Y-113941666D01*
X138217363Y-113941666D02*
X138331649Y-113979761D01*
X138331649Y-113979761D02*
X138407840Y-114055952D01*
X138407840Y-114055952D02*
X138445935Y-114170237D01*
X138445935Y-114170237D02*
X138445935Y-114246428D01*
X137912601Y-113217856D02*
X138445935Y-113217856D01*
X137607840Y-113408332D02*
X138179268Y-113598809D01*
X138179268Y-113598809D02*
X138179268Y-113103570D01*
X131866667Y-102540935D02*
X131600000Y-102159982D01*
X131409524Y-102540935D02*
X131409524Y-101740935D01*
X131409524Y-101740935D02*
X131714286Y-101740935D01*
X131714286Y-101740935D02*
X131790476Y-101779030D01*
X131790476Y-101779030D02*
X131828571Y-101817125D01*
X131828571Y-101817125D02*
X131866667Y-101893316D01*
X131866667Y-101893316D02*
X131866667Y-102007601D01*
X131866667Y-102007601D02*
X131828571Y-102083792D01*
X131828571Y-102083792D02*
X131790476Y-102121887D01*
X131790476Y-102121887D02*
X131714286Y-102159982D01*
X131714286Y-102159982D02*
X131409524Y-102159982D01*
X132323809Y-102083792D02*
X132247619Y-102045697D01*
X132247619Y-102045697D02*
X132209524Y-102007601D01*
X132209524Y-102007601D02*
X132171428Y-101931411D01*
X132171428Y-101931411D02*
X132171428Y-101893316D01*
X132171428Y-101893316D02*
X132209524Y-101817125D01*
X132209524Y-101817125D02*
X132247619Y-101779030D01*
X132247619Y-101779030D02*
X132323809Y-101740935D01*
X132323809Y-101740935D02*
X132476190Y-101740935D01*
X132476190Y-101740935D02*
X132552381Y-101779030D01*
X132552381Y-101779030D02*
X132590476Y-101817125D01*
X132590476Y-101817125D02*
X132628571Y-101893316D01*
X132628571Y-101893316D02*
X132628571Y-101931411D01*
X132628571Y-101931411D02*
X132590476Y-102007601D01*
X132590476Y-102007601D02*
X132552381Y-102045697D01*
X132552381Y-102045697D02*
X132476190Y-102083792D01*
X132476190Y-102083792D02*
X132323809Y-102083792D01*
X132323809Y-102083792D02*
X132247619Y-102121887D01*
X132247619Y-102121887D02*
X132209524Y-102159982D01*
X132209524Y-102159982D02*
X132171428Y-102236173D01*
X132171428Y-102236173D02*
X132171428Y-102388554D01*
X132171428Y-102388554D02*
X132209524Y-102464744D01*
X132209524Y-102464744D02*
X132247619Y-102502840D01*
X132247619Y-102502840D02*
X132323809Y-102540935D01*
X132323809Y-102540935D02*
X132476190Y-102540935D01*
X132476190Y-102540935D02*
X132552381Y-102502840D01*
X132552381Y-102502840D02*
X132590476Y-102464744D01*
X132590476Y-102464744D02*
X132628571Y-102388554D01*
X132628571Y-102388554D02*
X132628571Y-102236173D01*
X132628571Y-102236173D02*
X132590476Y-102159982D01*
X132590476Y-102159982D02*
X132552381Y-102121887D01*
X132552381Y-102121887D02*
X132476190Y-102083792D01*
X137866667Y-94784744D02*
X137828571Y-94822840D01*
X137828571Y-94822840D02*
X137714286Y-94860935D01*
X137714286Y-94860935D02*
X137638095Y-94860935D01*
X137638095Y-94860935D02*
X137523809Y-94822840D01*
X137523809Y-94822840D02*
X137447619Y-94746649D01*
X137447619Y-94746649D02*
X137409524Y-94670459D01*
X137409524Y-94670459D02*
X137371428Y-94518078D01*
X137371428Y-94518078D02*
X137371428Y-94403792D01*
X137371428Y-94403792D02*
X137409524Y-94251411D01*
X137409524Y-94251411D02*
X137447619Y-94175220D01*
X137447619Y-94175220D02*
X137523809Y-94099030D01*
X137523809Y-94099030D02*
X137638095Y-94060935D01*
X137638095Y-94060935D02*
X137714286Y-94060935D01*
X137714286Y-94060935D02*
X137828571Y-94099030D01*
X137828571Y-94099030D02*
X137866667Y-94137125D01*
X138133333Y-94060935D02*
X138628571Y-94060935D01*
X138628571Y-94060935D02*
X138361905Y-94365697D01*
X138361905Y-94365697D02*
X138476190Y-94365697D01*
X138476190Y-94365697D02*
X138552381Y-94403792D01*
X138552381Y-94403792D02*
X138590476Y-94441887D01*
X138590476Y-94441887D02*
X138628571Y-94518078D01*
X138628571Y-94518078D02*
X138628571Y-94708554D01*
X138628571Y-94708554D02*
X138590476Y-94784744D01*
X138590476Y-94784744D02*
X138552381Y-94822840D01*
X138552381Y-94822840D02*
X138476190Y-94860935D01*
X138476190Y-94860935D02*
X138247619Y-94860935D01*
X138247619Y-94860935D02*
X138171428Y-94822840D01*
X138171428Y-94822840D02*
X138133333Y-94784744D01*
X155866667Y-116610935D02*
X155600000Y-116229982D01*
X155409524Y-116610935D02*
X155409524Y-115810935D01*
X155409524Y-115810935D02*
X155714286Y-115810935D01*
X155714286Y-115810935D02*
X155790476Y-115849030D01*
X155790476Y-115849030D02*
X155828571Y-115887125D01*
X155828571Y-115887125D02*
X155866667Y-115963316D01*
X155866667Y-115963316D02*
X155866667Y-116077601D01*
X155866667Y-116077601D02*
X155828571Y-116153792D01*
X155828571Y-116153792D02*
X155790476Y-116191887D01*
X155790476Y-116191887D02*
X155714286Y-116229982D01*
X155714286Y-116229982D02*
X155409524Y-116229982D01*
X156590476Y-115810935D02*
X156209524Y-115810935D01*
X156209524Y-115810935D02*
X156171428Y-116191887D01*
X156171428Y-116191887D02*
X156209524Y-116153792D01*
X156209524Y-116153792D02*
X156285714Y-116115697D01*
X156285714Y-116115697D02*
X156476190Y-116115697D01*
X156476190Y-116115697D02*
X156552381Y-116153792D01*
X156552381Y-116153792D02*
X156590476Y-116191887D01*
X156590476Y-116191887D02*
X156628571Y-116268078D01*
X156628571Y-116268078D02*
X156628571Y-116458554D01*
X156628571Y-116458554D02*
X156590476Y-116534744D01*
X156590476Y-116534744D02*
X156552381Y-116572840D01*
X156552381Y-116572840D02*
X156476190Y-116610935D01*
X156476190Y-116610935D02*
X156285714Y-116610935D01*
X156285714Y-116610935D02*
X156209524Y-116572840D01*
X156209524Y-116572840D02*
X156171428Y-116534744D01*
D13*
%TO.C,C4*%
X141238748Y-98440000D02*
X141761252Y-98440000D01*
X141238748Y-99910000D02*
X141761252Y-99910000D01*
%TO.C,F1*%
X129897936Y-104265000D02*
X131102064Y-104265000D01*
X129897936Y-106085000D02*
X131102064Y-106085000D01*
%TO.C,C2*%
X138140581Y-100665000D02*
X137859419Y-100665000D01*
X138140581Y-101685000D02*
X137859419Y-101685000D01*
%TO.C,U3*%
X142990001Y-101627500D02*
X143040001Y-101627500D01*
X142990001Y-103447500D02*
X142990001Y-101627500D01*
X143040001Y-103447500D02*
X142990001Y-103447500D01*
X144940001Y-103447500D02*
X144160001Y-103447500D01*
X146060001Y-101627500D02*
X146110001Y-101627500D01*
X146110001Y-101627500D02*
X146110001Y-103447500D01*
X146110001Y-103447500D02*
X146060001Y-103447500D01*
X146390001Y-101327500D02*
X146060001Y-101087500D01*
X146390001Y-100847500D01*
X146390001Y-101327500D01*
G36*
X146390001Y-101327500D02*
G01*
X146060001Y-101087500D01*
X146390001Y-100847500D01*
X146390001Y-101327500D01*
G37*
%TO.C,J5*%
X131110000Y-116647500D02*
X136890000Y-116647500D01*
X131110000Y-117167500D02*
X136890000Y-117167500D01*
X131110000Y-122467500D02*
X131700000Y-122467500D01*
X131110000Y-123087500D02*
X131110000Y-116647500D01*
X131700000Y-123087500D02*
X131110000Y-123087500D01*
X133760000Y-122467500D02*
X134240000Y-122467500D01*
X134240000Y-123087500D02*
X133760000Y-123087500D01*
X136300000Y-122467500D02*
X136890000Y-122467500D01*
X136890000Y-116647500D02*
X136890000Y-123087500D01*
X136890000Y-123087500D02*
X136300000Y-123087500D01*
X133170000Y-124047500D02*
X132290000Y-124047500D01*
X132730000Y-123437500D01*
X133170000Y-124047500D01*
G36*
X133170000Y-124047500D02*
G01*
X132290000Y-124047500D01*
X132730000Y-123437500D01*
X133170000Y-124047500D01*
G37*
%TO.C,C8*%
X158859420Y-108165000D02*
X159140580Y-108165000D01*
X158859420Y-109185000D02*
X159140580Y-109185000D01*
%TO.C,U5*%
X147890000Y-105565000D02*
X148365000Y-105565000D01*
X147890000Y-106040000D02*
X147890000Y-105565000D01*
X147890000Y-109785000D02*
X147890000Y-109310000D01*
X148365000Y-109785000D02*
X147890000Y-109785000D01*
X151635000Y-105565000D02*
X152110000Y-105565000D01*
X152110000Y-105565000D02*
X152110000Y-106040000D01*
X152110000Y-109310000D02*
X152110000Y-109785000D01*
X152110000Y-109785000D02*
X151635000Y-109785000D01*
X148990000Y-110645000D02*
X148510000Y-110645000D01*
X148750000Y-110314999D01*
X148990000Y-110645000D01*
G36*
X148990000Y-110645000D02*
G01*
X148510000Y-110645000D01*
X148750000Y-110314999D01*
X148990000Y-110645000D01*
G37*
%TO.C,J3*%
X126798173Y-91230005D02*
X132327748Y-96759580D01*
X128933636Y-92290666D02*
X129640743Y-91583559D01*
X129315473Y-88712705D02*
X132398459Y-91795691D01*
X129640743Y-91583559D02*
X130772113Y-92714930D01*
X130065007Y-93422036D02*
X128933636Y-92290666D01*
X130772113Y-92714930D02*
X130065007Y-93422036D01*
X131125667Y-86902512D02*
X126798173Y-91230005D01*
X131196378Y-95628210D02*
X131846916Y-94977671D01*
X131479220Y-89745081D02*
X129881159Y-88147020D01*
X131479220Y-89745081D02*
X132610591Y-90876452D01*
X131691352Y-92502798D02*
X128608367Y-89419812D01*
X131832774Y-89391528D02*
X130234712Y-87793466D01*
X131846916Y-94977671D02*
X132044906Y-94779681D01*
X132186327Y-89037974D02*
X131479220Y-89745081D01*
X132327748Y-96759580D02*
X132978287Y-96109042D01*
X132398459Y-91795691D02*
X131691352Y-92502798D01*
X132610591Y-90876452D02*
X133317698Y-90169345D01*
X132978287Y-96109042D02*
X131846916Y-94977671D01*
X133317698Y-90169345D02*
X132186327Y-89037974D01*
X134675343Y-92149244D02*
X134873333Y-91951254D01*
X134675343Y-92149244D02*
X135534478Y-93008379D01*
X134873333Y-91951254D02*
X136004704Y-93082625D01*
X135523871Y-91300716D02*
X134873333Y-91951254D01*
X136004704Y-93082625D02*
X136655242Y-92432087D01*
X136655242Y-92432087D02*
X131125667Y-86902512D01*
%TO.C,J2*%
X145806707Y-118451046D02*
X145806707Y-121211046D01*
X150996707Y-118451046D02*
X145806707Y-118451046D01*
X150996707Y-118451046D02*
X150996707Y-121211046D01*
X150996707Y-121211046D02*
X145806707Y-121211046D01*
X152266707Y-118451047D02*
X153646707Y-118451046D01*
X153646707Y-118451046D02*
X153646706Y-119831046D01*
%TO.C,J1*%
X118120000Y-97455000D02*
X118120000Y-106645000D01*
X120850000Y-97455000D02*
X118120000Y-97455000D01*
X120850000Y-106645000D02*
X118120000Y-106645000D01*
X124450000Y-97455000D02*
X123550001Y-97455000D01*
X124450000Y-106645000D02*
X123550000Y-106645000D01*
X127530000Y-97575000D02*
X127530000Y-106525000D01*
%TO.C,SW_MAIN1*%
X174880000Y-99775000D02*
X174880000Y-99575000D01*
X174880000Y-102775000D02*
X174880000Y-101075000D01*
X175930000Y-104625000D02*
X176719999Y-104625000D01*
X176719999Y-97725000D02*
X175930000Y-97725000D01*
X177730000Y-102575000D02*
X179020000Y-102575000D01*
X177730000Y-104025000D02*
X177730000Y-98325000D01*
X179020000Y-101275000D02*
X177730000Y-101275000D01*
X179020000Y-101275000D02*
X179230000Y-101475000D01*
X179020000Y-102575000D02*
X179230000Y-102375000D01*
X179230000Y-102375000D02*
X179230000Y-101475000D01*
%TO.C,R3*%
X128525010Y-95868276D02*
X128189477Y-95532743D01*
X129263937Y-95129349D02*
X128928404Y-94793816D01*
%TO.C,C5*%
X141950063Y-106721424D02*
X141950063Y-106198918D01*
X143420063Y-106721424D02*
X143420063Y-106198918D01*
%TO.C,JP1*%
X129376707Y-109831046D02*
X133476707Y-109831046D01*
X129376707Y-111831046D02*
X129376707Y-109831046D01*
X129826707Y-112331046D02*
X130426707Y-112331046D01*
X130126707Y-112031046D02*
X129826707Y-112331046D01*
X130126707Y-112031046D02*
X130426707Y-112331046D01*
X133476707Y-109831046D02*
X133476707Y-111831046D01*
X133476707Y-111831046D02*
X129376707Y-111831046D01*
%TO.C,U6*%
X137227500Y-103165000D02*
X139047500Y-103165000D01*
X137227500Y-103215000D02*
X137227500Y-103165000D01*
X137227500Y-106285000D02*
X137227500Y-106235000D01*
X139047500Y-103165000D02*
X139047500Y-103215000D01*
X139047500Y-106235000D02*
X139047500Y-106285000D01*
X139047500Y-106285000D02*
X137227500Y-106285000D01*
X136687500Y-103215000D02*
X136447500Y-102885000D01*
X136927500Y-102885000D01*
X136687500Y-103215000D01*
G36*
X136687500Y-103215000D02*
G01*
X136447500Y-102885000D01*
X136927500Y-102885000D01*
X136687500Y-103215000D01*
G37*
D11*
%TO.C,U4*%
X141262500Y-81127007D02*
X141262500Y-81226907D01*
X141262500Y-81226907D02*
X141262500Y-81926907D01*
X141262500Y-81926907D02*
X141662500Y-81526907D01*
X141662500Y-81526907D02*
X141262500Y-81127007D01*
D14*
X142762500Y-74726907D02*
X156762500Y-74726907D01*
X142762500Y-80826907D02*
X142762500Y-74726907D01*
X142762500Y-95726907D02*
X142762500Y-95408107D01*
X143581300Y-95726907D02*
X142762500Y-95726907D01*
X151281400Y-95726907D02*
X148243600Y-95726907D01*
X156762500Y-74726907D02*
X156762500Y-80826907D01*
X156762500Y-95408107D02*
X156762500Y-95726907D01*
X156762500Y-95726907D02*
X155943700Y-95726907D01*
D13*
%TO.C,JP3*%
X152749999Y-112675000D02*
X155549999Y-112675000D01*
X152749999Y-114675000D02*
X152749999Y-112675000D01*
X155549999Y-112675000D02*
X155549999Y-114675000D01*
X155549999Y-114675000D02*
X152749999Y-114675000D01*
%TO.C,D_USER1*%
X157515000Y-118940000D02*
X157515000Y-120410000D01*
X157515000Y-120410000D02*
X159800000Y-120410000D01*
X159800000Y-118940000D02*
X157515000Y-118940000D01*
%TO.C,U2*%
X132390000Y-98540000D02*
X135610000Y-98540000D01*
X135185568Y-100810000D02*
X132390000Y-100810000D01*
X135620000Y-101005000D02*
X135340000Y-101005000D01*
X135480000Y-100815000D01*
X135620000Y-101005000D01*
G36*
X135620000Y-101005000D02*
G01*
X135340000Y-101005000D01*
X135480000Y-100815000D01*
X135620000Y-101005000D01*
G37*
%TO.C,JP4*%
X157850001Y-112275000D02*
X159850001Y-112275000D01*
X157850001Y-115075000D02*
X157850001Y-112275000D01*
X159850001Y-112275000D02*
X159850001Y-115075000D01*
X159850001Y-115075000D02*
X157850001Y-115075000D01*
%TO.C,D_CHG1*%
X123600083Y-93918223D02*
X124639530Y-94957670D01*
X124639530Y-94957670D02*
X126255269Y-93341931D01*
X125215822Y-92302484D02*
X123600083Y-93918223D01*
%TO.C,C1*%
X132261253Y-106940000D02*
X131738747Y-106940000D01*
X132261253Y-108410000D02*
X131738747Y-108410000D01*
%TO.C,J6*%
X162610000Y-116647500D02*
X168390000Y-116647500D01*
X162610000Y-117167500D02*
X168390000Y-117167500D01*
X162610000Y-122467500D02*
X163200000Y-122467500D01*
X162610000Y-123087500D02*
X162610000Y-116647500D01*
X163200000Y-123087500D02*
X162610000Y-123087500D01*
X165260000Y-122467500D02*
X165740000Y-122467500D01*
X165740000Y-123087500D02*
X165260000Y-123087500D01*
X167800000Y-122467500D02*
X168390000Y-122467500D01*
X168390000Y-116647500D02*
X168390000Y-123087500D01*
X168390000Y-123087500D02*
X167800000Y-123087500D01*
X164670000Y-124047500D02*
X163790000Y-124047500D01*
X164230000Y-123437500D01*
X164670000Y-124047500D01*
G36*
X164670000Y-124047500D02*
G01*
X163790000Y-124047500D01*
X164230000Y-123437500D01*
X164670000Y-124047500D01*
G37*
%TO.C,C10*%
X145359420Y-109165000D02*
X145640580Y-109165000D01*
X145359420Y-110185000D02*
X145640580Y-110185000D01*
%TO.C,R4*%
X149737258Y-116152500D02*
X149262742Y-116152500D01*
X149737258Y-117197500D02*
X149262742Y-117197500D01*
%TO.C,J7*%
X166160231Y-88786846D02*
X167136039Y-87811039D01*
X167136039Y-89762653D02*
X166160231Y-88786846D01*
X168034064Y-90660679D02*
X169985679Y-88709064D01*
X168034064Y-90660679D02*
X173500000Y-96126614D01*
X169985679Y-88709064D02*
X175451614Y-94175000D01*
X173500000Y-96126614D02*
X175451614Y-94175000D01*
%TO.C,J4*%
X139080000Y-115055000D02*
X139080001Y-113675000D01*
X140460000Y-115054999D02*
X139080000Y-115055000D01*
X141730000Y-112295000D02*
X149460000Y-112295001D01*
X141730000Y-115055000D02*
X141730000Y-112295000D01*
X141730000Y-115055000D02*
X149460000Y-115054999D01*
X149460000Y-115054999D02*
X149460000Y-112295001D01*
%TO.C,R8*%
X132762742Y-102652500D02*
X133237258Y-102652500D01*
X132762742Y-103697500D02*
X133237258Y-103697500D01*
%TO.C,C3*%
X137738748Y-95440000D02*
X138261252Y-95440000D01*
X137738748Y-96910000D02*
X138261252Y-96910000D01*
%TO.C,R5*%
X155762742Y-117152500D02*
X156237258Y-117152500D01*
X155762742Y-118197500D02*
X156237258Y-118197500D01*
%TD*%
M02*
