%TF.GenerationSoftware,KiCad,Pcbnew,9.0.5*%
%TF.CreationDate,2025-10-31T19:38:18+05:30*%
%TF.ProjectId,MoistureSensor,4d6f6973-7475-4726-9553-656e736f722e,rev?*%
%TF.SameCoordinates,Original*%
%TF.FileFunction,Copper,L2,Bot*%
%TF.FilePolarity,Positive*%
%FSLAX46Y46*%
G04 Gerber Fmt 4.6, Leading zero omitted, Abs format (unit mm)*
G04 Created by KiCad (PCBNEW 9.0.5) date 2025-10-31 19:38:18*
%MOMM*%
%LPD*%
G01*
G04 APERTURE LIST*
G04 Aperture macros list*
%AMRoundRect*
0 Rectangle with rounded corners*
0 $1 Rounding radius*
0 $2 $3 $4 $5 $6 $7 $8 $9 X,Y pos of 4 corners*
0 Add a 4 corners polygon primitive as box body*
4,1,4,$2,$3,$4,$5,$6,$7,$8,$9,$2,$3,0*
0 Add four circle primitives for the rounded corners*
1,1,$1+$1,$2,$3*
1,1,$1+$1,$4,$5*
1,1,$1+$1,$6,$7*
1,1,$1+$1,$8,$9*
0 Add four rect primitives between the rounded corners*
20,1,$1+$1,$2,$3,$4,$5,0*
20,1,$1+$1,$4,$5,$6,$7,0*
20,1,$1+$1,$6,$7,$8,$9,0*
20,1,$1+$1,$8,$9,$2,$3,0*%
%AMHorizOval*
0 Thick line with rounded ends*
0 $1 width*
0 $2 $3 position (X,Y) of the first rounded end (center of the circle)*
0 $4 $5 position (X,Y) of the second rounded end (center of the circle)*
0 Add line between two ends*
20,1,$1,$2,$3,$4,$5,0*
0 Add two circle primitives to create the rounded ends*
1,1,$1,$2,$3*
1,1,$1,$4,$5*%
%AMRotRect*
0 Rectangle, with rotation*
0 The origin of the aperture is its center*
0 $1 length*
0 $2 width*
0 $3 Rotation angle, in degrees counterclockwise*
0 Add horizontal line*
21,1,$1,$2,0,0,$3*%
G04 Aperture macros list end*
%TA.AperFunction,ComponentPad*%
%ADD10RoundRect,0.249999X-0.850001X-0.850001X0.850001X-0.850001X0.850001X0.850001X-0.850001X0.850001X0*%
%TD*%
%TA.AperFunction,ComponentPad*%
%ADD11C,2.200000*%
%TD*%
%TA.AperFunction,ComponentPad*%
%ADD12RoundRect,0.250000X-0.194454X0.689429X-0.689429X0.194454X0.194454X-0.689429X0.689429X-0.194454X0*%
%TD*%
%TA.AperFunction,ComponentPad*%
%ADD13HorizOval,1.200000X-0.194454X0.194454X0.194454X-0.194454X0*%
%TD*%
%TA.AperFunction,ComponentPad*%
%ADD14R,1.700000X1.700000*%
%TD*%
%TA.AperFunction,ComponentPad*%
%ADD15C,1.700000*%
%TD*%
%TA.AperFunction,ComponentPad*%
%ADD16C,0.700000*%
%TD*%
%TA.AperFunction,ComponentPad*%
%ADD17O,2.400000X0.900000*%
%TD*%
%TA.AperFunction,ComponentPad*%
%ADD18O,1.700000X0.900000*%
%TD*%
%TA.AperFunction,ComponentPad*%
%ADD19RotRect,1.700000X1.700000X45.000000*%
%TD*%
%TA.AperFunction,SMDPad,CuDef*%
%ADD20RoundRect,0.200000X-0.200000X-0.275000X0.200000X-0.275000X0.200000X0.275000X-0.200000X0.275000X0*%
%TD*%
%TA.AperFunction,SMDPad,CuDef*%
%ADD21RoundRect,0.200000X0.275000X-0.200000X0.275000X0.200000X-0.275000X0.200000X-0.275000X-0.200000X0*%
%TD*%
%TA.AperFunction,SMDPad,CuDef*%
%ADD22R,1.000000X1.700000*%
%TD*%
%TA.AperFunction,SMDPad,CuDef*%
%ADD23RoundRect,0.075000X0.337500X0.075000X-0.337500X0.075000X-0.337500X-0.075000X0.337500X-0.075000X0*%
%TD*%
%TA.AperFunction,SMDPad,CuDef*%
%ADD24RoundRect,0.075000X0.075000X0.337500X-0.075000X0.337500X-0.075000X-0.337500X0.075000X-0.337500X0*%
%TD*%
%TA.AperFunction,HeatsinkPad*%
%ADD25R,3.250000X3.250000*%
%TD*%
%TA.AperFunction,SMDPad,CuDef*%
%ADD26RoundRect,0.200000X-0.335876X-0.053033X-0.053033X-0.335876X0.335876X0.053033X0.053033X0.335876X0*%
%TD*%
%TA.AperFunction,SMDPad,CuDef*%
%ADD27RoundRect,0.200000X-0.275000X0.200000X-0.275000X-0.200000X0.275000X-0.200000X0.275000X0.200000X0*%
%TD*%
%TA.AperFunction,SMDPad,CuDef*%
%ADD28RoundRect,0.200000X0.200000X0.275000X-0.200000X0.275000X-0.200000X-0.275000X0.200000X-0.275000X0*%
%TD*%
%TA.AperFunction,SMDPad,CuDef*%
%ADD29RoundRect,0.218750X0.218750X0.256250X-0.218750X0.256250X-0.218750X-0.256250X0.218750X-0.256250X0*%
%TD*%
%TA.AperFunction,SMDPad,CuDef*%
%ADD30RoundRect,0.200000X0.335876X0.053033X0.053033X0.335876X-0.335876X-0.053033X-0.053033X-0.335876X0*%
%TD*%
%TA.AperFunction,SMDPad,CuDef*%
%ADD31RoundRect,0.225000X-0.225000X-0.250000X0.225000X-0.250000X0.225000X0.250000X-0.225000X0.250000X0*%
%TD*%
%TA.AperFunction,ViaPad*%
%ADD32C,0.600000*%
%TD*%
%TA.AperFunction,Conductor*%
%ADD33C,0.200000*%
%TD*%
G04 APERTURE END LIST*
D10*
%TO.P,J5,1,Pin_1*%
%TO.N,Net-(J5-Pin_1)*%
X132730000Y-119867500D03*
D11*
%TO.P,J5,2,Pin_2*%
%TO.N,Net-(J5-Pin_2)*%
X135270000Y-119867500D03*
%TD*%
D12*
%TO.P,J3,1,Pin_1*%
%TO.N,GND*%
X134166226Y-92856351D03*
D13*
%TO.P,J3,2,Pin_2*%
%TO.N,/VBAT*%
X132752012Y-94270565D03*
%TD*%
D14*
%TO.P,J2,1,Pin_1*%
%TO.N,GND*%
X152266707Y-119831046D03*
D15*
%TO.P,J2,2,Pin_2*%
%TO.N,+3V3*%
X149726707Y-119831046D03*
%TO.P,J2,3,Pin_3*%
%TO.N,Net-(J2-Pin_3)*%
X147186708Y-119831046D03*
%TD*%
D16*
%TO.P,J1,A1,GND*%
%TO.N,GND*%
X126850000Y-99075000D03*
%TO.P,J1,A4,VBUS*%
%TO.N,Net-(C1-Pad2)*%
X126850000Y-99925000D03*
%TO.P,J1,A5,CC1*%
%TO.N,Net-(J1-CC1)*%
X126850000Y-100775001D03*
%TO.P,J1,A6,D+*%
%TO.N,unconnected-(J1-D+-PadA6)*%
X126850000Y-101625000D03*
%TO.P,J1,A7,D-*%
%TO.N,unconnected-(J1-D--PadA7)*%
X126850000Y-102475000D03*
%TO.P,J1,A8,SBU1*%
%TO.N,unconnected-(J1-SBU1-PadA8)*%
X126850000Y-103325000D03*
%TO.P,J1,A9,VBUS*%
%TO.N,Net-(C1-Pad2)*%
X126850000Y-104175001D03*
%TO.P,J1,A12,GND*%
%TO.N,GND*%
X126850000Y-105025000D03*
%TO.P,J1,B1,GND*%
X125500000Y-105025000D03*
%TO.P,J1,B4,VBUS*%
%TO.N,Net-(C1-Pad2)*%
X125500000Y-104175000D03*
%TO.P,J1,B5,CC2*%
%TO.N,Net-(J1-CC2)*%
X125500000Y-103325000D03*
%TO.P,J1,B6,D+*%
%TO.N,unconnected-(J1-D+-PadB6)*%
X125500000Y-102475000D03*
%TO.P,J1,B7,D-*%
%TO.N,unconnected-(J1-D--PadB7)*%
X125500000Y-101625000D03*
%TO.P,J1,B8,SBU2*%
%TO.N,unconnected-(J1-SBU2-PadB8)*%
X125500000Y-100775000D03*
%TO.P,J1,B9,VBUS*%
%TO.N,Net-(C1-Pad2)*%
X125500000Y-99925000D03*
%TO.P,J1,B12,GND*%
%TO.N,GND*%
X125500000Y-99075000D03*
D17*
%TO.P,J1,S1,SHIELD*%
X125870000Y-97725000D03*
D18*
X122490000Y-97725000D03*
D17*
X125870000Y-106375000D03*
D18*
X122490000Y-106375000D03*
%TD*%
D10*
%TO.P,J6,1,Pin_1*%
%TO.N,Net-(J6-Pin_1)*%
X164230000Y-119867500D03*
D11*
%TO.P,J6,2,Pin_2*%
%TO.N,Net-(J6-Pin_2)*%
X166770000Y-119867500D03*
%TD*%
D19*
%TO.P,J7,1,Pin_1*%
%TO.N,/SDA*%
X168111846Y-88786846D03*
D15*
%TO.P,J7,2,Pin_2*%
%TO.N,/SCL*%
X169907897Y-90582897D03*
%TO.P,J7,3,Pin_3*%
%TO.N,GND*%
X171703948Y-92378948D03*
%TO.P,J7,4,Pin_4*%
%TO.N,+3V3*%
X173500000Y-94175000D03*
%TD*%
D14*
%TO.P,J4,1,Pin_1*%
%TO.N,Net-(J4-Pin_1)*%
X140460000Y-113675000D03*
D15*
%TO.P,J4,2,Pin_2*%
%TO.N,GND*%
X143000000Y-113675000D03*
%TO.P,J4,3,Pin_3*%
%TO.N,/SBWDIO*%
X145539999Y-113675000D03*
%TO.P,J4,4,Pin_4*%
%TO.N,/SBWTCK*%
X148080000Y-113675000D03*
%TD*%
D20*
%TO.P,R1,1*%
%TO.N,Net-(J1-CC1)*%
X128675000Y-100675000D03*
%TO.P,R1,2*%
%TO.N,GND*%
X130325000Y-100675000D03*
%TD*%
D21*
%TO.P,R10,1*%
%TO.N,Net-(U1-ISENSOR)*%
X163000000Y-104000000D03*
%TO.P,R10,2*%
%TO.N,Net-(U1-BIAS)*%
X163000000Y-102350000D03*
%TD*%
D22*
%TO.P,SW1,1,A*%
%TO.N,/SBWDIO*%
X167100000Y-106025001D03*
X167100000Y-112324999D03*
%TO.P,SW1,2,B*%
%TO.N,GND*%
X170900000Y-106025001D03*
X170900000Y-112324999D03*
%TD*%
D23*
%TO.P,U1,1,BIAS*%
%TO.N,Net-(U1-BIAS)*%
X160737500Y-102937500D03*
%TO.P,U1,2,REFIN+*%
X160737500Y-103587500D03*
%TO.P,U1,3,REFIN-*%
%TO.N,Net-(U1-ISENSOR)*%
X160737500Y-104237500D03*
%TO.P,U1,4,ISENSOR*%
X160737500Y-104887500D03*
%TO.P,U1,5,FORCE+*%
%TO.N,Net-(J5-Pin_1)*%
X160737500Y-105537500D03*
D24*
%TO.P,U1,6,FORCE2*%
%TO.N,Net-(JP1-C)*%
X159600000Y-106675000D03*
%TO.P,U1,7,RTDIN+*%
%TO.N,Net-(J5-Pin_2)*%
X158950000Y-106675000D03*
%TO.P,U1,8,RTDIN-*%
%TO.N,Net-(J6-Pin_1)*%
X158300000Y-106675000D03*
%TO.P,U1,9,FORCE-*%
%TO.N,Net-(J6-Pin_2)*%
X157650000Y-106675000D03*
%TO.P,U1,10,GND*%
%TO.N,GND*%
X157000000Y-106675000D03*
D23*
%TO.P,U1,11,SDI*%
%TO.N,/MAX_MOSI*%
X155862500Y-105537500D03*
%TO.P,U1,12,SCLK*%
%TO.N,/MAX_SCLK*%
X155862500Y-104887500D03*
%TO.P,U1,13,~{CS}*%
%TO.N,/MAX_CS*%
X155862500Y-104237500D03*
%TO.P,U1,14,SDO*%
%TO.N,/MAX_MISO*%
X155862500Y-103587500D03*
%TO.P,U1,15,DGND*%
%TO.N,GND*%
X155862500Y-102937500D03*
D24*
%TO.P,U1,16,GND*%
X157000000Y-101800000D03*
%TO.P,U1,17,NC*%
%TO.N,unconnected-(U1-NC-Pad17)*%
X157650000Y-101800000D03*
%TO.P,U1,18,~{DRDY}*%
%TO.N,/MAX_DRDY*%
X158300000Y-101800000D03*
%TO.P,U1,19,DVDD*%
%TO.N,+3V3*%
X158950000Y-101800000D03*
%TO.P,U1,20,VDD*%
%TO.N,Net-(U1-VDD)*%
X159600000Y-101800000D03*
D25*
%TO.P,U1,21,GND*%
%TO.N,GND*%
X158300000Y-104237500D03*
%TD*%
D26*
%TO.P,R12,1*%
%TO.N,/SCL*%
X167416637Y-92591637D03*
%TO.P,R12,2*%
%TO.N,+3V3*%
X168583363Y-93758363D03*
%TD*%
D27*
%TO.P,R9,1*%
%TO.N,+3V3*%
X151500000Y-101850000D03*
%TO.P,R9,2*%
%TO.N,/MAX_SCLK*%
X151500000Y-103500000D03*
%TD*%
D28*
%TO.P,R11,1*%
%TO.N,Net-(J4-Pin_1)*%
X140325000Y-110675000D03*
%TO.P,R11,2*%
%TO.N,+3V3*%
X138675000Y-110675000D03*
%TD*%
D27*
%TO.P,R7,1*%
%TO.N,+3V3*%
X153500000Y-101850000D03*
%TO.P,R7,2*%
%TO.N,/MAX_CS*%
X153500000Y-103500000D03*
%TD*%
D20*
%TO.P,R2,1*%
%TO.N,Net-(J1-CC2)*%
X127675000Y-108675000D03*
%TO.P,R2,2*%
%TO.N,GND*%
X129325000Y-108675000D03*
%TD*%
D27*
%TO.P,R6,1*%
%TO.N,+3V3*%
X149500000Y-101850000D03*
%TO.P,R6,2*%
%TO.N,/MAX_MOSI*%
X149500000Y-103500000D03*
%TD*%
D29*
%TO.P,FB1,1*%
%TO.N,+3V3*%
X163787500Y-100675000D03*
%TO.P,FB1,2*%
%TO.N,Net-(U1-VDD)*%
X162212500Y-100675000D03*
%TD*%
D30*
%TO.P,R13,1*%
%TO.N,/SDA*%
X166083363Y-91258363D03*
%TO.P,R13,2*%
%TO.N,+3V3*%
X164916637Y-90091637D03*
%TD*%
D31*
%TO.P,C6,1*%
%TO.N,GND*%
X156225000Y-99175000D03*
%TO.P,C6,2*%
%TO.N,+3V3*%
X157775000Y-99175000D03*
%TD*%
%TO.P,C7,1*%
%TO.N,Net-(U1-VDD)*%
X159306052Y-99099451D03*
%TO.P,C7,2*%
%TO.N,GND*%
X160856052Y-99099451D03*
%TD*%
D32*
%TO.N,GND*%
X160500000Y-98225000D03*
X146861091Y-108536091D03*
X144550000Y-108175000D03*
X134500000Y-102675000D03*
X155500000Y-100125000D03*
X144500000Y-100175000D03*
X138500000Y-99675000D03*
X142500000Y-108675000D03*
X156750491Y-107702327D03*
X131500000Y-99475000D03*
X136000000Y-104675000D03*
X155000000Y-101225000D03*
X155000000Y-102400000D03*
%TO.N,/VBAT*%
X154000000Y-109675000D03*
X139172183Y-107224999D03*
%TO.N,Net-(SW_MAIN1-B)*%
X165000000Y-97675000D03*
X157950000Y-96574000D03*
X146361091Y-101313909D03*
X147138909Y-100536091D03*
%TO.N,+3V3*%
X148500000Y-102675000D03*
X136674265Y-102849265D03*
X130000000Y-96675000D03*
X138500000Y-111675000D03*
X142000000Y-118175000D03*
X151000000Y-101225000D03*
X149426976Y-101382454D03*
X139000000Y-109675000D03*
%TO.N,/USER*%
X157000000Y-119675000D03*
X153500000Y-117075000D03*
%TO.N,Net-(J5-Pin_2)*%
X159000000Y-107675000D03*
X156949994Y-110175000D03*
X154500000Y-115675000D03*
X159500000Y-109675000D03*
%TO.N,/SBWDIO*%
X147500000Y-111675000D03*
%TO.N,Net-(J6-Pin_1)*%
X158249997Y-107675000D03*
X161000000Y-113175000D03*
%TO.N,Net-(J5-Pin_1)*%
X153000000Y-115575000D03*
X155336088Y-111011088D03*
X130000000Y-114675000D03*
%TO.N,Net-(J6-Pin_2)*%
X157499994Y-107675000D03*
%TO.N,/SDA*%
X166257229Y-91917771D03*
%TO.N,/SCL*%
X167089830Y-93487011D03*
%TO.N,Net-(JP1-C)*%
X132000000Y-109175000D03*
%TO.N,/3V3_BLE*%
X150893294Y-98068294D03*
X147672183Y-98125001D03*
X141663909Y-95061091D03*
X140500000Y-103675000D03*
X153971475Y-98146475D03*
%TO.N,/MAX_MOSI*%
X149500000Y-104175000D03*
%TO.N,/MAX_CS*%
X152500000Y-103675000D03*
%TO.N,/MAX_SCLK*%
X151500000Y-104175000D03*
%TO.N,/MAX_MISO*%
X154861091Y-103536090D03*
%TO.N,/MAX_DRDY*%
X157861091Y-100536090D03*
X149676000Y-100675000D03*
X147000000Y-107425003D03*
%TO.N,/BLE_WAKE*%
X153138909Y-106813908D03*
X147827817Y-102125001D03*
%TO.N,/BLE_TX*%
X152000000Y-112225000D03*
X150200000Y-112225000D03*
X163000000Y-99675000D03*
X156000000Y-97675000D03*
%TO.N,/BLE_IRQ*%
X151077928Y-104812391D03*
X147500000Y-97175000D03*
%TO.N,/BLE_RX*%
X149800000Y-110493914D03*
X147651257Y-110493914D03*
X144000000Y-106125000D03*
X146138909Y-99536091D03*
%TO.N,/BLE_PWR*%
X137500000Y-106675000D03*
X146553737Y-106121263D03*
%TD*%
D33*
%TO.N,GND*%
X157000000Y-101800000D02*
X157000000Y-102937500D01*
X155862500Y-102937500D02*
X157000000Y-102937500D01*
X155000000Y-100625000D02*
X155500000Y-100125000D01*
X157000000Y-102937500D02*
X158300000Y-104237500D01*
X157000000Y-106675000D02*
X156750491Y-106924509D01*
X160856052Y-98581052D02*
X160500000Y-98225000D01*
X155000000Y-101225000D02*
X155000000Y-100625000D01*
X155537500Y-102937500D02*
X155000000Y-102400000D01*
X156225000Y-99175000D02*
X156225000Y-99400000D01*
X155862500Y-102937500D02*
X155537500Y-102937500D01*
X156750491Y-106924509D02*
X156750491Y-107702327D01*
X160856052Y-99099451D02*
X160856052Y-98581052D01*
X156225000Y-99400000D02*
X155500000Y-100125000D01*
X144050000Y-108675000D02*
X144550000Y-108175000D01*
X142500000Y-108675000D02*
X144050000Y-108675000D01*
%TO.N,Net-(C1-Pad2)*%
X125500000Y-104175000D02*
X126850000Y-104175001D01*
X126850000Y-99925000D02*
X125500000Y-99925000D01*
%TO.N,/VBAT*%
X141622184Y-109675000D02*
X139172183Y-107224999D01*
X154000000Y-109675000D02*
X141622184Y-109675000D01*
%TO.N,Net-(SW_MAIN1-B)*%
X163899000Y-96574000D02*
X157950000Y-96574000D01*
X165000000Y-97675000D02*
X163899000Y-96574000D01*
X147138909Y-100536091D02*
X146361091Y-101313909D01*
%TO.N,+3V3*%
X153500000Y-99395768D02*
X153500000Y-101850000D01*
X170000000Y-95175000D02*
X168583363Y-93758363D01*
X136174265Y-102849265D02*
X136674265Y-102849265D01*
X155771768Y-97124000D02*
X153500000Y-99395768D01*
X149726707Y-119831046D02*
X148070661Y-118175000D01*
X148500000Y-102675000D02*
X148500000Y-102228036D01*
X164500000Y-100675000D02*
X170000000Y-95175000D01*
X153500000Y-101850000D02*
X151500000Y-101850000D01*
X151500000Y-101725000D02*
X151000000Y-101225000D01*
X167000000Y-94175000D02*
X164500000Y-91675000D01*
X149426976Y-101776976D02*
X149500000Y-101850000D01*
X164500000Y-90508274D02*
X164916637Y-90091637D01*
X157775000Y-99175000D02*
X157775000Y-99450000D01*
X130000000Y-96675000D02*
X136174265Y-102849265D01*
X138675000Y-110000000D02*
X139000000Y-109675000D01*
X157775000Y-99450000D02*
X158950000Y-100625000D01*
X163787500Y-100675000D02*
X163787500Y-99683268D01*
X151500000Y-101850000D02*
X151500000Y-101725000D01*
X163787500Y-100675000D02*
X164500000Y-100675000D01*
X168583363Y-93758363D02*
X168166726Y-94175000D01*
X163787500Y-99683268D02*
X161228232Y-97124000D01*
X157775000Y-99400000D02*
X155325000Y-101850000D01*
X164500000Y-91675000D02*
X164500000Y-90508274D01*
X149426976Y-101382454D02*
X149426976Y-101776976D01*
X138500000Y-111675000D02*
X138500000Y-110850000D01*
X172500000Y-95175000D02*
X170000000Y-95175000D01*
X158950000Y-100625000D02*
X158950000Y-101800000D01*
X148878036Y-101850000D02*
X149500000Y-101850000D01*
X148500000Y-102228036D02*
X148878036Y-101850000D01*
X138675000Y-110675000D02*
X138675000Y-110000000D01*
X168166726Y-94175000D02*
X167000000Y-94175000D01*
X157775000Y-99175000D02*
X157775000Y-99400000D01*
X155325000Y-101850000D02*
X153500000Y-101850000D01*
X148070661Y-118175000D02*
X142000000Y-118175000D01*
X173500000Y-94175000D02*
X172500000Y-95175000D01*
X161228232Y-97124000D02*
X155771768Y-97124000D01*
X138500000Y-110850000D02*
X138675000Y-110675000D01*
%TO.N,/USER*%
X153500000Y-117675000D02*
X154000000Y-118175000D01*
X155500000Y-119675000D02*
X157000000Y-119675000D01*
X154000000Y-118175000D02*
X155500000Y-119675000D01*
X153500000Y-117075000D02*
X153500000Y-117675000D01*
%TO.N,Net-(J1-CC2)*%
X125005026Y-103325000D02*
X125500000Y-103325000D01*
X126000000Y-108675000D02*
X124000000Y-106675000D01*
X124000000Y-104330026D02*
X125005026Y-103325000D01*
X127675000Y-108675000D02*
X126000000Y-108675000D01*
X124000000Y-106675000D02*
X124000000Y-104330026D01*
%TO.N,Net-(J1-CC1)*%
X128675000Y-100675000D02*
X126950001Y-100675000D01*
X126950001Y-100675000D02*
X126850000Y-100775001D01*
%TO.N,Net-(U1-VDD)*%
X159306052Y-99981052D02*
X159306052Y-99099451D01*
X160000000Y-100675000D02*
X159600000Y-100275000D01*
X162212500Y-100675000D02*
X160000000Y-100675000D01*
X159600000Y-101800000D02*
X159600000Y-100275000D01*
X159600000Y-100275000D02*
X159306052Y-99981052D01*
%TO.N,Net-(J5-Pin_2)*%
X136051000Y-117624000D02*
X135270000Y-118405000D01*
X152171768Y-117624000D02*
X136051000Y-117624000D01*
X154500000Y-115675000D02*
X154120768Y-115675000D01*
X159000000Y-107675000D02*
X159000000Y-106725000D01*
X154120768Y-115675000D02*
X152171768Y-117624000D01*
X156949994Y-110175000D02*
X159000000Y-110175000D01*
X135270000Y-118405000D02*
X135270000Y-119867500D01*
X159000000Y-106725000D02*
X158950000Y-106675000D01*
X159000000Y-110175000D02*
X159500000Y-109675000D01*
%TO.N,/SBWDIO*%
X167100000Y-112324999D02*
X166450001Y-111675000D01*
X167100000Y-106025001D02*
X167100000Y-112324999D01*
X166450001Y-111675000D02*
X147500000Y-111675000D01*
%TO.N,Net-(J6-Pin_1)*%
X158249997Y-106725003D02*
X158300000Y-106675000D01*
X164230000Y-116405000D02*
X164230000Y-119867500D01*
X158249997Y-107675000D02*
X158249997Y-106725003D01*
X161000000Y-113175000D02*
X164230000Y-116405000D01*
%TO.N,Net-(J5-Pin_1)*%
X155336088Y-111011088D02*
X159663912Y-111011088D01*
X153000000Y-115575000D02*
X130900000Y-115575000D01*
X161362500Y-105537500D02*
X160737500Y-105537500D01*
X162000000Y-106175000D02*
X161362500Y-105537500D01*
X162000000Y-108675000D02*
X162000000Y-106175000D01*
X159663912Y-111011088D02*
X162000000Y-108675000D01*
X132730000Y-119867500D02*
X132730000Y-117405000D01*
X130900000Y-115575000D02*
X130000000Y-114675000D01*
X132730000Y-117405000D02*
X130900000Y-115575000D01*
%TO.N,Net-(J6-Pin_2)*%
X157650000Y-107524994D02*
X157499994Y-107675000D01*
X157650000Y-106675000D02*
X157650000Y-107524994D01*
%TO.N,Net-(J4-Pin_1)*%
X140460000Y-110810000D02*
X140325000Y-110675000D01*
X140460000Y-113675000D02*
X140460000Y-110810000D01*
%TO.N,/SDA*%
X167000000Y-90341726D02*
X166083363Y-91258363D01*
X166083363Y-91258363D02*
X166083363Y-91743905D01*
X167000000Y-89898692D02*
X167000000Y-90341726D01*
X168111846Y-88786846D02*
X167000000Y-89898692D01*
X166083363Y-91743905D02*
X166257229Y-91917771D01*
%TO.N,Net-(U1-ISENSOR)*%
X160737500Y-104237500D02*
X160737500Y-104887500D01*
X161937500Y-104237500D02*
X160737500Y-104237500D01*
X163000000Y-104000000D02*
X162175000Y-104000000D01*
X162175000Y-104000000D02*
X161937500Y-104237500D01*
%TO.N,Net-(U1-BIAS)*%
X162325000Y-102350000D02*
X161737500Y-102937500D01*
X160737500Y-103587500D02*
X160737500Y-102937500D01*
X161737500Y-102937500D02*
X160737500Y-102937500D01*
X163000000Y-102350000D02*
X162325000Y-102350000D01*
%TO.N,/SCL*%
X168333274Y-91675000D02*
X167416637Y-92591637D01*
X169907897Y-90582897D02*
X168815794Y-91675000D01*
X167416637Y-92591637D02*
X167416637Y-93160204D01*
X168815794Y-91675000D02*
X168333274Y-91675000D01*
X167416637Y-93160204D02*
X167089830Y-93487011D01*
%TO.N,Net-(JP1-C)*%
X159600000Y-106675000D02*
X159600000Y-107854232D01*
X132051000Y-109124000D02*
X132000000Y-109175000D01*
X142368914Y-111043914D02*
X140449000Y-109124000D01*
X154131086Y-111043914D02*
X142368914Y-111043914D01*
X159600000Y-107854232D02*
X157830232Y-109624000D01*
X140449000Y-109124000D02*
X132051000Y-109124000D01*
X157830232Y-109624000D02*
X155551000Y-109624000D01*
X155551000Y-109624000D02*
X154131086Y-111043914D01*
%TO.N,/3V3_BLE*%
X141663909Y-96338909D02*
X143450001Y-98125001D01*
X141663909Y-95061091D02*
X141663909Y-96338909D01*
X153893294Y-98068294D02*
X153971475Y-98146475D01*
X141663909Y-95061091D02*
X140500000Y-96225000D01*
X143450001Y-98125001D02*
X147672183Y-98125001D01*
X150893294Y-98068294D02*
X153893294Y-98068294D01*
X140500000Y-96225000D02*
X140500000Y-103675000D01*
%TO.N,/MAX_MOSI*%
X150862500Y-105537500D02*
X149500000Y-104175000D01*
X155862500Y-105537500D02*
X150862500Y-105537500D01*
X149500000Y-104175000D02*
X149500000Y-103500000D01*
%TO.N,/MAX_CS*%
X152500000Y-103675000D02*
X153325000Y-103675000D01*
X155862500Y-104237500D02*
X154783269Y-104237500D01*
X154045769Y-103500000D02*
X153500000Y-103500000D01*
X153325000Y-103675000D02*
X153500000Y-103500000D01*
X154783269Y-104237500D02*
X154045769Y-103500000D01*
%TO.N,/MAX_SCLK*%
X151500000Y-104175000D02*
X151500000Y-103500000D01*
X155862500Y-104887500D02*
X152212500Y-104887500D01*
X152212500Y-104887500D02*
X151500000Y-104175000D01*
%TO.N,/MAX_MISO*%
X155811090Y-103536090D02*
X155862500Y-103587500D01*
X154861091Y-103536090D02*
X155811090Y-103536090D01*
%TO.N,/MAX_DRDY*%
X147100144Y-107354088D02*
X147100144Y-106354088D01*
X147104737Y-105893031D02*
X147100144Y-105888438D01*
X147100144Y-106354088D02*
X147104737Y-106349495D01*
X147100144Y-102074856D02*
X148500000Y-100675000D01*
X147104737Y-106349495D02*
X147104737Y-105893031D01*
X147000000Y-107425003D02*
X147029229Y-107425003D01*
X147029229Y-107425003D02*
X147100144Y-107354088D01*
X147100144Y-105888438D02*
X147100144Y-102074856D01*
X158300000Y-100974999D02*
X158300000Y-101800000D01*
X157861091Y-100536090D02*
X158300000Y-100974999D01*
X148500000Y-100675000D02*
X149676000Y-100675000D01*
%TO.N,/BLE_WAKE*%
X147827817Y-103282049D02*
X147827817Y-102125001D01*
X151359676Y-106813908D02*
X147827817Y-103282049D01*
X153138909Y-106813908D02*
X151359676Y-106813908D01*
%TO.N,/BLE_TX*%
X163000000Y-99675000D02*
X161000000Y-97675000D01*
X150200000Y-112225000D02*
X152000000Y-112225000D01*
X161000000Y-97675000D02*
X156000000Y-97675000D01*
%TO.N,/BLE_IRQ*%
X150226000Y-103960463D02*
X150226000Y-99901000D01*
X150226000Y-99901000D02*
X147500000Y-97175000D01*
X151077928Y-104812391D02*
X150226000Y-103960463D01*
%TO.N,/BLE_RX*%
X147651257Y-110493914D02*
X149800000Y-110493914D01*
X144000000Y-101675000D02*
X144000000Y-106125000D01*
X146138909Y-99536091D02*
X144000000Y-101675000D01*
%TO.N,/BLE_PWR*%
X146553737Y-106121263D02*
X146000000Y-106675000D01*
X146000000Y-106675000D02*
X137500000Y-106675000D01*
%TD*%
%TA.AperFunction,Conductor*%
%TO.N,GND*%
G36*
X158318607Y-80938360D02*
G01*
X158389384Y-80946334D01*
X158453797Y-80973400D01*
X158493352Y-81030995D01*
X158499500Y-81069554D01*
X158499500Y-81407317D01*
X158530044Y-81619764D01*
X158530047Y-81619774D01*
X158590517Y-81825715D01*
X158679672Y-82020938D01*
X158679679Y-82020951D01*
X158795720Y-82201514D01*
X158936275Y-82363724D01*
X159060277Y-82471172D01*
X159098487Y-82504281D01*
X159227531Y-82587211D01*
X159279048Y-82620320D01*
X159279061Y-82620327D01*
X159474284Y-82709482D01*
X159474288Y-82709483D01*
X159474290Y-82709484D01*
X159680231Y-82769954D01*
X159680232Y-82769954D01*
X159680235Y-82769955D01*
X159743584Y-82779062D01*
X159892682Y-82800500D01*
X159892683Y-82800500D01*
X164219897Y-82800500D01*
X164219901Y-82800501D01*
X164279705Y-82800500D01*
X164291856Y-82801097D01*
X164371085Y-82808899D01*
X164394926Y-82813641D01*
X164439789Y-82827249D01*
X164465258Y-82834975D01*
X164487714Y-82844276D01*
X164552534Y-82878922D01*
X164572740Y-82892422D01*
X164629091Y-82938668D01*
X164634217Y-82942875D01*
X164643233Y-82951047D01*
X178048882Y-96356696D01*
X178057055Y-96365713D01*
X178107565Y-96427261D01*
X178121069Y-96447472D01*
X178155713Y-96512287D01*
X178165016Y-96534746D01*
X178177074Y-96574499D01*
X178186349Y-96605074D01*
X178191091Y-96628917D01*
X178198902Y-96708244D01*
X178199499Y-96720393D01*
X178199499Y-96751084D01*
X178199499Y-96780099D01*
X178199499Y-96780101D01*
X178199500Y-96790093D01*
X178199500Y-113293038D01*
X178198720Y-113306923D01*
X178188540Y-113397264D01*
X178182362Y-113424333D01*
X178154648Y-113503537D01*
X178142600Y-113528555D01*
X178097957Y-113599604D01*
X178080644Y-113621313D01*
X178021313Y-113680644D01*
X177999604Y-113697957D01*
X177928555Y-113742600D01*
X177903537Y-113754648D01*
X177824333Y-113782362D01*
X177797264Y-113788540D01*
X177717075Y-113797576D01*
X177706921Y-113798720D01*
X177693038Y-113799500D01*
X171772663Y-113799500D01*
X171705624Y-113779815D01*
X171659869Y-113727011D01*
X171649925Y-113657853D01*
X171678950Y-113594297D01*
X171698352Y-113576234D01*
X171757187Y-113532189D01*
X171757190Y-113532186D01*
X171843350Y-113417092D01*
X171843354Y-113417085D01*
X171893596Y-113282378D01*
X171893598Y-113282371D01*
X171899999Y-113222843D01*
X171900000Y-113222826D01*
X171900000Y-112574999D01*
X171150000Y-112574999D01*
X171150000Y-113674999D01*
X171179280Y-113704279D01*
X171212765Y-113765602D01*
X171207781Y-113835294D01*
X171165909Y-113891227D01*
X171143111Y-113904754D01*
X170979056Y-113979675D01*
X170979048Y-113979679D01*
X170798485Y-114095720D01*
X170636275Y-114236275D01*
X170495720Y-114398485D01*
X170379679Y-114579048D01*
X170379672Y-114579061D01*
X170290517Y-114774284D01*
X170230047Y-114980225D01*
X170230044Y-114980235D01*
X170199500Y-115192682D01*
X170199500Y-123293038D01*
X170198720Y-123306922D01*
X170198720Y-123306923D01*
X170188540Y-123397264D01*
X170182362Y-123424333D01*
X170154648Y-123503537D01*
X170142600Y-123528555D01*
X170097957Y-123599604D01*
X170080644Y-123621313D01*
X170021313Y-123680644D01*
X169999604Y-123697957D01*
X169928555Y-123742600D01*
X169903537Y-123754648D01*
X169824333Y-123782362D01*
X169797264Y-123788540D01*
X169717075Y-123797576D01*
X169706921Y-123798720D01*
X169693038Y-123799500D01*
X162206962Y-123799500D01*
X162193078Y-123798720D01*
X162180553Y-123797308D01*
X162102735Y-123788540D01*
X162075666Y-123782362D01*
X161996462Y-123754648D01*
X161971444Y-123742600D01*
X161900395Y-123697957D01*
X161878686Y-123680644D01*
X161819355Y-123621313D01*
X161802042Y-123599604D01*
X161757399Y-123528555D01*
X161745351Y-123503537D01*
X161717637Y-123424333D01*
X161711459Y-123397263D01*
X161701280Y-123306922D01*
X161700500Y-123293038D01*
X161700500Y-122692683D01*
X161700500Y-122692682D01*
X161671153Y-122488567D01*
X161669955Y-122480235D01*
X161669952Y-122480225D01*
X161631705Y-122349966D01*
X161609484Y-122274290D01*
X161609483Y-122274288D01*
X161609482Y-122274284D01*
X161520327Y-122079061D01*
X161520320Y-122079048D01*
X161487211Y-122027531D01*
X161404281Y-121898487D01*
X161306559Y-121785710D01*
X161263724Y-121736275D01*
X161101514Y-121595720D01*
X161101513Y-121595719D01*
X161015573Y-121540489D01*
X160920951Y-121479679D01*
X160920938Y-121479672D01*
X160725715Y-121390517D01*
X160519774Y-121330047D01*
X160519764Y-121330044D01*
X160328754Y-121302582D01*
X160307318Y-121299500D01*
X160265892Y-121299500D01*
X153497448Y-121299500D01*
X153430409Y-121279815D01*
X153384654Y-121227011D01*
X153374710Y-121157853D01*
X153403735Y-121094297D01*
X153423136Y-121076234D01*
X153473897Y-121038233D01*
X153560057Y-120923139D01*
X153560061Y-120923132D01*
X153610303Y-120788425D01*
X153610305Y-120788418D01*
X153616706Y-120728890D01*
X153616707Y-120728873D01*
X153616707Y-120081046D01*
X152699719Y-120081046D01*
X152732632Y-120024039D01*
X152766707Y-119896872D01*
X152766707Y-119765220D01*
X152732632Y-119638053D01*
X152699719Y-119581046D01*
X153616707Y-119581046D01*
X153616707Y-118940304D01*
X153636392Y-118873265D01*
X153689196Y-118827510D01*
X153758354Y-118817566D01*
X153821910Y-118846591D01*
X153828388Y-118852623D01*
X155015139Y-120039374D01*
X155015149Y-120039385D01*
X155019479Y-120043715D01*
X155019480Y-120043716D01*
X155131284Y-120155520D01*
X155131286Y-120155521D01*
X155131290Y-120155524D01*
X155268209Y-120234573D01*
X155268216Y-120234577D01*
X155380019Y-120264534D01*
X155420942Y-120275500D01*
X155420943Y-120275500D01*
X156420234Y-120275500D01*
X156487273Y-120295185D01*
X156489125Y-120296398D01*
X156620814Y-120384390D01*
X156620827Y-120384397D01*
X156766498Y-120444735D01*
X156766503Y-120444737D01*
X156921153Y-120475499D01*
X156921156Y-120475500D01*
X156921158Y-120475500D01*
X157078844Y-120475500D01*
X157078845Y-120475499D01*
X157233497Y-120444737D01*
X157379179Y-120384394D01*
X157510289Y-120296789D01*
X157621789Y-120185289D01*
X157709394Y-120054179D01*
X157769737Y-119908497D01*
X157800500Y-119753842D01*
X157800500Y-119596158D01*
X157800500Y-119596155D01*
X157800499Y-119596153D01*
X157797494Y-119581046D01*
X157769737Y-119441503D01*
X157723985Y-119331046D01*
X157709397Y-119295827D01*
X157709390Y-119295814D01*
X157621789Y-119164711D01*
X157621786Y-119164707D01*
X157510292Y-119053213D01*
X157510288Y-119053210D01*
X157379185Y-118965609D01*
X157379172Y-118965602D01*
X157233501Y-118905264D01*
X157233489Y-118905261D01*
X157078845Y-118874500D01*
X157078842Y-118874500D01*
X156921158Y-118874500D01*
X156921155Y-118874500D01*
X156766510Y-118905261D01*
X156766498Y-118905264D01*
X156620827Y-118965602D01*
X156620814Y-118965609D01*
X156489125Y-119053602D01*
X156422447Y-119074480D01*
X156420234Y-119074500D01*
X155800097Y-119074500D01*
X155733058Y-119054815D01*
X155712416Y-119038181D01*
X154487590Y-117813355D01*
X154487588Y-117813352D01*
X154244262Y-117570026D01*
X154210777Y-117508703D01*
X154215761Y-117439011D01*
X154217365Y-117434934D01*
X154269737Y-117308497D01*
X154300500Y-117153842D01*
X154300500Y-116996158D01*
X154300500Y-116996155D01*
X154300499Y-116996153D01*
X154269738Y-116841510D01*
X154269737Y-116841503D01*
X154269735Y-116841498D01*
X154209397Y-116695827D01*
X154209387Y-116695809D01*
X154173473Y-116642059D01*
X154152595Y-116575382D01*
X154171080Y-116508002D01*
X154223059Y-116461312D01*
X154292029Y-116450136D01*
X154300751Y-116451549D01*
X154349831Y-116461312D01*
X154421156Y-116475500D01*
X154421158Y-116475500D01*
X154578844Y-116475500D01*
X154578845Y-116475499D01*
X154733497Y-116444737D01*
X154879179Y-116384394D01*
X155010289Y-116296789D01*
X155121789Y-116185289D01*
X155209394Y-116054179D01*
X155216806Y-116036286D01*
X155255150Y-115943713D01*
X155269737Y-115908497D01*
X155300500Y-115753842D01*
X155300500Y-115596158D01*
X155300500Y-115596155D01*
X155300499Y-115596153D01*
X155269738Y-115441510D01*
X155269737Y-115441503D01*
X155269735Y-115441498D01*
X155209397Y-115295827D01*
X155209390Y-115295814D01*
X155121789Y-115164711D01*
X155121786Y-115164707D01*
X155010292Y-115053213D01*
X155010288Y-115053210D01*
X154879185Y-114965609D01*
X154879172Y-114965602D01*
X154733501Y-114905264D01*
X154733489Y-114905261D01*
X154578845Y-114874500D01*
X154578842Y-114874500D01*
X154421158Y-114874500D01*
X154421155Y-114874500D01*
X154266510Y-114905261D01*
X154266498Y-114905264D01*
X154120827Y-114965602D01*
X154120814Y-114965609D01*
X153989714Y-115053208D01*
X153989712Y-115053210D01*
X153989711Y-115053211D01*
X153965088Y-115077833D01*
X153926580Y-115103983D01*
X153918251Y-115107580D01*
X153888983Y-115115423D01*
X153862201Y-115130886D01*
X153855982Y-115134476D01*
X153855976Y-115134479D01*
X153821198Y-115154558D01*
X153753298Y-115171028D01*
X153687271Y-115148175D01*
X153656100Y-115116061D01*
X153621789Y-115064711D01*
X153621787Y-115064708D01*
X153510292Y-114953213D01*
X153510288Y-114953210D01*
X153379185Y-114865609D01*
X153379172Y-114865602D01*
X153233501Y-114805264D01*
X153233489Y-114805261D01*
X153078845Y-114774500D01*
X153078842Y-114774500D01*
X152921158Y-114774500D01*
X152921155Y-114774500D01*
X152766510Y-114805261D01*
X152766498Y-114805264D01*
X152620827Y-114865602D01*
X152620814Y-114865609D01*
X152489125Y-114953602D01*
X152422447Y-114974480D01*
X152420234Y-114974500D01*
X148970633Y-114974500D01*
X148903594Y-114954815D01*
X148857839Y-114902011D01*
X148847895Y-114832853D01*
X148876920Y-114769297D01*
X148897748Y-114750181D01*
X148959792Y-114705104D01*
X149110104Y-114554792D01*
X149110106Y-114554788D01*
X149110109Y-114554786D01*
X149235048Y-114382820D01*
X149235050Y-114382817D01*
X149235051Y-114382816D01*
X149331557Y-114193412D01*
X149397246Y-113991243D01*
X149430500Y-113781287D01*
X149430500Y-113568713D01*
X149397246Y-113358757D01*
X149331557Y-113156588D01*
X149235051Y-112967184D01*
X149235049Y-112967181D01*
X149235048Y-112967179D01*
X149110109Y-112795213D01*
X148959786Y-112644890D01*
X148787817Y-112519949D01*
X148768261Y-112509985D01*
X148717464Y-112462011D01*
X148700669Y-112394190D01*
X148723206Y-112328055D01*
X148777921Y-112284603D01*
X148824555Y-112275500D01*
X149292098Y-112275500D01*
X149359137Y-112295185D01*
X149404892Y-112347989D01*
X149413715Y-112375308D01*
X149430261Y-112458491D01*
X149430264Y-112458501D01*
X149490602Y-112604172D01*
X149490609Y-112604185D01*
X149578210Y-112735288D01*
X149578213Y-112735292D01*
X149689707Y-112846786D01*
X149689711Y-112846789D01*
X149820814Y-112934390D01*
X149820827Y-112934397D01*
X149922477Y-112976501D01*
X149966503Y-112994737D01*
X150098520Y-113020997D01*
X150121153Y-113025499D01*
X150121156Y-113025500D01*
X150121158Y-113025500D01*
X150278844Y-113025500D01*
X150278845Y-113025499D01*
X150433497Y-112994737D01*
X150579179Y-112934394D01*
X150579185Y-112934390D01*
X150710875Y-112846398D01*
X150777553Y-112825520D01*
X150779766Y-112825500D01*
X151420234Y-112825500D01*
X151487273Y-112845185D01*
X151489125Y-112846398D01*
X151620814Y-112934390D01*
X151620827Y-112934397D01*
X151722477Y-112976501D01*
X151766503Y-112994737D01*
X151898520Y-113020997D01*
X151921153Y-113025499D01*
X151921156Y-113025500D01*
X151921158Y-113025500D01*
X152078844Y-113025500D01*
X152078845Y-113025499D01*
X152233497Y-112994737D01*
X152379179Y-112934394D01*
X152510289Y-112846789D01*
X152621789Y-112735289D01*
X152709394Y-112604179D01*
X152769737Y-112458497D01*
X152780326Y-112405263D01*
X152786285Y-112375308D01*
X152818670Y-112313397D01*
X152879386Y-112278823D01*
X152907902Y-112275500D01*
X160496561Y-112275500D01*
X160563600Y-112295185D01*
X160609355Y-112347989D01*
X160619299Y-112417147D01*
X160590274Y-112480703D01*
X160565452Y-112502602D01*
X160489711Y-112553210D01*
X160489707Y-112553213D01*
X160378213Y-112664707D01*
X160378210Y-112664711D01*
X160290609Y-112795814D01*
X160290602Y-112795827D01*
X160230264Y-112941498D01*
X160230261Y-112941510D01*
X160199500Y-113096153D01*
X160199500Y-113253846D01*
X160230261Y-113408489D01*
X160230264Y-113408501D01*
X160290602Y-113554172D01*
X160290609Y-113554185D01*
X160378210Y-113685288D01*
X160378213Y-113685292D01*
X160489707Y-113796786D01*
X160489711Y-113796789D01*
X160620814Y-113884390D01*
X160620827Y-113884397D01*
X160766498Y-113944735D01*
X160766503Y-113944737D01*
X160831147Y-113957595D01*
X160921849Y-113975638D01*
X160983760Y-114008023D01*
X160985339Y-114009574D01*
X163593181Y-116617416D01*
X163626666Y-116678739D01*
X163629500Y-116705097D01*
X163629500Y-118143000D01*
X163609815Y-118210039D01*
X163557011Y-118255794D01*
X163505500Y-118267000D01*
X163329982Y-118267000D01*
X163227203Y-118277500D01*
X163227202Y-118277501D01*
X163144669Y-118304849D01*
X163060667Y-118332685D01*
X163060662Y-118332687D01*
X162911342Y-118424789D01*
X162787289Y-118548842D01*
X162695187Y-118698162D01*
X162695185Y-118698167D01*
X162669560Y-118775500D01*
X162640001Y-118864702D01*
X162640001Y-118864703D01*
X162640000Y-118864703D01*
X162629500Y-118967482D01*
X162629500Y-120767517D01*
X162640000Y-120870296D01*
X162695185Y-121036832D01*
X162695187Y-121036837D01*
X162723416Y-121082603D01*
X162787288Y-121186156D01*
X162911344Y-121310212D01*
X163060665Y-121402314D01*
X163227202Y-121457499D01*
X163329990Y-121468000D01*
X163329995Y-121468000D01*
X163786425Y-121468000D01*
X163853464Y-121487685D01*
X163899219Y-121540489D01*
X163909163Y-121609647D01*
X163880138Y-121673203D01*
X163855316Y-121695102D01*
X163719711Y-121785710D01*
X163719707Y-121785713D01*
X163608213Y-121897207D01*
X163608210Y-121897211D01*
X163520609Y-122028314D01*
X163520602Y-122028327D01*
X163460264Y-122173998D01*
X163460261Y-122174010D01*
X163429500Y-122328653D01*
X163429500Y-122486346D01*
X163460261Y-122640989D01*
X163460264Y-122641001D01*
X163520602Y-122786672D01*
X163520609Y-122786685D01*
X163608210Y-122917788D01*
X163608213Y-122917792D01*
X163719707Y-123029286D01*
X163719711Y-123029289D01*
X163850814Y-123116890D01*
X163850827Y-123116897D01*
X163996498Y-123177235D01*
X163996503Y-123177237D01*
X164151153Y-123207999D01*
X164151156Y-123208000D01*
X164151158Y-123208000D01*
X164308844Y-123208000D01*
X164308845Y-123207999D01*
X164463497Y-123177237D01*
X164609179Y-123116894D01*
X164740289Y-123029289D01*
X164851789Y-122917789D01*
X164939394Y-122786679D01*
X164999737Y-122640997D01*
X165030500Y-122486342D01*
X165030500Y-122328658D01*
X165030500Y-122328655D01*
X165030499Y-122328653D01*
X164999738Y-122174010D01*
X164999737Y-122174003D01*
X164960411Y-122079061D01*
X164939397Y-122028327D01*
X164939390Y-122028314D01*
X164851789Y-121897211D01*
X164851786Y-121897207D01*
X164740292Y-121785713D01*
X164740288Y-121785710D01*
X164604684Y-121695102D01*
X164559879Y-121641490D01*
X164551172Y-121572165D01*
X164581326Y-121509137D01*
X164640770Y-121472418D01*
X164673575Y-121468000D01*
X165130005Y-121468000D01*
X165130010Y-121468000D01*
X165232798Y-121457499D01*
X165399335Y-121402314D01*
X165548656Y-121310212D01*
X165672712Y-121186156D01*
X165672715Y-121186150D01*
X165677495Y-121181371D01*
X165738818Y-121147886D01*
X165808510Y-121152870D01*
X165838058Y-121168731D01*
X165931155Y-121236370D01*
X165951912Y-121246946D01*
X166155616Y-121350739D01*
X166155618Y-121350739D01*
X166155621Y-121350741D01*
X166395215Y-121428590D01*
X166426866Y-121433603D01*
X166428469Y-121433857D01*
X166491603Y-121463786D01*
X166528535Y-121523097D01*
X166527537Y-121592960D01*
X166488927Y-121651193D01*
X166456523Y-121670891D01*
X166390827Y-121698102D01*
X166390814Y-121698109D01*
X166259711Y-121785710D01*
X166259707Y-121785713D01*
X166148213Y-121897207D01*
X166148210Y-121897211D01*
X166060609Y-122028314D01*
X166060602Y-122028327D01*
X166000264Y-122173998D01*
X166000261Y-122174010D01*
X165969500Y-122328653D01*
X165969500Y-122486346D01*
X166000261Y-122640989D01*
X166000264Y-122641001D01*
X166060602Y-122786672D01*
X166060609Y-122786685D01*
X166148210Y-122917788D01*
X166148213Y-122917792D01*
X166259707Y-123029286D01*
X166259711Y-123029289D01*
X166390814Y-123116890D01*
X166390827Y-123116897D01*
X166536498Y-123177235D01*
X166536503Y-123177237D01*
X166691153Y-123207999D01*
X166691156Y-123208000D01*
X166691158Y-123208000D01*
X166848844Y-123208000D01*
X166848845Y-123207999D01*
X167003497Y-123177237D01*
X167149179Y-123116894D01*
X167280289Y-123029289D01*
X167391789Y-122917789D01*
X167479394Y-122786679D01*
X167539737Y-122640997D01*
X167570500Y-122486342D01*
X167570500Y-122328658D01*
X167570500Y-122328655D01*
X167570499Y-122328653D01*
X167539738Y-122174010D01*
X167539737Y-122174003D01*
X167500411Y-122079061D01*
X167479397Y-122028327D01*
X167479390Y-122028314D01*
X167391789Y-121897211D01*
X167391786Y-121897207D01*
X167280292Y-121785713D01*
X167280288Y-121785710D01*
X167149185Y-121698109D01*
X167149173Y-121698102D01*
X167083476Y-121670891D01*
X167029072Y-121627051D01*
X167007007Y-121560757D01*
X167024286Y-121493057D01*
X167075423Y-121445447D01*
X167111531Y-121433857D01*
X167144785Y-121428590D01*
X167144788Y-121428589D01*
X167384379Y-121350741D01*
X167608845Y-121236370D01*
X167812656Y-121088293D01*
X167990793Y-120910156D01*
X168138870Y-120706345D01*
X168253241Y-120481879D01*
X168331090Y-120242285D01*
X168370500Y-119993462D01*
X168370500Y-119741538D01*
X168331090Y-119492715D01*
X168253241Y-119253121D01*
X168253239Y-119253118D01*
X168253239Y-119253116D01*
X168162229Y-119074500D01*
X168138870Y-119028655D01*
X168093062Y-118965606D01*
X167990798Y-118824850D01*
X167990794Y-118824845D01*
X167812654Y-118646705D01*
X167812649Y-118646701D01*
X167608848Y-118498632D01*
X167608847Y-118498631D01*
X167608845Y-118498630D01*
X167486282Y-118436181D01*
X167384383Y-118384260D01*
X167144785Y-118306410D01*
X167136931Y-118305166D01*
X166895962Y-118267000D01*
X166644038Y-118267000D01*
X166577738Y-118277501D01*
X166395214Y-118306410D01*
X166155616Y-118384260D01*
X165931158Y-118498628D01*
X165931155Y-118498629D01*
X165931155Y-118498630D01*
X165838060Y-118566266D01*
X165772255Y-118589745D01*
X165704201Y-118573919D01*
X165677496Y-118553628D01*
X165548657Y-118424789D01*
X165548656Y-118424788D01*
X165399335Y-118332686D01*
X165232798Y-118277501D01*
X165232796Y-118277500D01*
X165130017Y-118267000D01*
X165130010Y-118267000D01*
X164954500Y-118267000D01*
X164887461Y-118247315D01*
X164841706Y-118194511D01*
X164830500Y-118143000D01*
X164830500Y-116494060D01*
X164830501Y-116494047D01*
X164830501Y-116325945D01*
X164830501Y-116325943D01*
X164789577Y-116173215D01*
X164758341Y-116119114D01*
X164710520Y-116036284D01*
X164598716Y-115924480D01*
X164598715Y-115924479D01*
X164594385Y-115920149D01*
X164594374Y-115920139D01*
X161834574Y-113160339D01*
X161801089Y-113099016D01*
X161800638Y-113096849D01*
X161780326Y-112994735D01*
X161769737Y-112941503D01*
X161742345Y-112875372D01*
X161709397Y-112795827D01*
X161709390Y-112795814D01*
X161621789Y-112664711D01*
X161621786Y-112664707D01*
X161510292Y-112553213D01*
X161510288Y-112553210D01*
X161434548Y-112502602D01*
X161389743Y-112448990D01*
X161381036Y-112379665D01*
X161411190Y-112316637D01*
X161470634Y-112279918D01*
X161503439Y-112275500D01*
X165975500Y-112275500D01*
X166042539Y-112295185D01*
X166088294Y-112347989D01*
X166099500Y-112399500D01*
X166099500Y-113222869D01*
X166099501Y-113222875D01*
X166105908Y-113282482D01*
X166156202Y-113417327D01*
X166156206Y-113417334D01*
X166242452Y-113532543D01*
X166242455Y-113532546D01*
X166357664Y-113618792D01*
X166357671Y-113618796D01*
X166492517Y-113669090D01*
X166492516Y-113669090D01*
X166499444Y-113669834D01*
X166552127Y-113675499D01*
X167647872Y-113675498D01*
X167707483Y-113669090D01*
X167842331Y-113618795D01*
X167957546Y-113532545D01*
X168043796Y-113417330D01*
X168094091Y-113282482D01*
X168100500Y-113222872D01*
X168100500Y-113222843D01*
X169900000Y-113222843D01*
X169906401Y-113282371D01*
X169906403Y-113282378D01*
X169956645Y-113417085D01*
X169956649Y-113417092D01*
X170042809Y-113532186D01*
X170042812Y-113532189D01*
X170157906Y-113618349D01*
X170157913Y-113618353D01*
X170292620Y-113668595D01*
X170292627Y-113668597D01*
X170352155Y-113674998D01*
X170352172Y-113674999D01*
X170650000Y-113674999D01*
X170650000Y-112574999D01*
X169900000Y-112574999D01*
X169900000Y-113222843D01*
X168100500Y-113222843D01*
X168100499Y-112324501D01*
X168100499Y-111427154D01*
X169900000Y-111427154D01*
X169900000Y-112074999D01*
X170650000Y-112074999D01*
X171150000Y-112074999D01*
X171900000Y-112074999D01*
X171900000Y-111427171D01*
X171899999Y-111427154D01*
X171893598Y-111367626D01*
X171893596Y-111367619D01*
X171843354Y-111232912D01*
X171843350Y-111232905D01*
X171757190Y-111117811D01*
X171757187Y-111117808D01*
X171642093Y-111031648D01*
X171642086Y-111031644D01*
X171507379Y-110981402D01*
X171507372Y-110981400D01*
X171447844Y-110974999D01*
X171150000Y-110974999D01*
X171150000Y-112074999D01*
X170650000Y-112074999D01*
X170650000Y-110974999D01*
X170352155Y-110974999D01*
X170292627Y-110981400D01*
X170292620Y-110981402D01*
X170157913Y-111031644D01*
X170157906Y-111031648D01*
X170042812Y-111117808D01*
X170042809Y-111117811D01*
X169956649Y-111232905D01*
X169956645Y-111232912D01*
X169906403Y-111367619D01*
X169906401Y-111367626D01*
X169900000Y-111427154D01*
X168100499Y-111427154D01*
X168100499Y-111427128D01*
X168100498Y-111427122D01*
X168098940Y-111412630D01*
X168094091Y-111367516D01*
X168043884Y-111232905D01*
X168043797Y-111232670D01*
X168043793Y-111232663D01*
X167957547Y-111117454D01*
X167957544Y-111117451D01*
X167842335Y-111031205D01*
X167842328Y-111031201D01*
X167781167Y-111008390D01*
X167763440Y-110995120D01*
X167743297Y-110985921D01*
X167736015Y-110974590D01*
X167725233Y-110966519D01*
X167717494Y-110945770D01*
X167705523Y-110927143D01*
X167702371Y-110905226D01*
X167700816Y-110901055D01*
X167700500Y-110892208D01*
X167700500Y-110705084D01*
X173626207Y-110705084D01*
X173626207Y-110957008D01*
X173637959Y-111031205D01*
X173665617Y-111205831D01*
X173743467Y-111445429D01*
X173807892Y-111571869D01*
X173844855Y-111644413D01*
X173857839Y-111669894D01*
X174005908Y-111873695D01*
X174005912Y-111873700D01*
X174184052Y-112051840D01*
X174184057Y-112051844D01*
X174361824Y-112180998D01*
X174387862Y-112199916D01*
X174520580Y-112267539D01*
X174612323Y-112314285D01*
X174612325Y-112314285D01*
X174612328Y-112314287D01*
X174851922Y-112392136D01*
X175100745Y-112431546D01*
X175100746Y-112431546D01*
X175352668Y-112431546D01*
X175352669Y-112431546D01*
X175601492Y-112392136D01*
X175841086Y-112314287D01*
X176065552Y-112199916D01*
X176269363Y-112051839D01*
X176447500Y-111873702D01*
X176595577Y-111669891D01*
X176709948Y-111445425D01*
X176787797Y-111205831D01*
X176827207Y-110957008D01*
X176827207Y-110705084D01*
X176787797Y-110456261D01*
X176709948Y-110216667D01*
X176709946Y-110216664D01*
X176709946Y-110216662D01*
X176655799Y-110110393D01*
X176595577Y-109992201D01*
X176561093Y-109944738D01*
X176447505Y-109788396D01*
X176447501Y-109788391D01*
X176269361Y-109610251D01*
X176269356Y-109610247D01*
X176065555Y-109462178D01*
X176065554Y-109462177D01*
X176065552Y-109462176D01*
X175995454Y-109426459D01*
X175841090Y-109347806D01*
X175601492Y-109269956D01*
X175499753Y-109253842D01*
X175352669Y-109230546D01*
X175100745Y-109230546D01*
X175043543Y-109239606D01*
X174851921Y-109269956D01*
X174612323Y-109347806D01*
X174387858Y-109462178D01*
X174184057Y-109610247D01*
X174184052Y-109610251D01*
X174005912Y-109788391D01*
X174005908Y-109788396D01*
X173857839Y-109992197D01*
X173743467Y-110216662D01*
X173680457Y-110410588D01*
X173665617Y-110456261D01*
X173626207Y-110705084D01*
X167700500Y-110705084D01*
X167700500Y-107457791D01*
X167720185Y-107390752D01*
X167772989Y-107344997D01*
X167781146Y-107341617D01*
X167842331Y-107318797D01*
X167957546Y-107232547D01*
X168043796Y-107117332D01*
X168094091Y-106982484D01*
X168100500Y-106922874D01*
X168100500Y-106922845D01*
X169900000Y-106922845D01*
X169906401Y-106982373D01*
X169906403Y-106982380D01*
X169956645Y-107117087D01*
X169956649Y-107117094D01*
X170042809Y-107232188D01*
X170042812Y-107232191D01*
X170157906Y-107318351D01*
X170157913Y-107318355D01*
X170292620Y-107368597D01*
X170292627Y-107368599D01*
X170352155Y-107375000D01*
X170352172Y-107375001D01*
X170650000Y-107375001D01*
X171150000Y-107375001D01*
X171447828Y-107375001D01*
X171447844Y-107375000D01*
X171507372Y-107368599D01*
X171507379Y-107368597D01*
X171642086Y-107318355D01*
X171642093Y-107318351D01*
X171757187Y-107232191D01*
X171757190Y-107232188D01*
X171843350Y-107117094D01*
X171843354Y-107117087D01*
X171893596Y-106982380D01*
X171893598Y-106982373D01*
X171899999Y-106922845D01*
X171900000Y-106922828D01*
X171900000Y-106275001D01*
X171150000Y-106275001D01*
X171150000Y-107375001D01*
X170650000Y-107375001D01*
X170650000Y-106275001D01*
X169900000Y-106275001D01*
X169900000Y-106922845D01*
X168100500Y-106922845D01*
X168100499Y-106022951D01*
X168100499Y-105127156D01*
X169900000Y-105127156D01*
X169900000Y-105775001D01*
X170650000Y-105775001D01*
X171150000Y-105775001D01*
X171900000Y-105775001D01*
X171900000Y-105127173D01*
X171899999Y-105127156D01*
X171893598Y-105067628D01*
X171893596Y-105067621D01*
X171843354Y-104932914D01*
X171843350Y-104932907D01*
X171757190Y-104817813D01*
X171757187Y-104817810D01*
X171642093Y-104731650D01*
X171642086Y-104731646D01*
X171507379Y-104681404D01*
X171507372Y-104681402D01*
X171447844Y-104675001D01*
X171150000Y-104675001D01*
X171150000Y-105775001D01*
X170650000Y-105775001D01*
X170650000Y-104675001D01*
X170352155Y-104675001D01*
X170292627Y-104681402D01*
X170292620Y-104681404D01*
X170157913Y-104731646D01*
X170157906Y-104731650D01*
X170042812Y-104817810D01*
X170042809Y-104817813D01*
X169956649Y-104932907D01*
X169956645Y-104932914D01*
X169906403Y-105067621D01*
X169906401Y-105067628D01*
X169900000Y-105127156D01*
X168100499Y-105127156D01*
X168100499Y-105127130D01*
X168100498Y-105127124D01*
X168100497Y-105127117D01*
X168094091Y-105067518D01*
X168079476Y-105028334D01*
X168043797Y-104932672D01*
X168043793Y-104932665D01*
X167957547Y-104817456D01*
X167957544Y-104817453D01*
X167842335Y-104731207D01*
X167842328Y-104731203D01*
X167707482Y-104680909D01*
X167707483Y-104680909D01*
X167647883Y-104674502D01*
X167647881Y-104674501D01*
X167647873Y-104674501D01*
X167647864Y-104674501D01*
X166552129Y-104674501D01*
X166552123Y-104674502D01*
X166492516Y-104680909D01*
X166357671Y-104731203D01*
X166357664Y-104731207D01*
X166242455Y-104817453D01*
X166242452Y-104817456D01*
X166156206Y-104932665D01*
X166156202Y-104932672D01*
X166105908Y-105067518D01*
X166101047Y-105112735D01*
X166099501Y-105127124D01*
X166099500Y-105127136D01*
X166099500Y-106922871D01*
X166099501Y-106922877D01*
X166105908Y-106982484D01*
X166156202Y-107117329D01*
X166156206Y-107117336D01*
X166242452Y-107232545D01*
X166242455Y-107232548D01*
X166357664Y-107318794D01*
X166357669Y-107318797D01*
X166418833Y-107341609D01*
X166474766Y-107383479D01*
X166499184Y-107448943D01*
X166499500Y-107457791D01*
X166499500Y-110892208D01*
X166495060Y-110907325D01*
X166495597Y-110923074D01*
X166485418Y-110940164D01*
X166479815Y-110959247D01*
X166467447Y-110970337D01*
X166459844Y-110983104D01*
X166438617Y-110996191D01*
X166430820Y-111003184D01*
X166424959Y-111006105D01*
X166357669Y-111031203D01*
X166323903Y-111056479D01*
X166313881Y-111061476D01*
X166290072Y-111065730D01*
X166267410Y-111074184D01*
X166258561Y-111074500D01*
X160749097Y-111074500D01*
X160682058Y-111054815D01*
X160636303Y-111002011D01*
X160626359Y-110932853D01*
X160655384Y-110869297D01*
X160661416Y-110862819D01*
X161080821Y-110443414D01*
X162358506Y-109165727D01*
X162358511Y-109165724D01*
X162368714Y-109155520D01*
X162368716Y-109155520D01*
X162480520Y-109043716D01*
X162559577Y-108906784D01*
X162600500Y-108754057D01*
X162600500Y-106095943D01*
X162579621Y-106018020D01*
X162559577Y-105943215D01*
X162516715Y-105868976D01*
X162480520Y-105806284D01*
X162368716Y-105694480D01*
X162368715Y-105694479D01*
X162364385Y-105690149D01*
X162364374Y-105690139D01*
X161850090Y-105175855D01*
X161850088Y-105175852D01*
X161725469Y-105051233D01*
X161727490Y-105049211D01*
X161694442Y-105003959D01*
X161690280Y-104934213D01*
X161724487Y-104873290D01*
X161786201Y-104840531D01*
X161811127Y-104838000D01*
X161850831Y-104838000D01*
X161850847Y-104838001D01*
X161858443Y-104838001D01*
X162016554Y-104838001D01*
X162016557Y-104838001D01*
X162169285Y-104797077D01*
X162202682Y-104777793D01*
X162270580Y-104761318D01*
X162328835Y-104779060D01*
X162435394Y-104843478D01*
X162597804Y-104894086D01*
X162668384Y-104900500D01*
X162668387Y-104900500D01*
X163331613Y-104900500D01*
X163331616Y-104900500D01*
X163402196Y-104894086D01*
X163564606Y-104843478D01*
X163710185Y-104755472D01*
X163830472Y-104635185D01*
X163918478Y-104489606D01*
X163969086Y-104327196D01*
X163975500Y-104256616D01*
X163975500Y-103743384D01*
X163969086Y-103672804D01*
X163918478Y-103510394D01*
X163830472Y-103364815D01*
X163830470Y-103364813D01*
X163830469Y-103364811D01*
X163728339Y-103262681D01*
X163694854Y-103201358D01*
X163699838Y-103131666D01*
X163728339Y-103087319D01*
X163830468Y-102985189D01*
X163830469Y-102985188D01*
X163830472Y-102985185D01*
X163918478Y-102839606D01*
X163948271Y-102743995D01*
X175629499Y-102743995D01*
X175656418Y-102879322D01*
X175656421Y-102879332D01*
X175709221Y-103006804D01*
X175709228Y-103006817D01*
X175785885Y-103121541D01*
X175785888Y-103121545D01*
X175883454Y-103219111D01*
X175883458Y-103219114D01*
X175998182Y-103295771D01*
X175998195Y-103295778D01*
X176125667Y-103348578D01*
X176125672Y-103348580D01*
X176125676Y-103348580D01*
X176125677Y-103348581D01*
X176261004Y-103375500D01*
X176261007Y-103375500D01*
X176398995Y-103375500D01*
X176490041Y-103357389D01*
X176534328Y-103348580D01*
X176636611Y-103306213D01*
X176661804Y-103295778D01*
X176661804Y-103295777D01*
X176661811Y-103295775D01*
X176776542Y-103219114D01*
X176874114Y-103121542D01*
X176950775Y-103006811D01*
X177003580Y-102879328D01*
X177019424Y-102799677D01*
X177030500Y-102743995D01*
X177030500Y-102606004D01*
X177003581Y-102470677D01*
X177003580Y-102470676D01*
X177003580Y-102470672D01*
X176999052Y-102459741D01*
X176950778Y-102343195D01*
X176950771Y-102343182D01*
X176874114Y-102228458D01*
X176874111Y-102228454D01*
X176776545Y-102130888D01*
X176776541Y-102130885D01*
X176661817Y-102054228D01*
X176661804Y-102054221D01*
X176534332Y-102001421D01*
X176534322Y-102001418D01*
X176398995Y-101974500D01*
X176398993Y-101974500D01*
X176261007Y-101974500D01*
X176261005Y-101974500D01*
X176125677Y-102001418D01*
X176125667Y-102001421D01*
X175998195Y-102054221D01*
X175998182Y-102054228D01*
X175883458Y-102130885D01*
X175883454Y-102130888D01*
X175785888Y-102228454D01*
X175785885Y-102228458D01*
X175709228Y-102343182D01*
X175709221Y-102343195D01*
X175656421Y-102470667D01*
X175656418Y-102470677D01*
X175629500Y-102606004D01*
X175629500Y-102606007D01*
X175629500Y-102743993D01*
X175629500Y-102743995D01*
X175629499Y-102743995D01*
X163948271Y-102743995D01*
X163969086Y-102677196D01*
X163975500Y-102606616D01*
X163975500Y-102093384D01*
X163969086Y-102022804D01*
X163918478Y-101860394D01*
X163905332Y-101838649D01*
X163887497Y-101771095D01*
X163909015Y-101704621D01*
X163963055Y-101660334D01*
X164011450Y-101650500D01*
X164054169Y-101650500D01*
X164054174Y-101650500D01*
X164152685Y-101640436D01*
X164312287Y-101587549D01*
X164455391Y-101499281D01*
X164574281Y-101380391D01*
X164624980Y-101298193D01*
X164676928Y-101251469D01*
X164680266Y-101249929D01*
X164689092Y-101246016D01*
X164731785Y-101234577D01*
X164781904Y-101205639D01*
X164868716Y-101155520D01*
X164980520Y-101043716D01*
X164980520Y-101043714D01*
X164990728Y-101033507D01*
X164990729Y-101033504D01*
X166280239Y-99743995D01*
X175629499Y-99743995D01*
X175656418Y-99879322D01*
X175656421Y-99879332D01*
X175709221Y-100006804D01*
X175709228Y-100006817D01*
X175785885Y-100121541D01*
X175785888Y-100121545D01*
X175883454Y-100219111D01*
X175883458Y-100219114D01*
X175998182Y-100295771D01*
X175998195Y-100295778D01*
X176113207Y-100343417D01*
X176125672Y-100348580D01*
X176125676Y-100348580D01*
X176125677Y-100348581D01*
X176261004Y-100375500D01*
X176261007Y-100375500D01*
X176398995Y-100375500D01*
X176517079Y-100352011D01*
X176534328Y-100348580D01*
X176636440Y-100306284D01*
X176661804Y-100295778D01*
X176661804Y-100295777D01*
X176661811Y-100295775D01*
X176776542Y-100219114D01*
X176874114Y-100121542D01*
X176950775Y-100006811D01*
X176951278Y-100005598D01*
X176965974Y-99970118D01*
X177003580Y-99879328D01*
X177026052Y-99766354D01*
X177030500Y-99743995D01*
X177030500Y-99606004D01*
X177003581Y-99470677D01*
X177003580Y-99470676D01*
X177003580Y-99470672D01*
X176980992Y-99416139D01*
X176950778Y-99343195D01*
X176950771Y-99343182D01*
X176874114Y-99228458D01*
X176874111Y-99228454D01*
X176776545Y-99130888D01*
X176776541Y-99130885D01*
X176661817Y-99054228D01*
X176661804Y-99054221D01*
X176534332Y-99001421D01*
X176534322Y-99001418D01*
X176398995Y-98974500D01*
X176398993Y-98974500D01*
X176261007Y-98974500D01*
X176261005Y-98974500D01*
X176125677Y-99001418D01*
X176125667Y-99001421D01*
X175998195Y-99054221D01*
X175998182Y-99054228D01*
X175883458Y-99130885D01*
X175883454Y-99130888D01*
X175785888Y-99228454D01*
X175785885Y-99228458D01*
X175709228Y-99343182D01*
X175709221Y-99343195D01*
X175656421Y-99470667D01*
X175656418Y-99470677D01*
X175629500Y-99606004D01*
X175629500Y-99606007D01*
X175629500Y-99743993D01*
X175629500Y-99743995D01*
X175629499Y-99743995D01*
X166280239Y-99743995D01*
X170212417Y-95811819D01*
X170273740Y-95778334D01*
X170300098Y-95775500D01*
X172413331Y-95775500D01*
X172413347Y-95775501D01*
X172420943Y-95775501D01*
X172579054Y-95775501D01*
X172579057Y-95775501D01*
X172731785Y-95734577D01*
X172781904Y-95705639D01*
X172868716Y-95655520D01*
X172980520Y-95543716D01*
X172980520Y-95543714D01*
X172990728Y-95533507D01*
X172990730Y-95533504D01*
X173015478Y-95508755D01*
X173076799Y-95475272D01*
X173141473Y-95478506D01*
X173183757Y-95492246D01*
X173393713Y-95525500D01*
X173393714Y-95525500D01*
X173606286Y-95525500D01*
X173606287Y-95525500D01*
X173816243Y-95492246D01*
X174018412Y-95426557D01*
X174207816Y-95330051D01*
X174243081Y-95304430D01*
X174379786Y-95205109D01*
X174379788Y-95205106D01*
X174379792Y-95205104D01*
X174530104Y-95054792D01*
X174530106Y-95054788D01*
X174530109Y-95054786D01*
X174655048Y-94882820D01*
X174655047Y-94882820D01*
X174655051Y-94882816D01*
X174751557Y-94693412D01*
X174817246Y-94491243D01*
X174850500Y-94281287D01*
X174850500Y-94068713D01*
X174817246Y-93858757D01*
X174751557Y-93656588D01*
X174655051Y-93467184D01*
X174655049Y-93467181D01*
X174655048Y-93467179D01*
X174530109Y-93295213D01*
X174379786Y-93144890D01*
X174207820Y-93019951D01*
X174018414Y-92923444D01*
X174018413Y-92923443D01*
X174018412Y-92923443D01*
X173816243Y-92857754D01*
X173816241Y-92857753D01*
X173816240Y-92857753D01*
X173654957Y-92832208D01*
X173606287Y-92824500D01*
X173393713Y-92824500D01*
X173354202Y-92830757D01*
X173183759Y-92857753D01*
X173183758Y-92857753D01*
X173173813Y-92860985D01*
X173103972Y-92862978D01*
X173044140Y-92826897D01*
X173013314Y-92764195D01*
X173017568Y-92704733D01*
X173020704Y-92695080D01*
X173020705Y-92695074D01*
X173031179Y-92628948D01*
X172136960Y-92628948D01*
X172169873Y-92571941D01*
X172203948Y-92444774D01*
X172203948Y-92313122D01*
X172169873Y-92185955D01*
X172136960Y-92128948D01*
X173031179Y-92128948D01*
X173020705Y-92062821D01*
X173020705Y-92062818D01*
X172955043Y-91860730D01*
X172858568Y-91671390D01*
X172733675Y-91499488D01*
X172733671Y-91499483D01*
X172583412Y-91349224D01*
X172583407Y-91349220D01*
X172411505Y-91224327D01*
X172222163Y-91127851D01*
X172020072Y-91062189D01*
X171953948Y-91051716D01*
X171953948Y-91945936D01*
X171896941Y-91913023D01*
X171769774Y-91878948D01*
X171638122Y-91878948D01*
X171510955Y-91913023D01*
X171453948Y-91945936D01*
X171453948Y-91096402D01*
X171315755Y-91069036D01*
X171312258Y-91067210D01*
X171308317Y-91067323D01*
X171281543Y-91051177D01*
X171253816Y-91036703D01*
X171251861Y-91033277D01*
X171248485Y-91031241D01*
X171234689Y-91003181D01*
X171219191Y-90976017D01*
X171219398Y-90972078D01*
X171217659Y-90968540D01*
X171221913Y-90909079D01*
X171225143Y-90899140D01*
X171258397Y-90689184D01*
X171258397Y-90476610D01*
X171225143Y-90266654D01*
X171159454Y-90064485D01*
X171062948Y-89875081D01*
X171062946Y-89875078D01*
X171062945Y-89875076D01*
X170938006Y-89703110D01*
X170787683Y-89552787D01*
X170615717Y-89427848D01*
X170426311Y-89331341D01*
X170426310Y-89331340D01*
X170426309Y-89331340D01*
X170224140Y-89265651D01*
X170224138Y-89265650D01*
X170224137Y-89265650D01*
X170046011Y-89237438D01*
X170014184Y-89232397D01*
X169853622Y-89232397D01*
X169786583Y-89212712D01*
X169740828Y-89159908D01*
X169730884Y-89090750D01*
X169740828Y-89056885D01*
X169799092Y-88929305D01*
X169799091Y-88929305D01*
X169799093Y-88929303D01*
X169819574Y-88786846D01*
X169799093Y-88644389D01*
X169739305Y-88513473D01*
X169701686Y-88466790D01*
X169701681Y-88466785D01*
X169701677Y-88466780D01*
X168431905Y-87197011D01*
X168431899Y-87197006D01*
X168431895Y-87197002D01*
X168385219Y-87159386D01*
X168254305Y-87099599D01*
X168254301Y-87099598D01*
X168111846Y-87079118D01*
X167969390Y-87099598D01*
X167969386Y-87099599D01*
X167838475Y-87159385D01*
X167791780Y-87197014D01*
X166522011Y-88466786D01*
X166522002Y-88466796D01*
X166484386Y-88513472D01*
X166424599Y-88644386D01*
X166424598Y-88644390D01*
X166404118Y-88786846D01*
X166424598Y-88929301D01*
X166424599Y-88929305D01*
X166484385Y-89060216D01*
X166484386Y-89060217D01*
X166484387Y-89060219D01*
X166522006Y-89106902D01*
X166522009Y-89106905D01*
X166522014Y-89106911D01*
X166644598Y-89229495D01*
X166648935Y-89237438D01*
X166656181Y-89242862D01*
X166665418Y-89267624D01*
X166678083Y-89290818D01*
X166677437Y-89299844D01*
X166680601Y-89308325D01*
X166674984Y-89334148D01*
X166673099Y-89360510D01*
X166667281Y-89369562D01*
X166665751Y-89376599D01*
X166644602Y-89404854D01*
X166631286Y-89418170D01*
X166519481Y-89529974D01*
X166519475Y-89529982D01*
X166472634Y-89611115D01*
X166472634Y-89611116D01*
X166440423Y-89666906D01*
X166440423Y-89666907D01*
X166399499Y-89819635D01*
X166399499Y-89819637D01*
X166399499Y-89987738D01*
X166399500Y-89987751D01*
X166399500Y-90041627D01*
X166379815Y-90108666D01*
X166363181Y-90129308D01*
X166306821Y-90185668D01*
X166245498Y-90219153D01*
X166219140Y-90221987D01*
X166077013Y-90221987D01*
X166009974Y-90202302D01*
X165964219Y-90149498D01*
X165953013Y-90097987D01*
X165953013Y-89953548D01*
X165912303Y-89788379D01*
X165888914Y-89743816D01*
X165833247Y-89637752D01*
X165787875Y-89583309D01*
X165424965Y-89220399D01*
X165370522Y-89175027D01*
X165295208Y-89135499D01*
X165219894Y-89095970D01*
X165054726Y-89055261D01*
X164884614Y-89055261D01*
X164719445Y-89095970D01*
X164568816Y-89175028D01*
X164514379Y-89220395D01*
X164514364Y-89220409D01*
X164045409Y-89689364D01*
X164045395Y-89689379D01*
X164000028Y-89743816D01*
X163920970Y-89894445D01*
X163880261Y-90059614D01*
X163880261Y-90229726D01*
X163907457Y-90340069D01*
X163910900Y-90376033D01*
X163910233Y-90389153D01*
X163899499Y-90429217D01*
X163899499Y-90587331D01*
X163899500Y-90587334D01*
X163899500Y-90600472D01*
X163899500Y-91588330D01*
X163899499Y-91588348D01*
X163899499Y-91754054D01*
X163899498Y-91754054D01*
X163899499Y-91754057D01*
X163940423Y-91906785D01*
X163940424Y-91906787D01*
X163940423Y-91906787D01*
X163955785Y-91933393D01*
X163955787Y-91933395D01*
X163955788Y-91933397D01*
X163990602Y-91993697D01*
X164019479Y-92043715D01*
X164138349Y-92162585D01*
X164138355Y-92162590D01*
X166515139Y-94539374D01*
X166515149Y-94539385D01*
X166519479Y-94543715D01*
X166519480Y-94543716D01*
X166631284Y-94655520D01*
X166676998Y-94681912D01*
X166718095Y-94705639D01*
X166718097Y-94705641D01*
X166747672Y-94722716D01*
X166768215Y-94734577D01*
X166920943Y-94775501D01*
X166920946Y-94775501D01*
X167086653Y-94775501D01*
X167086669Y-94775500D01*
X168087665Y-94775500D01*
X168087669Y-94775501D01*
X168245783Y-94775501D01*
X168285821Y-94764772D01*
X168298897Y-94764101D01*
X168314187Y-94767750D01*
X168334927Y-94767541D01*
X168445274Y-94794739D01*
X168445276Y-94794739D01*
X168615388Y-94794739D01*
X168615388Y-94794738D01*
X168671926Y-94780803D01*
X168741727Y-94783871D01*
X168789283Y-94813518D01*
X169063083Y-95087318D01*
X169096568Y-95148641D01*
X169091584Y-95218333D01*
X169063083Y-95262680D01*
X164599682Y-99726081D01*
X164538359Y-99759566D01*
X164468667Y-99754582D01*
X164412734Y-99712710D01*
X164388317Y-99647246D01*
X164388001Y-99638400D01*
X164388001Y-99604212D01*
X164388001Y-99604211D01*
X164347077Y-99451484D01*
X164307445Y-99382838D01*
X164268024Y-99314558D01*
X164268018Y-99314550D01*
X163305500Y-98352032D01*
X162339647Y-97386180D01*
X162306163Y-97324858D01*
X162311147Y-97255166D01*
X162353019Y-97199233D01*
X162418483Y-97174816D01*
X162427329Y-97174500D01*
X163598903Y-97174500D01*
X163665942Y-97194185D01*
X163686584Y-97210819D01*
X164165425Y-97689660D01*
X164198910Y-97750983D01*
X164199361Y-97753149D01*
X164230261Y-97908491D01*
X164230264Y-97908501D01*
X164290602Y-98054172D01*
X164290609Y-98054185D01*
X164378210Y-98185288D01*
X164378213Y-98185292D01*
X164489707Y-98296786D01*
X164489711Y-98296789D01*
X164620814Y-98384390D01*
X164620827Y-98384397D01*
X164665747Y-98403003D01*
X164766503Y-98444737D01*
X164903341Y-98471956D01*
X164921153Y-98475499D01*
X164921156Y-98475500D01*
X164921158Y-98475500D01*
X165078844Y-98475500D01*
X165078845Y-98475499D01*
X165233497Y-98444737D01*
X165379179Y-98384394D01*
X165510289Y-98296789D01*
X165621789Y-98185289D01*
X165709394Y-98054179D01*
X165769737Y-97908497D01*
X165800500Y-97753842D01*
X165800500Y-97596158D01*
X165800500Y-97596155D01*
X165800499Y-97596153D01*
X165790270Y-97544727D01*
X165769737Y-97441503D01*
X165742910Y-97376736D01*
X165709397Y-97295827D01*
X165709390Y-97295814D01*
X165621789Y-97164711D01*
X165621786Y-97164707D01*
X165510292Y-97053213D01*
X165510288Y-97053210D01*
X165379185Y-96965609D01*
X165379172Y-96965602D01*
X165233501Y-96905264D01*
X165233491Y-96905261D01*
X165078149Y-96874361D01*
X165016238Y-96841976D01*
X165014660Y-96840425D01*
X164386590Y-96212355D01*
X164386588Y-96212352D01*
X164267717Y-96093481D01*
X164267716Y-96093480D01*
X164157568Y-96029886D01*
X164157566Y-96029885D01*
X164130785Y-96014423D01*
X164130784Y-96014422D01*
X164130783Y-96014422D01*
X164074881Y-95999443D01*
X163978057Y-95973499D01*
X163819943Y-95973499D01*
X163812347Y-95973499D01*
X163812331Y-95973500D01*
X158529766Y-95973500D01*
X158462727Y-95953815D01*
X158460875Y-95952602D01*
X158329185Y-95864609D01*
X158329172Y-95864602D01*
X158183501Y-95804264D01*
X158183489Y-95804261D01*
X158028845Y-95773500D01*
X158028842Y-95773500D01*
X157871158Y-95773500D01*
X157871155Y-95773500D01*
X157716510Y-95804261D01*
X157716498Y-95804264D01*
X157570827Y-95864602D01*
X157570814Y-95864609D01*
X157439711Y-95952210D01*
X157439707Y-95952213D01*
X157328213Y-96063707D01*
X157328210Y-96063711D01*
X157240609Y-96194814D01*
X157240602Y-96194827D01*
X157180264Y-96340498D01*
X157180261Y-96340508D01*
X157163715Y-96423692D01*
X157131330Y-96485603D01*
X157070614Y-96520177D01*
X157042098Y-96523500D01*
X155850825Y-96523500D01*
X155692711Y-96523500D01*
X155539983Y-96564423D01*
X155539982Y-96564423D01*
X155539980Y-96564424D01*
X155539977Y-96564425D01*
X155489864Y-96593359D01*
X155489863Y-96593360D01*
X155450874Y-96615870D01*
X155403053Y-96643479D01*
X155403050Y-96643481D01*
X155291246Y-96755286D01*
X154577749Y-97468782D01*
X154516426Y-97502267D01*
X154446734Y-97497283D01*
X154421177Y-97484203D01*
X154350659Y-97437084D01*
X154350647Y-97437077D01*
X154204976Y-97376739D01*
X154204964Y-97376736D01*
X154050320Y-97345975D01*
X154050317Y-97345975D01*
X153892633Y-97345975D01*
X153892630Y-97345975D01*
X153737985Y-97376736D01*
X153737973Y-97376739D01*
X153592302Y-97437077D01*
X153592289Y-97437084D01*
X153577606Y-97446896D01*
X153510929Y-97467774D01*
X153508715Y-97467794D01*
X151473060Y-97467794D01*
X151406021Y-97448109D01*
X151404169Y-97446896D01*
X151272479Y-97358903D01*
X151272466Y-97358896D01*
X151126795Y-97298558D01*
X151126783Y-97298555D01*
X150972139Y-97267794D01*
X150972136Y-97267794D01*
X150814452Y-97267794D01*
X150814449Y-97267794D01*
X150659804Y-97298555D01*
X150659792Y-97298558D01*
X150514121Y-97358896D01*
X150514108Y-97358903D01*
X150383005Y-97446504D01*
X150383003Y-97446506D01*
X150271507Y-97558001D01*
X150271504Y-97558005D01*
X150183903Y-97689108D01*
X150183896Y-97689121D01*
X150123558Y-97834792D01*
X150123555Y-97834804D01*
X150092794Y-97989447D01*
X150092794Y-98147140D01*
X150123555Y-98301783D01*
X150123558Y-98301795D01*
X150183896Y-98447466D01*
X150183903Y-98447479D01*
X150271504Y-98578582D01*
X150271507Y-98578586D01*
X150383001Y-98690080D01*
X150383005Y-98690083D01*
X150514108Y-98777684D01*
X150514121Y-98777691D01*
X150633337Y-98827071D01*
X150659797Y-98838031D01*
X150806177Y-98867148D01*
X150814447Y-98868793D01*
X150814450Y-98868794D01*
X150814452Y-98868794D01*
X150972138Y-98868794D01*
X150972139Y-98868793D01*
X151126791Y-98838031D01*
X151272473Y-98777688D01*
X151318715Y-98746790D01*
X151404169Y-98689692D01*
X151470847Y-98668814D01*
X151473060Y-98668794D01*
X153078376Y-98668794D01*
X153145415Y-98688479D01*
X153191170Y-98741283D01*
X153201114Y-98810441D01*
X153172089Y-98873997D01*
X153166057Y-98880475D01*
X153019481Y-99027050D01*
X153019479Y-99027052D01*
X153003794Y-99054221D01*
X152987313Y-99082768D01*
X152973216Y-99107184D01*
X152940423Y-99163982D01*
X152926781Y-99214892D01*
X152899499Y-99316711D01*
X152899499Y-99316713D01*
X152899499Y-99484814D01*
X152899500Y-99484827D01*
X152899500Y-100958284D01*
X152879815Y-101025323D01*
X152839652Y-101064400D01*
X152789811Y-101094530D01*
X152789810Y-101094531D01*
X152671161Y-101213181D01*
X152644233Y-101227884D01*
X152618415Y-101244477D01*
X152612214Y-101245368D01*
X152609838Y-101246666D01*
X152583480Y-101249500D01*
X152416520Y-101249500D01*
X152349481Y-101229815D01*
X152328839Y-101213181D01*
X152210188Y-101094530D01*
X152181514Y-101077196D01*
X152064606Y-101006522D01*
X151902196Y-100955914D01*
X151902194Y-100955913D01*
X151902192Y-100955913D01*
X151840432Y-100950301D01*
X151831616Y-100949500D01*
X151831615Y-100949500D01*
X151829568Y-100949407D01*
X151829200Y-100949280D01*
X151828818Y-100949246D01*
X151828826Y-100949152D01*
X151763493Y-100926693D01*
X151720647Y-100872987D01*
X151709397Y-100845827D01*
X151709390Y-100845814D01*
X151621789Y-100714711D01*
X151621786Y-100714707D01*
X151510292Y-100603213D01*
X151510288Y-100603210D01*
X151379185Y-100515609D01*
X151379172Y-100515602D01*
X151233501Y-100455264D01*
X151233489Y-100455261D01*
X151078845Y-100424500D01*
X151078842Y-100424500D01*
X150950500Y-100424500D01*
X150883461Y-100404815D01*
X150837706Y-100352011D01*
X150826500Y-100300500D01*
X150826500Y-99821945D01*
X150826500Y-99821943D01*
X150808310Y-99754057D01*
X150785577Y-99669215D01*
X150752738Y-99612336D01*
X150706520Y-99532284D01*
X150594716Y-99420480D01*
X150594715Y-99420479D01*
X150590385Y-99416149D01*
X150590374Y-99416139D01*
X148334574Y-97160339D01*
X148301089Y-97099016D01*
X148300638Y-97096849D01*
X148278804Y-96987086D01*
X148269737Y-96941503D01*
X148256062Y-96908489D01*
X148209397Y-96795827D01*
X148209390Y-96795814D01*
X148121789Y-96664711D01*
X148121786Y-96664707D01*
X148010292Y-96553213D01*
X148010288Y-96553210D01*
X147879185Y-96465609D01*
X147879172Y-96465602D01*
X147733501Y-96405264D01*
X147733489Y-96405261D01*
X147578845Y-96374500D01*
X147578842Y-96374500D01*
X147421158Y-96374500D01*
X147421155Y-96374500D01*
X147266510Y-96405261D01*
X147266498Y-96405264D01*
X147120827Y-96465602D01*
X147120814Y-96465609D01*
X146989711Y-96553210D01*
X146989707Y-96553213D01*
X146878213Y-96664707D01*
X146878210Y-96664711D01*
X146790609Y-96795814D01*
X146790602Y-96795827D01*
X146730264Y-96941498D01*
X146730261Y-96941510D01*
X146699500Y-97096153D01*
X146699500Y-97253846D01*
X146723860Y-97376310D01*
X146717633Y-97445901D01*
X146674770Y-97501079D01*
X146608880Y-97524323D01*
X146602243Y-97524501D01*
X143750099Y-97524501D01*
X143683060Y-97504816D01*
X143662418Y-97488182D01*
X142300728Y-96126492D01*
X142267243Y-96065169D01*
X142264409Y-96038811D01*
X142264409Y-95640856D01*
X142284094Y-95573817D01*
X142285307Y-95571965D01*
X142304183Y-95543716D01*
X142373303Y-95440270D01*
X142433646Y-95294588D01*
X142464409Y-95139933D01*
X142464409Y-94982249D01*
X142464409Y-94982246D01*
X142464408Y-94982244D01*
X142433647Y-94827601D01*
X142433647Y-94827599D01*
X142433646Y-94827594D01*
X142419334Y-94793041D01*
X142373306Y-94681918D01*
X142373299Y-94681905D01*
X142285698Y-94550802D01*
X142285695Y-94550798D01*
X142174201Y-94439304D01*
X142174197Y-94439301D01*
X142043094Y-94351700D01*
X142043081Y-94351693D01*
X141897410Y-94291355D01*
X141897398Y-94291352D01*
X141742754Y-94260591D01*
X141742751Y-94260591D01*
X141585067Y-94260591D01*
X141585064Y-94260591D01*
X141430419Y-94291352D01*
X141430407Y-94291355D01*
X141284736Y-94351693D01*
X141284723Y-94351700D01*
X141153620Y-94439301D01*
X141153616Y-94439304D01*
X141042122Y-94550798D01*
X141042119Y-94550802D01*
X140954518Y-94681905D01*
X140954511Y-94681918D01*
X140894173Y-94827589D01*
X140894170Y-94827599D01*
X140863270Y-94982941D01*
X140830885Y-95044852D01*
X140829334Y-95046430D01*
X140019481Y-95856282D01*
X139970448Y-95941210D01*
X139940424Y-95993212D01*
X139940423Y-95993213D01*
X139928205Y-96038811D01*
X139899499Y-96145943D01*
X139899499Y-96145945D01*
X139899499Y-96314046D01*
X139899500Y-96314059D01*
X139899500Y-103095234D01*
X139879815Y-103162273D01*
X139878602Y-103164125D01*
X139790609Y-103295814D01*
X139790602Y-103295827D01*
X139730264Y-103441498D01*
X139730261Y-103441510D01*
X139699500Y-103596153D01*
X139699500Y-103753846D01*
X139730261Y-103908489D01*
X139730264Y-103908501D01*
X139790602Y-104054172D01*
X139790609Y-104054185D01*
X139878210Y-104185288D01*
X139878213Y-104185292D01*
X139989707Y-104296786D01*
X139989711Y-104296789D01*
X140120814Y-104384390D01*
X140120827Y-104384397D01*
X140214225Y-104423083D01*
X140266503Y-104444737D01*
X140420675Y-104475404D01*
X140421153Y-104475499D01*
X140421156Y-104475500D01*
X140421158Y-104475500D01*
X140578844Y-104475500D01*
X140578845Y-104475499D01*
X140733497Y-104444737D01*
X140879179Y-104384394D01*
X141010289Y-104296789D01*
X141121789Y-104185289D01*
X141209394Y-104054179D01*
X141213728Y-104043717D01*
X141258958Y-103934519D01*
X141269737Y-103908497D01*
X141300500Y-103753842D01*
X141300500Y-103596158D01*
X141300500Y-103596155D01*
X141300499Y-103596153D01*
X141295908Y-103573074D01*
X141269737Y-103441503D01*
X141269735Y-103441498D01*
X141209397Y-103295827D01*
X141209390Y-103295814D01*
X141121398Y-103164125D01*
X141100520Y-103097447D01*
X141100500Y-103095234D01*
X141100500Y-96924097D01*
X141120185Y-96857058D01*
X141172989Y-96811303D01*
X141242147Y-96801359D01*
X141305703Y-96830384D01*
X141312180Y-96836415D01*
X143081285Y-98605521D01*
X143081287Y-98605522D01*
X143081291Y-98605525D01*
X143216410Y-98683535D01*
X143218217Y-98684578D01*
X143370944Y-98725502D01*
X143370946Y-98725502D01*
X143536655Y-98725502D01*
X143536671Y-98725501D01*
X145518058Y-98725501D01*
X145585097Y-98745186D01*
X145630852Y-98797990D01*
X145640796Y-98867148D01*
X145611771Y-98930704D01*
X145605739Y-98937182D01*
X145517122Y-99025798D01*
X145517119Y-99025802D01*
X145429518Y-99156905D01*
X145429511Y-99156918D01*
X145369173Y-99302589D01*
X145369170Y-99302599D01*
X145338270Y-99457941D01*
X145305885Y-99519852D01*
X145304334Y-99521430D01*
X143519481Y-101306282D01*
X143519479Y-101306284D01*
X143490815Y-101355932D01*
X143478700Y-101376918D01*
X143463651Y-101402984D01*
X143440423Y-101443214D01*
X143426781Y-101494124D01*
X143399499Y-101595943D01*
X143399499Y-101595945D01*
X143399499Y-101764046D01*
X143399500Y-101764059D01*
X143399500Y-105545234D01*
X143379815Y-105612273D01*
X143378602Y-105614125D01*
X143290609Y-105745814D01*
X143290602Y-105745827D01*
X143230264Y-105891498D01*
X143230261Y-105891508D01*
X143213715Y-105974692D01*
X143181330Y-106036603D01*
X143120614Y-106071177D01*
X143092098Y-106074500D01*
X138079766Y-106074500D01*
X138012727Y-106054815D01*
X138010875Y-106053602D01*
X137879185Y-105965609D01*
X137879172Y-105965602D01*
X137733501Y-105905264D01*
X137733489Y-105905261D01*
X137578845Y-105874500D01*
X137578842Y-105874500D01*
X137421158Y-105874500D01*
X137421155Y-105874500D01*
X137266510Y-105905261D01*
X137266498Y-105905264D01*
X137120827Y-105965602D01*
X137120814Y-105965609D01*
X136989711Y-106053210D01*
X136989707Y-106053213D01*
X136878213Y-106164707D01*
X136878210Y-106164711D01*
X136790609Y-106295814D01*
X136790602Y-106295827D01*
X136730264Y-106441498D01*
X136730261Y-106441510D01*
X136699500Y-106596153D01*
X136699500Y-106753846D01*
X136730261Y-106908489D01*
X136730264Y-106908501D01*
X136790602Y-107054172D01*
X136790609Y-107054185D01*
X136878210Y-107185288D01*
X136878213Y-107185292D01*
X136989707Y-107296786D01*
X136989711Y-107296789D01*
X137120814Y-107384390D01*
X137120827Y-107384397D01*
X137240806Y-107434093D01*
X137266503Y-107444737D01*
X137421153Y-107475499D01*
X137421156Y-107475500D01*
X137421158Y-107475500D01*
X137578844Y-107475500D01*
X137578845Y-107475499D01*
X137733497Y-107444737D01*
X137879179Y-107384394D01*
X137893238Y-107375000D01*
X138010875Y-107296398D01*
X138028921Y-107290747D01*
X138044831Y-107280523D01*
X138075792Y-107276071D01*
X138077553Y-107275520D01*
X138079766Y-107275500D01*
X138264281Y-107275500D01*
X138331320Y-107295185D01*
X138377075Y-107347989D01*
X138385898Y-107375308D01*
X138402444Y-107458490D01*
X138402447Y-107458500D01*
X138462785Y-107604171D01*
X138462792Y-107604184D01*
X138550393Y-107735287D01*
X138550396Y-107735291D01*
X138661890Y-107846785D01*
X138661894Y-107846788D01*
X138792997Y-107934389D01*
X138793010Y-107934396D01*
X138892284Y-107975516D01*
X138938686Y-107994736D01*
X139003330Y-108007594D01*
X139094032Y-108025637D01*
X139155943Y-108058022D01*
X139157522Y-108059573D01*
X139409768Y-108311819D01*
X139443253Y-108373142D01*
X139438269Y-108442834D01*
X139396397Y-108498767D01*
X139330933Y-108523184D01*
X139322087Y-108523500D01*
X132503438Y-108523500D01*
X132436399Y-108503815D01*
X132434546Y-108502601D01*
X132379187Y-108465610D01*
X132379172Y-108465602D01*
X132233501Y-108405264D01*
X132233489Y-108405261D01*
X132078845Y-108374500D01*
X132078842Y-108374500D01*
X131921158Y-108374500D01*
X131921155Y-108374500D01*
X131766510Y-108405261D01*
X131766498Y-108405264D01*
X131620827Y-108465602D01*
X131620814Y-108465609D01*
X131489711Y-108553210D01*
X131489707Y-108553213D01*
X131378213Y-108664707D01*
X131378210Y-108664711D01*
X131290609Y-108795814D01*
X131290602Y-108795827D01*
X131230264Y-108941498D01*
X131230261Y-108941510D01*
X131199500Y-109096153D01*
X131199500Y-109253846D01*
X131230261Y-109408489D01*
X131230264Y-109408501D01*
X131290602Y-109554172D01*
X131290609Y-109554185D01*
X131378210Y-109685288D01*
X131378213Y-109685292D01*
X131489707Y-109796786D01*
X131489711Y-109796789D01*
X131620814Y-109884390D01*
X131620827Y-109884397D01*
X131730207Y-109929703D01*
X131766503Y-109944737D01*
X131921153Y-109975499D01*
X131921156Y-109975500D01*
X131921158Y-109975500D01*
X132078844Y-109975500D01*
X132078845Y-109975499D01*
X132233497Y-109944737D01*
X132379179Y-109884394D01*
X132510289Y-109796789D01*
X132546258Y-109760820D01*
X132607580Y-109727334D01*
X132633940Y-109724500D01*
X137860480Y-109724500D01*
X137927519Y-109744185D01*
X137973274Y-109796989D01*
X137983218Y-109866147D01*
X137954193Y-109929703D01*
X137948161Y-109936181D01*
X137919531Y-109964810D01*
X137919530Y-109964811D01*
X137831522Y-110110393D01*
X137780913Y-110272807D01*
X137778734Y-110296789D01*
X137774500Y-110343384D01*
X137774500Y-111006616D01*
X137780914Y-111077196D01*
X137793459Y-111117454D01*
X137812837Y-111179643D01*
X137813987Y-111249503D01*
X137797555Y-111285419D01*
X137790613Y-111295808D01*
X137790602Y-111295828D01*
X137730264Y-111441498D01*
X137730261Y-111441510D01*
X137699500Y-111596153D01*
X137699500Y-111753846D01*
X137730261Y-111908489D01*
X137730264Y-111908501D01*
X137790602Y-112054172D01*
X137790609Y-112054185D01*
X137878210Y-112185288D01*
X137878213Y-112185292D01*
X137989707Y-112296786D01*
X137989711Y-112296789D01*
X138120814Y-112384390D01*
X138120827Y-112384397D01*
X138266498Y-112444735D01*
X138266503Y-112444737D01*
X138421153Y-112475499D01*
X138421156Y-112475500D01*
X138421158Y-112475500D01*
X138578844Y-112475500D01*
X138578845Y-112475499D01*
X138733497Y-112444737D01*
X138860488Y-112392136D01*
X138879172Y-112384397D01*
X138879172Y-112384396D01*
X138879179Y-112384394D01*
X139010289Y-112296789D01*
X139121789Y-112185289D01*
X139209394Y-112054179D01*
X139269737Y-111908497D01*
X139300500Y-111753842D01*
X139300500Y-111596158D01*
X139300500Y-111596155D01*
X139299992Y-111593602D01*
X139300114Y-111592237D01*
X139299903Y-111590093D01*
X139300309Y-111590052D01*
X139300699Y-111585695D01*
X139297925Y-111578257D01*
X139303769Y-111551390D01*
X139306219Y-111524011D01*
X139311466Y-111516003D01*
X139312776Y-111509984D01*
X139333924Y-111481732D01*
X139412321Y-111403335D01*
X139473640Y-111369853D01*
X139543332Y-111374837D01*
X139587680Y-111403338D01*
X139689811Y-111505469D01*
X139689813Y-111505470D01*
X139689815Y-111505472D01*
X139799651Y-111571871D01*
X139846837Y-111623397D01*
X139859500Y-111677986D01*
X139859500Y-112200500D01*
X139839815Y-112267539D01*
X139787011Y-112313294D01*
X139735501Y-112324500D01*
X139562130Y-112324500D01*
X139562123Y-112324501D01*
X139502516Y-112330908D01*
X139367671Y-112381202D01*
X139367664Y-112381206D01*
X139252455Y-112467452D01*
X139252452Y-112467455D01*
X139166206Y-112582664D01*
X139166202Y-112582671D01*
X139115908Y-112717517D01*
X139109501Y-112777116D01*
X139109500Y-112777135D01*
X139109500Y-114572870D01*
X139109501Y-114572876D01*
X139115908Y-114632483D01*
X139166202Y-114767328D01*
X139166206Y-114767334D01*
X139172835Y-114776190D01*
X139197252Y-114841654D01*
X139182400Y-114909927D01*
X139132995Y-114959332D01*
X139073568Y-114974500D01*
X131200097Y-114974500D01*
X131133058Y-114954815D01*
X131112416Y-114938181D01*
X130834574Y-114660339D01*
X130801089Y-114599016D01*
X130800638Y-114596849D01*
X130778713Y-114486627D01*
X130769737Y-114441503D01*
X130756754Y-114410159D01*
X130709397Y-114295827D01*
X130709390Y-114295814D01*
X130621789Y-114164711D01*
X130621786Y-114164707D01*
X130510292Y-114053213D01*
X130510288Y-114053210D01*
X130379185Y-113965609D01*
X130379172Y-113965602D01*
X130233501Y-113905264D01*
X130233489Y-113905261D01*
X130078845Y-113874500D01*
X130078842Y-113874500D01*
X129921158Y-113874500D01*
X129921155Y-113874500D01*
X129766510Y-113905261D01*
X129766498Y-113905264D01*
X129620827Y-113965602D01*
X129620814Y-113965609D01*
X129489711Y-114053210D01*
X129489707Y-114053213D01*
X129378213Y-114164707D01*
X129378210Y-114164711D01*
X129290609Y-114295814D01*
X129290604Y-114295824D01*
X129243245Y-114410159D01*
X129199404Y-114464562D01*
X129133109Y-114486627D01*
X129065410Y-114469348D01*
X129024370Y-114429747D01*
X129004281Y-114398487D01*
X129004278Y-114398483D01*
X128863724Y-114236275D01*
X128701514Y-114095720D01*
X128701513Y-114095719D01*
X128597002Y-114028554D01*
X128520951Y-113979679D01*
X128520938Y-113979672D01*
X128325715Y-113890517D01*
X128119774Y-113830047D01*
X128119764Y-113830044D01*
X127928754Y-113802582D01*
X127907318Y-113799500D01*
X127907317Y-113799500D01*
X121806962Y-113799500D01*
X121793078Y-113798720D01*
X121775914Y-113796786D01*
X121702735Y-113788540D01*
X121675666Y-113782362D01*
X121596462Y-113754648D01*
X121571444Y-113742600D01*
X121500395Y-113697957D01*
X121478686Y-113680644D01*
X121419355Y-113621313D01*
X121402042Y-113599604D01*
X121398707Y-113594297D01*
X121357398Y-113528553D01*
X121345351Y-113503537D01*
X121317637Y-113424333D01*
X121311459Y-113397263D01*
X121307120Y-113358757D01*
X121301280Y-113306922D01*
X121300500Y-113293038D01*
X121300500Y-110705084D01*
X122626207Y-110705084D01*
X122626207Y-110957008D01*
X122637959Y-111031205D01*
X122665617Y-111205831D01*
X122743467Y-111445429D01*
X122807892Y-111571869D01*
X122844855Y-111644413D01*
X122857839Y-111669894D01*
X123005908Y-111873695D01*
X123005912Y-111873700D01*
X123184052Y-112051840D01*
X123184057Y-112051844D01*
X123361824Y-112180998D01*
X123387862Y-112199916D01*
X123520580Y-112267539D01*
X123612323Y-112314285D01*
X123612325Y-112314285D01*
X123612328Y-112314287D01*
X123851922Y-112392136D01*
X124100745Y-112431546D01*
X124100746Y-112431546D01*
X124352668Y-112431546D01*
X124352669Y-112431546D01*
X124601492Y-112392136D01*
X124841086Y-112314287D01*
X125065552Y-112199916D01*
X125269363Y-112051839D01*
X125447500Y-111873702D01*
X125595577Y-111669891D01*
X125709948Y-111445425D01*
X125787797Y-111205831D01*
X125827207Y-110957008D01*
X125827207Y-110705084D01*
X125787797Y-110456261D01*
X125709948Y-110216667D01*
X125709946Y-110216664D01*
X125709946Y-110216662D01*
X125655799Y-110110393D01*
X125595577Y-109992201D01*
X125561093Y-109944738D01*
X125447505Y-109788396D01*
X125447501Y-109788391D01*
X125269361Y-109610251D01*
X125269356Y-109610247D01*
X125065555Y-109462178D01*
X125065554Y-109462177D01*
X125065552Y-109462176D01*
X124995454Y-109426459D01*
X124841090Y-109347806D01*
X124601492Y-109269956D01*
X124499753Y-109253842D01*
X124352669Y-109230546D01*
X124100745Y-109230546D01*
X124043543Y-109239606D01*
X123851921Y-109269956D01*
X123612323Y-109347806D01*
X123387858Y-109462178D01*
X123184057Y-109610247D01*
X123184052Y-109610251D01*
X123005912Y-109788391D01*
X123005908Y-109788396D01*
X122857839Y-109992197D01*
X122743467Y-110216662D01*
X122680457Y-110410588D01*
X122665617Y-110456261D01*
X122626207Y-110705084D01*
X121300500Y-110705084D01*
X121300500Y-107222016D01*
X121320185Y-107154977D01*
X121372989Y-107109222D01*
X121442147Y-107099278D01*
X121493391Y-107118914D01*
X121639999Y-107216875D01*
X121640008Y-107216880D01*
X121812894Y-107288491D01*
X121812902Y-107288493D01*
X121996428Y-107324999D01*
X121996431Y-107325000D01*
X122240000Y-107325000D01*
X122240000Y-106675000D01*
X122740000Y-106675000D01*
X122740000Y-107325000D01*
X122983569Y-107325000D01*
X122983571Y-107324999D01*
X123167097Y-107288493D01*
X123167105Y-107288491D01*
X123339991Y-107216880D01*
X123339994Y-107216878D01*
X123466776Y-107132164D01*
X123497072Y-107122677D01*
X123526818Y-107111582D01*
X123530175Y-107112312D01*
X123533453Y-107111286D01*
X123564066Y-107119683D01*
X123595091Y-107126432D01*
X123598807Y-107129214D01*
X123600834Y-107129770D01*
X123623346Y-107147582D01*
X123631284Y-107155520D01*
X123631285Y-107155520D01*
X123638352Y-107162587D01*
X125515139Y-109039374D01*
X125515149Y-109039385D01*
X125519479Y-109043715D01*
X125519480Y-109043716D01*
X125631284Y-109155520D01*
X125698767Y-109194481D01*
X125768215Y-109234577D01*
X125920943Y-109275500D01*
X126783285Y-109275500D01*
X126850324Y-109295185D01*
X126889401Y-109335349D01*
X126915116Y-109377887D01*
X126919530Y-109385188D01*
X127039811Y-109505469D01*
X127039813Y-109505470D01*
X127039815Y-109505472D01*
X127185394Y-109593478D01*
X127347804Y-109644086D01*
X127418384Y-109650500D01*
X127418387Y-109650500D01*
X127931613Y-109650500D01*
X127931616Y-109650500D01*
X128002196Y-109644086D01*
X128164606Y-109593478D01*
X128310185Y-109505472D01*
X128412673Y-109402983D01*
X128473994Y-109369499D01*
X128543685Y-109374483D01*
X128588034Y-109402984D01*
X128690122Y-109505072D01*
X128835604Y-109593019D01*
X128835603Y-109593019D01*
X128997894Y-109643590D01*
X128997893Y-109643590D01*
X129068408Y-109649998D01*
X129068426Y-109649999D01*
X129575000Y-109649999D01*
X129581581Y-109649999D01*
X129652102Y-109643591D01*
X129652107Y-109643590D01*
X129814396Y-109593018D01*
X129959877Y-109505072D01*
X130080072Y-109384877D01*
X130168019Y-109239395D01*
X130218590Y-109077106D01*
X130225000Y-109006572D01*
X130225000Y-108925000D01*
X129575000Y-108925000D01*
X129575000Y-109649999D01*
X129068426Y-109649999D01*
X129074999Y-109649998D01*
X129075000Y-109649998D01*
X129075000Y-108425000D01*
X129575000Y-108425000D01*
X130224999Y-108425000D01*
X130224999Y-108343417D01*
X130218591Y-108272897D01*
X130218590Y-108272892D01*
X130168018Y-108110603D01*
X130080072Y-107965122D01*
X129959877Y-107844927D01*
X129814395Y-107756980D01*
X129814396Y-107756980D01*
X129652105Y-107706409D01*
X129652106Y-107706409D01*
X129581572Y-107700000D01*
X129575000Y-107700000D01*
X129575000Y-108425000D01*
X129075000Y-108425000D01*
X129075000Y-107700000D01*
X129074999Y-107699999D01*
X129068436Y-107700000D01*
X129068417Y-107700001D01*
X128997897Y-107706408D01*
X128997892Y-107706409D01*
X128835603Y-107756981D01*
X128690122Y-107844927D01*
X128690121Y-107844928D01*
X128588035Y-107947015D01*
X128526712Y-107980500D01*
X128457020Y-107975516D01*
X128412673Y-107947015D01*
X128310188Y-107844530D01*
X128164606Y-107756522D01*
X128096459Y-107735287D01*
X128002196Y-107705914D01*
X128002194Y-107705913D01*
X128002192Y-107705913D01*
X127952778Y-107701423D01*
X127931616Y-107699500D01*
X127418384Y-107699500D01*
X127399145Y-107701248D01*
X127347807Y-107705913D01*
X127185393Y-107756522D01*
X127039811Y-107844530D01*
X126919530Y-107964811D01*
X126919528Y-107964815D01*
X126901440Y-107994737D01*
X126889402Y-108014650D01*
X126837874Y-108061838D01*
X126783285Y-108074500D01*
X126300097Y-108074500D01*
X126233058Y-108054815D01*
X126212416Y-108038181D01*
X125647298Y-107473063D01*
X125613813Y-107411740D01*
X125618797Y-107342048D01*
X125620000Y-107340176D01*
X125620000Y-106675000D01*
X126120000Y-106675000D01*
X126120000Y-107325000D01*
X126713569Y-107325000D01*
X126713571Y-107324999D01*
X126897097Y-107288493D01*
X126897105Y-107288491D01*
X127069991Y-107216880D01*
X127070000Y-107216875D01*
X127225589Y-107112913D01*
X127225593Y-107112910D01*
X127357910Y-106980593D01*
X127357913Y-106980589D01*
X127461875Y-106825000D01*
X127461880Y-106824991D01*
X127533492Y-106652103D01*
X127533493Y-106652100D01*
X127538884Y-106625000D01*
X126786988Y-106625000D01*
X126804205Y-106615060D01*
X126860060Y-106559205D01*
X126899556Y-106490796D01*
X126920000Y-106414496D01*
X126920000Y-106335504D01*
X126899556Y-106259204D01*
X126860060Y-106190795D01*
X126804205Y-106134940D01*
X126786988Y-106125000D01*
X127538884Y-106125000D01*
X127538884Y-106124999D01*
X127533493Y-106097899D01*
X127533492Y-106097896D01*
X127461880Y-105925008D01*
X127461878Y-105925005D01*
X127411427Y-105849501D01*
X127355217Y-105843965D01*
X127290429Y-105817804D01*
X127279690Y-105808243D01*
X126850000Y-105378553D01*
X126421493Y-105807060D01*
X126360170Y-105840545D01*
X126290478Y-105835561D01*
X126246131Y-105807060D01*
X126175000Y-105735929D01*
X126103868Y-105807061D01*
X126042545Y-105840545D01*
X125972853Y-105835561D01*
X125928506Y-105807060D01*
X125410904Y-105289457D01*
X125406565Y-105281511D01*
X125399317Y-105276085D01*
X125390082Y-105251325D01*
X125377419Y-105228134D01*
X125378064Y-105219103D01*
X125374901Y-105210621D01*
X125379881Y-105187724D01*
X125386709Y-105194552D01*
X125460218Y-105225000D01*
X125539782Y-105225000D01*
X125613291Y-105194552D01*
X125669552Y-105138291D01*
X125700000Y-105064782D01*
X125700000Y-105002380D01*
X125744204Y-104993587D01*
X125813795Y-104999814D01*
X125856076Y-105027523D01*
X126175000Y-105346446D01*
X126175001Y-105346446D01*
X126493922Y-105027524D01*
X126555245Y-104994039D01*
X126605794Y-104993588D01*
X126650000Y-105002381D01*
X126650000Y-105064782D01*
X126680448Y-105138291D01*
X126736709Y-105194552D01*
X126810218Y-105225000D01*
X126889782Y-105225000D01*
X126963291Y-105194552D01*
X127019552Y-105138291D01*
X127050000Y-105064782D01*
X127050000Y-105002381D01*
X127094205Y-104993588D01*
X127163796Y-104999815D01*
X127206077Y-105027524D01*
X127604114Y-105425561D01*
X127667334Y-105272936D01*
X127667336Y-105272928D01*
X127699999Y-105108722D01*
X127700000Y-105108720D01*
X127700000Y-104941279D01*
X127699999Y-104941277D01*
X127667336Y-104777071D01*
X127667334Y-104777063D01*
X127613919Y-104648107D01*
X127606450Y-104578637D01*
X127613919Y-104553201D01*
X127640261Y-104489606D01*
X127667816Y-104423083D01*
X127700500Y-104258768D01*
X127700500Y-104091234D01*
X127667816Y-103926919D01*
X127614189Y-103797453D01*
X127606720Y-103727984D01*
X127614189Y-103702547D01*
X127626509Y-103672804D01*
X127667816Y-103573082D01*
X127700500Y-103408767D01*
X127700500Y-103241233D01*
X127667816Y-103076918D01*
X127614188Y-102947451D01*
X127606720Y-102877984D01*
X127614189Y-102852547D01*
X127616865Y-102846087D01*
X127667816Y-102723082D01*
X127700500Y-102558767D01*
X127700500Y-102391233D01*
X127667816Y-102226918D01*
X127614188Y-102097451D01*
X127606720Y-102027984D01*
X127614189Y-102002547D01*
X127667816Y-101873082D01*
X127700500Y-101708767D01*
X127700500Y-101541233D01*
X127684697Y-101461785D01*
X127690924Y-101392195D01*
X127733787Y-101337018D01*
X127799676Y-101313773D01*
X127867673Y-101329841D01*
X127912429Y-101373442D01*
X127916630Y-101380391D01*
X127919530Y-101385188D01*
X128039811Y-101505469D01*
X128039813Y-101505470D01*
X128039815Y-101505472D01*
X128185394Y-101593478D01*
X128347804Y-101644086D01*
X128418384Y-101650500D01*
X128418387Y-101650500D01*
X128931613Y-101650500D01*
X128931616Y-101650500D01*
X129002196Y-101644086D01*
X129164606Y-101593478D01*
X129310185Y-101505472D01*
X129412673Y-101402983D01*
X129473994Y-101369499D01*
X129543685Y-101374483D01*
X129588034Y-101402984D01*
X129690122Y-101505072D01*
X129835604Y-101593019D01*
X129835603Y-101593019D01*
X129997894Y-101643590D01*
X129997893Y-101643590D01*
X130068408Y-101649998D01*
X130068426Y-101649999D01*
X130575000Y-101649999D01*
X130581581Y-101649999D01*
X130652102Y-101643591D01*
X130652107Y-101643590D01*
X130814396Y-101593018D01*
X130959877Y-101505072D01*
X131080072Y-101384877D01*
X131168019Y-101239395D01*
X131218590Y-101077106D01*
X131225000Y-101006572D01*
X131225000Y-100925000D01*
X130575000Y-100925000D01*
X130575000Y-101649999D01*
X130068426Y-101649999D01*
X130074999Y-101649998D01*
X130075000Y-101649998D01*
X130075000Y-100425000D01*
X130575000Y-100425000D01*
X131224999Y-100425000D01*
X131224999Y-100343417D01*
X131218591Y-100272897D01*
X131218590Y-100272892D01*
X131168018Y-100110603D01*
X131080072Y-99965122D01*
X130959877Y-99844927D01*
X130814395Y-99756980D01*
X130814396Y-99756980D01*
X130652105Y-99706409D01*
X130652106Y-99706409D01*
X130581572Y-99700000D01*
X130575000Y-99700000D01*
X130575000Y-100425000D01*
X130075000Y-100425000D01*
X130075000Y-99700000D01*
X130074999Y-99699999D01*
X130068436Y-99700000D01*
X130068417Y-99700001D01*
X129997897Y-99706408D01*
X129997892Y-99706409D01*
X129835603Y-99756981D01*
X129690122Y-99844927D01*
X129690121Y-99844928D01*
X129588035Y-99947015D01*
X129526712Y-99980500D01*
X129457020Y-99975516D01*
X129412673Y-99947015D01*
X129310188Y-99844530D01*
X129304732Y-99841232D01*
X129164606Y-99756522D01*
X129002196Y-99705914D01*
X129002194Y-99705913D01*
X129002192Y-99705913D01*
X128952778Y-99701423D01*
X128931616Y-99699500D01*
X128418384Y-99699500D01*
X128399145Y-99701248D01*
X128347807Y-99705913D01*
X128185393Y-99756522D01*
X128039811Y-99844530D01*
X128039810Y-99844531D01*
X127914224Y-99970118D01*
X127912498Y-99968392D01*
X127865256Y-100002155D01*
X127795471Y-100005598D01*
X127734903Y-99970766D01*
X127702781Y-99908718D01*
X127700500Y-99885044D01*
X127700500Y-99841232D01*
X127700499Y-99841228D01*
X127696148Y-99819356D01*
X127667816Y-99676918D01*
X127613917Y-99546797D01*
X127606449Y-99477330D01*
X127613918Y-99451892D01*
X127667335Y-99322932D01*
X127667336Y-99322928D01*
X127699999Y-99158722D01*
X127700000Y-99158720D01*
X127700000Y-98991279D01*
X127699999Y-98991277D01*
X127667336Y-98827071D01*
X127667334Y-98827063D01*
X127604114Y-98674437D01*
X127206076Y-99072476D01*
X127144753Y-99105961D01*
X127094204Y-99106412D01*
X127050000Y-99097619D01*
X127050000Y-99035218D01*
X127019552Y-98961709D01*
X126963291Y-98905448D01*
X126889782Y-98875000D01*
X126810218Y-98875000D01*
X126736709Y-98905448D01*
X126680448Y-98961709D01*
X126650000Y-99035218D01*
X126650000Y-99097618D01*
X126605794Y-99106412D01*
X126536202Y-99100185D01*
X126493922Y-99072476D01*
X126175001Y-98753553D01*
X126175000Y-98753553D01*
X125856076Y-99072476D01*
X125851314Y-99075075D01*
X125848319Y-99079601D01*
X125820972Y-99091643D01*
X125794753Y-99105961D01*
X125788020Y-99106155D01*
X125784375Y-99107761D01*
X125760380Y-99106955D01*
X125749084Y-99107282D01*
X125746628Y-99106894D01*
X125700000Y-99097619D01*
X125700000Y-99035218D01*
X125669552Y-98961709D01*
X125613291Y-98905448D01*
X125539782Y-98875000D01*
X125460218Y-98875000D01*
X125386709Y-98905448D01*
X125378177Y-98913979D01*
X125382403Y-98854889D01*
X125410904Y-98810542D01*
X125928506Y-98292939D01*
X125989829Y-98259454D01*
X126059520Y-98264438D01*
X126103868Y-98292938D01*
X126175000Y-98364069D01*
X126246131Y-98292939D01*
X126307454Y-98259454D01*
X126377146Y-98264438D01*
X126421493Y-98292939D01*
X126849999Y-98721445D01*
X127279690Y-98291755D01*
X127341013Y-98258270D01*
X127355218Y-98256033D01*
X127411428Y-98250497D01*
X127461880Y-98174991D01*
X127533492Y-98002103D01*
X127533493Y-98002100D01*
X127538884Y-97975000D01*
X126786988Y-97975000D01*
X126804205Y-97965060D01*
X126860060Y-97909205D01*
X126899556Y-97840796D01*
X126920000Y-97764496D01*
X126920000Y-97685504D01*
X126899556Y-97609204D01*
X126860060Y-97540795D01*
X126804205Y-97484940D01*
X126786988Y-97475000D01*
X127538884Y-97475000D01*
X127538884Y-97474999D01*
X127533493Y-97447899D01*
X127533492Y-97447896D01*
X127461880Y-97275008D01*
X127461875Y-97274999D01*
X127357913Y-97119410D01*
X127357910Y-97119406D01*
X127225593Y-96987089D01*
X127225589Y-96987086D01*
X127070000Y-96883124D01*
X127069991Y-96883119D01*
X126897105Y-96811508D01*
X126897097Y-96811506D01*
X126713570Y-96775000D01*
X126120000Y-96775000D01*
X126120000Y-97425000D01*
X125620000Y-97425000D01*
X125620000Y-96775000D01*
X125026430Y-96775000D01*
X124842902Y-96811506D01*
X124842894Y-96811508D01*
X124670008Y-96883119D01*
X124669999Y-96883124D01*
X124514410Y-96987086D01*
X124514406Y-96987089D01*
X124382089Y-97119406D01*
X124382086Y-97119410D01*
X124278124Y-97274999D01*
X124278119Y-97275008D01*
X124206507Y-97447896D01*
X124206506Y-97447899D01*
X124201115Y-97474999D01*
X124201116Y-97475000D01*
X124953012Y-97475000D01*
X124935795Y-97484940D01*
X124879940Y-97540795D01*
X124840444Y-97609204D01*
X124820000Y-97685504D01*
X124820000Y-97764496D01*
X124840444Y-97840796D01*
X124879940Y-97909205D01*
X124935795Y-97965060D01*
X124953012Y-97975000D01*
X124201116Y-97975000D01*
X124206506Y-98002100D01*
X124206507Y-98002103D01*
X124278119Y-98174991D01*
X124278124Y-98175000D01*
X124382086Y-98330589D01*
X124382089Y-98330593D01*
X124514406Y-98462910D01*
X124514410Y-98462913D01*
X124675071Y-98570264D01*
X124674333Y-98571367D01*
X124719324Y-98615546D01*
X124734796Y-98683681D01*
X124725598Y-98723413D01*
X124682666Y-98827059D01*
X124682663Y-98827071D01*
X124650000Y-98991277D01*
X124650000Y-99158722D01*
X124682663Y-99322928D01*
X124682665Y-99322936D01*
X124736081Y-99451893D01*
X124743550Y-99521363D01*
X124736081Y-99546799D01*
X124682184Y-99676917D01*
X124682182Y-99676925D01*
X124649500Y-99841228D01*
X124649500Y-100008771D01*
X124682182Y-100173074D01*
X124682185Y-100173086D01*
X124735810Y-100302548D01*
X124743279Y-100372017D01*
X124735810Y-100397452D01*
X124682185Y-100526913D01*
X124682182Y-100526925D01*
X124649500Y-100691228D01*
X124649500Y-100858771D01*
X124682182Y-101023074D01*
X124682185Y-101023086D01*
X124735810Y-101152548D01*
X124743279Y-101222017D01*
X124735810Y-101247452D01*
X124682185Y-101376913D01*
X124682182Y-101376925D01*
X124649500Y-101541228D01*
X124649500Y-101708771D01*
X124682182Y-101873074D01*
X124682185Y-101873086D01*
X124735810Y-102002548D01*
X124743279Y-102072017D01*
X124735810Y-102097452D01*
X124682185Y-102226913D01*
X124682182Y-102226925D01*
X124649500Y-102391228D01*
X124649500Y-102391232D01*
X124649500Y-102391233D01*
X124649500Y-102558767D01*
X124662068Y-102621952D01*
X124682016Y-102722240D01*
X124675788Y-102791831D01*
X124641147Y-102837823D01*
X124642057Y-102838733D01*
X123519481Y-103961308D01*
X123519477Y-103961313D01*
X123471903Y-104043716D01*
X123440423Y-104098241D01*
X123399499Y-104250969D01*
X123399499Y-104250971D01*
X123399499Y-104419072D01*
X123399500Y-104419085D01*
X123399500Y-105372190D01*
X123379815Y-105439229D01*
X123327011Y-105484984D01*
X123257853Y-105494928D01*
X123228048Y-105486751D01*
X123167109Y-105461509D01*
X123167097Y-105461506D01*
X122983570Y-105425000D01*
X122740000Y-105425000D01*
X122740000Y-106075000D01*
X122240000Y-106075000D01*
X122240000Y-105425000D01*
X121996430Y-105425000D01*
X121812902Y-105461506D01*
X121812894Y-105461508D01*
X121640008Y-105533119D01*
X121639999Y-105533124D01*
X121493391Y-105631085D01*
X121426713Y-105651963D01*
X121359333Y-105633478D01*
X121312643Y-105581499D01*
X121300500Y-105527983D01*
X121300500Y-98572016D01*
X121320185Y-98504977D01*
X121372989Y-98459222D01*
X121442147Y-98449278D01*
X121493391Y-98468914D01*
X121639999Y-98566875D01*
X121640008Y-98566880D01*
X121812894Y-98638491D01*
X121812902Y-98638493D01*
X121996428Y-98674999D01*
X121996431Y-98675000D01*
X122240000Y-98675000D01*
X122240000Y-98025000D01*
X122740000Y-98025000D01*
X122740000Y-98675000D01*
X122983569Y-98675000D01*
X122983571Y-98674999D01*
X123167097Y-98638493D01*
X123167105Y-98638491D01*
X123339991Y-98566880D01*
X123340000Y-98566875D01*
X123495589Y-98462913D01*
X123495593Y-98462910D01*
X123627910Y-98330593D01*
X123627913Y-98330589D01*
X123731875Y-98175000D01*
X123731880Y-98174991D01*
X123803492Y-98002103D01*
X123803493Y-98002100D01*
X123808884Y-97975000D01*
X123056988Y-97975000D01*
X123074205Y-97965060D01*
X123130060Y-97909205D01*
X123169556Y-97840796D01*
X123190000Y-97764496D01*
X123190000Y-97685504D01*
X123169556Y-97609204D01*
X123130060Y-97540795D01*
X123074205Y-97484940D01*
X123056988Y-97475000D01*
X123808884Y-97475000D01*
X123808884Y-97474999D01*
X123803493Y-97447899D01*
X123803492Y-97447896D01*
X123731880Y-97275008D01*
X123731875Y-97274999D01*
X123627913Y-97119410D01*
X123627910Y-97119406D01*
X123495593Y-96987089D01*
X123495589Y-96987086D01*
X123340000Y-96883124D01*
X123339991Y-96883119D01*
X123167105Y-96811508D01*
X123167097Y-96811506D01*
X122983570Y-96775000D01*
X122740000Y-96775000D01*
X122740000Y-97425000D01*
X122240000Y-97425000D01*
X122240000Y-96775000D01*
X121996430Y-96775000D01*
X121812902Y-96811506D01*
X121812894Y-96811508D01*
X121640008Y-96883119D01*
X121639999Y-96883124D01*
X121493391Y-96981085D01*
X121483690Y-96984122D01*
X121476011Y-96990777D01*
X121450911Y-96994385D01*
X121426713Y-97001963D01*
X121416913Y-96999274D01*
X121406853Y-97000721D01*
X121383784Y-96990186D01*
X121359333Y-96983478D01*
X121352542Y-96975918D01*
X121343297Y-96971696D01*
X121329586Y-96950361D01*
X121312643Y-96931499D01*
X121310011Y-96919902D01*
X121305523Y-96912918D01*
X121300500Y-96877983D01*
X121300500Y-96780102D01*
X121300501Y-96780099D01*
X121300500Y-96720297D01*
X121301097Y-96708145D01*
X121301148Y-96707625D01*
X121308899Y-96628917D01*
X121313639Y-96605090D01*
X121316350Y-96596153D01*
X129199500Y-96596153D01*
X129199500Y-96753846D01*
X129230261Y-96908489D01*
X129230264Y-96908501D01*
X129290602Y-97054172D01*
X129290609Y-97054185D01*
X129378210Y-97185288D01*
X129378213Y-97185292D01*
X129489709Y-97296788D01*
X129620814Y-97384390D01*
X129620827Y-97384397D01*
X129748027Y-97437084D01*
X129766503Y-97444737D01*
X129831147Y-97457595D01*
X129921849Y-97475638D01*
X129983760Y-97508023D01*
X129985339Y-97509574D01*
X135689404Y-103213639D01*
X135689414Y-103213650D01*
X135693744Y-103217980D01*
X135693745Y-103217981D01*
X135805549Y-103329785D01*
X135884732Y-103375500D01*
X135892360Y-103379904D01*
X135892362Y-103379906D01*
X135942350Y-103408767D01*
X135942480Y-103408842D01*
X136095207Y-103449765D01*
X136095208Y-103449765D01*
X136095215Y-103449765D01*
X136103267Y-103450826D01*
X136103075Y-103452283D01*
X136161538Y-103469450D01*
X136163390Y-103470663D01*
X136295079Y-103558655D01*
X136295092Y-103558662D01*
X136385617Y-103596158D01*
X136440768Y-103619002D01*
X136595418Y-103649764D01*
X136595421Y-103649765D01*
X136595423Y-103649765D01*
X136753109Y-103649765D01*
X136753110Y-103649764D01*
X136907762Y-103619002D01*
X137053444Y-103558659D01*
X137184554Y-103471054D01*
X137296054Y-103359554D01*
X137383659Y-103228444D01*
X137389480Y-103214392D01*
X137423745Y-103131666D01*
X137444002Y-103082762D01*
X137444003Y-103082755D01*
X137444005Y-103082750D01*
X137469160Y-102956284D01*
X137474765Y-102928107D01*
X137474765Y-102770423D01*
X137474765Y-102770420D01*
X137474764Y-102770418D01*
X137467836Y-102735590D01*
X137444002Y-102615768D01*
X137419017Y-102555449D01*
X137383662Y-102470092D01*
X137383655Y-102470079D01*
X137296054Y-102338976D01*
X137296051Y-102338972D01*
X137184557Y-102227478D01*
X137184553Y-102227475D01*
X137053450Y-102139874D01*
X137053437Y-102139867D01*
X136907766Y-102079529D01*
X136907754Y-102079526D01*
X136753110Y-102048765D01*
X136753107Y-102048765D01*
X136595423Y-102048765D01*
X136595420Y-102048765D01*
X136440776Y-102079525D01*
X136440767Y-102079528D01*
X136385079Y-102102594D01*
X136315610Y-102110061D01*
X136253131Y-102078785D01*
X136249948Y-102075713D01*
X130834574Y-96660339D01*
X130801089Y-96599016D01*
X130800638Y-96596849D01*
X130774531Y-96465606D01*
X130769737Y-96441503D01*
X130763838Y-96427261D01*
X130709397Y-96295827D01*
X130709390Y-96295814D01*
X130621789Y-96164711D01*
X130621786Y-96164707D01*
X130510292Y-96053213D01*
X130510288Y-96053210D01*
X130379185Y-95965609D01*
X130379172Y-95965602D01*
X130233501Y-95905264D01*
X130233489Y-95905261D01*
X130078845Y-95874500D01*
X130078842Y-95874500D01*
X129921158Y-95874500D01*
X129921155Y-95874500D01*
X129766510Y-95905261D01*
X129766498Y-95905264D01*
X129620827Y-95965602D01*
X129620814Y-95965609D01*
X129489711Y-96053210D01*
X129489707Y-96053213D01*
X129378213Y-96164707D01*
X129378210Y-96164711D01*
X129290609Y-96295814D01*
X129290602Y-96295827D01*
X129230264Y-96441498D01*
X129230261Y-96441510D01*
X129199500Y-96596153D01*
X121316350Y-96596153D01*
X121334975Y-96534756D01*
X121344274Y-96512310D01*
X121378920Y-96447497D01*
X121392419Y-96427296D01*
X121443070Y-96365583D01*
X121451218Y-96356594D01*
X121453429Y-96354384D01*
X121453435Y-96354380D01*
X121453434Y-96354379D01*
X121467317Y-96340498D01*
X121493374Y-96314446D01*
X121493375Y-96314443D01*
X121499832Y-96307988D01*
X121499875Y-96307937D01*
X123818312Y-93989500D01*
X131457058Y-93989500D01*
X131457058Y-94162721D01*
X131475836Y-94281286D01*
X131484156Y-94333812D01*
X131498646Y-94378408D01*
X131537686Y-94498558D01*
X131557875Y-94538181D01*
X131616326Y-94652899D01*
X131718144Y-94793039D01*
X132229538Y-95304433D01*
X132369678Y-95406251D01*
X132524021Y-95484892D01*
X132688765Y-95538421D01*
X132859855Y-95565519D01*
X132859856Y-95565519D01*
X133033076Y-95565519D01*
X133033077Y-95565519D01*
X133204167Y-95538421D01*
X133368911Y-95484892D01*
X133523254Y-95406251D01*
X133663394Y-95304433D01*
X133785880Y-95181947D01*
X133887698Y-95041807D01*
X133966339Y-94887464D01*
X134019868Y-94722720D01*
X134046966Y-94551630D01*
X134046966Y-94399028D01*
X134066651Y-94331989D01*
X134119455Y-94286234D01*
X134188613Y-94276290D01*
X134199564Y-94278371D01*
X134273018Y-94295781D01*
X134448340Y-94295781D01*
X134618945Y-94255346D01*
X134775620Y-94176661D01*
X134855658Y-94111460D01*
X134855665Y-94111454D01*
X134961721Y-94005398D01*
X134187672Y-93231351D01*
X134215596Y-93231351D01*
X134310971Y-93205795D01*
X134396481Y-93156426D01*
X134466301Y-93086606D01*
X134515670Y-93001096D01*
X134541226Y-92905721D01*
X134541226Y-92877797D01*
X135315272Y-93651845D01*
X135315273Y-93651845D01*
X135421321Y-93545797D01*
X135421330Y-93545787D01*
X135486531Y-93465750D01*
X135486540Y-93465737D01*
X135565221Y-93309070D01*
X135605656Y-93138465D01*
X135605656Y-92963145D01*
X135565221Y-92792540D01*
X135486536Y-92635865D01*
X135421335Y-92555827D01*
X135421319Y-92555809D01*
X135120819Y-92255310D01*
X135120818Y-92255310D01*
X134541226Y-92834902D01*
X134541226Y-92806981D01*
X134515670Y-92711606D01*
X134466301Y-92626096D01*
X134396481Y-92556276D01*
X134310971Y-92506907D01*
X134215596Y-92481351D01*
X134187671Y-92481351D01*
X134767266Y-91901757D01*
X134767266Y-91901756D01*
X134466768Y-91601260D01*
X134466747Y-91601241D01*
X134386716Y-91536045D01*
X134386703Y-91536036D01*
X134230036Y-91457355D01*
X134059431Y-91416921D01*
X133884112Y-91416921D01*
X133713506Y-91457355D01*
X133556831Y-91536040D01*
X133476788Y-91601245D01*
X133476779Y-91601252D01*
X133370730Y-91707302D01*
X134144779Y-92481351D01*
X134116856Y-92481351D01*
X134021481Y-92506907D01*
X133935971Y-92556276D01*
X133866151Y-92626096D01*
X133816782Y-92711606D01*
X133791226Y-92806981D01*
X133791226Y-92834904D01*
X133017178Y-92060856D01*
X132911126Y-92166909D01*
X132911116Y-92166920D01*
X132845920Y-92246951D01*
X132845911Y-92246964D01*
X132767230Y-92403631D01*
X132726796Y-92574236D01*
X132726796Y-92749556D01*
X132744206Y-92823014D01*
X132740512Y-92892786D01*
X132699683Y-92949485D01*
X132634682Y-92975110D01*
X132623548Y-92975611D01*
X132470947Y-92975611D01*
X132431286Y-92981892D01*
X132299860Y-93002708D01*
X132135110Y-93056239D01*
X131980769Y-93134879D01*
X131951113Y-93156426D01*
X131840630Y-93236697D01*
X131840628Y-93236699D01*
X131840627Y-93236699D01*
X131718146Y-93359180D01*
X131718146Y-93359181D01*
X131718144Y-93359183D01*
X131682189Y-93408671D01*
X131616326Y-93499322D01*
X131537686Y-93653663D01*
X131484155Y-93818413D01*
X131457058Y-93989500D01*
X123818312Y-93989500D01*
X132102728Y-85705084D01*
X134626207Y-85705084D01*
X134626207Y-85957007D01*
X134665617Y-86205831D01*
X134743467Y-86445429D01*
X134857839Y-86669894D01*
X135005908Y-86873695D01*
X135005912Y-86873700D01*
X135184052Y-87051840D01*
X135184057Y-87051844D01*
X135249787Y-87099599D01*
X135387862Y-87199916D01*
X135530891Y-87272793D01*
X135612323Y-87314285D01*
X135612325Y-87314285D01*
X135612328Y-87314287D01*
X135851922Y-87392136D01*
X136100745Y-87431546D01*
X136100746Y-87431546D01*
X136352668Y-87431546D01*
X136352669Y-87431546D01*
X136601492Y-87392136D01*
X136841086Y-87314287D01*
X137065552Y-87199916D01*
X137269363Y-87051839D01*
X137447500Y-86873702D01*
X137595577Y-86669891D01*
X137709948Y-86445425D01*
X137787797Y-86205831D01*
X137827207Y-85957008D01*
X137827207Y-85705084D01*
X161626207Y-85705084D01*
X161626207Y-85957007D01*
X161665617Y-86205831D01*
X161743467Y-86445429D01*
X161857839Y-86669894D01*
X162005908Y-86873695D01*
X162005912Y-86873700D01*
X162184052Y-87051840D01*
X162184057Y-87051844D01*
X162249787Y-87099599D01*
X162387862Y-87199916D01*
X162530891Y-87272793D01*
X162612323Y-87314285D01*
X162612325Y-87314285D01*
X162612328Y-87314287D01*
X162851922Y-87392136D01*
X163100745Y-87431546D01*
X163100746Y-87431546D01*
X163352668Y-87431546D01*
X163352669Y-87431546D01*
X163601492Y-87392136D01*
X163841086Y-87314287D01*
X164065552Y-87199916D01*
X164269363Y-87051839D01*
X164447500Y-86873702D01*
X164595577Y-86669891D01*
X164709948Y-86445425D01*
X164787797Y-86205831D01*
X164827207Y-85957008D01*
X164827207Y-85705084D01*
X164787797Y-85456261D01*
X164709948Y-85216667D01*
X164709946Y-85216664D01*
X164709946Y-85216662D01*
X164668454Y-85135230D01*
X164595577Y-84992201D01*
X164576659Y-84966163D01*
X164447505Y-84788396D01*
X164447501Y-84788391D01*
X164269361Y-84610251D01*
X164269356Y-84610247D01*
X164065555Y-84462178D01*
X164065554Y-84462177D01*
X164065552Y-84462176D01*
X163995454Y-84426459D01*
X163841090Y-84347806D01*
X163601492Y-84269956D01*
X163352669Y-84230546D01*
X163100745Y-84230546D01*
X162976333Y-84250251D01*
X162851921Y-84269956D01*
X162612323Y-84347806D01*
X162387858Y-84462178D01*
X162184057Y-84610247D01*
X162184052Y-84610251D01*
X162005912Y-84788391D01*
X162005908Y-84788396D01*
X161857839Y-84992197D01*
X161743467Y-85216662D01*
X161665617Y-85456260D01*
X161626207Y-85705084D01*
X137827207Y-85705084D01*
X137787797Y-85456261D01*
X137709948Y-85216667D01*
X137709946Y-85216664D01*
X137709946Y-85216662D01*
X137668454Y-85135230D01*
X137595577Y-84992201D01*
X137576659Y-84966163D01*
X137447505Y-84788396D01*
X137447501Y-84788391D01*
X137269361Y-84610251D01*
X137269356Y-84610247D01*
X137065555Y-84462178D01*
X137065554Y-84462177D01*
X137065552Y-84462176D01*
X136995454Y-84426459D01*
X136841090Y-84347806D01*
X136601492Y-84269956D01*
X136352669Y-84230546D01*
X136100745Y-84230546D01*
X135976333Y-84250251D01*
X135851921Y-84269956D01*
X135612323Y-84347806D01*
X135387858Y-84462178D01*
X135184057Y-84610247D01*
X135184052Y-84610251D01*
X135005912Y-84788391D01*
X135005908Y-84788396D01*
X134857839Y-84992197D01*
X134743467Y-85216662D01*
X134665617Y-85456260D01*
X134626207Y-85705084D01*
X132102728Y-85705084D01*
X134856699Y-82951113D01*
X134865695Y-82942959D01*
X134927272Y-82892426D01*
X134947466Y-82878932D01*
X135012293Y-82844283D01*
X135034737Y-82834986D01*
X135105084Y-82813647D01*
X135128907Y-82808909D01*
X135208248Y-82801096D01*
X135220393Y-82800500D01*
X135280099Y-82800501D01*
X135280103Y-82800500D01*
X139434108Y-82800500D01*
X139500000Y-82800500D01*
X139607318Y-82800500D01*
X139777851Y-82775980D01*
X139819764Y-82769955D01*
X139819765Y-82769954D01*
X139819769Y-82769954D01*
X140025710Y-82709484D01*
X140025713Y-82709482D01*
X140025715Y-82709482D01*
X140220938Y-82620327D01*
X140220944Y-82620323D01*
X140220950Y-82620321D01*
X140401513Y-82504281D01*
X140563724Y-82363724D01*
X140704281Y-82201513D01*
X140820321Y-82020950D01*
X140820323Y-82020944D01*
X140820327Y-82020938D01*
X140909482Y-81825715D01*
X140909482Y-81825713D01*
X140909484Y-81825710D01*
X140969954Y-81619769D01*
X141000500Y-81407318D01*
X141000500Y-81300000D01*
X141000500Y-81234108D01*
X141000500Y-81069554D01*
X141001054Y-81067664D01*
X141000558Y-81065759D01*
X141010858Y-81034277D01*
X141020185Y-81002515D01*
X141021672Y-81001226D01*
X141022285Y-80999354D01*
X141047978Y-80978431D01*
X141072989Y-80956760D01*
X141075419Y-80956086D01*
X141076464Y-80955236D01*
X141110613Y-80946334D01*
X141181393Y-80938359D01*
X141195276Y-80937580D01*
X158304724Y-80937580D01*
X158318607Y-80938360D01*
G37*
%TD.AperFunction*%
%TA.AperFunction,Conductor*%
G36*
X152883157Y-117864358D02*
G01*
X152939090Y-117906230D01*
X152947202Y-117918527D01*
X152960468Y-117941503D01*
X152999809Y-118009645D01*
X153019479Y-118043715D01*
X153245129Y-118269365D01*
X153278614Y-118330688D01*
X153273630Y-118400380D01*
X153231758Y-118456313D01*
X153166294Y-118480730D01*
X153157448Y-118481046D01*
X152516707Y-118481046D01*
X152516707Y-119398034D01*
X152459700Y-119365121D01*
X152332533Y-119331046D01*
X152200881Y-119331046D01*
X152073714Y-119365121D01*
X152016707Y-119398034D01*
X152016707Y-118481046D01*
X151368862Y-118481046D01*
X151309334Y-118487447D01*
X151309327Y-118487449D01*
X151174620Y-118537691D01*
X151174613Y-118537695D01*
X151059519Y-118623855D01*
X151059516Y-118623858D01*
X150973356Y-118738952D01*
X150973353Y-118738958D01*
X150924284Y-118870517D01*
X150882412Y-118926450D01*
X150816948Y-118950867D01*
X150748675Y-118936015D01*
X150720421Y-118914864D01*
X150606493Y-118800936D01*
X150434527Y-118675997D01*
X150245121Y-118579490D01*
X150245120Y-118579489D01*
X150245119Y-118579489D01*
X150042950Y-118513800D01*
X150042948Y-118513799D01*
X150042947Y-118513799D01*
X149881664Y-118488254D01*
X149832994Y-118480546D01*
X149620420Y-118480546D01*
X149591713Y-118485092D01*
X149410464Y-118513799D01*
X149368180Y-118527538D01*
X149298339Y-118529532D01*
X149242183Y-118497287D01*
X149181077Y-118436181D01*
X149147592Y-118374858D01*
X149152576Y-118305166D01*
X149194448Y-118249233D01*
X149259912Y-118224816D01*
X149268758Y-118224500D01*
X152085099Y-118224500D01*
X152085115Y-118224501D01*
X152092711Y-118224501D01*
X152250822Y-118224501D01*
X152250825Y-118224501D01*
X152403553Y-118183577D01*
X152453672Y-118154639D01*
X152540484Y-118104520D01*
X152652288Y-117992716D01*
X152652289Y-117992713D01*
X152752145Y-117892857D01*
X152813465Y-117859374D01*
X152883157Y-117864358D01*
G37*
%TD.AperFunction*%
%TA.AperFunction,Conductor*%
G36*
X142534075Y-113867993D02*
G01*
X142599901Y-113982007D01*
X142692993Y-114075099D01*
X142807007Y-114140925D01*
X142870590Y-114157962D01*
X142238282Y-114790269D01*
X142242257Y-114840771D01*
X142227893Y-114909148D01*
X142178842Y-114958905D01*
X142118639Y-114974500D01*
X141846432Y-114974500D01*
X141779393Y-114954815D01*
X141733638Y-114902011D01*
X141723694Y-114832853D01*
X141747165Y-114776190D01*
X141752324Y-114769297D01*
X141753796Y-114767331D01*
X141804091Y-114632483D01*
X141810500Y-114572873D01*
X141810499Y-114562312D01*
X141830179Y-114495275D01*
X141846818Y-114474626D01*
X142517037Y-113804408D01*
X142534075Y-113867993D01*
G37*
%TD.AperFunction*%
%TA.AperFunction,Conductor*%
G36*
X144115270Y-114436717D02*
G01*
X144115270Y-114436716D01*
X144154623Y-114382553D01*
X144159230Y-114373511D01*
X144207201Y-114322712D01*
X144275021Y-114305912D01*
X144341157Y-114328446D01*
X144380201Y-114373501D01*
X144384948Y-114382817D01*
X144509889Y-114554786D01*
X144660206Y-114705103D01*
X144722251Y-114750181D01*
X144764917Y-114805511D01*
X144770896Y-114875124D01*
X144738291Y-114936920D01*
X144677452Y-114971277D01*
X144649366Y-114974500D01*
X143881361Y-114974500D01*
X143814322Y-114954815D01*
X143768567Y-114902011D01*
X143757743Y-114840772D01*
X143761717Y-114790270D01*
X143129408Y-114157962D01*
X143192993Y-114140925D01*
X143307007Y-114075099D01*
X143400099Y-113982007D01*
X143465925Y-113867993D01*
X143482962Y-113804408D01*
X144115270Y-114436717D01*
G37*
%TD.AperFunction*%
%TA.AperFunction,Conductor*%
G36*
X141434110Y-110958345D02*
G01*
X141884053Y-111408288D01*
X141884063Y-111408299D01*
X141888393Y-111412629D01*
X141888394Y-111412630D01*
X142000198Y-111524434D01*
X142000200Y-111524435D01*
X142000204Y-111524438D01*
X142124429Y-111596158D01*
X142137130Y-111603491D01*
X142243016Y-111631863D01*
X142289856Y-111644414D01*
X142289857Y-111644414D01*
X146576335Y-111644414D01*
X146643374Y-111664099D01*
X146689129Y-111716903D01*
X146697518Y-111748025D01*
X146698311Y-111747868D01*
X146730261Y-111908489D01*
X146730264Y-111908501D01*
X146790602Y-112054172D01*
X146790609Y-112054185D01*
X146878210Y-112185288D01*
X146878213Y-112185292D01*
X146989707Y-112296786D01*
X146989711Y-112296789D01*
X147120814Y-112384390D01*
X147120827Y-112384397D01*
X147195176Y-112415193D01*
X147249580Y-112459033D01*
X147271645Y-112525328D01*
X147254366Y-112593027D01*
X147220611Y-112630071D01*
X147200211Y-112644892D01*
X147049890Y-112795213D01*
X146924948Y-112967184D01*
X146924946Y-112967187D01*
X146920481Y-112975950D01*
X146872505Y-113026744D01*
X146804683Y-113043537D01*
X146738549Y-113020997D01*
X146699513Y-112975944D01*
X146695185Y-112967449D01*
X146695050Y-112967184D01*
X146695048Y-112967181D01*
X146695047Y-112967179D01*
X146570108Y-112795213D01*
X146419785Y-112644890D01*
X146247819Y-112519951D01*
X146058413Y-112423444D01*
X146058412Y-112423443D01*
X146058411Y-112423443D01*
X145856242Y-112357754D01*
X145856240Y-112357753D01*
X145856239Y-112357753D01*
X145694956Y-112332208D01*
X145646286Y-112324500D01*
X145433712Y-112324500D01*
X145385041Y-112332208D01*
X145223759Y-112357753D01*
X145021584Y-112423444D01*
X144832178Y-112519951D01*
X144660212Y-112644890D01*
X144509889Y-112795213D01*
X144384949Y-112967181D01*
X144380200Y-112976501D01*
X144332222Y-113027294D01*
X144264401Y-113044086D01*
X144198267Y-113021545D01*
X144159231Y-112976491D01*
X144154624Y-112967449D01*
X144115270Y-112913282D01*
X144115269Y-112913282D01*
X143482962Y-113545590D01*
X143465925Y-113482007D01*
X143400099Y-113367993D01*
X143307007Y-113274901D01*
X143192993Y-113209075D01*
X143129409Y-113192037D01*
X143761716Y-112559728D01*
X143707550Y-112520375D01*
X143518217Y-112423904D01*
X143316129Y-112358242D01*
X143106246Y-112325000D01*
X142893754Y-112325000D01*
X142683872Y-112358242D01*
X142683869Y-112358242D01*
X142481782Y-112423904D01*
X142292439Y-112520380D01*
X142238282Y-112559727D01*
X142238282Y-112559728D01*
X142870591Y-113192037D01*
X142807007Y-113209075D01*
X142692993Y-113274901D01*
X142599901Y-113367993D01*
X142534075Y-113482007D01*
X142517037Y-113545591D01*
X141846818Y-112875372D01*
X141813333Y-112814049D01*
X141813330Y-112814036D01*
X141810499Y-112801015D01*
X141810499Y-112777128D01*
X141804091Y-112717517D01*
X141761819Y-112604179D01*
X141753798Y-112582673D01*
X141753793Y-112582664D01*
X141667547Y-112467455D01*
X141667544Y-112467452D01*
X141552335Y-112381206D01*
X141552328Y-112381202D01*
X141417482Y-112330908D01*
X141417483Y-112330908D01*
X141357883Y-112324501D01*
X141357881Y-112324500D01*
X141357873Y-112324500D01*
X141357865Y-112324500D01*
X141184500Y-112324500D01*
X141117461Y-112304815D01*
X141071706Y-112252011D01*
X141060500Y-112200500D01*
X141060500Y-111452789D01*
X141078383Y-111388639D01*
X141080469Y-111385187D01*
X141080472Y-111385185D01*
X141168478Y-111239606D01*
X141219086Y-111077196D01*
X141222938Y-111034802D01*
X141248609Y-110969821D01*
X141305337Y-110929033D01*
X141375111Y-110925389D01*
X141434110Y-110958345D01*
G37*
%TD.AperFunction*%
%TA.AperFunction,Conductor*%
G36*
X147905847Y-104209760D02*
G01*
X147912325Y-104215792D01*
X150874815Y-107178282D01*
X150874825Y-107178293D01*
X150879155Y-107182623D01*
X150879156Y-107182624D01*
X150990960Y-107294428D01*
X151001015Y-107300233D01*
X151044781Y-107325501D01*
X151044780Y-107325501D01*
X151044783Y-107325502D01*
X151127885Y-107373482D01*
X151127886Y-107373483D01*
X151127888Y-107373483D01*
X151127891Y-107373485D01*
X151280619Y-107414409D01*
X151280622Y-107414409D01*
X151446329Y-107414409D01*
X151446345Y-107414408D01*
X152559143Y-107414408D01*
X152626182Y-107434093D01*
X152628034Y-107435306D01*
X152759723Y-107523298D01*
X152759736Y-107523305D01*
X152864621Y-107566749D01*
X152905412Y-107583645D01*
X153060062Y-107614407D01*
X153060065Y-107614408D01*
X153060067Y-107614408D01*
X153217753Y-107614408D01*
X153217754Y-107614407D01*
X153372406Y-107583645D01*
X153518088Y-107523302D01*
X153649198Y-107435697D01*
X153760698Y-107324197D01*
X153848303Y-107193087D01*
X153851534Y-107185288D01*
X153873538Y-107132164D01*
X153908646Y-107047405D01*
X153939409Y-106892750D01*
X153939409Y-106735066D01*
X153939409Y-106735063D01*
X153939408Y-106735061D01*
X153923394Y-106654556D01*
X153908646Y-106580411D01*
X153899862Y-106559205D01*
X153848306Y-106434735D01*
X153848299Y-106434722D01*
X153778921Y-106330891D01*
X153758043Y-106264214D01*
X153776527Y-106196833D01*
X153828506Y-106150143D01*
X153882023Y-106138000D01*
X155265151Y-106138000D01*
X155312603Y-106147438D01*
X155374764Y-106173187D01*
X155487280Y-106188000D01*
X155487287Y-106188000D01*
X156226000Y-106188000D01*
X156293039Y-106207685D01*
X156338794Y-106260489D01*
X156350000Y-106312000D01*
X156350000Y-106525000D01*
X156875500Y-106525000D01*
X156884185Y-106527550D01*
X156893147Y-106526262D01*
X156917187Y-106537240D01*
X156942539Y-106544685D01*
X156948466Y-106551525D01*
X156956703Y-106555287D01*
X156970992Y-106577521D01*
X156988294Y-106597489D01*
X156990581Y-106608003D01*
X156994477Y-106614065D01*
X156999500Y-106649000D01*
X156999500Y-106701000D01*
X156979815Y-106768039D01*
X156927011Y-106813794D01*
X156875500Y-106825000D01*
X156350000Y-106825000D01*
X156350000Y-107050197D01*
X156364800Y-107162604D01*
X156364801Y-107162608D01*
X156422736Y-107302478D01*
X156514905Y-107422594D01*
X156635017Y-107514759D01*
X156637486Y-107516185D01*
X156639154Y-107517934D01*
X156641467Y-107519709D01*
X156641190Y-107520069D01*
X156685706Y-107566749D01*
X156699494Y-107623577D01*
X156699494Y-107753846D01*
X156730255Y-107908489D01*
X156730258Y-107908501D01*
X156790596Y-108054172D01*
X156790603Y-108054185D01*
X156878204Y-108185288D01*
X156878207Y-108185292D01*
X156989701Y-108296786D01*
X156989705Y-108296789D01*
X157120808Y-108384390D01*
X157120821Y-108384397D01*
X157218847Y-108425000D01*
X157266497Y-108444737D01*
X157421147Y-108475499D01*
X157421150Y-108475500D01*
X157421152Y-108475500D01*
X157578838Y-108475500D01*
X157578839Y-108475499D01*
X157733491Y-108444737D01*
X157827544Y-108405778D01*
X157858055Y-108402498D01*
X157888252Y-108397051D01*
X157894318Y-108398599D01*
X157897011Y-108398310D01*
X157922446Y-108405779D01*
X157940660Y-108413323D01*
X157946702Y-108415826D01*
X158001104Y-108459668D01*
X158023168Y-108525962D01*
X158005888Y-108593661D01*
X157986928Y-108618067D01*
X157617816Y-108987181D01*
X157556493Y-109020666D01*
X157530135Y-109023500D01*
X155637670Y-109023500D01*
X155637654Y-109023499D01*
X155630058Y-109023499D01*
X155471943Y-109023499D01*
X155412698Y-109039374D01*
X155319214Y-109064423D01*
X155319209Y-109064426D01*
X155182290Y-109143475D01*
X155182286Y-109143478D01*
X154934504Y-109391259D01*
X154873181Y-109424743D01*
X154803489Y-109419759D01*
X154747556Y-109377887D01*
X154732262Y-109351029D01*
X154709397Y-109295827D01*
X154709390Y-109295814D01*
X154621789Y-109164711D01*
X154621786Y-109164707D01*
X154510292Y-109053213D01*
X154510288Y-109053210D01*
X154379185Y-108965609D01*
X154379172Y-108965602D01*
X154233501Y-108905264D01*
X154233489Y-108905261D01*
X154078845Y-108874500D01*
X154078842Y-108874500D01*
X153921158Y-108874500D01*
X153921155Y-108874500D01*
X153766510Y-108905261D01*
X153766498Y-108905264D01*
X153620827Y-108965602D01*
X153620814Y-108965609D01*
X153489125Y-109053602D01*
X153422447Y-109074480D01*
X153420234Y-109074500D01*
X141922282Y-109074500D01*
X141855243Y-109054815D01*
X141834601Y-109038181D01*
X141069224Y-108272804D01*
X140283599Y-107487180D01*
X140250115Y-107425858D01*
X140255099Y-107356166D01*
X140296971Y-107300233D01*
X140362435Y-107275816D01*
X140371281Y-107275500D01*
X145913332Y-107275500D01*
X145920939Y-107275500D01*
X145920943Y-107275501D01*
X146075501Y-107275501D01*
X146142540Y-107295186D01*
X146188295Y-107347990D01*
X146188296Y-107348003D01*
X146199500Y-107399501D01*
X146199500Y-107503849D01*
X146230261Y-107658492D01*
X146230264Y-107658504D01*
X146290602Y-107804175D01*
X146290609Y-107804188D01*
X146378210Y-107935291D01*
X146378213Y-107935295D01*
X146489707Y-108046789D01*
X146489711Y-108046792D01*
X146620814Y-108134393D01*
X146620827Y-108134400D01*
X146743686Y-108185289D01*
X146766503Y-108194740D01*
X146908303Y-108222946D01*
X146921153Y-108225502D01*
X146921156Y-108225503D01*
X146921158Y-108225503D01*
X147078844Y-108225503D01*
X147078845Y-108225502D01*
X147233497Y-108194740D01*
X147379179Y-108134397D01*
X147510289Y-108046792D01*
X147621789Y-107935292D01*
X147709394Y-107804182D01*
X147769737Y-107658500D01*
X147800500Y-107503845D01*
X147800500Y-107346161D01*
X147800500Y-107346158D01*
X147800499Y-107346156D01*
X147799594Y-107341608D01*
X147769737Y-107191506D01*
X147767162Y-107185289D01*
X147710083Y-107047486D01*
X147700644Y-107000034D01*
X147700644Y-106462018D01*
X147704871Y-106429918D01*
X147705237Y-106428552D01*
X147705237Y-105813974D01*
X147704869Y-105812601D01*
X147700644Y-105780507D01*
X147700644Y-104303473D01*
X147720329Y-104236434D01*
X147773133Y-104190679D01*
X147842291Y-104180735D01*
X147905847Y-104209760D01*
G37*
%TD.AperFunction*%
%TA.AperFunction,Conductor*%
G36*
X157055203Y-102409602D02*
G01*
X157072374Y-102427827D01*
X157105254Y-102470677D01*
X157124375Y-102495595D01*
X157149570Y-102560764D01*
X157150000Y-102571082D01*
X157150000Y-102707586D01*
X157150001Y-102707587D01*
X157225096Y-102697702D01*
X157225104Y-102697699D01*
X157276893Y-102676248D01*
X157346362Y-102668779D01*
X157371798Y-102676247D01*
X157424764Y-102698187D01*
X157529691Y-102712001D01*
X157531689Y-102712264D01*
X157537280Y-102713000D01*
X157537287Y-102713000D01*
X157762713Y-102713000D01*
X157762720Y-102713000D01*
X157875236Y-102698187D01*
X157927550Y-102676517D01*
X157997015Y-102669049D01*
X158022443Y-102676514D01*
X158074764Y-102698187D01*
X158168355Y-102710508D01*
X158181689Y-102712264D01*
X158187280Y-102713000D01*
X158187287Y-102713000D01*
X158412713Y-102713000D01*
X158412720Y-102713000D01*
X158525236Y-102698187D01*
X158577550Y-102676517D01*
X158647015Y-102669049D01*
X158672443Y-102676514D01*
X158724764Y-102698187D01*
X158818355Y-102710508D01*
X158831689Y-102712264D01*
X158837280Y-102713000D01*
X158837287Y-102713000D01*
X159062713Y-102713000D01*
X159062720Y-102713000D01*
X159175236Y-102698187D01*
X159227550Y-102676517D01*
X159297015Y-102669049D01*
X159322443Y-102676514D01*
X159374764Y-102698187D01*
X159468355Y-102710508D01*
X159481689Y-102712264D01*
X159487280Y-102713000D01*
X159487287Y-102713000D01*
X159700500Y-102713000D01*
X159767539Y-102732685D01*
X159813294Y-102785489D01*
X159824500Y-102837000D01*
X159824500Y-103050227D01*
X159836770Y-103143422D01*
X159839295Y-103162603D01*
X159839313Y-103162735D01*
X159839313Y-103162736D01*
X159860981Y-103215049D01*
X159868448Y-103284519D01*
X159860981Y-103309951D01*
X159839313Y-103362263D01*
X159839313Y-103362264D01*
X159824500Y-103474772D01*
X159824500Y-103700227D01*
X159839313Y-103812735D01*
X159839313Y-103812736D01*
X159860981Y-103865049D01*
X159868448Y-103934519D01*
X159860981Y-103959951D01*
X159839313Y-104012263D01*
X159839313Y-104012264D01*
X159824500Y-104124772D01*
X159824500Y-104350227D01*
X159839313Y-104462735D01*
X159839313Y-104462736D01*
X159860981Y-104515049D01*
X159868448Y-104584519D01*
X159860981Y-104609951D01*
X159839313Y-104662263D01*
X159839313Y-104662264D01*
X159824500Y-104774772D01*
X159824500Y-105000227D01*
X159839313Y-105112735D01*
X159839313Y-105112736D01*
X159860981Y-105165049D01*
X159868448Y-105234519D01*
X159860981Y-105259951D01*
X159839313Y-105312263D01*
X159839313Y-105312264D01*
X159824500Y-105424772D01*
X159824500Y-105638000D01*
X159804815Y-105705039D01*
X159752011Y-105750794D01*
X159700500Y-105762000D01*
X159487272Y-105762000D01*
X159374764Y-105776813D01*
X159374763Y-105776813D01*
X159322451Y-105798481D01*
X159252981Y-105805948D01*
X159227549Y-105798481D01*
X159184154Y-105780507D01*
X159175236Y-105776813D01*
X159161171Y-105774961D01*
X159062727Y-105762000D01*
X159062720Y-105762000D01*
X158837280Y-105762000D01*
X158837272Y-105762000D01*
X158724764Y-105776813D01*
X158724763Y-105776813D01*
X158672451Y-105798481D01*
X158602981Y-105805948D01*
X158577549Y-105798481D01*
X158534154Y-105780507D01*
X158525236Y-105776813D01*
X158511171Y-105774961D01*
X158412727Y-105762000D01*
X158412720Y-105762000D01*
X158187280Y-105762000D01*
X158187272Y-105762000D01*
X158074764Y-105776813D01*
X158074763Y-105776813D01*
X158022451Y-105798481D01*
X157952981Y-105805948D01*
X157927549Y-105798481D01*
X157884154Y-105780507D01*
X157875236Y-105776813D01*
X157861171Y-105774961D01*
X157762727Y-105762000D01*
X157762720Y-105762000D01*
X157537280Y-105762000D01*
X157537272Y-105762000D01*
X157424764Y-105776813D01*
X157424763Y-105776813D01*
X157371797Y-105798752D01*
X157302327Y-105806219D01*
X157276894Y-105798751D01*
X157225108Y-105777301D01*
X157225103Y-105777300D01*
X157150000Y-105767411D01*
X157150000Y-105903916D01*
X157143559Y-105925848D01*
X157141658Y-105948629D01*
X157131624Y-105966494D01*
X157130315Y-105970955D01*
X157124376Y-105979402D01*
X157072376Y-106047170D01*
X157015948Y-106088373D01*
X156946202Y-106092528D01*
X156885282Y-106058316D01*
X156852529Y-105996599D01*
X156850000Y-105971684D01*
X156850000Y-105767411D01*
X156817741Y-105739121D01*
X156780317Y-105680119D01*
X156775500Y-105645893D01*
X156775500Y-105424786D01*
X156775499Y-105424772D01*
X156760687Y-105312266D01*
X156760687Y-105312264D01*
X156739017Y-105259949D01*
X156731549Y-105190485D01*
X156739014Y-105165056D01*
X156760687Y-105112736D01*
X156775500Y-105000220D01*
X156775500Y-104774780D01*
X156760687Y-104662264D01*
X156739017Y-104609949D01*
X156731549Y-104540485D01*
X156739014Y-104515056D01*
X156760687Y-104462736D01*
X156775500Y-104350220D01*
X156775500Y-104124780D01*
X156760687Y-104012264D01*
X156739017Y-103959949D01*
X156731549Y-103890485D01*
X156739014Y-103865056D01*
X156760687Y-103812736D01*
X156775500Y-103700220D01*
X156775500Y-103474780D01*
X156760687Y-103362264D01*
X156738747Y-103309298D01*
X156731279Y-103239830D01*
X156738748Y-103214392D01*
X156760200Y-103162603D01*
X156770088Y-103087500D01*
X156633582Y-103087500D01*
X156611649Y-103081059D01*
X156588868Y-103079158D01*
X156571003Y-103069124D01*
X156566543Y-103067815D01*
X156558095Y-103061875D01*
X156542915Y-103050227D01*
X156490327Y-103009874D01*
X156449126Y-102953447D01*
X156444971Y-102883701D01*
X156479184Y-102822781D01*
X156540901Y-102790029D01*
X156565815Y-102787500D01*
X156770088Y-102787500D01*
X156802066Y-102751035D01*
X156813536Y-102739564D01*
X156850000Y-102707586D01*
X156850000Y-102503315D01*
X156869685Y-102436276D01*
X156922489Y-102390521D01*
X156991647Y-102380577D01*
X157055203Y-102409602D01*
G37*
%TD.AperFunction*%
%TA.AperFunction,Conductor*%
G36*
X154919174Y-102459741D02*
G01*
X154950974Y-102467858D01*
X154952538Y-102469538D01*
X154954740Y-102470185D01*
X154976213Y-102494966D01*
X154998585Y-102518995D01*
X154998992Y-102521255D01*
X155000495Y-102522989D01*
X155005162Y-102555449D01*
X155010991Y-102587754D01*
X155010233Y-102590720D01*
X155010439Y-102592147D01*
X155002262Y-102621952D01*
X154986899Y-102659042D01*
X154943058Y-102713446D01*
X154876764Y-102735511D01*
X154872338Y-102735590D01*
X154782246Y-102735590D01*
X154627601Y-102766351D01*
X154627589Y-102766354D01*
X154481919Y-102826692D01*
X154481907Y-102826699D01*
X154452889Y-102846087D01*
X154386211Y-102866962D01*
X154318831Y-102848475D01*
X154296321Y-102830663D01*
X154228339Y-102762681D01*
X154194854Y-102701358D01*
X154199838Y-102631666D01*
X154228339Y-102587319D01*
X154328839Y-102486819D01*
X154390162Y-102453334D01*
X154416520Y-102450500D01*
X154887701Y-102450500D01*
X154919174Y-102459741D01*
G37*
%TD.AperFunction*%
%TA.AperFunction,Conductor*%
G36*
X155205853Y-98641663D02*
G01*
X155261786Y-98683535D01*
X155286203Y-98748999D01*
X155284706Y-98770544D01*
X155285832Y-98770659D01*
X155275000Y-98876677D01*
X155275000Y-98925000D01*
X156101000Y-98925000D01*
X156168039Y-98944685D01*
X156213794Y-98997489D01*
X156225000Y-99049000D01*
X156225000Y-99301000D01*
X156205315Y-99368039D01*
X156152511Y-99413794D01*
X156101000Y-99425000D01*
X155275001Y-99425000D01*
X155275001Y-99473322D01*
X155285144Y-99572607D01*
X155338452Y-99733481D01*
X155338457Y-99733492D01*
X155427424Y-99877728D01*
X155427427Y-99877732D01*
X155547267Y-99997572D01*
X155547271Y-99997575D01*
X155691507Y-100086542D01*
X155691518Y-100086547D01*
X155852393Y-100139856D01*
X155895395Y-100144249D01*
X155960087Y-100170645D01*
X156000238Y-100227825D01*
X156003102Y-100297636D01*
X155970474Y-100355288D01*
X155112584Y-101213181D01*
X155051261Y-101246666D01*
X155024903Y-101249500D01*
X154416520Y-101249500D01*
X154349481Y-101229815D01*
X154328839Y-101213181D01*
X154210188Y-101094530D01*
X154186834Y-101080412D01*
X154160347Y-101064399D01*
X154113162Y-101012871D01*
X154100500Y-100958284D01*
X154100500Y-99695864D01*
X154120185Y-99628825D01*
X154136814Y-99608188D01*
X155074838Y-98670163D01*
X155136161Y-98636679D01*
X155205853Y-98641663D01*
G37*
%TD.AperFunction*%
%TA.AperFunction,Conductor*%
G36*
X169549370Y-91886403D02*
G01*
X169591654Y-91900143D01*
X169801610Y-91933397D01*
X169801611Y-91933397D01*
X170014183Y-91933397D01*
X170014184Y-91933397D01*
X170224140Y-91900143D01*
X170234077Y-91896913D01*
X170303918Y-91894917D01*
X170363751Y-91930997D01*
X170394581Y-91993697D01*
X170390329Y-92053159D01*
X170387191Y-92062817D01*
X170387190Y-92062821D01*
X170376717Y-92128948D01*
X171270936Y-92128948D01*
X171238023Y-92185955D01*
X171203948Y-92313122D01*
X171203948Y-92444774D01*
X171238023Y-92571941D01*
X171270936Y-92628948D01*
X170376717Y-92628948D01*
X170387190Y-92695074D01*
X170387190Y-92695077D01*
X170452852Y-92897165D01*
X170549327Y-93086505D01*
X170674220Y-93258407D01*
X170674224Y-93258412D01*
X170824483Y-93408671D01*
X170824488Y-93408675D01*
X170996390Y-93533568D01*
X171185730Y-93630043D01*
X171387819Y-93695705D01*
X171453948Y-93706179D01*
X171453948Y-92811960D01*
X171510955Y-92844873D01*
X171638122Y-92878948D01*
X171769774Y-92878948D01*
X171896941Y-92844873D01*
X171953948Y-92811960D01*
X171953948Y-93706178D01*
X172020074Y-93695705D01*
X172020080Y-93695704D01*
X172029733Y-93692568D01*
X172099574Y-93690571D01*
X172159407Y-93726651D01*
X172190237Y-93789351D01*
X172185985Y-93848813D01*
X172182753Y-93858758D01*
X172182753Y-93858759D01*
X172149500Y-94068713D01*
X172149500Y-94281287D01*
X172149499Y-94281287D01*
X172173228Y-94431103D01*
X172164273Y-94500396D01*
X172119277Y-94553848D01*
X172052525Y-94574487D01*
X172050755Y-94574500D01*
X170300097Y-94574500D01*
X170233058Y-94554815D01*
X170212416Y-94538181D01*
X169638518Y-93964283D01*
X169605033Y-93902960D01*
X169605803Y-93846925D01*
X169612831Y-93818413D01*
X169619739Y-93790386D01*
X169619739Y-93620274D01*
X169579029Y-93455105D01*
X169499973Y-93304478D01*
X169454601Y-93250035D01*
X169091691Y-92887125D01*
X169037248Y-92841753D01*
X168961934Y-92802225D01*
X168886620Y-92762696D01*
X168721452Y-92721987D01*
X168577013Y-92721987D01*
X168568327Y-92719436D01*
X168559366Y-92720725D01*
X168535325Y-92709746D01*
X168509974Y-92702302D01*
X168504046Y-92695461D01*
X168495810Y-92691700D01*
X168481520Y-92669465D01*
X168464219Y-92649498D01*
X168461931Y-92638983D01*
X168458036Y-92632922D01*
X168453013Y-92597987D01*
X168453013Y-92455858D01*
X168472698Y-92388819D01*
X168489333Y-92368176D01*
X168545692Y-92311818D01*
X168607015Y-92278334D01*
X168633372Y-92275500D01*
X168729125Y-92275500D01*
X168729141Y-92275501D01*
X168736737Y-92275501D01*
X168894848Y-92275501D01*
X168894851Y-92275501D01*
X169047579Y-92234577D01*
X169097698Y-92205639D01*
X169184510Y-92155520D01*
X169296314Y-92043716D01*
X169296314Y-92043714D01*
X169306522Y-92033507D01*
X169306524Y-92033504D01*
X169423375Y-91916652D01*
X169484696Y-91883169D01*
X169549370Y-91886403D01*
G37*
%TD.AperFunction*%
%TD*%
M02*
