M48
; DRILL file {KiCad 9.0.5} date 2025-10-31T19:38:16+0530
; FORMAT={-:-/ absolute / metric / decimal}
; #@! TF.CreationDate,2025-10-31T19:38:16+05:30
; #@! TF.GenerationSoftware,Kicad,Pcbnew,9.0.5
; #@! TF.FileFunction,Plated,1,2,PTH
FMAT,2
METRIC
; #@! TA.AperFunction,Plated,PTH,ViaDrill
T1C0.400
; #@! TA.AperFunction,Plated,PTH,ComponentDrill
T2C0.400
; #@! TA.AperFunction,Plated,PTH,ComponentDrill
T3C0.600
; #@! TA.AperFunction,Plated,PTH,ComponentDrill
T4C0.750
; #@! TA.AperFunction,Plated,PTH,ComponentDrill
T5C1.000
; #@! TA.AperFunction,Plated,PTH,ComponentDrill
T6C1.100
%
G90
G05
T1
X130.0Y-96.675
X130.0Y-114.675
X131.5Y-99.475
X132.0Y-109.175
X134.5Y-102.675
X136.0Y-104.675
X136.674Y-102.849
X137.5Y-106.675
X138.5Y-99.675
X138.5Y-111.675
X139.0Y-109.675
X139.172Y-107.225
X140.5Y-103.675
X141.664Y-95.061
X142.0Y-118.175
X142.5Y-108.675
X144.0Y-106.125
X144.5Y-100.175
X144.55Y-108.175
X146.139Y-99.536
X146.361Y-101.314
X146.554Y-106.121
X146.861Y-108.536
X147.0Y-107.425
X147.139Y-100.536
X147.5Y-97.175
X147.5Y-111.675
X147.651Y-110.494
X147.672Y-98.125
X147.828Y-102.125
X148.5Y-102.675
X149.427Y-101.382
X149.5Y-104.175
X149.676Y-100.675
X149.8Y-110.494
X150.2Y-112.225
X150.893Y-98.068
X151.0Y-101.225
X151.078Y-104.812
X151.5Y-104.175
X152.0Y-112.225
X152.5Y-103.675
X153.0Y-115.575
X153.139Y-106.814
X153.5Y-117.075
X153.971Y-98.146
X154.0Y-109.675
X154.5Y-115.675
X154.861Y-103.536
X155.0Y-101.225
X155.0Y-102.4
X155.336Y-111.011
X155.5Y-100.125
X156.0Y-97.675
X156.75Y-107.702
X156.95Y-110.175
X157.0Y-119.675
X157.5Y-107.675
X157.861Y-100.536
X157.95Y-96.574
X158.25Y-107.675
X159.0Y-107.675
X159.5Y-109.675
X160.5Y-98.225
X161.0Y-113.175
X163.0Y-99.675
X165.0Y-97.675
X166.257Y-91.918
X167.09Y-93.487
T2
X125.5Y-99.075
X125.5Y-99.925
X125.5Y-100.775
X125.5Y-101.625
X125.5Y-102.475
X125.5Y-103.325
X125.5Y-104.175
X125.5Y-105.025
X126.85Y-99.075
X126.85Y-99.925
X126.85Y-100.775
X126.85Y-101.625
X126.85Y-102.475
X126.85Y-103.325
X126.85Y-104.175
X126.85Y-105.025
T4
X132.752Y-94.271
X134.166Y-92.856
T5
X140.46Y-113.675
X143.0Y-113.675
X145.54Y-113.675
X147.187Y-119.831
X148.08Y-113.675
X149.727Y-119.831
X152.267Y-119.831
X168.112Y-88.787
X169.908Y-90.583
X171.704Y-92.379
X173.5Y-94.175
T6
X132.73Y-119.867
X135.27Y-119.867
X164.23Y-119.867
X166.77Y-119.867
T3
G00X122.89Y-97.725
M15
G01X122.09Y-97.725
M16
G05
G00X122.89Y-106.375
M15
G01X122.09Y-106.375
M16
G05
G00X126.62Y-97.725
M15
G01X125.12Y-97.725
M16
G05
G00X126.62Y-106.375
M15
G01X125.12Y-106.375
M16
G05
M30
