%TF.GenerationSoftware,KiCad,Pcbnew,9.0.5*%
%TF.CreationDate,2025-10-31T19:38:18+05:30*%
%TF.ProjectId,MoistureSensor,4d6f6973-7475-4726-9553-656e736f722e,rev?*%
%TF.SameCoordinates,Original*%
%TF.FileFunction,Legend,Bot*%
%TF.FilePolarity,Positive*%
%FSLAX46Y46*%
G04 Gerber Fmt 4.6, Leading zero omitted, Abs format (unit mm)*
G04 Created by KiCad (PCBNEW 9.0.5) date 2025-10-31 19:38:18*
%MOMM*%
%LPD*%
G01*
G04 APERTURE LIST*
%ADD10C,0.100000*%
%ADD11C,0.080000*%
%ADD12C,0.120000*%
G04 APERTURE END LIST*
D10*
X156880952Y-89437475D02*
X156880952Y-88437475D01*
X156880952Y-88437475D02*
X156547619Y-89151760D01*
X156547619Y-89151760D02*
X156214286Y-88437475D01*
X156214286Y-88437475D02*
X156214286Y-89437475D01*
X155595238Y-89437475D02*
X155690476Y-89389856D01*
X155690476Y-89389856D02*
X155738095Y-89342236D01*
X155738095Y-89342236D02*
X155785714Y-89246998D01*
X155785714Y-89246998D02*
X155785714Y-88961284D01*
X155785714Y-88961284D02*
X155738095Y-88866046D01*
X155738095Y-88866046D02*
X155690476Y-88818427D01*
X155690476Y-88818427D02*
X155595238Y-88770808D01*
X155595238Y-88770808D02*
X155452381Y-88770808D01*
X155452381Y-88770808D02*
X155357143Y-88818427D01*
X155357143Y-88818427D02*
X155309524Y-88866046D01*
X155309524Y-88866046D02*
X155261905Y-88961284D01*
X155261905Y-88961284D02*
X155261905Y-89246998D01*
X155261905Y-89246998D02*
X155309524Y-89342236D01*
X155309524Y-89342236D02*
X155357143Y-89389856D01*
X155357143Y-89389856D02*
X155452381Y-89437475D01*
X155452381Y-89437475D02*
X155595238Y-89437475D01*
X154833333Y-89437475D02*
X154833333Y-88770808D01*
X154833333Y-88437475D02*
X154880952Y-88485094D01*
X154880952Y-88485094D02*
X154833333Y-88532713D01*
X154833333Y-88532713D02*
X154785714Y-88485094D01*
X154785714Y-88485094D02*
X154833333Y-88437475D01*
X154833333Y-88437475D02*
X154833333Y-88532713D01*
X154404762Y-89389856D02*
X154309524Y-89437475D01*
X154309524Y-89437475D02*
X154119048Y-89437475D01*
X154119048Y-89437475D02*
X154023810Y-89389856D01*
X154023810Y-89389856D02*
X153976191Y-89294617D01*
X153976191Y-89294617D02*
X153976191Y-89246998D01*
X153976191Y-89246998D02*
X154023810Y-89151760D01*
X154023810Y-89151760D02*
X154119048Y-89104141D01*
X154119048Y-89104141D02*
X154261905Y-89104141D01*
X154261905Y-89104141D02*
X154357143Y-89056522D01*
X154357143Y-89056522D02*
X154404762Y-88961284D01*
X154404762Y-88961284D02*
X154404762Y-88913665D01*
X154404762Y-88913665D02*
X154357143Y-88818427D01*
X154357143Y-88818427D02*
X154261905Y-88770808D01*
X154261905Y-88770808D02*
X154119048Y-88770808D01*
X154119048Y-88770808D02*
X154023810Y-88818427D01*
X153690476Y-88770808D02*
X153309524Y-88770808D01*
X153547619Y-88437475D02*
X153547619Y-89294617D01*
X153547619Y-89294617D02*
X153500000Y-89389856D01*
X153500000Y-89389856D02*
X153404762Y-89437475D01*
X153404762Y-89437475D02*
X153309524Y-89437475D01*
X152547619Y-88770808D02*
X152547619Y-89437475D01*
X152976190Y-88770808D02*
X152976190Y-89294617D01*
X152976190Y-89294617D02*
X152928571Y-89389856D01*
X152928571Y-89389856D02*
X152833333Y-89437475D01*
X152833333Y-89437475D02*
X152690476Y-89437475D01*
X152690476Y-89437475D02*
X152595238Y-89389856D01*
X152595238Y-89389856D02*
X152547619Y-89342236D01*
X152071428Y-89437475D02*
X152071428Y-88770808D01*
X152071428Y-88961284D02*
X152023809Y-88866046D01*
X152023809Y-88866046D02*
X151976190Y-88818427D01*
X151976190Y-88818427D02*
X151880952Y-88770808D01*
X151880952Y-88770808D02*
X151785714Y-88770808D01*
X151071428Y-89389856D02*
X151166666Y-89437475D01*
X151166666Y-89437475D02*
X151357142Y-89437475D01*
X151357142Y-89437475D02*
X151452380Y-89389856D01*
X151452380Y-89389856D02*
X151499999Y-89294617D01*
X151499999Y-89294617D02*
X151499999Y-88913665D01*
X151499999Y-88913665D02*
X151452380Y-88818427D01*
X151452380Y-88818427D02*
X151357142Y-88770808D01*
X151357142Y-88770808D02*
X151166666Y-88770808D01*
X151166666Y-88770808D02*
X151071428Y-88818427D01*
X151071428Y-88818427D02*
X151023809Y-88913665D01*
X151023809Y-88913665D02*
X151023809Y-89008903D01*
X151023809Y-89008903D02*
X151499999Y-89104141D01*
X150642856Y-89389856D02*
X150499999Y-89437475D01*
X150499999Y-89437475D02*
X150261904Y-89437475D01*
X150261904Y-89437475D02*
X150166666Y-89389856D01*
X150166666Y-89389856D02*
X150119047Y-89342236D01*
X150119047Y-89342236D02*
X150071428Y-89246998D01*
X150071428Y-89246998D02*
X150071428Y-89151760D01*
X150071428Y-89151760D02*
X150119047Y-89056522D01*
X150119047Y-89056522D02*
X150166666Y-89008903D01*
X150166666Y-89008903D02*
X150261904Y-88961284D01*
X150261904Y-88961284D02*
X150452380Y-88913665D01*
X150452380Y-88913665D02*
X150547618Y-88866046D01*
X150547618Y-88866046D02*
X150595237Y-88818427D01*
X150595237Y-88818427D02*
X150642856Y-88723189D01*
X150642856Y-88723189D02*
X150642856Y-88627951D01*
X150642856Y-88627951D02*
X150595237Y-88532713D01*
X150595237Y-88532713D02*
X150547618Y-88485094D01*
X150547618Y-88485094D02*
X150452380Y-88437475D01*
X150452380Y-88437475D02*
X150214285Y-88437475D01*
X150214285Y-88437475D02*
X150071428Y-88485094D01*
X149261904Y-89389856D02*
X149357142Y-89437475D01*
X149357142Y-89437475D02*
X149547618Y-89437475D01*
X149547618Y-89437475D02*
X149642856Y-89389856D01*
X149642856Y-89389856D02*
X149690475Y-89294617D01*
X149690475Y-89294617D02*
X149690475Y-88913665D01*
X149690475Y-88913665D02*
X149642856Y-88818427D01*
X149642856Y-88818427D02*
X149547618Y-88770808D01*
X149547618Y-88770808D02*
X149357142Y-88770808D01*
X149357142Y-88770808D02*
X149261904Y-88818427D01*
X149261904Y-88818427D02*
X149214285Y-88913665D01*
X149214285Y-88913665D02*
X149214285Y-89008903D01*
X149214285Y-89008903D02*
X149690475Y-89104141D01*
X148785713Y-88770808D02*
X148785713Y-89437475D01*
X148785713Y-88866046D02*
X148738094Y-88818427D01*
X148738094Y-88818427D02*
X148642856Y-88770808D01*
X148642856Y-88770808D02*
X148499999Y-88770808D01*
X148499999Y-88770808D02*
X148404761Y-88818427D01*
X148404761Y-88818427D02*
X148357142Y-88913665D01*
X148357142Y-88913665D02*
X148357142Y-89437475D01*
X147928570Y-89389856D02*
X147833332Y-89437475D01*
X147833332Y-89437475D02*
X147642856Y-89437475D01*
X147642856Y-89437475D02*
X147547618Y-89389856D01*
X147547618Y-89389856D02*
X147499999Y-89294617D01*
X147499999Y-89294617D02*
X147499999Y-89246998D01*
X147499999Y-89246998D02*
X147547618Y-89151760D01*
X147547618Y-89151760D02*
X147642856Y-89104141D01*
X147642856Y-89104141D02*
X147785713Y-89104141D01*
X147785713Y-89104141D02*
X147880951Y-89056522D01*
X147880951Y-89056522D02*
X147928570Y-88961284D01*
X147928570Y-88961284D02*
X147928570Y-88913665D01*
X147928570Y-88913665D02*
X147880951Y-88818427D01*
X147880951Y-88818427D02*
X147785713Y-88770808D01*
X147785713Y-88770808D02*
X147642856Y-88770808D01*
X147642856Y-88770808D02*
X147547618Y-88818427D01*
X146928570Y-89437475D02*
X147023808Y-89389856D01*
X147023808Y-89389856D02*
X147071427Y-89342236D01*
X147071427Y-89342236D02*
X147119046Y-89246998D01*
X147119046Y-89246998D02*
X147119046Y-88961284D01*
X147119046Y-88961284D02*
X147071427Y-88866046D01*
X147071427Y-88866046D02*
X147023808Y-88818427D01*
X147023808Y-88818427D02*
X146928570Y-88770808D01*
X146928570Y-88770808D02*
X146785713Y-88770808D01*
X146785713Y-88770808D02*
X146690475Y-88818427D01*
X146690475Y-88818427D02*
X146642856Y-88866046D01*
X146642856Y-88866046D02*
X146595237Y-88961284D01*
X146595237Y-88961284D02*
X146595237Y-89246998D01*
X146595237Y-89246998D02*
X146642856Y-89342236D01*
X146642856Y-89342236D02*
X146690475Y-89389856D01*
X146690475Y-89389856D02*
X146785713Y-89437475D01*
X146785713Y-89437475D02*
X146928570Y-89437475D01*
X146166665Y-89437475D02*
X146166665Y-88770808D01*
X146166665Y-88961284D02*
X146119046Y-88866046D01*
X146119046Y-88866046D02*
X146071427Y-88818427D01*
X146071427Y-88818427D02*
X145976189Y-88770808D01*
X145976189Y-88770808D02*
X145880951Y-88770808D01*
X144880950Y-88770808D02*
X144642855Y-89437475D01*
X144642855Y-89437475D02*
X144404760Y-88770808D01*
X144071426Y-88532713D02*
X144023807Y-88485094D01*
X144023807Y-88485094D02*
X143928569Y-88437475D01*
X143928569Y-88437475D02*
X143690474Y-88437475D01*
X143690474Y-88437475D02*
X143595236Y-88485094D01*
X143595236Y-88485094D02*
X143547617Y-88532713D01*
X143547617Y-88532713D02*
X143499998Y-88627951D01*
X143499998Y-88627951D02*
X143499998Y-88723189D01*
X143499998Y-88723189D02*
X143547617Y-88866046D01*
X143547617Y-88866046D02*
X144119045Y-89437475D01*
X144119045Y-89437475D02*
X143499998Y-89437475D01*
X143071426Y-89342236D02*
X143023807Y-89389856D01*
X143023807Y-89389856D02*
X143071426Y-89437475D01*
X143071426Y-89437475D02*
X143119045Y-89389856D01*
X143119045Y-89389856D02*
X143071426Y-89342236D01*
X143071426Y-89342236D02*
X143071426Y-89437475D01*
X142404760Y-88437475D02*
X142309522Y-88437475D01*
X142309522Y-88437475D02*
X142214284Y-88485094D01*
X142214284Y-88485094D02*
X142166665Y-88532713D01*
X142166665Y-88532713D02*
X142119046Y-88627951D01*
X142119046Y-88627951D02*
X142071427Y-88818427D01*
X142071427Y-88818427D02*
X142071427Y-89056522D01*
X142071427Y-89056522D02*
X142119046Y-89246998D01*
X142119046Y-89246998D02*
X142166665Y-89342236D01*
X142166665Y-89342236D02*
X142214284Y-89389856D01*
X142214284Y-89389856D02*
X142309522Y-89437475D01*
X142309522Y-89437475D02*
X142404760Y-89437475D01*
X142404760Y-89437475D02*
X142499998Y-89389856D01*
X142499998Y-89389856D02*
X142547617Y-89342236D01*
X142547617Y-89342236D02*
X142595236Y-89246998D01*
X142595236Y-89246998D02*
X142642855Y-89056522D01*
X142642855Y-89056522D02*
X142642855Y-88818427D01*
X142642855Y-88818427D02*
X142595236Y-88627951D01*
X142595236Y-88627951D02*
X142547617Y-88532713D01*
X142547617Y-88532713D02*
X142499998Y-88485094D01*
X142499998Y-88485094D02*
X142404760Y-88437475D01*
X159523810Y-91047419D02*
X159523810Y-90047419D01*
X159047620Y-90380752D02*
X159047620Y-91047419D01*
X159047620Y-90475990D02*
X159000001Y-90428371D01*
X159000001Y-90428371D02*
X158904763Y-90380752D01*
X158904763Y-90380752D02*
X158761906Y-90380752D01*
X158761906Y-90380752D02*
X158666668Y-90428371D01*
X158666668Y-90428371D02*
X158619049Y-90523609D01*
X158619049Y-90523609D02*
X158619049Y-91047419D01*
X157714287Y-91047419D02*
X157714287Y-90047419D01*
X157714287Y-90999800D02*
X157809525Y-91047419D01*
X157809525Y-91047419D02*
X158000001Y-91047419D01*
X158000001Y-91047419D02*
X158095239Y-90999800D01*
X158095239Y-90999800D02*
X158142858Y-90952180D01*
X158142858Y-90952180D02*
X158190477Y-90856942D01*
X158190477Y-90856942D02*
X158190477Y-90571228D01*
X158190477Y-90571228D02*
X158142858Y-90475990D01*
X158142858Y-90475990D02*
X158095239Y-90428371D01*
X158095239Y-90428371D02*
X158000001Y-90380752D01*
X158000001Y-90380752D02*
X157809525Y-90380752D01*
X157809525Y-90380752D02*
X157714287Y-90428371D01*
X157238096Y-91047419D02*
X157238096Y-90380752D01*
X157238096Y-90571228D02*
X157190477Y-90475990D01*
X157190477Y-90475990D02*
X157142858Y-90428371D01*
X157142858Y-90428371D02*
X157047620Y-90380752D01*
X157047620Y-90380752D02*
X156952382Y-90380752D01*
X156619048Y-91047419D02*
X156619048Y-90380752D01*
X156619048Y-90047419D02*
X156666667Y-90095038D01*
X156666667Y-90095038D02*
X156619048Y-90142657D01*
X156619048Y-90142657D02*
X156571429Y-90095038D01*
X156571429Y-90095038D02*
X156619048Y-90047419D01*
X156619048Y-90047419D02*
X156619048Y-90142657D01*
X156238096Y-90380752D02*
X156000001Y-91047419D01*
X155761906Y-90380752D02*
X156000001Y-91047419D01*
X156000001Y-91047419D02*
X156095239Y-91285514D01*
X156095239Y-91285514D02*
X156142858Y-91333133D01*
X156142858Y-91333133D02*
X156238096Y-91380752D01*
X154952382Y-91047419D02*
X154952382Y-90523609D01*
X154952382Y-90523609D02*
X155000001Y-90428371D01*
X155000001Y-90428371D02*
X155095239Y-90380752D01*
X155095239Y-90380752D02*
X155285715Y-90380752D01*
X155285715Y-90380752D02*
X155380953Y-90428371D01*
X154952382Y-90999800D02*
X155047620Y-91047419D01*
X155047620Y-91047419D02*
X155285715Y-91047419D01*
X155285715Y-91047419D02*
X155380953Y-90999800D01*
X155380953Y-90999800D02*
X155428572Y-90904561D01*
X155428572Y-90904561D02*
X155428572Y-90809323D01*
X155428572Y-90809323D02*
X155380953Y-90714085D01*
X155380953Y-90714085D02*
X155285715Y-90666466D01*
X155285715Y-90666466D02*
X155047620Y-90666466D01*
X155047620Y-90666466D02*
X154952382Y-90618847D01*
X153761905Y-90999800D02*
X153619048Y-91047419D01*
X153619048Y-91047419D02*
X153380953Y-91047419D01*
X153380953Y-91047419D02*
X153285715Y-90999800D01*
X153285715Y-90999800D02*
X153238096Y-90952180D01*
X153238096Y-90952180D02*
X153190477Y-90856942D01*
X153190477Y-90856942D02*
X153190477Y-90761704D01*
X153190477Y-90761704D02*
X153238096Y-90666466D01*
X153238096Y-90666466D02*
X153285715Y-90618847D01*
X153285715Y-90618847D02*
X153380953Y-90571228D01*
X153380953Y-90571228D02*
X153571429Y-90523609D01*
X153571429Y-90523609D02*
X153666667Y-90475990D01*
X153666667Y-90475990D02*
X153714286Y-90428371D01*
X153714286Y-90428371D02*
X153761905Y-90333133D01*
X153761905Y-90333133D02*
X153761905Y-90237895D01*
X153761905Y-90237895D02*
X153714286Y-90142657D01*
X153714286Y-90142657D02*
X153666667Y-90095038D01*
X153666667Y-90095038D02*
X153571429Y-90047419D01*
X153571429Y-90047419D02*
X153333334Y-90047419D01*
X153333334Y-90047419D02*
X153190477Y-90095038D01*
X152380953Y-90999800D02*
X152476191Y-91047419D01*
X152476191Y-91047419D02*
X152666667Y-91047419D01*
X152666667Y-91047419D02*
X152761905Y-90999800D01*
X152761905Y-90999800D02*
X152809524Y-90904561D01*
X152809524Y-90904561D02*
X152809524Y-90523609D01*
X152809524Y-90523609D02*
X152761905Y-90428371D01*
X152761905Y-90428371D02*
X152666667Y-90380752D01*
X152666667Y-90380752D02*
X152476191Y-90380752D01*
X152476191Y-90380752D02*
X152380953Y-90428371D01*
X152380953Y-90428371D02*
X152333334Y-90523609D01*
X152333334Y-90523609D02*
X152333334Y-90618847D01*
X152333334Y-90618847D02*
X152809524Y-90714085D01*
X151904762Y-90380752D02*
X151904762Y-91047419D01*
X151904762Y-90475990D02*
X151857143Y-90428371D01*
X151857143Y-90428371D02*
X151761905Y-90380752D01*
X151761905Y-90380752D02*
X151619048Y-90380752D01*
X151619048Y-90380752D02*
X151523810Y-90428371D01*
X151523810Y-90428371D02*
X151476191Y-90523609D01*
X151476191Y-90523609D02*
X151476191Y-91047419D01*
X151047619Y-90999800D02*
X150952381Y-91047419D01*
X150952381Y-91047419D02*
X150761905Y-91047419D01*
X150761905Y-91047419D02*
X150666667Y-90999800D01*
X150666667Y-90999800D02*
X150619048Y-90904561D01*
X150619048Y-90904561D02*
X150619048Y-90856942D01*
X150619048Y-90856942D02*
X150666667Y-90761704D01*
X150666667Y-90761704D02*
X150761905Y-90714085D01*
X150761905Y-90714085D02*
X150904762Y-90714085D01*
X150904762Y-90714085D02*
X151000000Y-90666466D01*
X151000000Y-90666466D02*
X151047619Y-90571228D01*
X151047619Y-90571228D02*
X151047619Y-90523609D01*
X151047619Y-90523609D02*
X151000000Y-90428371D01*
X151000000Y-90428371D02*
X150904762Y-90380752D01*
X150904762Y-90380752D02*
X150761905Y-90380752D01*
X150761905Y-90380752D02*
X150666667Y-90428371D01*
X150047619Y-91047419D02*
X150142857Y-90999800D01*
X150142857Y-90999800D02*
X150190476Y-90952180D01*
X150190476Y-90952180D02*
X150238095Y-90856942D01*
X150238095Y-90856942D02*
X150238095Y-90571228D01*
X150238095Y-90571228D02*
X150190476Y-90475990D01*
X150190476Y-90475990D02*
X150142857Y-90428371D01*
X150142857Y-90428371D02*
X150047619Y-90380752D01*
X150047619Y-90380752D02*
X149904762Y-90380752D01*
X149904762Y-90380752D02*
X149809524Y-90428371D01*
X149809524Y-90428371D02*
X149761905Y-90475990D01*
X149761905Y-90475990D02*
X149714286Y-90571228D01*
X149714286Y-90571228D02*
X149714286Y-90856942D01*
X149714286Y-90856942D02*
X149761905Y-90952180D01*
X149761905Y-90952180D02*
X149809524Y-90999800D01*
X149809524Y-90999800D02*
X149904762Y-91047419D01*
X149904762Y-91047419D02*
X150047619Y-91047419D01*
X149428571Y-90380752D02*
X149047619Y-90380752D01*
X149285714Y-90047419D02*
X149285714Y-90904561D01*
X149285714Y-90904561D02*
X149238095Y-90999800D01*
X149238095Y-90999800D02*
X149142857Y-91047419D01*
X149142857Y-91047419D02*
X149047619Y-91047419D01*
X148333333Y-90999800D02*
X148428571Y-91047419D01*
X148428571Y-91047419D02*
X148619047Y-91047419D01*
X148619047Y-91047419D02*
X148714285Y-90999800D01*
X148714285Y-90999800D02*
X148761904Y-90904561D01*
X148761904Y-90904561D02*
X148761904Y-90523609D01*
X148761904Y-90523609D02*
X148714285Y-90428371D01*
X148714285Y-90428371D02*
X148619047Y-90380752D01*
X148619047Y-90380752D02*
X148428571Y-90380752D01*
X148428571Y-90380752D02*
X148333333Y-90428371D01*
X148333333Y-90428371D02*
X148285714Y-90523609D01*
X148285714Y-90523609D02*
X148285714Y-90618847D01*
X148285714Y-90618847D02*
X148761904Y-90714085D01*
X147428571Y-90999800D02*
X147523809Y-91047419D01*
X147523809Y-91047419D02*
X147714285Y-91047419D01*
X147714285Y-91047419D02*
X147809523Y-90999800D01*
X147809523Y-90999800D02*
X147857142Y-90952180D01*
X147857142Y-90952180D02*
X147904761Y-90856942D01*
X147904761Y-90856942D02*
X147904761Y-90571228D01*
X147904761Y-90571228D02*
X147857142Y-90475990D01*
X147857142Y-90475990D02*
X147809523Y-90428371D01*
X147809523Y-90428371D02*
X147714285Y-90380752D01*
X147714285Y-90380752D02*
X147523809Y-90380752D01*
X147523809Y-90380752D02*
X147428571Y-90428371D01*
X146999999Y-91047419D02*
X146999999Y-90047419D01*
X146571428Y-91047419D02*
X146571428Y-90523609D01*
X146571428Y-90523609D02*
X146619047Y-90428371D01*
X146619047Y-90428371D02*
X146714285Y-90380752D01*
X146714285Y-90380752D02*
X146857142Y-90380752D01*
X146857142Y-90380752D02*
X146952380Y-90428371D01*
X146952380Y-90428371D02*
X146999999Y-90475990D01*
X145333332Y-91047419D02*
X145333332Y-90047419D01*
X145333332Y-90047419D02*
X144952380Y-90047419D01*
X144952380Y-90047419D02*
X144857142Y-90095038D01*
X144857142Y-90095038D02*
X144809523Y-90142657D01*
X144809523Y-90142657D02*
X144761904Y-90237895D01*
X144761904Y-90237895D02*
X144761904Y-90380752D01*
X144761904Y-90380752D02*
X144809523Y-90475990D01*
X144809523Y-90475990D02*
X144857142Y-90523609D01*
X144857142Y-90523609D02*
X144952380Y-90571228D01*
X144952380Y-90571228D02*
X145333332Y-90571228D01*
X144428570Y-90380752D02*
X144190475Y-91047419D01*
X144190475Y-91047419D02*
X143952380Y-90380752D01*
X143714284Y-90380752D02*
X143333332Y-90380752D01*
X143571427Y-90047419D02*
X143571427Y-90904561D01*
X143571427Y-90904561D02*
X143523808Y-90999800D01*
X143523808Y-90999800D02*
X143428570Y-91047419D01*
X143428570Y-91047419D02*
X143333332Y-91047419D01*
X142999998Y-90952180D02*
X142952379Y-90999800D01*
X142952379Y-90999800D02*
X142999998Y-91047419D01*
X142999998Y-91047419D02*
X143047617Y-90999800D01*
X143047617Y-90999800D02*
X142999998Y-90952180D01*
X142999998Y-90952180D02*
X142999998Y-91047419D01*
X141285713Y-91047419D02*
X141761903Y-91047419D01*
X141761903Y-91047419D02*
X141761903Y-90047419D01*
X141095236Y-90380752D02*
X140714284Y-90380752D01*
X140952379Y-90047419D02*
X140952379Y-90904561D01*
X140952379Y-90904561D02*
X140904760Y-90999800D01*
X140904760Y-90999800D02*
X140809522Y-91047419D01*
X140809522Y-91047419D02*
X140714284Y-91047419D01*
X139952379Y-91047419D02*
X139952379Y-90047419D01*
X139952379Y-90999800D02*
X140047617Y-91047419D01*
X140047617Y-91047419D02*
X140238093Y-91047419D01*
X140238093Y-91047419D02*
X140333331Y-90999800D01*
X140333331Y-90999800D02*
X140380950Y-90952180D01*
X140380950Y-90952180D02*
X140428569Y-90856942D01*
X140428569Y-90856942D02*
X140428569Y-90571228D01*
X140428569Y-90571228D02*
X140380950Y-90475990D01*
X140380950Y-90475990D02*
X140333331Y-90428371D01*
X140333331Y-90428371D02*
X140238093Y-90380752D01*
X140238093Y-90380752D02*
X140047617Y-90380752D01*
X140047617Y-90380752D02*
X139952379Y-90428371D01*
X139476188Y-90952180D02*
X139428569Y-90999800D01*
X139428569Y-90999800D02*
X139476188Y-91047419D01*
X139476188Y-91047419D02*
X139523807Y-90999800D01*
X139523807Y-90999800D02*
X139476188Y-90952180D01*
X139476188Y-90952180D02*
X139476188Y-91047419D01*
D11*
X161519048Y-92773215D02*
X161480952Y-92735120D01*
X161480952Y-92735120D02*
X161404762Y-92697025D01*
X161404762Y-92697025D02*
X161214286Y-92697025D01*
X161214286Y-92697025D02*
X161138095Y-92735120D01*
X161138095Y-92735120D02*
X161100000Y-92773215D01*
X161100000Y-92773215D02*
X161061905Y-92849406D01*
X161061905Y-92849406D02*
X161061905Y-92925596D01*
X161061905Y-92925596D02*
X161100000Y-93039882D01*
X161100000Y-93039882D02*
X161557143Y-93497025D01*
X161557143Y-93497025D02*
X161061905Y-93497025D01*
X160795238Y-92697025D02*
X160604762Y-93497025D01*
X160604762Y-93497025D02*
X160452381Y-92925596D01*
X160452381Y-92925596D02*
X160300000Y-93497025D01*
X160300000Y-93497025D02*
X160109524Y-92697025D01*
X159804761Y-93420834D02*
X159766666Y-93458930D01*
X159766666Y-93458930D02*
X159804761Y-93497025D01*
X159804761Y-93497025D02*
X159842857Y-93458930D01*
X159842857Y-93458930D02*
X159804761Y-93420834D01*
X159804761Y-93420834D02*
X159804761Y-93497025D01*
X159804761Y-93001787D02*
X159766666Y-93039882D01*
X159766666Y-93039882D02*
X159804761Y-93077977D01*
X159804761Y-93077977D02*
X159842857Y-93039882D01*
X159842857Y-93039882D02*
X159804761Y-93001787D01*
X159804761Y-93001787D02*
X159804761Y-93077977D01*
X158585714Y-92697025D02*
X158585714Y-93268453D01*
X158585714Y-93268453D02*
X158623809Y-93382739D01*
X158623809Y-93382739D02*
X158700000Y-93458930D01*
X158700000Y-93458930D02*
X158814285Y-93497025D01*
X158814285Y-93497025D02*
X158890476Y-93497025D01*
X158204761Y-93497025D02*
X158204761Y-92697025D01*
X158204761Y-92697025D02*
X157899999Y-92697025D01*
X157899999Y-92697025D02*
X157823809Y-92735120D01*
X157823809Y-92735120D02*
X157785714Y-92773215D01*
X157785714Y-92773215D02*
X157747618Y-92849406D01*
X157747618Y-92849406D02*
X157747618Y-92963691D01*
X157747618Y-92963691D02*
X157785714Y-93039882D01*
X157785714Y-93039882D02*
X157823809Y-93077977D01*
X157823809Y-93077977D02*
X157899999Y-93116072D01*
X157899999Y-93116072D02*
X158204761Y-93116072D01*
X156985714Y-93497025D02*
X157442857Y-93497025D01*
X157214285Y-93497025D02*
X157214285Y-92697025D01*
X157214285Y-92697025D02*
X157290476Y-92811310D01*
X157290476Y-92811310D02*
X157366666Y-92887501D01*
X157366666Y-92887501D02*
X157442857Y-92925596D01*
X156642856Y-93077977D02*
X156033333Y-93077977D01*
X156033333Y-93306549D02*
X156642856Y-93306549D01*
X155233333Y-92735120D02*
X155309523Y-92697025D01*
X155309523Y-92697025D02*
X155423809Y-92697025D01*
X155423809Y-92697025D02*
X155538095Y-92735120D01*
X155538095Y-92735120D02*
X155614285Y-92811310D01*
X155614285Y-92811310D02*
X155652380Y-92887501D01*
X155652380Y-92887501D02*
X155690476Y-93039882D01*
X155690476Y-93039882D02*
X155690476Y-93154168D01*
X155690476Y-93154168D02*
X155652380Y-93306549D01*
X155652380Y-93306549D02*
X155614285Y-93382739D01*
X155614285Y-93382739D02*
X155538095Y-93458930D01*
X155538095Y-93458930D02*
X155423809Y-93497025D01*
X155423809Y-93497025D02*
X155347618Y-93497025D01*
X155347618Y-93497025D02*
X155233333Y-93458930D01*
X155233333Y-93458930D02*
X155195237Y-93420834D01*
X155195237Y-93420834D02*
X155195237Y-93154168D01*
X155195237Y-93154168D02*
X155347618Y-93154168D01*
X154852380Y-93497025D02*
X154852380Y-92697025D01*
X154852380Y-92697025D02*
X154395237Y-93497025D01*
X154395237Y-93497025D02*
X154395237Y-92697025D01*
X154014285Y-93497025D02*
X154014285Y-92697025D01*
X154014285Y-92697025D02*
X153823809Y-92697025D01*
X153823809Y-92697025D02*
X153709523Y-92735120D01*
X153709523Y-92735120D02*
X153633333Y-92811310D01*
X153633333Y-92811310D02*
X153595238Y-92887501D01*
X153595238Y-92887501D02*
X153557142Y-93039882D01*
X153557142Y-93039882D02*
X153557142Y-93154168D01*
X153557142Y-93154168D02*
X153595238Y-93306549D01*
X153595238Y-93306549D02*
X153633333Y-93382739D01*
X153633333Y-93382739D02*
X153709523Y-93458930D01*
X153709523Y-93458930D02*
X153823809Y-93497025D01*
X153823809Y-93497025D02*
X154014285Y-93497025D01*
X153176190Y-93458930D02*
X153176190Y-93497025D01*
X153176190Y-93497025D02*
X153214285Y-93573215D01*
X153214285Y-93573215D02*
X153252381Y-93611310D01*
X151995238Y-92697025D02*
X151995238Y-93268453D01*
X151995238Y-93268453D02*
X152033333Y-93382739D01*
X152033333Y-93382739D02*
X152109524Y-93458930D01*
X152109524Y-93458930D02*
X152223809Y-93497025D01*
X152223809Y-93497025D02*
X152300000Y-93497025D01*
X151614285Y-93497025D02*
X151614285Y-92697025D01*
X151614285Y-92697025D02*
X151309523Y-92697025D01*
X151309523Y-92697025D02*
X151233333Y-92735120D01*
X151233333Y-92735120D02*
X151195238Y-92773215D01*
X151195238Y-92773215D02*
X151157142Y-92849406D01*
X151157142Y-92849406D02*
X151157142Y-92963691D01*
X151157142Y-92963691D02*
X151195238Y-93039882D01*
X151195238Y-93039882D02*
X151233333Y-93077977D01*
X151233333Y-93077977D02*
X151309523Y-93116072D01*
X151309523Y-93116072D02*
X151614285Y-93116072D01*
X150890476Y-92697025D02*
X150395238Y-92697025D01*
X150395238Y-92697025D02*
X150661904Y-93001787D01*
X150661904Y-93001787D02*
X150547619Y-93001787D01*
X150547619Y-93001787D02*
X150471428Y-93039882D01*
X150471428Y-93039882D02*
X150433333Y-93077977D01*
X150433333Y-93077977D02*
X150395238Y-93154168D01*
X150395238Y-93154168D02*
X150395238Y-93344644D01*
X150395238Y-93344644D02*
X150433333Y-93420834D01*
X150433333Y-93420834D02*
X150471428Y-93458930D01*
X150471428Y-93458930D02*
X150547619Y-93497025D01*
X150547619Y-93497025D02*
X150776190Y-93497025D01*
X150776190Y-93497025D02*
X150852381Y-93458930D01*
X150852381Y-93458930D02*
X150890476Y-93420834D01*
X150052380Y-93077977D02*
X149442857Y-93077977D01*
X149442857Y-93306549D02*
X150052380Y-93306549D01*
X148719047Y-93458930D02*
X148795238Y-93497025D01*
X148795238Y-93497025D02*
X148947619Y-93497025D01*
X148947619Y-93497025D02*
X149023809Y-93458930D01*
X149023809Y-93458930D02*
X149061904Y-93420834D01*
X149061904Y-93420834D02*
X149100000Y-93344644D01*
X149100000Y-93344644D02*
X149100000Y-93116072D01*
X149100000Y-93116072D02*
X149061904Y-93039882D01*
X149061904Y-93039882D02*
X149023809Y-93001787D01*
X149023809Y-93001787D02*
X148947619Y-92963691D01*
X148947619Y-92963691D02*
X148795238Y-92963691D01*
X148795238Y-92963691D02*
X148719047Y-93001787D01*
X148261905Y-93497025D02*
X148338095Y-93458930D01*
X148338095Y-93458930D02*
X148376190Y-93382739D01*
X148376190Y-93382739D02*
X148376190Y-92697025D01*
X147842857Y-93497025D02*
X147919047Y-93458930D01*
X147919047Y-93458930D02*
X147957142Y-93420834D01*
X147957142Y-93420834D02*
X147995238Y-93344644D01*
X147995238Y-93344644D02*
X147995238Y-93116072D01*
X147995238Y-93116072D02*
X147957142Y-93039882D01*
X147957142Y-93039882D02*
X147919047Y-93001787D01*
X147919047Y-93001787D02*
X147842857Y-92963691D01*
X147842857Y-92963691D02*
X147728571Y-92963691D01*
X147728571Y-92963691D02*
X147652380Y-93001787D01*
X147652380Y-93001787D02*
X147614285Y-93039882D01*
X147614285Y-93039882D02*
X147576190Y-93116072D01*
X147576190Y-93116072D02*
X147576190Y-93344644D01*
X147576190Y-93344644D02*
X147614285Y-93420834D01*
X147614285Y-93420834D02*
X147652380Y-93458930D01*
X147652380Y-93458930D02*
X147728571Y-93497025D01*
X147728571Y-93497025D02*
X147842857Y-93497025D01*
X147271428Y-93458930D02*
X147195237Y-93497025D01*
X147195237Y-93497025D02*
X147042856Y-93497025D01*
X147042856Y-93497025D02*
X146966666Y-93458930D01*
X146966666Y-93458930D02*
X146928570Y-93382739D01*
X146928570Y-93382739D02*
X146928570Y-93344644D01*
X146928570Y-93344644D02*
X146966666Y-93268453D01*
X146966666Y-93268453D02*
X147042856Y-93230358D01*
X147042856Y-93230358D02*
X147157142Y-93230358D01*
X147157142Y-93230358D02*
X147233332Y-93192263D01*
X147233332Y-93192263D02*
X147271428Y-93116072D01*
X147271428Y-93116072D02*
X147271428Y-93077977D01*
X147271428Y-93077977D02*
X147233332Y-93001787D01*
X147233332Y-93001787D02*
X147157142Y-92963691D01*
X147157142Y-92963691D02*
X147042856Y-92963691D01*
X147042856Y-92963691D02*
X146966666Y-93001787D01*
X146280951Y-93458930D02*
X146357142Y-93497025D01*
X146357142Y-93497025D02*
X146509523Y-93497025D01*
X146509523Y-93497025D02*
X146585713Y-93458930D01*
X146585713Y-93458930D02*
X146623809Y-93382739D01*
X146623809Y-93382739D02*
X146623809Y-93077977D01*
X146623809Y-93077977D02*
X146585713Y-93001787D01*
X146585713Y-93001787D02*
X146509523Y-92963691D01*
X146509523Y-92963691D02*
X146357142Y-92963691D01*
X146357142Y-92963691D02*
X146280951Y-93001787D01*
X146280951Y-93001787D02*
X146242856Y-93077977D01*
X146242856Y-93077977D02*
X146242856Y-93154168D01*
X146242856Y-93154168D02*
X146623809Y-93230358D01*
X145557142Y-93497025D02*
X145557142Y-92697025D01*
X145557142Y-93458930D02*
X145633333Y-93497025D01*
X145633333Y-93497025D02*
X145785714Y-93497025D01*
X145785714Y-93497025D02*
X145861904Y-93458930D01*
X145861904Y-93458930D02*
X145899999Y-93420834D01*
X145899999Y-93420834D02*
X145938095Y-93344644D01*
X145938095Y-93344644D02*
X145938095Y-93116072D01*
X145938095Y-93116072D02*
X145899999Y-93039882D01*
X145899999Y-93039882D02*
X145861904Y-93001787D01*
X145861904Y-93001787D02*
X145785714Y-92963691D01*
X145785714Y-92963691D02*
X145633333Y-92963691D01*
X145633333Y-92963691D02*
X145557142Y-93001787D01*
X145138094Y-93458930D02*
X145138094Y-93497025D01*
X145138094Y-93497025D02*
X145176189Y-93573215D01*
X145176189Y-93573215D02*
X145214285Y-93611310D01*
X143957142Y-92697025D02*
X143957142Y-93268453D01*
X143957142Y-93268453D02*
X143995237Y-93382739D01*
X143995237Y-93382739D02*
X144071428Y-93458930D01*
X144071428Y-93458930D02*
X144185713Y-93497025D01*
X144185713Y-93497025D02*
X144261904Y-93497025D01*
X143576189Y-93497025D02*
X143576189Y-92697025D01*
X143576189Y-92697025D02*
X143271427Y-92697025D01*
X143271427Y-92697025D02*
X143195237Y-92735120D01*
X143195237Y-92735120D02*
X143157142Y-92773215D01*
X143157142Y-92773215D02*
X143119046Y-92849406D01*
X143119046Y-92849406D02*
X143119046Y-92963691D01*
X143119046Y-92963691D02*
X143157142Y-93039882D01*
X143157142Y-93039882D02*
X143195237Y-93077977D01*
X143195237Y-93077977D02*
X143271427Y-93116072D01*
X143271427Y-93116072D02*
X143576189Y-93116072D01*
X142433332Y-92963691D02*
X142433332Y-93497025D01*
X142623808Y-92658930D02*
X142814285Y-93230358D01*
X142814285Y-93230358D02*
X142319046Y-93230358D01*
X142014284Y-93077977D02*
X141404761Y-93077977D01*
X141404761Y-93306549D02*
X142014284Y-93306549D01*
X140680951Y-93458930D02*
X140757142Y-93497025D01*
X140757142Y-93497025D02*
X140909523Y-93497025D01*
X140909523Y-93497025D02*
X140985713Y-93458930D01*
X140985713Y-93458930D02*
X141023808Y-93420834D01*
X141023808Y-93420834D02*
X141061904Y-93344644D01*
X141061904Y-93344644D02*
X141061904Y-93116072D01*
X141061904Y-93116072D02*
X141023808Y-93039882D01*
X141023808Y-93039882D02*
X140985713Y-93001787D01*
X140985713Y-93001787D02*
X140909523Y-92963691D01*
X140909523Y-92963691D02*
X140757142Y-92963691D01*
X140757142Y-92963691D02*
X140680951Y-93001787D01*
X140223809Y-93497025D02*
X140299999Y-93458930D01*
X140299999Y-93458930D02*
X140338094Y-93382739D01*
X140338094Y-93382739D02*
X140338094Y-92697025D01*
X139804761Y-93497025D02*
X139880951Y-93458930D01*
X139880951Y-93458930D02*
X139919046Y-93420834D01*
X139919046Y-93420834D02*
X139957142Y-93344644D01*
X139957142Y-93344644D02*
X139957142Y-93116072D01*
X139957142Y-93116072D02*
X139919046Y-93039882D01*
X139919046Y-93039882D02*
X139880951Y-93001787D01*
X139880951Y-93001787D02*
X139804761Y-92963691D01*
X139804761Y-92963691D02*
X139690475Y-92963691D01*
X139690475Y-92963691D02*
X139614284Y-93001787D01*
X139614284Y-93001787D02*
X139576189Y-93039882D01*
X139576189Y-93039882D02*
X139538094Y-93116072D01*
X139538094Y-93116072D02*
X139538094Y-93344644D01*
X139538094Y-93344644D02*
X139576189Y-93420834D01*
X139576189Y-93420834D02*
X139614284Y-93458930D01*
X139614284Y-93458930D02*
X139690475Y-93497025D01*
X139690475Y-93497025D02*
X139804761Y-93497025D01*
X139233332Y-93458930D02*
X139157141Y-93497025D01*
X139157141Y-93497025D02*
X139004760Y-93497025D01*
X139004760Y-93497025D02*
X138928570Y-93458930D01*
X138928570Y-93458930D02*
X138890474Y-93382739D01*
X138890474Y-93382739D02*
X138890474Y-93344644D01*
X138890474Y-93344644D02*
X138928570Y-93268453D01*
X138928570Y-93268453D02*
X139004760Y-93230358D01*
X139004760Y-93230358D02*
X139119046Y-93230358D01*
X139119046Y-93230358D02*
X139195236Y-93192263D01*
X139195236Y-93192263D02*
X139233332Y-93116072D01*
X139233332Y-93116072D02*
X139233332Y-93077977D01*
X139233332Y-93077977D02*
X139195236Y-93001787D01*
X139195236Y-93001787D02*
X139119046Y-92963691D01*
X139119046Y-92963691D02*
X139004760Y-92963691D01*
X139004760Y-92963691D02*
X138928570Y-93001787D01*
X138242855Y-93458930D02*
X138319046Y-93497025D01*
X138319046Y-93497025D02*
X138471427Y-93497025D01*
X138471427Y-93497025D02*
X138547617Y-93458930D01*
X138547617Y-93458930D02*
X138585713Y-93382739D01*
X138585713Y-93382739D02*
X138585713Y-93077977D01*
X138585713Y-93077977D02*
X138547617Y-93001787D01*
X138547617Y-93001787D02*
X138471427Y-92963691D01*
X138471427Y-92963691D02*
X138319046Y-92963691D01*
X138319046Y-92963691D02*
X138242855Y-93001787D01*
X138242855Y-93001787D02*
X138204760Y-93077977D01*
X138204760Y-93077977D02*
X138204760Y-93154168D01*
X138204760Y-93154168D02*
X138585713Y-93230358D01*
X137519046Y-93497025D02*
X137519046Y-92697025D01*
X137519046Y-93458930D02*
X137595237Y-93497025D01*
X137595237Y-93497025D02*
X137747618Y-93497025D01*
X137747618Y-93497025D02*
X137823808Y-93458930D01*
X137823808Y-93458930D02*
X137861903Y-93420834D01*
X137861903Y-93420834D02*
X137899999Y-93344644D01*
X137899999Y-93344644D02*
X137899999Y-93116072D01*
X137899999Y-93116072D02*
X137861903Y-93039882D01*
X137861903Y-93039882D02*
X137823808Y-93001787D01*
X137823808Y-93001787D02*
X137747618Y-92963691D01*
X137747618Y-92963691D02*
X137595237Y-92963691D01*
X137595237Y-92963691D02*
X137519046Y-93001787D01*
X160661905Y-93984980D02*
X160166667Y-93984980D01*
X160166667Y-93984980D02*
X160433333Y-94289742D01*
X160433333Y-94289742D02*
X160319048Y-94289742D01*
X160319048Y-94289742D02*
X160242857Y-94327837D01*
X160242857Y-94327837D02*
X160204762Y-94365932D01*
X160204762Y-94365932D02*
X160166667Y-94442123D01*
X160166667Y-94442123D02*
X160166667Y-94632599D01*
X160166667Y-94632599D02*
X160204762Y-94708789D01*
X160204762Y-94708789D02*
X160242857Y-94746885D01*
X160242857Y-94746885D02*
X160319048Y-94784980D01*
X160319048Y-94784980D02*
X160547619Y-94784980D01*
X160547619Y-94784980D02*
X160623810Y-94746885D01*
X160623810Y-94746885D02*
X160661905Y-94708789D01*
X159900000Y-93984980D02*
X159709524Y-94784980D01*
X159709524Y-94784980D02*
X159557143Y-94213551D01*
X159557143Y-94213551D02*
X159404762Y-94784980D01*
X159404762Y-94784980D02*
X159214286Y-93984980D01*
X158909523Y-94708789D02*
X158871428Y-94746885D01*
X158871428Y-94746885D02*
X158909523Y-94784980D01*
X158909523Y-94784980D02*
X158947619Y-94746885D01*
X158947619Y-94746885D02*
X158909523Y-94708789D01*
X158909523Y-94708789D02*
X158909523Y-94784980D01*
X158909523Y-94289742D02*
X158871428Y-94327837D01*
X158871428Y-94327837D02*
X158909523Y-94365932D01*
X158909523Y-94365932D02*
X158947619Y-94327837D01*
X158947619Y-94327837D02*
X158909523Y-94289742D01*
X158909523Y-94289742D02*
X158909523Y-94365932D01*
X157690476Y-93984980D02*
X157690476Y-94556408D01*
X157690476Y-94556408D02*
X157728571Y-94670694D01*
X157728571Y-94670694D02*
X157804762Y-94746885D01*
X157804762Y-94746885D02*
X157919047Y-94784980D01*
X157919047Y-94784980D02*
X157995238Y-94784980D01*
X157309523Y-94784980D02*
X157309523Y-93984980D01*
X157309523Y-93984980D02*
X157004761Y-93984980D01*
X157004761Y-93984980D02*
X156928571Y-94023075D01*
X156928571Y-94023075D02*
X156890476Y-94061170D01*
X156890476Y-94061170D02*
X156852380Y-94137361D01*
X156852380Y-94137361D02*
X156852380Y-94251646D01*
X156852380Y-94251646D02*
X156890476Y-94327837D01*
X156890476Y-94327837D02*
X156928571Y-94365932D01*
X156928571Y-94365932D02*
X157004761Y-94404027D01*
X157004761Y-94404027D02*
X157309523Y-94404027D01*
X156090476Y-94784980D02*
X156547619Y-94784980D01*
X156319047Y-94784980D02*
X156319047Y-93984980D01*
X156319047Y-93984980D02*
X156395238Y-94099265D01*
X156395238Y-94099265D02*
X156471428Y-94175456D01*
X156471428Y-94175456D02*
X156547619Y-94213551D01*
X155747618Y-94365932D02*
X155138095Y-94365932D01*
X155138095Y-94594504D02*
X155747618Y-94594504D01*
X154490476Y-94365932D02*
X154757142Y-94365932D01*
X154757142Y-94784980D02*
X154757142Y-93984980D01*
X154757142Y-93984980D02*
X154376190Y-93984980D01*
X154071428Y-94480218D02*
X153461905Y-94480218D01*
X153766666Y-94784980D02*
X153766666Y-94175456D01*
X153042857Y-94746885D02*
X153042857Y-94784980D01*
X153042857Y-94784980D02*
X153080952Y-94861170D01*
X153080952Y-94861170D02*
X153119048Y-94899265D01*
X151861905Y-93984980D02*
X151861905Y-94556408D01*
X151861905Y-94556408D02*
X151900000Y-94670694D01*
X151900000Y-94670694D02*
X151976191Y-94746885D01*
X151976191Y-94746885D02*
X152090476Y-94784980D01*
X152090476Y-94784980D02*
X152166667Y-94784980D01*
X151480952Y-94784980D02*
X151480952Y-93984980D01*
X151480952Y-93984980D02*
X151176190Y-93984980D01*
X151176190Y-93984980D02*
X151100000Y-94023075D01*
X151100000Y-94023075D02*
X151061905Y-94061170D01*
X151061905Y-94061170D02*
X151023809Y-94137361D01*
X151023809Y-94137361D02*
X151023809Y-94251646D01*
X151023809Y-94251646D02*
X151061905Y-94327837D01*
X151061905Y-94327837D02*
X151100000Y-94365932D01*
X151100000Y-94365932D02*
X151176190Y-94404027D01*
X151176190Y-94404027D02*
X151480952Y-94404027D01*
X150757143Y-93984980D02*
X150261905Y-93984980D01*
X150261905Y-93984980D02*
X150528571Y-94289742D01*
X150528571Y-94289742D02*
X150414286Y-94289742D01*
X150414286Y-94289742D02*
X150338095Y-94327837D01*
X150338095Y-94327837D02*
X150300000Y-94365932D01*
X150300000Y-94365932D02*
X150261905Y-94442123D01*
X150261905Y-94442123D02*
X150261905Y-94632599D01*
X150261905Y-94632599D02*
X150300000Y-94708789D01*
X150300000Y-94708789D02*
X150338095Y-94746885D01*
X150338095Y-94746885D02*
X150414286Y-94784980D01*
X150414286Y-94784980D02*
X150642857Y-94784980D01*
X150642857Y-94784980D02*
X150719048Y-94746885D01*
X150719048Y-94746885D02*
X150757143Y-94708789D01*
X149919047Y-94365932D02*
X149309524Y-94365932D01*
X149309524Y-94594504D02*
X149919047Y-94594504D01*
X148814286Y-94784980D02*
X148890476Y-94746885D01*
X148890476Y-94746885D02*
X148928571Y-94708789D01*
X148928571Y-94708789D02*
X148966667Y-94632599D01*
X148966667Y-94632599D02*
X148966667Y-94404027D01*
X148966667Y-94404027D02*
X148928571Y-94327837D01*
X148928571Y-94327837D02*
X148890476Y-94289742D01*
X148890476Y-94289742D02*
X148814286Y-94251646D01*
X148814286Y-94251646D02*
X148700000Y-94251646D01*
X148700000Y-94251646D02*
X148623809Y-94289742D01*
X148623809Y-94289742D02*
X148585714Y-94327837D01*
X148585714Y-94327837D02*
X148547619Y-94404027D01*
X148547619Y-94404027D02*
X148547619Y-94632599D01*
X148547619Y-94632599D02*
X148585714Y-94708789D01*
X148585714Y-94708789D02*
X148623809Y-94746885D01*
X148623809Y-94746885D02*
X148700000Y-94784980D01*
X148700000Y-94784980D02*
X148814286Y-94784980D01*
X148204761Y-94251646D02*
X148204761Y-95051646D01*
X148204761Y-94289742D02*
X148128571Y-94251646D01*
X148128571Y-94251646D02*
X147976190Y-94251646D01*
X147976190Y-94251646D02*
X147899999Y-94289742D01*
X147899999Y-94289742D02*
X147861904Y-94327837D01*
X147861904Y-94327837D02*
X147823809Y-94404027D01*
X147823809Y-94404027D02*
X147823809Y-94632599D01*
X147823809Y-94632599D02*
X147861904Y-94708789D01*
X147861904Y-94708789D02*
X147899999Y-94746885D01*
X147899999Y-94746885D02*
X147976190Y-94784980D01*
X147976190Y-94784980D02*
X148128571Y-94784980D01*
X148128571Y-94784980D02*
X148204761Y-94746885D01*
X147176189Y-94746885D02*
X147252380Y-94784980D01*
X147252380Y-94784980D02*
X147404761Y-94784980D01*
X147404761Y-94784980D02*
X147480951Y-94746885D01*
X147480951Y-94746885D02*
X147519047Y-94670694D01*
X147519047Y-94670694D02*
X147519047Y-94365932D01*
X147519047Y-94365932D02*
X147480951Y-94289742D01*
X147480951Y-94289742D02*
X147404761Y-94251646D01*
X147404761Y-94251646D02*
X147252380Y-94251646D01*
X147252380Y-94251646D02*
X147176189Y-94289742D01*
X147176189Y-94289742D02*
X147138094Y-94365932D01*
X147138094Y-94365932D02*
X147138094Y-94442123D01*
X147138094Y-94442123D02*
X147519047Y-94518313D01*
X146795237Y-94251646D02*
X146795237Y-94784980D01*
X146795237Y-94327837D02*
X146757142Y-94289742D01*
X146757142Y-94289742D02*
X146680952Y-94251646D01*
X146680952Y-94251646D02*
X146566666Y-94251646D01*
X146566666Y-94251646D02*
X146490475Y-94289742D01*
X146490475Y-94289742D02*
X146452380Y-94365932D01*
X146452380Y-94365932D02*
X146452380Y-94784980D01*
X146033332Y-94746885D02*
X146033332Y-94784980D01*
X146033332Y-94784980D02*
X146071427Y-94861170D01*
X146071427Y-94861170D02*
X146109523Y-94899265D01*
X144852380Y-93984980D02*
X144852380Y-94556408D01*
X144852380Y-94556408D02*
X144890475Y-94670694D01*
X144890475Y-94670694D02*
X144966666Y-94746885D01*
X144966666Y-94746885D02*
X145080951Y-94784980D01*
X145080951Y-94784980D02*
X145157142Y-94784980D01*
X144471427Y-94784980D02*
X144471427Y-93984980D01*
X144471427Y-93984980D02*
X144166665Y-93984980D01*
X144166665Y-93984980D02*
X144090475Y-94023075D01*
X144090475Y-94023075D02*
X144052380Y-94061170D01*
X144052380Y-94061170D02*
X144014284Y-94137361D01*
X144014284Y-94137361D02*
X144014284Y-94251646D01*
X144014284Y-94251646D02*
X144052380Y-94327837D01*
X144052380Y-94327837D02*
X144090475Y-94365932D01*
X144090475Y-94365932D02*
X144166665Y-94404027D01*
X144166665Y-94404027D02*
X144471427Y-94404027D01*
X143328570Y-94251646D02*
X143328570Y-94784980D01*
X143519046Y-93946885D02*
X143709523Y-94518313D01*
X143709523Y-94518313D02*
X143214284Y-94518313D01*
X142909522Y-94365932D02*
X142299999Y-94365932D01*
X142299999Y-94594504D02*
X142909522Y-94594504D01*
X141576189Y-94746885D02*
X141652380Y-94784980D01*
X141652380Y-94784980D02*
X141804761Y-94784980D01*
X141804761Y-94784980D02*
X141880951Y-94746885D01*
X141880951Y-94746885D02*
X141919046Y-94708789D01*
X141919046Y-94708789D02*
X141957142Y-94632599D01*
X141957142Y-94632599D02*
X141957142Y-94404027D01*
X141957142Y-94404027D02*
X141919046Y-94327837D01*
X141919046Y-94327837D02*
X141880951Y-94289742D01*
X141880951Y-94289742D02*
X141804761Y-94251646D01*
X141804761Y-94251646D02*
X141652380Y-94251646D01*
X141652380Y-94251646D02*
X141576189Y-94289742D01*
X141119047Y-94784980D02*
X141195237Y-94746885D01*
X141195237Y-94746885D02*
X141233332Y-94670694D01*
X141233332Y-94670694D02*
X141233332Y-93984980D01*
X140699999Y-94784980D02*
X140776189Y-94746885D01*
X140776189Y-94746885D02*
X140814284Y-94708789D01*
X140814284Y-94708789D02*
X140852380Y-94632599D01*
X140852380Y-94632599D02*
X140852380Y-94404027D01*
X140852380Y-94404027D02*
X140814284Y-94327837D01*
X140814284Y-94327837D02*
X140776189Y-94289742D01*
X140776189Y-94289742D02*
X140699999Y-94251646D01*
X140699999Y-94251646D02*
X140585713Y-94251646D01*
X140585713Y-94251646D02*
X140509522Y-94289742D01*
X140509522Y-94289742D02*
X140471427Y-94327837D01*
X140471427Y-94327837D02*
X140433332Y-94404027D01*
X140433332Y-94404027D02*
X140433332Y-94632599D01*
X140433332Y-94632599D02*
X140471427Y-94708789D01*
X140471427Y-94708789D02*
X140509522Y-94746885D01*
X140509522Y-94746885D02*
X140585713Y-94784980D01*
X140585713Y-94784980D02*
X140699999Y-94784980D01*
X140128570Y-94746885D02*
X140052379Y-94784980D01*
X140052379Y-94784980D02*
X139899998Y-94784980D01*
X139899998Y-94784980D02*
X139823808Y-94746885D01*
X139823808Y-94746885D02*
X139785712Y-94670694D01*
X139785712Y-94670694D02*
X139785712Y-94632599D01*
X139785712Y-94632599D02*
X139823808Y-94556408D01*
X139823808Y-94556408D02*
X139899998Y-94518313D01*
X139899998Y-94518313D02*
X140014284Y-94518313D01*
X140014284Y-94518313D02*
X140090474Y-94480218D01*
X140090474Y-94480218D02*
X140128570Y-94404027D01*
X140128570Y-94404027D02*
X140128570Y-94365932D01*
X140128570Y-94365932D02*
X140090474Y-94289742D01*
X140090474Y-94289742D02*
X140014284Y-94251646D01*
X140014284Y-94251646D02*
X139899998Y-94251646D01*
X139899998Y-94251646D02*
X139823808Y-94289742D01*
X139138093Y-94746885D02*
X139214284Y-94784980D01*
X139214284Y-94784980D02*
X139366665Y-94784980D01*
X139366665Y-94784980D02*
X139442855Y-94746885D01*
X139442855Y-94746885D02*
X139480951Y-94670694D01*
X139480951Y-94670694D02*
X139480951Y-94365932D01*
X139480951Y-94365932D02*
X139442855Y-94289742D01*
X139442855Y-94289742D02*
X139366665Y-94251646D01*
X139366665Y-94251646D02*
X139214284Y-94251646D01*
X139214284Y-94251646D02*
X139138093Y-94289742D01*
X139138093Y-94289742D02*
X139099998Y-94365932D01*
X139099998Y-94365932D02*
X139099998Y-94442123D01*
X139099998Y-94442123D02*
X139480951Y-94518313D01*
X138414284Y-94784980D02*
X138414284Y-93984980D01*
X138414284Y-94746885D02*
X138490475Y-94784980D01*
X138490475Y-94784980D02*
X138642856Y-94784980D01*
X138642856Y-94784980D02*
X138719046Y-94746885D01*
X138719046Y-94746885D02*
X138757141Y-94708789D01*
X138757141Y-94708789D02*
X138795237Y-94632599D01*
X138795237Y-94632599D02*
X138795237Y-94404027D01*
X138795237Y-94404027D02*
X138757141Y-94327837D01*
X138757141Y-94327837D02*
X138719046Y-94289742D01*
X138719046Y-94289742D02*
X138642856Y-94251646D01*
X138642856Y-94251646D02*
X138490475Y-94251646D01*
X138490475Y-94251646D02*
X138414284Y-94289742D01*
X160109524Y-95539601D02*
X160109524Y-96072935D01*
X160300000Y-95234840D02*
X160490477Y-95806268D01*
X160490477Y-95806268D02*
X159995238Y-95806268D01*
X159766667Y-95272935D02*
X159576191Y-96072935D01*
X159576191Y-96072935D02*
X159423810Y-95501506D01*
X159423810Y-95501506D02*
X159271429Y-96072935D01*
X159271429Y-96072935D02*
X159080953Y-95272935D01*
X158776190Y-95996744D02*
X158738095Y-96034840D01*
X158738095Y-96034840D02*
X158776190Y-96072935D01*
X158776190Y-96072935D02*
X158814286Y-96034840D01*
X158814286Y-96034840D02*
X158776190Y-95996744D01*
X158776190Y-95996744D02*
X158776190Y-96072935D01*
X158776190Y-95577697D02*
X158738095Y-95615792D01*
X158738095Y-95615792D02*
X158776190Y-95653887D01*
X158776190Y-95653887D02*
X158814286Y-95615792D01*
X158814286Y-95615792D02*
X158776190Y-95577697D01*
X158776190Y-95577697D02*
X158776190Y-95653887D01*
X157557143Y-95272935D02*
X157557143Y-95844363D01*
X157557143Y-95844363D02*
X157595238Y-95958649D01*
X157595238Y-95958649D02*
X157671429Y-96034840D01*
X157671429Y-96034840D02*
X157785714Y-96072935D01*
X157785714Y-96072935D02*
X157861905Y-96072935D01*
X157176190Y-96072935D02*
X157176190Y-95272935D01*
X157176190Y-95272935D02*
X156871428Y-95272935D01*
X156871428Y-95272935D02*
X156795238Y-95311030D01*
X156795238Y-95311030D02*
X156757143Y-95349125D01*
X156757143Y-95349125D02*
X156719047Y-95425316D01*
X156719047Y-95425316D02*
X156719047Y-95539601D01*
X156719047Y-95539601D02*
X156757143Y-95615792D01*
X156757143Y-95615792D02*
X156795238Y-95653887D01*
X156795238Y-95653887D02*
X156871428Y-95691982D01*
X156871428Y-95691982D02*
X157176190Y-95691982D01*
X155957143Y-96072935D02*
X156414286Y-96072935D01*
X156185714Y-96072935D02*
X156185714Y-95272935D01*
X156185714Y-95272935D02*
X156261905Y-95387220D01*
X156261905Y-95387220D02*
X156338095Y-95463411D01*
X156338095Y-95463411D02*
X156414286Y-95501506D01*
X155614285Y-95653887D02*
X155004762Y-95653887D01*
X155004762Y-95882459D02*
X155614285Y-95882459D01*
X154204762Y-95311030D02*
X154280952Y-95272935D01*
X154280952Y-95272935D02*
X154395238Y-95272935D01*
X154395238Y-95272935D02*
X154509524Y-95311030D01*
X154509524Y-95311030D02*
X154585714Y-95387220D01*
X154585714Y-95387220D02*
X154623809Y-95463411D01*
X154623809Y-95463411D02*
X154661905Y-95615792D01*
X154661905Y-95615792D02*
X154661905Y-95730078D01*
X154661905Y-95730078D02*
X154623809Y-95882459D01*
X154623809Y-95882459D02*
X154585714Y-95958649D01*
X154585714Y-95958649D02*
X154509524Y-96034840D01*
X154509524Y-96034840D02*
X154395238Y-96072935D01*
X154395238Y-96072935D02*
X154319047Y-96072935D01*
X154319047Y-96072935D02*
X154204762Y-96034840D01*
X154204762Y-96034840D02*
X154166666Y-95996744D01*
X154166666Y-95996744D02*
X154166666Y-95730078D01*
X154166666Y-95730078D02*
X154319047Y-95730078D01*
X153823809Y-96072935D02*
X153823809Y-95272935D01*
X153823809Y-95272935D02*
X153366666Y-96072935D01*
X153366666Y-96072935D02*
X153366666Y-95272935D01*
X152985714Y-96072935D02*
X152985714Y-95272935D01*
X152985714Y-95272935D02*
X152795238Y-95272935D01*
X152795238Y-95272935D02*
X152680952Y-95311030D01*
X152680952Y-95311030D02*
X152604762Y-95387220D01*
X152604762Y-95387220D02*
X152566667Y-95463411D01*
X152566667Y-95463411D02*
X152528571Y-95615792D01*
X152528571Y-95615792D02*
X152528571Y-95730078D01*
X152528571Y-95730078D02*
X152566667Y-95882459D01*
X152566667Y-95882459D02*
X152604762Y-95958649D01*
X152604762Y-95958649D02*
X152680952Y-96034840D01*
X152680952Y-96034840D02*
X152795238Y-96072935D01*
X152795238Y-96072935D02*
X152985714Y-96072935D01*
X152147619Y-96034840D02*
X152147619Y-96072935D01*
X152147619Y-96072935D02*
X152185714Y-96149125D01*
X152185714Y-96149125D02*
X152223810Y-96187220D01*
X150966667Y-95272935D02*
X150966667Y-95844363D01*
X150966667Y-95844363D02*
X151004762Y-95958649D01*
X151004762Y-95958649D02*
X151080953Y-96034840D01*
X151080953Y-96034840D02*
X151195238Y-96072935D01*
X151195238Y-96072935D02*
X151271429Y-96072935D01*
X150585714Y-96072935D02*
X150585714Y-95272935D01*
X150585714Y-95272935D02*
X150280952Y-95272935D01*
X150280952Y-95272935D02*
X150204762Y-95311030D01*
X150204762Y-95311030D02*
X150166667Y-95349125D01*
X150166667Y-95349125D02*
X150128571Y-95425316D01*
X150128571Y-95425316D02*
X150128571Y-95539601D01*
X150128571Y-95539601D02*
X150166667Y-95615792D01*
X150166667Y-95615792D02*
X150204762Y-95653887D01*
X150204762Y-95653887D02*
X150280952Y-95691982D01*
X150280952Y-95691982D02*
X150585714Y-95691982D01*
X149861905Y-95272935D02*
X149366667Y-95272935D01*
X149366667Y-95272935D02*
X149633333Y-95577697D01*
X149633333Y-95577697D02*
X149519048Y-95577697D01*
X149519048Y-95577697D02*
X149442857Y-95615792D01*
X149442857Y-95615792D02*
X149404762Y-95653887D01*
X149404762Y-95653887D02*
X149366667Y-95730078D01*
X149366667Y-95730078D02*
X149366667Y-95920554D01*
X149366667Y-95920554D02*
X149404762Y-95996744D01*
X149404762Y-95996744D02*
X149442857Y-96034840D01*
X149442857Y-96034840D02*
X149519048Y-96072935D01*
X149519048Y-96072935D02*
X149747619Y-96072935D01*
X149747619Y-96072935D02*
X149823810Y-96034840D01*
X149823810Y-96034840D02*
X149861905Y-95996744D01*
X149023809Y-95653887D02*
X148414286Y-95653887D01*
X148414286Y-95882459D02*
X149023809Y-95882459D01*
X147919048Y-96072935D02*
X147995238Y-96034840D01*
X147995238Y-96034840D02*
X148033333Y-95996744D01*
X148033333Y-95996744D02*
X148071429Y-95920554D01*
X148071429Y-95920554D02*
X148071429Y-95691982D01*
X148071429Y-95691982D02*
X148033333Y-95615792D01*
X148033333Y-95615792D02*
X147995238Y-95577697D01*
X147995238Y-95577697D02*
X147919048Y-95539601D01*
X147919048Y-95539601D02*
X147804762Y-95539601D01*
X147804762Y-95539601D02*
X147728571Y-95577697D01*
X147728571Y-95577697D02*
X147690476Y-95615792D01*
X147690476Y-95615792D02*
X147652381Y-95691982D01*
X147652381Y-95691982D02*
X147652381Y-95920554D01*
X147652381Y-95920554D02*
X147690476Y-95996744D01*
X147690476Y-95996744D02*
X147728571Y-96034840D01*
X147728571Y-96034840D02*
X147804762Y-96072935D01*
X147804762Y-96072935D02*
X147919048Y-96072935D01*
X147309523Y-95539601D02*
X147309523Y-96339601D01*
X147309523Y-95577697D02*
X147233333Y-95539601D01*
X147233333Y-95539601D02*
X147080952Y-95539601D01*
X147080952Y-95539601D02*
X147004761Y-95577697D01*
X147004761Y-95577697D02*
X146966666Y-95615792D01*
X146966666Y-95615792D02*
X146928571Y-95691982D01*
X146928571Y-95691982D02*
X146928571Y-95920554D01*
X146928571Y-95920554D02*
X146966666Y-95996744D01*
X146966666Y-95996744D02*
X147004761Y-96034840D01*
X147004761Y-96034840D02*
X147080952Y-96072935D01*
X147080952Y-96072935D02*
X147233333Y-96072935D01*
X147233333Y-96072935D02*
X147309523Y-96034840D01*
X146280951Y-96034840D02*
X146357142Y-96072935D01*
X146357142Y-96072935D02*
X146509523Y-96072935D01*
X146509523Y-96072935D02*
X146585713Y-96034840D01*
X146585713Y-96034840D02*
X146623809Y-95958649D01*
X146623809Y-95958649D02*
X146623809Y-95653887D01*
X146623809Y-95653887D02*
X146585713Y-95577697D01*
X146585713Y-95577697D02*
X146509523Y-95539601D01*
X146509523Y-95539601D02*
X146357142Y-95539601D01*
X146357142Y-95539601D02*
X146280951Y-95577697D01*
X146280951Y-95577697D02*
X146242856Y-95653887D01*
X146242856Y-95653887D02*
X146242856Y-95730078D01*
X146242856Y-95730078D02*
X146623809Y-95806268D01*
X145899999Y-95539601D02*
X145899999Y-96072935D01*
X145899999Y-95615792D02*
X145861904Y-95577697D01*
X145861904Y-95577697D02*
X145785714Y-95539601D01*
X145785714Y-95539601D02*
X145671428Y-95539601D01*
X145671428Y-95539601D02*
X145595237Y-95577697D01*
X145595237Y-95577697D02*
X145557142Y-95653887D01*
X145557142Y-95653887D02*
X145557142Y-96072935D01*
X145138094Y-96034840D02*
X145138094Y-96072935D01*
X145138094Y-96072935D02*
X145176189Y-96149125D01*
X145176189Y-96149125D02*
X145214285Y-96187220D01*
X143957142Y-95272935D02*
X143957142Y-95844363D01*
X143957142Y-95844363D02*
X143995237Y-95958649D01*
X143995237Y-95958649D02*
X144071428Y-96034840D01*
X144071428Y-96034840D02*
X144185713Y-96072935D01*
X144185713Y-96072935D02*
X144261904Y-96072935D01*
X143576189Y-96072935D02*
X143576189Y-95272935D01*
X143576189Y-95272935D02*
X143271427Y-95272935D01*
X143271427Y-95272935D02*
X143195237Y-95311030D01*
X143195237Y-95311030D02*
X143157142Y-95349125D01*
X143157142Y-95349125D02*
X143119046Y-95425316D01*
X143119046Y-95425316D02*
X143119046Y-95539601D01*
X143119046Y-95539601D02*
X143157142Y-95615792D01*
X143157142Y-95615792D02*
X143195237Y-95653887D01*
X143195237Y-95653887D02*
X143271427Y-95691982D01*
X143271427Y-95691982D02*
X143576189Y-95691982D01*
X142433332Y-95539601D02*
X142433332Y-96072935D01*
X142623808Y-95234840D02*
X142814285Y-95806268D01*
X142814285Y-95806268D02*
X142319046Y-95806268D01*
X142014284Y-95653887D02*
X141404761Y-95653887D01*
X141404761Y-95882459D02*
X142014284Y-95882459D01*
X140909523Y-96072935D02*
X140985713Y-96034840D01*
X140985713Y-96034840D02*
X141023808Y-95996744D01*
X141023808Y-95996744D02*
X141061904Y-95920554D01*
X141061904Y-95920554D02*
X141061904Y-95691982D01*
X141061904Y-95691982D02*
X141023808Y-95615792D01*
X141023808Y-95615792D02*
X140985713Y-95577697D01*
X140985713Y-95577697D02*
X140909523Y-95539601D01*
X140909523Y-95539601D02*
X140795237Y-95539601D01*
X140795237Y-95539601D02*
X140719046Y-95577697D01*
X140719046Y-95577697D02*
X140680951Y-95615792D01*
X140680951Y-95615792D02*
X140642856Y-95691982D01*
X140642856Y-95691982D02*
X140642856Y-95920554D01*
X140642856Y-95920554D02*
X140680951Y-95996744D01*
X140680951Y-95996744D02*
X140719046Y-96034840D01*
X140719046Y-96034840D02*
X140795237Y-96072935D01*
X140795237Y-96072935D02*
X140909523Y-96072935D01*
X140299998Y-95539601D02*
X140299998Y-96339601D01*
X140299998Y-95577697D02*
X140223808Y-95539601D01*
X140223808Y-95539601D02*
X140071427Y-95539601D01*
X140071427Y-95539601D02*
X139995236Y-95577697D01*
X139995236Y-95577697D02*
X139957141Y-95615792D01*
X139957141Y-95615792D02*
X139919046Y-95691982D01*
X139919046Y-95691982D02*
X139919046Y-95920554D01*
X139919046Y-95920554D02*
X139957141Y-95996744D01*
X139957141Y-95996744D02*
X139995236Y-96034840D01*
X139995236Y-96034840D02*
X140071427Y-96072935D01*
X140071427Y-96072935D02*
X140223808Y-96072935D01*
X140223808Y-96072935D02*
X140299998Y-96034840D01*
X139271426Y-96034840D02*
X139347617Y-96072935D01*
X139347617Y-96072935D02*
X139499998Y-96072935D01*
X139499998Y-96072935D02*
X139576188Y-96034840D01*
X139576188Y-96034840D02*
X139614284Y-95958649D01*
X139614284Y-95958649D02*
X139614284Y-95653887D01*
X139614284Y-95653887D02*
X139576188Y-95577697D01*
X139576188Y-95577697D02*
X139499998Y-95539601D01*
X139499998Y-95539601D02*
X139347617Y-95539601D01*
X139347617Y-95539601D02*
X139271426Y-95577697D01*
X139271426Y-95577697D02*
X139233331Y-95653887D01*
X139233331Y-95653887D02*
X139233331Y-95730078D01*
X139233331Y-95730078D02*
X139614284Y-95806268D01*
X138890474Y-95539601D02*
X138890474Y-96072935D01*
X138890474Y-95615792D02*
X138852379Y-95577697D01*
X138852379Y-95577697D02*
X138776189Y-95539601D01*
X138776189Y-95539601D02*
X138661903Y-95539601D01*
X138661903Y-95539601D02*
X138585712Y-95577697D01*
X138585712Y-95577697D02*
X138547617Y-95653887D01*
X138547617Y-95653887D02*
X138547617Y-96072935D01*
X129521063Y-99827858D02*
X129787730Y-99446905D01*
X129978206Y-99827858D02*
X129978206Y-99027858D01*
X129978206Y-99027858D02*
X129673444Y-99027858D01*
X129673444Y-99027858D02*
X129597254Y-99065953D01*
X129597254Y-99065953D02*
X129559159Y-99104048D01*
X129559159Y-99104048D02*
X129521063Y-99180239D01*
X129521063Y-99180239D02*
X129521063Y-99294524D01*
X129521063Y-99294524D02*
X129559159Y-99370715D01*
X129559159Y-99370715D02*
X129597254Y-99408810D01*
X129597254Y-99408810D02*
X129673444Y-99446905D01*
X129673444Y-99446905D02*
X129978206Y-99446905D01*
X128759159Y-99827858D02*
X129216302Y-99827858D01*
X128987730Y-99827858D02*
X128987730Y-99027858D01*
X128987730Y-99027858D02*
X129063921Y-99142143D01*
X129063921Y-99142143D02*
X129140111Y-99218334D01*
X129140111Y-99218334D02*
X129216302Y-99256429D01*
X164795935Y-102660714D02*
X164414982Y-102394047D01*
X164795935Y-102203571D02*
X163995935Y-102203571D01*
X163995935Y-102203571D02*
X163995935Y-102508333D01*
X163995935Y-102508333D02*
X164034030Y-102584523D01*
X164034030Y-102584523D02*
X164072125Y-102622618D01*
X164072125Y-102622618D02*
X164148316Y-102660714D01*
X164148316Y-102660714D02*
X164262601Y-102660714D01*
X164262601Y-102660714D02*
X164338792Y-102622618D01*
X164338792Y-102622618D02*
X164376887Y-102584523D01*
X164376887Y-102584523D02*
X164414982Y-102508333D01*
X164414982Y-102508333D02*
X164414982Y-102203571D01*
X164795935Y-103422618D02*
X164795935Y-102965475D01*
X164795935Y-103194047D02*
X163995935Y-103194047D01*
X163995935Y-103194047D02*
X164110220Y-103117856D01*
X164110220Y-103117856D02*
X164186411Y-103041666D01*
X164186411Y-103041666D02*
X164224506Y-102965475D01*
X163995935Y-103917857D02*
X163995935Y-103994047D01*
X163995935Y-103994047D02*
X164034030Y-104070238D01*
X164034030Y-104070238D02*
X164072125Y-104108333D01*
X164072125Y-104108333D02*
X164148316Y-104146428D01*
X164148316Y-104146428D02*
X164300697Y-104184523D01*
X164300697Y-104184523D02*
X164491173Y-104184523D01*
X164491173Y-104184523D02*
X164643554Y-104146428D01*
X164643554Y-104146428D02*
X164719744Y-104108333D01*
X164719744Y-104108333D02*
X164757840Y-104070238D01*
X164757840Y-104070238D02*
X164795935Y-103994047D01*
X164795935Y-103994047D02*
X164795935Y-103917857D01*
X164795935Y-103917857D02*
X164757840Y-103841666D01*
X164757840Y-103841666D02*
X164719744Y-103803571D01*
X164719744Y-103803571D02*
X164643554Y-103765476D01*
X164643554Y-103765476D02*
X164491173Y-103727380D01*
X164491173Y-103727380D02*
X164300697Y-103727380D01*
X164300697Y-103727380D02*
X164148316Y-103765476D01*
X164148316Y-103765476D02*
X164072125Y-103803571D01*
X164072125Y-103803571D02*
X164034030Y-103841666D01*
X164034030Y-103841666D02*
X163995935Y-103917857D01*
X165577841Y-108108332D02*
X165615936Y-108222618D01*
X165615936Y-108222618D02*
X165615936Y-108413094D01*
X165615936Y-108413094D02*
X165577841Y-108489285D01*
X165577841Y-108489285D02*
X165539745Y-108527380D01*
X165539745Y-108527380D02*
X165463555Y-108565475D01*
X165463555Y-108565475D02*
X165387364Y-108565475D01*
X165387364Y-108565475D02*
X165311174Y-108527380D01*
X165311174Y-108527380D02*
X165273079Y-108489285D01*
X165273079Y-108489285D02*
X165234983Y-108413094D01*
X165234983Y-108413094D02*
X165196888Y-108260713D01*
X165196888Y-108260713D02*
X165158793Y-108184523D01*
X165158793Y-108184523D02*
X165120698Y-108146428D01*
X165120698Y-108146428D02*
X165044507Y-108108332D01*
X165044507Y-108108332D02*
X164968317Y-108108332D01*
X164968317Y-108108332D02*
X164892126Y-108146428D01*
X164892126Y-108146428D02*
X164854031Y-108184523D01*
X164854031Y-108184523D02*
X164815936Y-108260713D01*
X164815936Y-108260713D02*
X164815936Y-108451190D01*
X164815936Y-108451190D02*
X164854031Y-108565475D01*
X164815936Y-108832142D02*
X165615936Y-109022618D01*
X165615936Y-109022618D02*
X165044507Y-109174999D01*
X165044507Y-109174999D02*
X165615936Y-109327380D01*
X165615936Y-109327380D02*
X164815936Y-109517857D01*
X165615936Y-110241666D02*
X165615936Y-109784523D01*
X165615936Y-110013095D02*
X164815936Y-110013095D01*
X164815936Y-110013095D02*
X164930221Y-109936904D01*
X164930221Y-109936904D02*
X165006412Y-109860714D01*
X165006412Y-109860714D02*
X165044507Y-109784523D01*
X159291906Y-100241446D02*
X159291906Y-100889065D01*
X159291906Y-100889065D02*
X159253811Y-100965255D01*
X159253811Y-100965255D02*
X159215716Y-101003351D01*
X159215716Y-101003351D02*
X159139525Y-101041446D01*
X159139525Y-101041446D02*
X158987144Y-101041446D01*
X158987144Y-101041446D02*
X158910954Y-101003351D01*
X158910954Y-101003351D02*
X158872859Y-100965255D01*
X158872859Y-100965255D02*
X158834763Y-100889065D01*
X158834763Y-100889065D02*
X158834763Y-100241446D01*
X158034764Y-101041446D02*
X158491907Y-101041446D01*
X158263335Y-101041446D02*
X158263335Y-100241446D01*
X158263335Y-100241446D02*
X158339526Y-100355731D01*
X158339526Y-100355731D02*
X158415716Y-100431922D01*
X158415716Y-100431922D02*
X158491907Y-100470017D01*
X167093736Y-94808573D02*
X167551672Y-94727761D01*
X167416985Y-95131822D02*
X167982671Y-94566136D01*
X167982671Y-94566136D02*
X167767171Y-94350637D01*
X167767171Y-94350637D02*
X167686359Y-94323700D01*
X167686359Y-94323700D02*
X167632484Y-94323700D01*
X167632484Y-94323700D02*
X167551672Y-94350637D01*
X167551672Y-94350637D02*
X167470860Y-94431449D01*
X167470860Y-94431449D02*
X167443923Y-94512261D01*
X167443923Y-94512261D02*
X167443923Y-94566136D01*
X167443923Y-94566136D02*
X167470860Y-94646948D01*
X167470860Y-94646948D02*
X167686359Y-94862448D01*
X166554988Y-94269825D02*
X166878237Y-94593074D01*
X166716613Y-94431449D02*
X167282298Y-93865764D01*
X167282298Y-93865764D02*
X167255361Y-94000451D01*
X167255361Y-94000451D02*
X167255361Y-94108200D01*
X167255361Y-94108200D02*
X167282298Y-94189013D01*
X166851300Y-93542515D02*
X166851300Y-93488640D01*
X166851300Y-93488640D02*
X166824362Y-93407828D01*
X166824362Y-93407828D02*
X166689675Y-93273141D01*
X166689675Y-93273141D02*
X166608863Y-93246203D01*
X166608863Y-93246203D02*
X166554988Y-93246203D01*
X166554988Y-93246203D02*
X166474176Y-93273141D01*
X166474176Y-93273141D02*
X166420301Y-93327016D01*
X166420301Y-93327016D02*
X166366426Y-93434765D01*
X166366426Y-93434765D02*
X166366426Y-94081263D01*
X166366426Y-94081263D02*
X166016240Y-93731077D01*
X151865935Y-100041667D02*
X151484982Y-99775000D01*
X151865935Y-99584524D02*
X151065935Y-99584524D01*
X151065935Y-99584524D02*
X151065935Y-99889286D01*
X151065935Y-99889286D02*
X151104030Y-99965476D01*
X151104030Y-99965476D02*
X151142125Y-100003571D01*
X151142125Y-100003571D02*
X151218316Y-100041667D01*
X151218316Y-100041667D02*
X151332601Y-100041667D01*
X151332601Y-100041667D02*
X151408792Y-100003571D01*
X151408792Y-100003571D02*
X151446887Y-99965476D01*
X151446887Y-99965476D02*
X151484982Y-99889286D01*
X151484982Y-99889286D02*
X151484982Y-99584524D01*
X151865935Y-100422619D02*
X151865935Y-100575000D01*
X151865935Y-100575000D02*
X151827840Y-100651190D01*
X151827840Y-100651190D02*
X151789744Y-100689286D01*
X151789744Y-100689286D02*
X151675459Y-100765476D01*
X151675459Y-100765476D02*
X151523078Y-100803571D01*
X151523078Y-100803571D02*
X151218316Y-100803571D01*
X151218316Y-100803571D02*
X151142125Y-100765476D01*
X151142125Y-100765476D02*
X151104030Y-100727381D01*
X151104030Y-100727381D02*
X151065935Y-100651190D01*
X151065935Y-100651190D02*
X151065935Y-100498809D01*
X151065935Y-100498809D02*
X151104030Y-100422619D01*
X151104030Y-100422619D02*
X151142125Y-100384524D01*
X151142125Y-100384524D02*
X151218316Y-100346428D01*
X151218316Y-100346428D02*
X151408792Y-100346428D01*
X151408792Y-100346428D02*
X151484982Y-100384524D01*
X151484982Y-100384524D02*
X151523078Y-100422619D01*
X151523078Y-100422619D02*
X151561173Y-100498809D01*
X151561173Y-100498809D02*
X151561173Y-100651190D01*
X151561173Y-100651190D02*
X151523078Y-100727381D01*
X151523078Y-100727381D02*
X151484982Y-100765476D01*
X151484982Y-100765476D02*
X151408792Y-100803571D01*
X137514285Y-111040935D02*
X137780952Y-110659982D01*
X137971428Y-111040935D02*
X137971428Y-110240935D01*
X137971428Y-110240935D02*
X137666666Y-110240935D01*
X137666666Y-110240935D02*
X137590476Y-110279030D01*
X137590476Y-110279030D02*
X137552381Y-110317125D01*
X137552381Y-110317125D02*
X137514285Y-110393316D01*
X137514285Y-110393316D02*
X137514285Y-110507601D01*
X137514285Y-110507601D02*
X137552381Y-110583792D01*
X137552381Y-110583792D02*
X137590476Y-110621887D01*
X137590476Y-110621887D02*
X137666666Y-110659982D01*
X137666666Y-110659982D02*
X137971428Y-110659982D01*
X136752381Y-111040935D02*
X137209524Y-111040935D01*
X136980952Y-111040935D02*
X136980952Y-110240935D01*
X136980952Y-110240935D02*
X137057143Y-110355220D01*
X137057143Y-110355220D02*
X137133333Y-110431411D01*
X137133333Y-110431411D02*
X137209524Y-110469506D01*
X135990476Y-111040935D02*
X136447619Y-111040935D01*
X136219047Y-111040935D02*
X136219047Y-110240935D01*
X136219047Y-110240935D02*
X136295238Y-110355220D01*
X136295238Y-110355220D02*
X136371428Y-110431411D01*
X136371428Y-110431411D02*
X136447619Y-110469506D01*
X153865935Y-100041667D02*
X153484982Y-99775000D01*
X153865935Y-99584524D02*
X153065935Y-99584524D01*
X153065935Y-99584524D02*
X153065935Y-99889286D01*
X153065935Y-99889286D02*
X153104030Y-99965476D01*
X153104030Y-99965476D02*
X153142125Y-100003571D01*
X153142125Y-100003571D02*
X153218316Y-100041667D01*
X153218316Y-100041667D02*
X153332601Y-100041667D01*
X153332601Y-100041667D02*
X153408792Y-100003571D01*
X153408792Y-100003571D02*
X153446887Y-99965476D01*
X153446887Y-99965476D02*
X153484982Y-99889286D01*
X153484982Y-99889286D02*
X153484982Y-99584524D01*
X153065935Y-100308333D02*
X153065935Y-100841667D01*
X153065935Y-100841667D02*
X153865935Y-100498809D01*
X128647231Y-107807317D02*
X128913898Y-107426364D01*
X129104374Y-107807317D02*
X129104374Y-107007317D01*
X129104374Y-107007317D02*
X128799612Y-107007317D01*
X128799612Y-107007317D02*
X128723422Y-107045412D01*
X128723422Y-107045412D02*
X128685327Y-107083507D01*
X128685327Y-107083507D02*
X128647231Y-107159698D01*
X128647231Y-107159698D02*
X128647231Y-107273983D01*
X128647231Y-107273983D02*
X128685327Y-107350174D01*
X128685327Y-107350174D02*
X128723422Y-107388269D01*
X128723422Y-107388269D02*
X128799612Y-107426364D01*
X128799612Y-107426364D02*
X129104374Y-107426364D01*
X128342470Y-107083507D02*
X128304374Y-107045412D01*
X128304374Y-107045412D02*
X128228184Y-107007317D01*
X128228184Y-107007317D02*
X128037708Y-107007317D01*
X128037708Y-107007317D02*
X127961517Y-107045412D01*
X127961517Y-107045412D02*
X127923422Y-107083507D01*
X127923422Y-107083507D02*
X127885327Y-107159698D01*
X127885327Y-107159698D02*
X127885327Y-107235888D01*
X127885327Y-107235888D02*
X127923422Y-107350174D01*
X127923422Y-107350174D02*
X128380565Y-107807317D01*
X128380565Y-107807317D02*
X127885327Y-107807317D01*
X149865935Y-100041667D02*
X149484982Y-99775000D01*
X149865935Y-99584524D02*
X149065935Y-99584524D01*
X149065935Y-99584524D02*
X149065935Y-99889286D01*
X149065935Y-99889286D02*
X149104030Y-99965476D01*
X149104030Y-99965476D02*
X149142125Y-100003571D01*
X149142125Y-100003571D02*
X149218316Y-100041667D01*
X149218316Y-100041667D02*
X149332601Y-100041667D01*
X149332601Y-100041667D02*
X149408792Y-100003571D01*
X149408792Y-100003571D02*
X149446887Y-99965476D01*
X149446887Y-99965476D02*
X149484982Y-99889286D01*
X149484982Y-99889286D02*
X149484982Y-99584524D01*
X149065935Y-100727381D02*
X149065935Y-100575000D01*
X149065935Y-100575000D02*
X149104030Y-100498809D01*
X149104030Y-100498809D02*
X149142125Y-100460714D01*
X149142125Y-100460714D02*
X149256411Y-100384524D01*
X149256411Y-100384524D02*
X149408792Y-100346428D01*
X149408792Y-100346428D02*
X149713554Y-100346428D01*
X149713554Y-100346428D02*
X149789744Y-100384524D01*
X149789744Y-100384524D02*
X149827840Y-100422619D01*
X149827840Y-100422619D02*
X149865935Y-100498809D01*
X149865935Y-100498809D02*
X149865935Y-100651190D01*
X149865935Y-100651190D02*
X149827840Y-100727381D01*
X149827840Y-100727381D02*
X149789744Y-100765476D01*
X149789744Y-100765476D02*
X149713554Y-100803571D01*
X149713554Y-100803571D02*
X149523078Y-100803571D01*
X149523078Y-100803571D02*
X149446887Y-100765476D01*
X149446887Y-100765476D02*
X149408792Y-100727381D01*
X149408792Y-100727381D02*
X149370697Y-100651190D01*
X149370697Y-100651190D02*
X149370697Y-100498809D01*
X149370697Y-100498809D02*
X149408792Y-100422619D01*
X149408792Y-100422619D02*
X149446887Y-100384524D01*
X149446887Y-100384524D02*
X149523078Y-100346428D01*
X163666666Y-99191887D02*
X163933332Y-99191887D01*
X163933332Y-99610935D02*
X163933332Y-98810935D01*
X163933332Y-98810935D02*
X163552380Y-98810935D01*
X162980952Y-99191887D02*
X162866666Y-99229982D01*
X162866666Y-99229982D02*
X162828571Y-99268078D01*
X162828571Y-99268078D02*
X162790475Y-99344268D01*
X162790475Y-99344268D02*
X162790475Y-99458554D01*
X162790475Y-99458554D02*
X162828571Y-99534744D01*
X162828571Y-99534744D02*
X162866666Y-99572840D01*
X162866666Y-99572840D02*
X162942856Y-99610935D01*
X162942856Y-99610935D02*
X163247618Y-99610935D01*
X163247618Y-99610935D02*
X163247618Y-98810935D01*
X163247618Y-98810935D02*
X162980952Y-98810935D01*
X162980952Y-98810935D02*
X162904761Y-98849030D01*
X162904761Y-98849030D02*
X162866666Y-98887125D01*
X162866666Y-98887125D02*
X162828571Y-98963316D01*
X162828571Y-98963316D02*
X162828571Y-99039506D01*
X162828571Y-99039506D02*
X162866666Y-99115697D01*
X162866666Y-99115697D02*
X162904761Y-99153792D01*
X162904761Y-99153792D02*
X162980952Y-99191887D01*
X162980952Y-99191887D02*
X163247618Y-99191887D01*
X162028571Y-99610935D02*
X162485714Y-99610935D01*
X162257142Y-99610935D02*
X162257142Y-98810935D01*
X162257142Y-98810935D02*
X162333333Y-98925220D01*
X162333333Y-98925220D02*
X162409523Y-99001411D01*
X162409523Y-99001411D02*
X162485714Y-99039506D01*
X164783145Y-92169462D02*
X165241081Y-92088650D01*
X165106394Y-92492711D02*
X165672080Y-91927025D01*
X165672080Y-91927025D02*
X165456580Y-91711526D01*
X165456580Y-91711526D02*
X165375768Y-91684589D01*
X165375768Y-91684589D02*
X165321893Y-91684589D01*
X165321893Y-91684589D02*
X165241081Y-91711526D01*
X165241081Y-91711526D02*
X165160269Y-91792338D01*
X165160269Y-91792338D02*
X165133332Y-91873150D01*
X165133332Y-91873150D02*
X165133332Y-91927025D01*
X165133332Y-91927025D02*
X165160269Y-92007837D01*
X165160269Y-92007837D02*
X165375768Y-92223337D01*
X164244397Y-91630714D02*
X164567646Y-91953963D01*
X164406022Y-91792338D02*
X164971707Y-91226653D01*
X164971707Y-91226653D02*
X164944770Y-91361340D01*
X164944770Y-91361340D02*
X164944770Y-91469089D01*
X164944770Y-91469089D02*
X164971707Y-91549902D01*
X164621521Y-90876466D02*
X164271335Y-90526280D01*
X164271335Y-90526280D02*
X164244397Y-90930341D01*
X164244397Y-90930341D02*
X164163585Y-90849529D01*
X164163585Y-90849529D02*
X164082773Y-90822592D01*
X164082773Y-90822592D02*
X164028898Y-90822592D01*
X164028898Y-90822592D02*
X163948086Y-90849529D01*
X163948086Y-90849529D02*
X163813399Y-90984216D01*
X163813399Y-90984216D02*
X163786461Y-91065028D01*
X163786461Y-91065028D02*
X163786461Y-91118903D01*
X163786461Y-91118903D02*
X163813399Y-91199715D01*
X163813399Y-91199715D02*
X163975023Y-91361340D01*
X163975023Y-91361340D02*
X164055835Y-91388277D01*
X164055835Y-91388277D02*
X164109710Y-91388277D01*
X154891087Y-99521416D02*
X154929183Y-99559512D01*
X154929183Y-99559512D02*
X155043468Y-99597607D01*
X155043468Y-99597607D02*
X155119659Y-99597607D01*
X155119659Y-99597607D02*
X155233945Y-99559512D01*
X155233945Y-99559512D02*
X155310135Y-99483321D01*
X155310135Y-99483321D02*
X155348230Y-99407131D01*
X155348230Y-99407131D02*
X155386326Y-99254750D01*
X155386326Y-99254750D02*
X155386326Y-99140464D01*
X155386326Y-99140464D02*
X155348230Y-98988083D01*
X155348230Y-98988083D02*
X155310135Y-98911892D01*
X155310135Y-98911892D02*
X155233945Y-98835702D01*
X155233945Y-98835702D02*
X155119659Y-98797607D01*
X155119659Y-98797607D02*
X155043468Y-98797607D01*
X155043468Y-98797607D02*
X154929183Y-98835702D01*
X154929183Y-98835702D02*
X154891087Y-98873797D01*
X154205373Y-98797607D02*
X154357754Y-98797607D01*
X154357754Y-98797607D02*
X154433945Y-98835702D01*
X154433945Y-98835702D02*
X154472040Y-98873797D01*
X154472040Y-98873797D02*
X154548230Y-98988083D01*
X154548230Y-98988083D02*
X154586326Y-99140464D01*
X154586326Y-99140464D02*
X154586326Y-99445226D01*
X154586326Y-99445226D02*
X154548230Y-99521416D01*
X154548230Y-99521416D02*
X154510135Y-99559512D01*
X154510135Y-99559512D02*
X154433945Y-99597607D01*
X154433945Y-99597607D02*
X154281564Y-99597607D01*
X154281564Y-99597607D02*
X154205373Y-99559512D01*
X154205373Y-99559512D02*
X154167278Y-99521416D01*
X154167278Y-99521416D02*
X154129183Y-99445226D01*
X154129183Y-99445226D02*
X154129183Y-99254750D01*
X154129183Y-99254750D02*
X154167278Y-99178559D01*
X154167278Y-99178559D02*
X154205373Y-99140464D01*
X154205373Y-99140464D02*
X154281564Y-99102369D01*
X154281564Y-99102369D02*
X154433945Y-99102369D01*
X154433945Y-99102369D02*
X154510135Y-99140464D01*
X154510135Y-99140464D02*
X154548230Y-99178559D01*
X154548230Y-99178559D02*
X154586326Y-99254750D01*
X160533269Y-100618069D02*
X160571365Y-100656165D01*
X160571365Y-100656165D02*
X160685650Y-100694260D01*
X160685650Y-100694260D02*
X160761841Y-100694260D01*
X160761841Y-100694260D02*
X160876127Y-100656165D01*
X160876127Y-100656165D02*
X160952317Y-100579974D01*
X160952317Y-100579974D02*
X160990412Y-100503784D01*
X160990412Y-100503784D02*
X161028508Y-100351403D01*
X161028508Y-100351403D02*
X161028508Y-100237117D01*
X161028508Y-100237117D02*
X160990412Y-100084736D01*
X160990412Y-100084736D02*
X160952317Y-100008545D01*
X160952317Y-100008545D02*
X160876127Y-99932355D01*
X160876127Y-99932355D02*
X160761841Y-99894260D01*
X160761841Y-99894260D02*
X160685650Y-99894260D01*
X160685650Y-99894260D02*
X160571365Y-99932355D01*
X160571365Y-99932355D02*
X160533269Y-99970450D01*
X160266603Y-99894260D02*
X159733269Y-99894260D01*
X159733269Y-99894260D02*
X160076127Y-100694260D01*
D12*
%TO.C,R1*%
X129262742Y-100152500D02*
X129737258Y-100152500D01*
X129262742Y-101197500D02*
X129737258Y-101197500D01*
%TO.C,R10*%
X162477500Y-103412258D02*
X162477500Y-102937742D01*
X163522500Y-103412258D02*
X163522500Y-102937742D01*
%TO.C,SW1*%
X166250000Y-107925000D02*
X166250000Y-110425000D01*
X166700000Y-107475000D02*
X166250000Y-107925000D01*
X166700000Y-110875000D02*
X166250000Y-110425000D01*
X168000000Y-106425000D02*
X170000000Y-106425000D01*
X168000000Y-111925000D02*
X170000000Y-111925000D01*
X171300000Y-107475000D02*
X171750000Y-107925000D01*
X171300000Y-110875000D02*
X171750000Y-110425000D01*
X171750000Y-107925000D02*
X171750000Y-110425000D01*
%TO.C,U1*%
X155690000Y-101627500D02*
X155690000Y-102527500D01*
X155690000Y-105947500D02*
X155690000Y-106847500D01*
X155690000Y-106847500D02*
X156590000Y-106847500D01*
X156590000Y-101627500D02*
X155690000Y-101627500D01*
X160010000Y-106847500D02*
X160910000Y-106847500D01*
X160910000Y-101627500D02*
X160010000Y-101627500D01*
X160910000Y-102527500D02*
X160910000Y-101627500D01*
X160910000Y-106847500D02*
X160910000Y-105947500D01*
X161740000Y-103177500D02*
X161410000Y-102937500D01*
X161740000Y-102697500D01*
X161740000Y-103177500D01*
G36*
X161740000Y-103177500D02*
G01*
X161410000Y-102937500D01*
X161740000Y-102697500D01*
X161740000Y-103177500D01*
G37*
%TO.C,R12*%
X167462770Y-93376697D02*
X167798303Y-93712230D01*
X168201697Y-92637770D02*
X168537230Y-92973303D01*
%TO.C,R9*%
X150977500Y-102437742D02*
X150977500Y-102912258D01*
X152022500Y-102437742D02*
X152022500Y-102912258D01*
%TO.C,R11*%
X139737258Y-110152500D02*
X139262742Y-110152500D01*
X139737258Y-111197500D02*
X139262742Y-111197500D01*
%TO.C,R7*%
X152977500Y-102437742D02*
X152977500Y-102912258D01*
X154022500Y-102437742D02*
X154022500Y-102912258D01*
%TO.C,R2*%
X128262742Y-108152500D02*
X128737258Y-108152500D01*
X128262742Y-109197500D02*
X128737258Y-109197500D01*
%TO.C,R6*%
X148977500Y-102437742D02*
X148977500Y-102912258D01*
X150022500Y-102437742D02*
X150022500Y-102912258D01*
%TO.C,FB1*%
X163162779Y-100165000D02*
X162837221Y-100165000D01*
X163162779Y-101185000D02*
X162837221Y-101185000D01*
%TO.C,R13*%
X165298303Y-91212230D02*
X164962770Y-90876697D01*
X166037230Y-90473303D02*
X165701697Y-90137770D01*
%TO.C,C6*%
X156859419Y-98665000D02*
X157140581Y-98665000D01*
X156859419Y-99685000D02*
X157140581Y-99685000D01*
%TO.C,C7*%
X159940471Y-98589451D02*
X160221633Y-98589451D01*
X159940471Y-99609451D02*
X160221633Y-99609451D01*
%TD*%
M02*
