%TF.GenerationSoftware,KiCad,Pcbnew,9.0.5*%
%TF.CreationDate,2025-10-31T19:38:18+05:30*%
%TF.ProjectId,MoistureSensor,4d6f6973-7475-4726-9553-656e736f722e,rev?*%
%TF.SameCoordinates,Original*%
%TF.FileFunction,Paste,Bot*%
%TF.FilePolarity,Positive*%
%FSLAX46Y46*%
G04 Gerber Fmt 4.6, Leading zero omitted, Abs format (unit mm)*
G04 Created by KiCad (PCBNEW 9.0.5) date 2025-10-31 19:38:18*
%MOMM*%
%LPD*%
G01*
G04 APERTURE LIST*
G04 Aperture macros list*
%AMRoundRect*
0 Rectangle with rounded corners*
0 $1 Rounding radius*
0 $2 $3 $4 $5 $6 $7 $8 $9 X,Y pos of 4 corners*
0 Add a 4 corners polygon primitive as box body*
4,1,4,$2,$3,$4,$5,$6,$7,$8,$9,$2,$3,0*
0 Add four circle primitives for the rounded corners*
1,1,$1+$1,$2,$3*
1,1,$1+$1,$4,$5*
1,1,$1+$1,$6,$7*
1,1,$1+$1,$8,$9*
0 Add four rect primitives between the rounded corners*
20,1,$1+$1,$2,$3,$4,$5,0*
20,1,$1+$1,$4,$5,$6,$7,0*
20,1,$1+$1,$6,$7,$8,$9,0*
20,1,$1+$1,$8,$9,$2,$3,0*%
G04 Aperture macros list end*
%ADD10RoundRect,0.200000X-0.200000X-0.275000X0.200000X-0.275000X0.200000X0.275000X-0.200000X0.275000X0*%
%ADD11RoundRect,0.200000X0.275000X-0.200000X0.275000X0.200000X-0.275000X0.200000X-0.275000X-0.200000X0*%
%ADD12R,1.000000X1.700000*%
%ADD13RoundRect,0.250000X0.405000X0.405000X-0.405000X0.405000X-0.405000X-0.405000X0.405000X-0.405000X0*%
%ADD14RoundRect,0.075000X0.337500X0.075000X-0.337500X0.075000X-0.337500X-0.075000X0.337500X-0.075000X0*%
%ADD15RoundRect,0.075000X0.075000X0.337500X-0.075000X0.337500X-0.075000X-0.337500X0.075000X-0.337500X0*%
%ADD16RoundRect,0.200000X-0.335876X-0.053033X-0.053033X-0.335876X0.335876X0.053033X0.053033X0.335876X0*%
%ADD17RoundRect,0.200000X-0.275000X0.200000X-0.275000X-0.200000X0.275000X-0.200000X0.275000X0.200000X0*%
%ADD18RoundRect,0.200000X0.200000X0.275000X-0.200000X0.275000X-0.200000X-0.275000X0.200000X-0.275000X0*%
%ADD19RoundRect,0.218750X0.218750X0.256250X-0.218750X0.256250X-0.218750X-0.256250X0.218750X-0.256250X0*%
%ADD20RoundRect,0.200000X0.335876X0.053033X0.053033X0.335876X-0.335876X-0.053033X-0.053033X-0.335876X0*%
%ADD21RoundRect,0.225000X-0.225000X-0.250000X0.225000X-0.250000X0.225000X0.250000X-0.225000X0.250000X0*%
G04 APERTURE END LIST*
D10*
%TO.C,R1*%
X128675000Y-100675000D03*
X130325000Y-100675000D03*
%TD*%
D11*
%TO.C,R10*%
X163000000Y-104000000D03*
X163000000Y-102350000D03*
%TD*%
D12*
%TO.C,SW1*%
X167100000Y-106025001D03*
X167100000Y-112324999D03*
X170900000Y-106025001D03*
X170900000Y-112324999D03*
%TD*%
D13*
%TO.C,U1*%
X159110000Y-105047500D03*
X159110000Y-103427500D03*
X157490000Y-105047500D03*
X157490000Y-103427500D03*
D14*
X160737500Y-102937500D03*
X160737500Y-103587500D03*
X160737500Y-104237500D03*
X160737500Y-104887500D03*
X160737500Y-105537500D03*
D15*
X159600000Y-106675000D03*
X158950000Y-106675000D03*
X158300000Y-106675000D03*
X157650000Y-106675000D03*
X157000000Y-106675000D03*
D14*
X155862500Y-105537500D03*
X155862500Y-104887500D03*
X155862500Y-104237500D03*
X155862500Y-103587500D03*
X155862500Y-102937500D03*
D15*
X157000000Y-101800000D03*
X157650000Y-101800000D03*
X158300000Y-101800000D03*
X158950000Y-101800000D03*
X159600000Y-101800000D03*
%TD*%
D16*
%TO.C,R12*%
X167416637Y-92591637D03*
X168583363Y-93758363D03*
%TD*%
D17*
%TO.C,R9*%
X151500000Y-101850000D03*
X151500000Y-103500000D03*
%TD*%
D18*
%TO.C,R11*%
X140325000Y-110675000D03*
X138675000Y-110675000D03*
%TD*%
D17*
%TO.C,R7*%
X153500000Y-101850000D03*
X153500000Y-103500000D03*
%TD*%
D10*
%TO.C,R2*%
X127675000Y-108675000D03*
X129325000Y-108675000D03*
%TD*%
D17*
%TO.C,R6*%
X149500000Y-101850000D03*
X149500000Y-103500000D03*
%TD*%
D19*
%TO.C,FB1*%
X163787500Y-100675000D03*
X162212500Y-100675000D03*
%TD*%
D20*
%TO.C,R13*%
X166083363Y-91258363D03*
X164916637Y-90091637D03*
%TD*%
D21*
%TO.C,C6*%
X156225000Y-99175000D03*
X157775000Y-99175000D03*
%TD*%
%TO.C,C7*%
X159306052Y-99099451D03*
X160856052Y-99099451D03*
%TD*%
M02*
