%TF.GenerationSoftware,KiCad,Pcbnew,9.0.5*%
%TF.CreationDate,2025-10-31T19:38:18+05:30*%
%TF.ProjectId,MoistureSensor,4d6f6973-7475-4726-9553-656e736f722e,rev?*%
%TF.SameCoordinates,Original*%
%TF.FileFunction,Copper,L1,Top*%
%TF.FilePolarity,Positive*%
%FSLAX46Y46*%
G04 Gerber Fmt 4.6, Leading zero omitted, Abs format (unit mm)*
G04 Created by KiCad (PCBNEW 9.0.5) date 2025-10-31 19:38:18*
%MOMM*%
%LPD*%
G01*
G04 APERTURE LIST*
G04 Aperture macros list*
%AMRoundRect*
0 Rectangle with rounded corners*
0 $1 Rounding radius*
0 $2 $3 $4 $5 $6 $7 $8 $9 X,Y pos of 4 corners*
0 Add a 4 corners polygon primitive as box body*
4,1,4,$2,$3,$4,$5,$6,$7,$8,$9,$2,$3,0*
0 Add four circle primitives for the rounded corners*
1,1,$1+$1,$2,$3*
1,1,$1+$1,$4,$5*
1,1,$1+$1,$6,$7*
1,1,$1+$1,$8,$9*
0 Add four rect primitives between the rounded corners*
20,1,$1+$1,$2,$3,$4,$5,0*
20,1,$1+$1,$4,$5,$6,$7,0*
20,1,$1+$1,$6,$7,$8,$9,0*
20,1,$1+$1,$8,$9,$2,$3,0*%
%AMHorizOval*
0 Thick line with rounded ends*
0 $1 width*
0 $2 $3 position (X,Y) of the first rounded end (center of the circle)*
0 $4 $5 position (X,Y) of the second rounded end (center of the circle)*
0 Add line between two ends*
20,1,$1,$2,$3,$4,$5,0*
0 Add two circle primitives to create the rounded ends*
1,1,$1,$2,$3*
1,1,$1,$4,$5*%
%AMRotRect*
0 Rectangle, with rotation*
0 The origin of the aperture is its center*
0 $1 length*
0 $2 width*
0 $3 Rotation angle, in degrees counterclockwise*
0 Add horizontal line*
21,1,$1,$2,0,0,$3*%
G04 Aperture macros list end*
%TA.AperFunction,EtchedComponent*%
%ADD10C,0.000000*%
%TD*%
%TA.AperFunction,SMDPad,CuDef*%
%ADD11RoundRect,0.250000X-0.250000X-0.475000X0.250000X-0.475000X0.250000X0.475000X-0.250000X0.475000X0*%
%TD*%
%TA.AperFunction,SMDPad,CuDef*%
%ADD12RoundRect,0.250000X-0.375000X-0.625000X0.375000X-0.625000X0.375000X0.625000X-0.375000X0.625000X0*%
%TD*%
%TA.AperFunction,SMDPad,CuDef*%
%ADD13RoundRect,0.225000X0.225000X0.250000X-0.225000X0.250000X-0.225000X-0.250000X0.225000X-0.250000X0*%
%TD*%
%TA.AperFunction,SMDPad,CuDef*%
%ADD14RoundRect,0.150000X-0.150000X0.512500X-0.150000X-0.512500X0.150000X-0.512500X0.150000X0.512500X0*%
%TD*%
%TA.AperFunction,ComponentPad*%
%ADD15RoundRect,0.249999X-0.850001X-0.850001X0.850001X-0.850001X0.850001X0.850001X-0.850001X0.850001X0*%
%TD*%
%TA.AperFunction,ComponentPad*%
%ADD16C,2.200000*%
%TD*%
%TA.AperFunction,SMDPad,CuDef*%
%ADD17RoundRect,0.225000X-0.225000X-0.250000X0.225000X-0.250000X0.225000X0.250000X-0.225000X0.250000X0*%
%TD*%
%TA.AperFunction,SMDPad,CuDef*%
%ADD18RoundRect,0.062500X0.062500X-0.350000X0.062500X0.350000X-0.062500X0.350000X-0.062500X-0.350000X0*%
%TD*%
%TA.AperFunction,SMDPad,CuDef*%
%ADD19RoundRect,0.062500X0.350000X-0.062500X0.350000X0.062500X-0.350000X0.062500X-0.350000X-0.062500X0*%
%TD*%
%TA.AperFunction,HeatsinkPad*%
%ADD20R,2.700000X2.700000*%
%TD*%
%TA.AperFunction,ComponentPad*%
%ADD21RoundRect,0.250000X-0.194454X0.689429X-0.689429X0.194454X0.194454X-0.689429X0.689429X-0.194454X0*%
%TD*%
%TA.AperFunction,ComponentPad*%
%ADD22HorizOval,1.200000X-0.194454X0.194454X0.194454X-0.194454X0*%
%TD*%
%TA.AperFunction,ComponentPad*%
%ADD23R,1.700000X1.700000*%
%TD*%
%TA.AperFunction,ComponentPad*%
%ADD24C,1.700000*%
%TD*%
%TA.AperFunction,ComponentPad*%
%ADD25C,0.700000*%
%TD*%
%TA.AperFunction,ComponentPad*%
%ADD26O,2.400000X0.900000*%
%TD*%
%TA.AperFunction,ComponentPad*%
%ADD27O,1.700000X0.900000*%
%TD*%
%TA.AperFunction,SMDPad,CuDef*%
%ADD28R,0.800000X1.000000*%
%TD*%
%TA.AperFunction,SMDPad,CuDef*%
%ADD29R,1.500000X0.700000*%
%TD*%
%TA.AperFunction,SMDPad,CuDef*%
%ADD30RoundRect,0.200000X0.335876X0.053033X0.053033X0.335876X-0.335876X-0.053033X-0.053033X-0.335876X0*%
%TD*%
%TA.AperFunction,SMDPad,CuDef*%
%ADD31RoundRect,0.250000X0.475000X-0.250000X0.475000X0.250000X-0.475000X0.250000X-0.475000X-0.250000X0*%
%TD*%
%TA.AperFunction,SMDPad,CuDef*%
%ADD32R,1.000000X1.500000*%
%TD*%
%TA.AperFunction,SMDPad,CuDef*%
%ADD33RoundRect,0.150000X-0.512500X-0.150000X0.512500X-0.150000X0.512500X0.150000X-0.512500X0.150000X0*%
%TD*%
%TA.AperFunction,SMDPad,CuDef*%
%ADD34R,1.500000X0.900000*%
%TD*%
%TA.AperFunction,SMDPad,CuDef*%
%ADD35R,0.900000X1.500000*%
%TD*%
%TA.AperFunction,SMDPad,CuDef*%
%ADD36RoundRect,0.218750X-0.218750X-0.256250X0.218750X-0.256250X0.218750X0.256250X-0.218750X0.256250X0*%
%TD*%
%TA.AperFunction,SMDPad,CuDef*%
%ADD37RoundRect,0.062500X0.337500X0.062500X-0.337500X0.062500X-0.337500X-0.062500X0.337500X-0.062500X0*%
%TD*%
%TA.AperFunction,HeatsinkPad*%
%ADD38R,1.700000X1.400000*%
%TD*%
%TA.AperFunction,SMDPad,CuDef*%
%ADD39R,1.500000X1.000000*%
%TD*%
%TA.AperFunction,SMDPad,CuDef*%
%ADD40RoundRect,0.218750X0.026517X-0.335876X0.335876X-0.026517X-0.026517X0.335876X-0.335876X0.026517X0*%
%TD*%
%TA.AperFunction,SMDPad,CuDef*%
%ADD41RoundRect,0.250000X0.250000X0.475000X-0.250000X0.475000X-0.250000X-0.475000X0.250000X-0.475000X0*%
%TD*%
%TA.AperFunction,SMDPad,CuDef*%
%ADD42RoundRect,0.200000X0.200000X0.275000X-0.200000X0.275000X-0.200000X-0.275000X0.200000X-0.275000X0*%
%TD*%
%TA.AperFunction,ComponentPad*%
%ADD43RotRect,1.700000X1.700000X45.000000*%
%TD*%
%TA.AperFunction,SMDPad,CuDef*%
%ADD44RoundRect,0.200000X-0.200000X-0.275000X0.200000X-0.275000X0.200000X0.275000X-0.200000X0.275000X0*%
%TD*%
%TA.AperFunction,SMDPad,CuDef*%
%ADD45C,0.500000*%
%TD*%
%TA.AperFunction,ViaPad*%
%ADD46C,0.600000*%
%TD*%
%TA.AperFunction,Conductor*%
%ADD47C,0.200000*%
%TD*%
G04 APERTURE END LIST*
D10*
%TA.AperFunction,EtchedComponent*%
%TO.C,NT1*%
G36*
X140748635Y-104741976D02*
G01*
X140248635Y-104741976D01*
X140248635Y-103741976D01*
X140748635Y-103741976D01*
X140748635Y-104741976D01*
G37*
%TD.AperFunction*%
%TD*%
D11*
%TO.P,C4,1*%
%TO.N,GND*%
X140550000Y-99175000D03*
%TO.P,C4,2*%
%TO.N,Net-(SW_MAIN1-B)*%
X142450000Y-99175000D03*
%TD*%
D12*
%TO.P,F1,1*%
%TO.N,Net-(C1-Pad2)*%
X129100000Y-105175000D03*
%TO.P,F1,2*%
%TO.N,+5V*%
X131900000Y-105175000D03*
%TD*%
D13*
%TO.P,C2,1*%
%TO.N,GND*%
X138775000Y-101175000D03*
%TO.P,C2,2*%
%TO.N,+5V*%
X137225000Y-101175000D03*
%TD*%
D14*
%TO.P,U3,1,VIN*%
%TO.N,Net-(SW_MAIN1-B)*%
X145500000Y-101400000D03*
%TO.P,U3,2,GND*%
%TO.N,GND*%
X144550001Y-101400000D03*
%TO.P,U3,3,EN*%
%TO.N,Net-(SW_MAIN1-B)*%
X143600002Y-101400000D03*
%TO.P,U3,4,NC*%
%TO.N,unconnected-(U3-NC-Pad4)*%
X143600002Y-103675000D03*
%TO.P,U3,5,VOUT*%
%TO.N,+3V3*%
X145500000Y-103675000D03*
%TD*%
D15*
%TO.P,J5,1,Pin_1*%
%TO.N,Net-(J5-Pin_1)*%
X132730000Y-119867500D03*
D16*
%TO.P,J5,2,Pin_2*%
%TO.N,Net-(J5-Pin_2)*%
X135270000Y-119867500D03*
%TD*%
D17*
%TO.P,C8,1*%
%TO.N,Net-(J6-Pin_1)*%
X158225000Y-108675000D03*
%TO.P,C8,2*%
%TO.N,Net-(J5-Pin_2)*%
X159775000Y-108675000D03*
%TD*%
D18*
%TO.P,U5,1,~{RST}/NMI/SBWTDIO*%
%TO.N,/SBWDIO*%
X148750000Y-109637501D03*
%TO.P,U5,2,TEST/SBWTCK*%
%TO.N,/SBWTCK*%
X149250000Y-109637500D03*
%TO.P,U5,3,P1.4/UCA0TXD/UCA0SIMO/TA1.2/TCK/A4/VREF+*%
%TO.N,/BLE_RX*%
X149750000Y-109637500D03*
%TO.P,U5,4,P1.5/UCA0RXD/UCA0SOMI/TA1.1/TMS/A5*%
%TO.N,/BLE_TX*%
X150250000Y-109637500D03*
%TO.P,U5,5,P1.6/UCA0CLK/TA1CLK/TDI/TCLK/A6*%
%TO.N,/SENSOR*%
X150750000Y-109637500D03*
%TO.P,U5,6,P1.7/UCA0STE/SMCLK/TDO/A7*%
%TO.N,/USER*%
X151250000Y-109637501D03*
D19*
%TO.P,U5,7,P1.0/UCB0STE/TA0CLK/A0/VEREF+*%
%TO.N,unconnected-(U5-P1.0{slash}UCB0STE{slash}TA0CLK{slash}A0{slash}VEREF+-Pad7)*%
X151962501Y-108925000D03*
%TO.P,U5,8,P1.1/UCB0CLK/TA0.1/A1*%
%TO.N,unconnected-(U5-P1.1{slash}UCB0CLK{slash}TA0.1{slash}A1-Pad8)*%
X151962500Y-108425000D03*
%TO.P,U5,9,P1.2/UCB0SIMO/UCB0SDA/TA0.2/A2/VEREF-*%
%TO.N,/SCL*%
X151962500Y-107925000D03*
%TO.P,U5,10,P1.3/UCB0SOMI/UCB0SCL/MCLK/A3*%
%TO.N,/SDA*%
X151962500Y-107425000D03*
%TO.P,U5,11,P2.2/ACLK*%
%TO.N,/BLE_WAKE*%
X151962500Y-106925000D03*
%TO.P,U5,12,P3.0*%
%TO.N,/BLE_RESET*%
X151962501Y-106425000D03*
D18*
%TO.P,U5,13,P2.3*%
%TO.N,/MAX_CS*%
X151250000Y-105712499D03*
%TO.P,U5,14,P3.1/UCA1STE*%
%TO.N,/BLE_IRQ*%
X150750000Y-105712500D03*
%TO.P,U5,15,P2.4/UCA1CLK*%
%TO.N,/MAX_SCLK*%
X150250000Y-105712500D03*
%TO.P,U5,16,P2.5/UCA1RXD/UCA1SOMI*%
%TO.N,/MAX_MISO*%
X149750000Y-105712500D03*
%TO.P,U5,17,P2.6/UCA1TXD/UCA1SIMO*%
%TO.N,/MAX_MOSI*%
X149250000Y-105712500D03*
%TO.P,U5,18,DVSS*%
%TO.N,GND*%
X148750000Y-105712499D03*
D19*
%TO.P,U5,19,P2.7*%
%TO.N,/BLE_PWR*%
X148037499Y-106425000D03*
%TO.P,U5,20,P3.2*%
%TO.N,/MAX_DRDY*%
X148037500Y-106925000D03*
%TO.P,U5,21,P2.0/XOUT*%
%TO.N,unconnected-(U5-P2.0{slash}XOUT-Pad21)*%
X148037500Y-107425000D03*
%TO.P,U5,22,P2.1/XIN*%
%TO.N,unconnected-(U5-P2.1{slash}XIN-Pad22)*%
X148037500Y-107925000D03*
%TO.P,U5,23,DVSS*%
%TO.N,GND*%
X148037500Y-108425000D03*
%TO.P,U5,24,DVCC*%
%TO.N,+3V3*%
X148037499Y-108925000D03*
D20*
%TO.P,U5,25,DVSS*%
%TO.N,GND*%
X150000000Y-107675000D03*
%TD*%
D21*
%TO.P,J3,1,Pin_1*%
%TO.N,GND*%
X134166226Y-92856351D03*
D22*
%TO.P,J3,2,Pin_2*%
%TO.N,/VBAT*%
X132752012Y-94270565D03*
%TD*%
D23*
%TO.P,J2,1,Pin_1*%
%TO.N,GND*%
X152266707Y-119831046D03*
D24*
%TO.P,J2,2,Pin_2*%
%TO.N,+3V3*%
X149726707Y-119831046D03*
%TO.P,J2,3,Pin_3*%
%TO.N,Net-(J2-Pin_3)*%
X147186708Y-119831046D03*
%TD*%
D25*
%TO.P,J1,A1,GND*%
%TO.N,GND*%
X126850000Y-99075000D03*
%TO.P,J1,A4,VBUS*%
%TO.N,Net-(C1-Pad2)*%
X126850000Y-99925000D03*
%TO.P,J1,A5,CC1*%
%TO.N,Net-(J1-CC1)*%
X126850000Y-100775001D03*
%TO.P,J1,A6,D+*%
%TO.N,unconnected-(J1-D+-PadA6)*%
X126850000Y-101625000D03*
%TO.P,J1,A7,D-*%
%TO.N,unconnected-(J1-D--PadA7)*%
X126850000Y-102475000D03*
%TO.P,J1,A8,SBU1*%
%TO.N,unconnected-(J1-SBU1-PadA8)*%
X126850000Y-103325000D03*
%TO.P,J1,A9,VBUS*%
%TO.N,Net-(C1-Pad2)*%
X126850000Y-104175001D03*
%TO.P,J1,A12,GND*%
%TO.N,GND*%
X126850000Y-105025000D03*
%TO.P,J1,B1,GND*%
X125500000Y-105025000D03*
%TO.P,J1,B4,VBUS*%
%TO.N,Net-(C1-Pad2)*%
X125500000Y-104175000D03*
%TO.P,J1,B5,CC2*%
%TO.N,Net-(J1-CC2)*%
X125500000Y-103325000D03*
%TO.P,J1,B6,D+*%
%TO.N,unconnected-(J1-D+-PadB6)*%
X125500000Y-102475000D03*
%TO.P,J1,B7,D-*%
%TO.N,unconnected-(J1-D--PadB7)*%
X125500000Y-101625000D03*
%TO.P,J1,B8,SBU2*%
%TO.N,unconnected-(J1-SBU2-PadB8)*%
X125500000Y-100775000D03*
%TO.P,J1,B9,VBUS*%
%TO.N,Net-(C1-Pad2)*%
X125500000Y-99925000D03*
%TO.P,J1,B12,GND*%
%TO.N,GND*%
X125500000Y-99075000D03*
D26*
%TO.P,J1,S1,SHIELD*%
X125870000Y-97725000D03*
D27*
X122490000Y-97725000D03*
D26*
X125870000Y-106375000D03*
D27*
X122490000Y-106375000D03*
%TD*%
D28*
%TO.P,SW_MAIN1,*%
%TO.N,*%
X175220000Y-104825000D03*
X177430000Y-104825000D03*
X175220000Y-97525000D03*
X177430000Y-97525000D03*
D29*
%TO.P,SW_MAIN1,1,A*%
%TO.N,/VBAT*%
X174570000Y-103425000D03*
%TO.P,SW_MAIN1,2,B*%
%TO.N,Net-(SW_MAIN1-B)*%
X174570000Y-100425000D03*
%TO.P,SW_MAIN1,3,C*%
%TO.N,unconnected-(SW_MAIN1-C-Pad3)*%
X174570000Y-98925000D03*
%TD*%
D30*
%TO.P,R3,1*%
%TO.N,+3V3*%
X129310070Y-95914409D03*
%TO.P,R3,2*%
%TO.N,Net-(D_CHG1-A)*%
X128143344Y-94747683D03*
%TD*%
D31*
%TO.P,C5,1*%
%TO.N,GND*%
X142685063Y-107410170D03*
%TO.P,C5,2*%
%TO.N,+3V3*%
X142685063Y-105510172D03*
%TD*%
D32*
%TO.P,JP1,1,A*%
%TO.N,Net-(J5-Pin_1)*%
X130126707Y-110831046D03*
%TO.P,JP1,2,C*%
%TO.N,Net-(JP1-C)*%
X131426707Y-110831046D03*
%TO.P,JP1,3,B*%
%TO.N,GND*%
X132726707Y-110831046D03*
%TD*%
D33*
%TO.P,U6,1,VIN*%
%TO.N,+3V3*%
X137000000Y-103775000D03*
%TO.P,U6,2,GND*%
%TO.N,GND*%
X137000000Y-104725000D03*
%TO.P,U6,3,ON*%
%TO.N,/BLE_PWR*%
X137000000Y-105675000D03*
%TO.P,U6,4,CT*%
%TO.N,unconnected-(U6-CT-Pad4)*%
X139275000Y-105675000D03*
%TO.P,U6,5,QOD*%
%TO.N,Net-(U6-QOD)*%
X139275000Y-104725000D03*
%TO.P,U6,6,VOUT*%
%TO.N,/3V3_BLE*%
X139275000Y-103775000D03*
%TD*%
D34*
%TO.P,U4,1,GND*%
%TO.N,GND*%
X142762500Y-81527007D03*
%TO.P,U4,2,GPIO25*%
%TO.N,unconnected-(U4-GPIO25-Pad2)*%
X142762500Y-82626907D03*
%TO.P,U4,3,NC*%
%TO.N,unconnected-(U4-NC-Pad3)*%
X142762500Y-83726907D03*
%TO.P,U4,4,NC*%
%TO.N,unconnected-(U4-NC-Pad4)*%
X142762500Y-84827007D03*
%TO.P,U4,5,GPIO28/AIN4*%
%TO.N,unconnected-(U4-GPIO28{slash}AIN4-Pad5)*%
X142762500Y-85926807D03*
%TO.P,U4,6,NC*%
%TO.N,unconnected-(U4-NC-Pad6)*%
X142762500Y-87026907D03*
%TO.P,U4,7,GPIO30/AIN6*%
%TO.N,unconnected-(U4-GPIO30{slash}AIN6-Pad7)*%
X142762500Y-88127007D03*
%TO.P,U4,8,NC*%
%TO.N,unconnected-(U4-NC-Pad8)*%
X142762500Y-89226807D03*
%TO.P,U4,9,GPIO10*%
%TO.N,unconnected-(U4-GPIO10-Pad9)*%
X142762500Y-90326907D03*
%TO.P,U4,10,GPIO09*%
%TO.N,unconnected-(U4-GPIO09-Pad10)*%
X142762500Y-91426907D03*
%TO.P,U4,11,GPIO20*%
%TO.N,unconnected-(U4-GPIO20-Pad11)*%
X142762500Y-92527007D03*
%TO.P,U4,12,WAKE_UP/GPIO05/AIN3*%
%TO.N,/BLE_WAKE*%
X142762500Y-93626807D03*
%TO.P,U4,13,VCC*%
%TO.N,/3V3_BLE*%
X142762500Y-94726907D03*
D35*
%TO.P,U4,14,BUSY/GPIO04/AIN2*%
%TO.N,unconnected-(U4-BUSY{slash}GPIO04{slash}AIN2-Pad14)*%
X144262600Y-95726907D03*
%TO.P,U4,15,NC*%
%TO.N,unconnected-(U4-NC-Pad15)*%
X145362400Y-95726907D03*
%TO.P,U4,16,NC*%
%TO.N,unconnected-(U4-NC-Pad16)*%
X146462500Y-95726907D03*
%TO.P,U4,17,CONNECTION/GPIO06*%
%TO.N,/BLE_IRQ*%
X147562600Y-95726907D03*
%TO.P,U4,18,NC*%
%TO.N,unconnected-(U4-NC-Pad18)*%
X151962600Y-95726907D03*
%TO.P,U4,19,RXD/GPIO12*%
%TO.N,/BLE_RX*%
X153062500Y-95726907D03*
%TO.P,U4,20,NC*%
%TO.N,unconnected-(U4-NC-Pad20)*%
X154162500Y-95726907D03*
%TO.P,U4,21,TXD/GPIO14*%
%TO.N,/BLE_TX*%
X155262600Y-95726907D03*
D34*
%TO.P,U4,22,VCC*%
%TO.N,/3V3_BLE*%
X156762500Y-94726907D03*
%TO.P,U4,23,CTS/GPIO15*%
%TO.N,unconnected-(U4-CTS{slash}GPIO15-Pad23)*%
X156762500Y-93626807D03*
%TO.P,U4,24,RTS/GPIO16*%
%TO.N,unconnected-(U4-RTS{slash}GPIO16-Pad24)*%
X156762500Y-92527007D03*
%TO.P,U4,25,NC*%
%TO.N,unconnected-(U4-NC-Pad25)*%
X156762500Y-91426907D03*
%TO.P,U4,26,GPIO18*%
%TO.N,unconnected-(U4-GPIO18-Pad26)*%
X156762500Y-90326907D03*
%TO.P,U4,27,NC*%
%TO.N,unconnected-(U4-NC-Pad27)*%
X156762500Y-89226807D03*
%TO.P,U4,28,SWDCLK*%
%TO.N,unconnected-(U4-SWDCLK-Pad28)*%
X156762500Y-88127007D03*
%TO.P,U4,29,~{RESET}/GPIO21*%
%TO.N,/BLE_RESET*%
X156762500Y-87026907D03*
%TO.P,U4,30,NC*%
%TO.N,unconnected-(U4-NC-Pad30)*%
X156762500Y-85926807D03*
%TO.P,U4,31,SWDIO*%
%TO.N,unconnected-(U4-SWDIO-Pad31)*%
X156762500Y-84827007D03*
%TO.P,U4,32,NC*%
%TO.N,unconnected-(U4-NC-Pad32)*%
X156762500Y-83726907D03*
%TO.P,U4,33,NC*%
%TO.N,unconnected-(U4-NC-Pad33)*%
X156762500Y-82626907D03*
%TO.P,U4,34,GND*%
%TO.N,GND*%
X156762500Y-81527007D03*
%TD*%
D32*
%TO.P,JP3,1,A*%
%TO.N,Net-(J5-Pin_2)*%
X154799998Y-113675000D03*
%TO.P,JP3,2,B*%
%TO.N,Net-(J5-Pin_1)*%
X153500000Y-113675000D03*
%TD*%
D36*
%TO.P,D_USER1,1,K*%
%TO.N,/USER*%
X158212499Y-119675000D03*
%TO.P,D_USER1,2,A*%
%TO.N,Net-(D_USER1-A)*%
X159787501Y-119675000D03*
%TD*%
D37*
%TO.P,U2,1,V_{DD}*%
%TO.N,+5V*%
X135450000Y-100425000D03*
%TO.P,U2,2,V_{DD}*%
X135450000Y-99925000D03*
%TO.P,U2,3,V_{BAT}*%
%TO.N,/VBAT*%
X135450000Y-99425000D03*
%TO.P,U2,4,V_{BAT}*%
X135450000Y-98925000D03*
%TO.P,U2,5,STAT*%
%TO.N,/STAT*%
X132550000Y-98925000D03*
%TO.P,U2,6,V_{SS}*%
%TO.N,GND*%
X132550000Y-99425000D03*
%TO.P,U2,7,NC*%
%TO.N,unconnected-(U2-NC-Pad7)*%
X132550000Y-99925000D03*
%TO.P,U2,8,PROG*%
%TO.N,Net-(U2-PROG)*%
X132550000Y-100425000D03*
D38*
%TO.P,U2,9*%
%TO.N,N/C*%
X134000000Y-99675000D03*
%TD*%
D39*
%TO.P,JP4,1,A*%
%TO.N,Net-(J6-Pin_2)*%
X158850001Y-114324999D03*
%TO.P,JP4,2,B*%
%TO.N,Net-(J6-Pin_1)*%
X158850001Y-113025001D03*
%TD*%
D40*
%TO.P,D_CHG1,1,K*%
%TO.N,/STAT*%
X124613013Y-93944740D03*
%TO.P,D_CHG1,2,A*%
%TO.N,Net-(D_CHG1-A)*%
X125726707Y-92831046D03*
%TD*%
D41*
%TO.P,C1,1*%
%TO.N,GND*%
X132949999Y-107675000D03*
%TO.P,C1,2*%
%TO.N,Net-(C1-Pad2)*%
X131050001Y-107675000D03*
%TD*%
D15*
%TO.P,J6,1,Pin_1*%
%TO.N,Net-(J6-Pin_1)*%
X164230000Y-119867500D03*
D16*
%TO.P,J6,2,Pin_2*%
%TO.N,Net-(J6-Pin_2)*%
X166770000Y-119867500D03*
%TD*%
D17*
%TO.P,C10,1*%
%TO.N,GND*%
X144725000Y-109675000D03*
%TO.P,C10,2*%
%TO.N,+3V3*%
X146275000Y-109675000D03*
%TD*%
D42*
%TO.P,R4,1*%
%TO.N,/SENSOR*%
X150325000Y-116675000D03*
%TO.P,R4,2*%
%TO.N,Net-(J2-Pin_3)*%
X148675000Y-116675000D03*
%TD*%
D43*
%TO.P,J7,1,Pin_1*%
%TO.N,/SDA*%
X168111846Y-88786846D03*
D24*
%TO.P,J7,2,Pin_2*%
%TO.N,/SCL*%
X169907897Y-90582897D03*
%TO.P,J7,3,Pin_3*%
%TO.N,GND*%
X171703948Y-92378948D03*
%TO.P,J7,4,Pin_4*%
%TO.N,+3V3*%
X173500000Y-94175000D03*
%TD*%
D23*
%TO.P,J4,1,Pin_1*%
%TO.N,Net-(J4-Pin_1)*%
X140460000Y-113675000D03*
D24*
%TO.P,J4,2,Pin_2*%
%TO.N,GND*%
X143000000Y-113675000D03*
%TO.P,J4,3,Pin_3*%
%TO.N,/SBWDIO*%
X145539999Y-113675000D03*
%TO.P,J4,4,Pin_4*%
%TO.N,/SBWTCK*%
X148080000Y-113675000D03*
%TD*%
D44*
%TO.P,R8,1*%
%TO.N,Net-(U2-PROG)*%
X132175000Y-103175000D03*
%TO.P,R8,2*%
%TO.N,GND*%
X133825000Y-103175000D03*
%TD*%
D45*
%TO.P,NT1,1,1*%
%TO.N,Net-(U6-QOD)*%
X140498635Y-104741975D03*
%TO.P,NT1,2,2*%
%TO.N,/3V3_BLE*%
X140498635Y-103741977D03*
%TD*%
D11*
%TO.P,C3,1*%
%TO.N,GND*%
X137050000Y-96175000D03*
%TO.P,C3,2*%
%TO.N,/VBAT*%
X138950000Y-96175000D03*
%TD*%
D44*
%TO.P,R5,1*%
%TO.N,+3V3*%
X155175000Y-117675000D03*
%TO.P,R5,2*%
%TO.N,Net-(D_USER1-A)*%
X156825000Y-117675000D03*
%TD*%
D46*
%TO.N,GND*%
X160500000Y-98225000D03*
X146861091Y-108536091D03*
X144550000Y-108175000D03*
X134500000Y-102675000D03*
X155500000Y-100125000D03*
X144500000Y-100175000D03*
X138500000Y-99675000D03*
X142500000Y-108675000D03*
X156750491Y-107702327D03*
X131500000Y-99475000D03*
X136000000Y-104675000D03*
X155000000Y-101225000D03*
X155000000Y-102400000D03*
%TO.N,/VBAT*%
X154000000Y-109675000D03*
X139172183Y-107224999D03*
%TO.N,Net-(SW_MAIN1-B)*%
X165000000Y-97675000D03*
X157950000Y-96574000D03*
X146361091Y-101313909D03*
X147138909Y-100536091D03*
%TO.N,+3V3*%
X148500000Y-102675000D03*
X136674265Y-102849265D03*
X130000000Y-96675000D03*
X138500000Y-111675000D03*
X142000000Y-118175000D03*
X151000000Y-101225000D03*
X149426976Y-101382454D03*
X139000000Y-109675000D03*
%TO.N,/USER*%
X157000000Y-119675000D03*
X153500000Y-117075000D03*
%TO.N,Net-(J5-Pin_2)*%
X159000000Y-107675000D03*
X156949994Y-110175000D03*
X154500000Y-115675000D03*
X159500000Y-109675000D03*
%TO.N,/SBWDIO*%
X147500000Y-111675000D03*
%TO.N,Net-(J6-Pin_1)*%
X158249997Y-107675000D03*
X161000000Y-113175000D03*
%TO.N,Net-(J5-Pin_1)*%
X153000000Y-115575000D03*
X155336088Y-111011088D03*
X130000000Y-114675000D03*
%TO.N,Net-(J6-Pin_2)*%
X157499994Y-107675000D03*
%TO.N,/SDA*%
X166257229Y-91917771D03*
%TO.N,/SCL*%
X167089830Y-93487011D03*
%TO.N,Net-(JP1-C)*%
X132000000Y-109175000D03*
%TO.N,/3V3_BLE*%
X150893294Y-98068294D03*
X147672183Y-98125001D03*
X141663909Y-95061091D03*
X140500000Y-103675000D03*
X153971475Y-98146475D03*
%TO.N,/MAX_MOSI*%
X149500000Y-104175000D03*
%TO.N,/MAX_CS*%
X152500000Y-103675000D03*
%TO.N,/MAX_SCLK*%
X151500000Y-104175000D03*
%TO.N,/MAX_MISO*%
X154861091Y-103536090D03*
%TO.N,/MAX_DRDY*%
X157861091Y-100536090D03*
X149676000Y-100675000D03*
X147000000Y-107425003D03*
%TO.N,/BLE_WAKE*%
X153138909Y-106813908D03*
X147827817Y-102125001D03*
%TO.N,/BLE_TX*%
X152000000Y-112225000D03*
X150200000Y-112225000D03*
X163000000Y-99675000D03*
X156000000Y-97675000D03*
%TO.N,/BLE_IRQ*%
X151077928Y-104812391D03*
X147500000Y-97175000D03*
%TO.N,/BLE_RX*%
X149800000Y-110493914D03*
X147651257Y-110493914D03*
X144000000Y-106125000D03*
X146138909Y-99536091D03*
%TO.N,/BLE_PWR*%
X137500000Y-106675000D03*
X146553737Y-106121263D03*
%TD*%
D47*
%TO.N,GND*%
X138775000Y-99950000D02*
X138500000Y-99675000D01*
X146972182Y-108425000D02*
X146861091Y-108536091D01*
X149250000Y-108425000D02*
X148037500Y-108425000D01*
X155000000Y-102400000D02*
X155000000Y-101225000D01*
X133825000Y-103175000D02*
X134000000Y-103175000D01*
X138775000Y-101175000D02*
X138775000Y-99950000D01*
X142685063Y-107410170D02*
X142685063Y-108489937D01*
X148037500Y-108425000D02*
X146972182Y-108425000D01*
X150000000Y-107675000D02*
X149250000Y-108425000D01*
X142685063Y-108489937D02*
X142500000Y-108675000D01*
X132550000Y-99425000D02*
X131550000Y-99425000D01*
X134000000Y-103175000D02*
X134500000Y-102675000D01*
X144550001Y-101400000D02*
X144550001Y-100225001D01*
X136050000Y-104725000D02*
X136000000Y-104675000D01*
X131550000Y-99425000D02*
X131500000Y-99475000D01*
X150000000Y-107675000D02*
X148750000Y-106425000D01*
X148750000Y-106425000D02*
X148750000Y-105712499D01*
X137000000Y-104725000D02*
X136050000Y-104725000D01*
X144550001Y-100225001D02*
X144500000Y-100175000D01*
%TO.N,Net-(C1-Pad2)*%
X128500000Y-105175000D02*
X127500001Y-104175001D01*
X124500000Y-100425000D02*
X124500000Y-103675000D01*
X129100000Y-106775000D02*
X129100000Y-105175000D01*
X129100000Y-105175000D02*
X128500000Y-105175000D01*
X131050001Y-107675000D02*
X130000000Y-107675000D01*
X125000000Y-104175000D02*
X125500000Y-104175000D01*
X125500000Y-99925000D02*
X125000000Y-99925000D01*
X124500000Y-103675000D02*
X125000000Y-104175000D01*
X127500001Y-104175001D02*
X126850000Y-104175001D01*
X130000000Y-107675000D02*
X129100000Y-106775000D01*
X125000000Y-99925000D02*
X124500000Y-100425000D01*
%TO.N,+5V*%
X135450000Y-99925000D02*
X135450000Y-100425000D01*
X136200000Y-101175000D02*
X135450000Y-100425000D01*
X137225000Y-101450000D02*
X137225000Y-101175000D01*
X131900000Y-105175000D02*
X133500000Y-105175000D01*
X137225000Y-101175000D02*
X136200000Y-101175000D01*
X133500000Y-105175000D02*
X137225000Y-101450000D01*
%TO.N,/VBAT*%
X138950000Y-96175000D02*
X136200000Y-98925000D01*
X141500000Y-101565448D02*
X138950000Y-99015448D01*
X160250000Y-103425000D02*
X154000000Y-109675000D01*
X135500000Y-97175000D02*
X135500000Y-98875000D01*
X135450000Y-98925000D02*
X135450000Y-99425000D01*
X138950000Y-99015448D02*
X138950000Y-96175000D01*
X175070000Y-103425000D02*
X160250000Y-103425000D01*
X139172183Y-107224999D02*
X141500000Y-104897182D01*
X136200000Y-98925000D02*
X135450000Y-98925000D01*
X141500000Y-104897182D02*
X141500000Y-101565448D01*
X135500000Y-98875000D02*
X135450000Y-98925000D01*
X132752012Y-94270565D02*
X132752012Y-94427012D01*
X132752012Y-94427012D02*
X135500000Y-97175000D01*
%TO.N,Net-(SW_MAIN1-B)*%
X156520181Y-99175000D02*
X148500000Y-99175000D01*
X143600002Y-99775002D02*
X143000000Y-99175000D01*
X157950000Y-96574000D02*
X157950000Y-97745181D01*
X145500000Y-100171388D02*
X144503612Y-99175000D01*
X143000000Y-99175000D02*
X142450000Y-99175000D01*
X167750000Y-100425000D02*
X165000000Y-97675000D01*
X145500000Y-101400000D02*
X145500000Y-100171388D01*
X143600002Y-101400000D02*
X143600002Y-99775002D01*
X157950000Y-97745181D02*
X156520181Y-99175000D01*
X144503612Y-99175000D02*
X142450000Y-99175000D01*
X145586091Y-101313909D02*
X145500000Y-101400000D01*
X175070000Y-100425000D02*
X167750000Y-100425000D01*
X146361091Y-101313909D02*
X145586091Y-101313909D01*
X148500000Y-99175000D02*
X147138909Y-100536091D01*
%TO.N,+3V3*%
X146500000Y-109675000D02*
X146275000Y-109675000D01*
X141664828Y-105510172D02*
X142685063Y-105510172D01*
X135000000Y-104175000D02*
X135400000Y-103775000D01*
X139000000Y-108175000D02*
X141664828Y-105510172D01*
X145164828Y-105510172D02*
X145500000Y-105175000D01*
X147250000Y-108925000D02*
X146500000Y-109675000D01*
X139000000Y-109675000D02*
X139000000Y-108175000D01*
X146275000Y-106620344D02*
X145164828Y-105510172D01*
X136674265Y-103449265D02*
X137000000Y-103775000D01*
X135000000Y-105675000D02*
X135000000Y-104175000D01*
X129310070Y-95985070D02*
X130000000Y-96675000D01*
X145500000Y-103675000D02*
X146500000Y-102675000D01*
X155175000Y-117675000D02*
X150500000Y-117675000D01*
X136674265Y-102849265D02*
X136674265Y-103449265D01*
X139000000Y-109675000D02*
X135000000Y-105675000D01*
X149726707Y-118448293D02*
X149726707Y-119831046D01*
X148037499Y-108925000D02*
X147250000Y-108925000D01*
X151000000Y-101225000D02*
X149584430Y-101225000D01*
X146275000Y-109675000D02*
X146275000Y-106620344D01*
X149584430Y-101225000D02*
X149426976Y-101382454D01*
X142000000Y-118175000D02*
X141500000Y-118175000D01*
X129310070Y-95914409D02*
X129310070Y-95985070D01*
X146500000Y-102675000D02*
X148500000Y-102675000D01*
X142685063Y-105510172D02*
X145164828Y-105510172D01*
X138500000Y-115175000D02*
X138500000Y-111675000D01*
X150500000Y-117675000D02*
X149726707Y-118448293D01*
X145500000Y-105175000D02*
X145500000Y-103675000D01*
X135400000Y-103775000D02*
X137000000Y-103775000D01*
X141500000Y-118175000D02*
X138500000Y-115175000D01*
%TO.N,/SENSOR*%
X150750000Y-109637500D02*
X150750000Y-114925000D01*
X150325000Y-115350000D02*
X150325000Y-116675000D01*
X150750000Y-114925000D02*
X150325000Y-115350000D01*
%TO.N,/STAT*%
X132550000Y-98925000D02*
X129593273Y-98925000D01*
X129593273Y-98925000D02*
X124613013Y-93944740D01*
%TO.N,Net-(D_CHG1-A)*%
X126570661Y-93675000D02*
X125726707Y-92831046D01*
X128143344Y-94747683D02*
X127070661Y-93675000D01*
X127070661Y-93675000D02*
X126570661Y-93675000D01*
%TO.N,Net-(D_USER1-A)*%
X159787501Y-118962501D02*
X159787501Y-119675000D01*
X158500000Y-117675000D02*
X159787501Y-118962501D01*
X156825000Y-117675000D02*
X158500000Y-117675000D01*
%TO.N,/USER*%
X157000000Y-119675000D02*
X158212499Y-119675000D01*
X151250000Y-114825000D02*
X153500000Y-117075000D01*
X151250000Y-109637501D02*
X151250000Y-114825000D01*
%TO.N,Net-(J2-Pin_3)*%
X148000000Y-116675000D02*
X147186708Y-117488292D01*
X148675000Y-116675000D02*
X148000000Y-116675000D01*
X147186708Y-117488292D02*
X147186708Y-119831046D01*
%TO.N,Net-(U2-PROG)*%
X132175000Y-103175000D02*
X132175000Y-101500000D01*
X132550000Y-101125000D02*
X132550000Y-100425000D01*
X132175000Y-101500000D02*
X132550000Y-101125000D01*
%TO.N,Net-(J5-Pin_2)*%
X155000000Y-115175000D02*
X155000000Y-113875002D01*
X154799998Y-112324996D02*
X156949994Y-110175000D01*
X159500000Y-108950000D02*
X159775000Y-108675000D01*
X154500000Y-115675000D02*
X155000000Y-115175000D01*
X154799998Y-113675000D02*
X154799998Y-112324996D01*
X159775000Y-108675000D02*
X159775000Y-108450000D01*
X159500000Y-109675000D02*
X159500000Y-108950000D01*
X159775000Y-108450000D02*
X159000000Y-107675000D01*
X155000000Y-113875002D02*
X154799998Y-113675000D01*
%TO.N,/SBWDIO*%
X145539999Y-113675000D02*
X145539999Y-112135001D01*
X147500000Y-111675000D02*
X148750000Y-110425000D01*
X146000000Y-111675000D02*
X147500000Y-111675000D01*
X145539999Y-112135001D02*
X146000000Y-111675000D01*
X148750000Y-110425000D02*
X148750000Y-109637501D01*
%TO.N,Net-(J6-Pin_1)*%
X158225000Y-107699997D02*
X158249997Y-107675000D01*
X158225000Y-108675000D02*
X158225000Y-107699997D01*
X160850001Y-113025001D02*
X158850001Y-113025001D01*
X158225000Y-109400000D02*
X158225000Y-108675000D01*
X158850001Y-110025001D02*
X158225000Y-109400000D01*
X161000000Y-113175000D02*
X160850001Y-113025001D01*
X158850001Y-113025001D02*
X158850001Y-110025001D01*
%TO.N,Net-(J5-Pin_1)*%
X153500000Y-113675000D02*
X153500000Y-112847176D01*
X153500000Y-115075000D02*
X153000000Y-115575000D01*
X130126707Y-110831046D02*
X130126707Y-114548293D01*
X153500000Y-113675000D02*
X153500000Y-115075000D01*
X153500000Y-112847176D02*
X155336088Y-111011088D01*
%TO.N,Net-(J6-Pin_2)*%
X166770000Y-119867500D02*
X166770000Y-118445000D01*
X160500000Y-117175000D02*
X158850001Y-115525001D01*
X157499994Y-107675000D02*
X157499994Y-113800994D01*
X158023999Y-114324999D02*
X158850001Y-114324999D01*
X158850001Y-115525001D02*
X158850001Y-114324999D01*
X157499994Y-113800994D02*
X158023999Y-114324999D01*
X165500000Y-117175000D02*
X160500000Y-117175000D01*
X166770000Y-118445000D02*
X165500000Y-117175000D01*
%TO.N,/SBWTCK*%
X149250000Y-110925000D02*
X149250000Y-109637500D01*
X148080000Y-112095000D02*
X149250000Y-110925000D01*
X148080000Y-113675000D02*
X148080000Y-112095000D01*
%TO.N,/SDA*%
X166257229Y-94917771D02*
X153750000Y-107425000D01*
X153750000Y-107425000D02*
X151962500Y-107425000D01*
X166257229Y-91917771D02*
X166257229Y-94917771D01*
%TO.N,/SCL*%
X167089830Y-93487011D02*
X167089830Y-94585170D01*
X167089830Y-94585170D02*
X153750000Y-107925000D01*
X153750000Y-107925000D02*
X151962500Y-107925000D01*
%TO.N,Net-(JP1-C)*%
X131426707Y-109748293D02*
X131426707Y-110831046D01*
X132000000Y-109175000D02*
X131426707Y-109748293D01*
%TO.N,Net-(U6-QOD)*%
X139291975Y-104741975D02*
X139275000Y-104725000D01*
X140498635Y-104741975D02*
X139291975Y-104741975D01*
%TO.N,/3V3_BLE*%
X157399000Y-96345768D02*
X157721768Y-96023000D01*
X153971475Y-98146475D02*
X154051000Y-98226000D01*
X150836587Y-98125001D02*
X150893294Y-98068294D01*
X158500000Y-95675000D02*
X158500000Y-95175000D01*
X154051000Y-98226000D02*
X156228232Y-98226000D01*
X140498635Y-103741977D02*
X139308023Y-103741977D01*
X158152000Y-96023000D02*
X158500000Y-95675000D01*
X157399000Y-97055232D02*
X157399000Y-96345768D01*
X140500000Y-103740612D02*
X140498635Y-103741977D01*
X141998093Y-94726907D02*
X141663909Y-95061091D01*
X156228232Y-98226000D02*
X157399000Y-97055232D01*
X139308023Y-103741977D02*
X139275000Y-103775000D01*
X158051907Y-94726907D02*
X156762500Y-94726907D01*
X140500000Y-103675000D02*
X140500000Y-103740612D01*
X158500000Y-95175000D02*
X158051907Y-94726907D01*
X142762500Y-94726907D02*
X141998093Y-94726907D01*
X157721768Y-96023000D02*
X158152000Y-96023000D01*
X147672183Y-98125001D02*
X150836587Y-98125001D01*
%TO.N,/MAX_MOSI*%
X149250000Y-105712500D02*
X149250000Y-104425000D01*
X149250000Y-104425000D02*
X149500000Y-104175000D01*
%TO.N,/MAX_CS*%
X152500000Y-104462499D02*
X152500000Y-103675000D01*
X151250000Y-105712499D02*
X152500000Y-104462499D01*
%TO.N,/MAX_SCLK*%
X150937500Y-104175000D02*
X151500000Y-104175000D01*
X150250000Y-104862500D02*
X150937500Y-104175000D01*
X150250000Y-105712500D02*
X150250000Y-104862500D01*
%TO.N,/MAX_MISO*%
X151492112Y-103124000D02*
X154449001Y-103124000D01*
X154449001Y-103124000D02*
X154861091Y-103536090D01*
X149750000Y-104866112D02*
X151492112Y-103124000D01*
X149750000Y-105712500D02*
X149750000Y-104866112D01*
%TO.N,/MAX_DRDY*%
X147029229Y-107425003D02*
X147000000Y-107425003D01*
X147529232Y-106925000D02*
X147029229Y-107425003D01*
X149676000Y-100675000D02*
X157722181Y-100675000D01*
X157722181Y-100675000D02*
X157861091Y-100536090D01*
X148037500Y-106925000D02*
X147529232Y-106925000D01*
%TO.N,/BLE_RESET*%
X157851907Y-87026907D02*
X159500000Y-88675000D01*
X156762500Y-87026907D02*
X157851907Y-87026907D01*
X152749999Y-106425000D02*
X151962501Y-106425000D01*
X159500000Y-88675000D02*
X159500000Y-99674999D01*
X159500000Y-99674999D02*
X152749999Y-106425000D01*
%TO.N,/BLE_WAKE*%
X141000000Y-95175000D02*
X141000000Y-94175000D01*
X141548193Y-93626807D02*
X142762500Y-93626807D01*
X153027817Y-106925000D02*
X153138909Y-106813908D01*
X141000000Y-94175000D02*
X141548193Y-93626807D01*
X147827817Y-102125001D02*
X147827817Y-102002817D01*
X147827817Y-102002817D02*
X141000000Y-95175000D01*
X151962500Y-106925000D02*
X153027817Y-106925000D01*
%TO.N,/BLE_TX*%
X152000000Y-110675000D02*
X163000000Y-99675000D01*
X152000000Y-112225000D02*
X152000000Y-110675000D01*
X155262600Y-96937600D02*
X155262600Y-95726907D01*
X156000000Y-97675000D02*
X155262600Y-96937600D01*
X150374000Y-112051000D02*
X150200000Y-112225000D01*
X150250000Y-109637500D02*
X150374000Y-109761500D01*
X150374000Y-109761500D02*
X150374000Y-112051000D01*
%TO.N,/BLE_IRQ*%
X147500000Y-95789507D02*
X147562600Y-95726907D01*
X150750000Y-105712500D02*
X150750000Y-105140319D01*
X150750000Y-105140319D02*
X151077928Y-104812391D01*
X147500000Y-97175000D02*
X147500000Y-95789507D01*
%TO.N,/BLE_RX*%
X149800000Y-109687500D02*
X149750000Y-109637500D01*
X151064407Y-98675000D02*
X147000000Y-98675000D01*
X147000000Y-98675000D02*
X146138909Y-99536091D01*
X144389514Y-110493914D02*
X147651257Y-110493914D01*
X153062500Y-96676907D02*
X151064407Y-98675000D01*
X144000000Y-110104400D02*
X144389514Y-110493914D01*
X149800000Y-110493914D02*
X149800000Y-109687500D01*
X144000000Y-106125000D02*
X144000000Y-110104400D01*
X153062500Y-95726907D02*
X153062500Y-96676907D01*
%TO.N,/BLE_PWR*%
X137500000Y-106675000D02*
X137500000Y-106175000D01*
X146553737Y-106121263D02*
X146946263Y-106121263D01*
X146946263Y-106121263D02*
X147250000Y-106425000D01*
X137500000Y-106175000D02*
X137000000Y-105675000D01*
X147250000Y-106425000D02*
X148037499Y-106425000D01*
%TD*%
%TA.AperFunction,Conductor*%
%TO.N,GND*%
G36*
X134318834Y-105307914D02*
G01*
X134374767Y-105349786D01*
X134399184Y-105415250D01*
X134399500Y-105424096D01*
X134399500Y-105588330D01*
X134399499Y-105588348D01*
X134399499Y-105754054D01*
X134399498Y-105754054D01*
X134403448Y-105768796D01*
X134440423Y-105906785D01*
X134466988Y-105952797D01*
X134519477Y-106043712D01*
X134519481Y-106043717D01*
X134638349Y-106162585D01*
X134638355Y-106162590D01*
X138165425Y-109689660D01*
X138198910Y-109750983D01*
X138199361Y-109753149D01*
X138230261Y-109908491D01*
X138230264Y-109908501D01*
X138290602Y-110054172D01*
X138290609Y-110054185D01*
X138378210Y-110185288D01*
X138378213Y-110185292D01*
X138489707Y-110296786D01*
X138489711Y-110296789D01*
X138620814Y-110384390D01*
X138620827Y-110384397D01*
X138681046Y-110409340D01*
X138766503Y-110444737D01*
X138909163Y-110473114D01*
X138921153Y-110475499D01*
X138921156Y-110475500D01*
X138921158Y-110475500D01*
X139078844Y-110475500D01*
X139078845Y-110475499D01*
X139233497Y-110444737D01*
X139346166Y-110398067D01*
X139379172Y-110384397D01*
X139379172Y-110384396D01*
X139379179Y-110384394D01*
X139510289Y-110296789D01*
X139621789Y-110185289D01*
X139709394Y-110054179D01*
X139718095Y-110033174D01*
X139752436Y-109950265D01*
X139769737Y-109908497D01*
X139800500Y-109753842D01*
X139800500Y-109596158D01*
X139800500Y-109596155D01*
X139800499Y-109596153D01*
X139796163Y-109574354D01*
X139769737Y-109441503D01*
X139758479Y-109414324D01*
X139709397Y-109295827D01*
X139709390Y-109295814D01*
X139621398Y-109164125D01*
X139600520Y-109097447D01*
X139600500Y-109095234D01*
X139600500Y-108475097D01*
X139620185Y-108408058D01*
X139636819Y-108387416D01*
X140068176Y-107956059D01*
X140314079Y-107710156D01*
X141460064Y-107710156D01*
X141470557Y-107812867D01*
X141525704Y-107979289D01*
X141525706Y-107979294D01*
X141617747Y-108128515D01*
X141741717Y-108252485D01*
X141890938Y-108344526D01*
X141890943Y-108344528D01*
X142057365Y-108399675D01*
X142057372Y-108399676D01*
X142160082Y-108410169D01*
X142435062Y-108410169D01*
X142435063Y-108410168D01*
X142435063Y-107660170D01*
X141460064Y-107660170D01*
X141460064Y-107710156D01*
X140314079Y-107710156D01*
X141327714Y-106696520D01*
X141389035Y-106663037D01*
X141458727Y-106668021D01*
X141514660Y-106709893D01*
X141539077Y-106775357D01*
X141527779Y-106836600D01*
X141525706Y-106841046D01*
X141470557Y-107007472D01*
X141470556Y-107007479D01*
X141460063Y-107110183D01*
X141460063Y-107160170D01*
X142561063Y-107160170D01*
X142628102Y-107179855D01*
X142673857Y-107232659D01*
X142685063Y-107284170D01*
X142685063Y-107410170D01*
X142811063Y-107410170D01*
X142878102Y-107429855D01*
X142923857Y-107482659D01*
X142935063Y-107534170D01*
X142935063Y-108410169D01*
X143210035Y-108410169D01*
X143210047Y-108410168D01*
X143262897Y-108404769D01*
X143331590Y-108417538D01*
X143382475Y-108465418D01*
X143399500Y-108528127D01*
X143399500Y-110017730D01*
X143399499Y-110017748D01*
X143399499Y-110183454D01*
X143399498Y-110183454D01*
X143431181Y-110301697D01*
X143440423Y-110336185D01*
X143457303Y-110365422D01*
X143457304Y-110365424D01*
X143457305Y-110365424D01*
X143503096Y-110444737D01*
X143519479Y-110473114D01*
X143519481Y-110473117D01*
X143638349Y-110591985D01*
X143638355Y-110591990D01*
X143904653Y-110858288D01*
X143904663Y-110858299D01*
X143908993Y-110862629D01*
X143908994Y-110862630D01*
X144020798Y-110974434D01*
X144058889Y-110996425D01*
X144107609Y-111024553D01*
X144107611Y-111024555D01*
X144145665Y-111046525D01*
X144157729Y-111053491D01*
X144310457Y-111094415D01*
X144310460Y-111094415D01*
X144476167Y-111094415D01*
X144476183Y-111094414D01*
X145431988Y-111094414D01*
X145499027Y-111114099D01*
X145544782Y-111166903D01*
X145554726Y-111236061D01*
X145525701Y-111299617D01*
X145519672Y-111306091D01*
X145278539Y-111547224D01*
X145164216Y-111661547D01*
X145164213Y-111661549D01*
X145164214Y-111661550D01*
X145059476Y-111766288D01*
X145014336Y-111844475D01*
X145014336Y-111844476D01*
X144980422Y-111903215D01*
X144980422Y-111903216D01*
X144939498Y-112055944D01*
X144939498Y-112055946D01*
X144939498Y-112224047D01*
X144939499Y-112224060D01*
X144939499Y-112389281D01*
X144919814Y-112456320D01*
X144871794Y-112499765D01*
X144832184Y-112519947D01*
X144832183Y-112519948D01*
X144660212Y-112644890D01*
X144509889Y-112795213D01*
X144384949Y-112967181D01*
X144380200Y-112976501D01*
X144332222Y-113027294D01*
X144264401Y-113044086D01*
X144198267Y-113021545D01*
X144159231Y-112976491D01*
X144154624Y-112967449D01*
X144115270Y-112913282D01*
X144115269Y-112913282D01*
X143482962Y-113545590D01*
X143465925Y-113482007D01*
X143400099Y-113367993D01*
X143307007Y-113274901D01*
X143192993Y-113209075D01*
X143129409Y-113192037D01*
X143761716Y-112559728D01*
X143707550Y-112520375D01*
X143518217Y-112423904D01*
X143316129Y-112358242D01*
X143106246Y-112325000D01*
X142893754Y-112325000D01*
X142683872Y-112358242D01*
X142683869Y-112358242D01*
X142481782Y-112423904D01*
X142292439Y-112520380D01*
X142238282Y-112559727D01*
X142238282Y-112559728D01*
X142870591Y-113192037D01*
X142807007Y-113209075D01*
X142692993Y-113274901D01*
X142599901Y-113367993D01*
X142534075Y-113482007D01*
X142517037Y-113545591D01*
X141846818Y-112875372D01*
X141813333Y-112814049D01*
X141813330Y-112814036D01*
X141810499Y-112801015D01*
X141810499Y-112777128D01*
X141804091Y-112717517D01*
X141761819Y-112604179D01*
X141753798Y-112582673D01*
X141753793Y-112582664D01*
X141667547Y-112467455D01*
X141667544Y-112467452D01*
X141552335Y-112381206D01*
X141552328Y-112381202D01*
X141417482Y-112330908D01*
X141417483Y-112330908D01*
X141357883Y-112324501D01*
X141357881Y-112324500D01*
X141357873Y-112324500D01*
X141357864Y-112324500D01*
X139562129Y-112324500D01*
X139562123Y-112324501D01*
X139502516Y-112330908D01*
X139367671Y-112381202D01*
X139367668Y-112381204D01*
X139298811Y-112432751D01*
X139286188Y-112437458D01*
X139276011Y-112446278D01*
X139254095Y-112449429D01*
X139233347Y-112457168D01*
X139220185Y-112454304D01*
X139206853Y-112456222D01*
X139186708Y-112447022D01*
X139165074Y-112442316D01*
X139155551Y-112432793D01*
X139143297Y-112427197D01*
X139131324Y-112408567D01*
X139115668Y-112392911D01*
X139111981Y-112378469D01*
X139105523Y-112368419D01*
X139100500Y-112333484D01*
X139100500Y-112254765D01*
X139120185Y-112187726D01*
X139121398Y-112185874D01*
X139142036Y-112154988D01*
X139209394Y-112054179D01*
X139269737Y-111908497D01*
X139300500Y-111753842D01*
X139300500Y-111596158D01*
X139300500Y-111596155D01*
X139300499Y-111596153D01*
X139269738Y-111441510D01*
X139269737Y-111441503D01*
X139254833Y-111405521D01*
X139209397Y-111295827D01*
X139209390Y-111295814D01*
X139121789Y-111164711D01*
X139121786Y-111164707D01*
X139010292Y-111053213D01*
X139010288Y-111053210D01*
X138879185Y-110965609D01*
X138879172Y-110965602D01*
X138733501Y-110905264D01*
X138733489Y-110905261D01*
X138578845Y-110874500D01*
X138578842Y-110874500D01*
X138421158Y-110874500D01*
X138421155Y-110874500D01*
X138266510Y-110905261D01*
X138266498Y-110905264D01*
X138120827Y-110965602D01*
X138120814Y-110965609D01*
X137989711Y-111053210D01*
X137989707Y-111053213D01*
X137878213Y-111164707D01*
X137878210Y-111164711D01*
X137790609Y-111295814D01*
X137790602Y-111295827D01*
X137730264Y-111441498D01*
X137730261Y-111441510D01*
X137699500Y-111596153D01*
X137699500Y-111753846D01*
X137730261Y-111908489D01*
X137730264Y-111908501D01*
X137790602Y-112054172D01*
X137790609Y-112054185D01*
X137878602Y-112185874D01*
X137899480Y-112252551D01*
X137899500Y-112254765D01*
X137899500Y-115088330D01*
X137899499Y-115088348D01*
X137899499Y-115254054D01*
X137899498Y-115254054D01*
X137939234Y-115402350D01*
X137940423Y-115406785D01*
X137962335Y-115444737D01*
X138019476Y-115543709D01*
X138019479Y-115543714D01*
X138019481Y-115543717D01*
X138138349Y-115662585D01*
X138138354Y-115662589D01*
X141131284Y-118655520D01*
X141131286Y-118655521D01*
X141131290Y-118655524D01*
X141252208Y-118725335D01*
X141268216Y-118734577D01*
X141420943Y-118775501D01*
X141420945Y-118775501D01*
X141429002Y-118776562D01*
X141428810Y-118778018D01*
X141487275Y-118795186D01*
X141489127Y-118796399D01*
X141620814Y-118884390D01*
X141620827Y-118884397D01*
X141766498Y-118944735D01*
X141766503Y-118944737D01*
X141921153Y-118975499D01*
X141921156Y-118975500D01*
X141921158Y-118975500D01*
X142078844Y-118975500D01*
X142078845Y-118975499D01*
X142233497Y-118944737D01*
X142379179Y-118884394D01*
X142510289Y-118796789D01*
X142621789Y-118685289D01*
X142709394Y-118554179D01*
X142715978Y-118538285D01*
X142739300Y-118481979D01*
X142769737Y-118408497D01*
X142800500Y-118253842D01*
X142800500Y-118096158D01*
X142800500Y-118096155D01*
X142800499Y-118096153D01*
X142769738Y-117941510D01*
X142769737Y-117941503D01*
X142716021Y-117811819D01*
X142709397Y-117795827D01*
X142709390Y-117795814D01*
X142621789Y-117664711D01*
X142621786Y-117664707D01*
X142510292Y-117553213D01*
X142510288Y-117553210D01*
X142379185Y-117465609D01*
X142379172Y-117465602D01*
X142233501Y-117405264D01*
X142233489Y-117405261D01*
X142078845Y-117374500D01*
X142078842Y-117374500D01*
X141921158Y-117374500D01*
X141921155Y-117374500D01*
X141766505Y-117405261D01*
X141766497Y-117405264D01*
X141710814Y-117428328D01*
X141641345Y-117435795D01*
X141578866Y-117404519D01*
X141575683Y-117401447D01*
X139404624Y-115230388D01*
X139371139Y-115169065D01*
X139376123Y-115099373D01*
X139417995Y-115043440D01*
X139483459Y-115019023D01*
X139505557Y-115019417D01*
X139562127Y-115025500D01*
X141357872Y-115025499D01*
X141417483Y-115019091D01*
X141552331Y-114968796D01*
X141667546Y-114882546D01*
X141753796Y-114767331D01*
X141804091Y-114632483D01*
X141810500Y-114572873D01*
X141810499Y-114548979D01*
X141813330Y-114535963D01*
X141823940Y-114516525D01*
X141830179Y-114495275D01*
X141846803Y-114474643D01*
X141846808Y-114474636D01*
X141846811Y-114474634D01*
X141846818Y-114474626D01*
X142517037Y-113804408D01*
X142534075Y-113867993D01*
X142599901Y-113982007D01*
X142692993Y-114075099D01*
X142807007Y-114140925D01*
X142870590Y-114157962D01*
X142238282Y-114790269D01*
X142238282Y-114790270D01*
X142292449Y-114829624D01*
X142481782Y-114926095D01*
X142683870Y-114991757D01*
X142893754Y-115025000D01*
X143106246Y-115025000D01*
X143316127Y-114991757D01*
X143316130Y-114991757D01*
X143518217Y-114926095D01*
X143707554Y-114829622D01*
X143761716Y-114790270D01*
X143761717Y-114790270D01*
X143129408Y-114157962D01*
X143192993Y-114140925D01*
X143307007Y-114075099D01*
X143400099Y-113982007D01*
X143465925Y-113867993D01*
X143482962Y-113804408D01*
X144115270Y-114436717D01*
X144115270Y-114436716D01*
X144154623Y-114382553D01*
X144159230Y-114373511D01*
X144207201Y-114322712D01*
X144275021Y-114305912D01*
X144341157Y-114328446D01*
X144380201Y-114373501D01*
X144384948Y-114382817D01*
X144509889Y-114554786D01*
X144660212Y-114705109D01*
X144832178Y-114830048D01*
X144832180Y-114830049D01*
X144832183Y-114830051D01*
X145021587Y-114926557D01*
X145223756Y-114992246D01*
X145433712Y-115025500D01*
X145433713Y-115025500D01*
X145646285Y-115025500D01*
X145646286Y-115025500D01*
X145856242Y-114992246D01*
X146058411Y-114926557D01*
X146247815Y-114830051D01*
X146271251Y-114813024D01*
X146419785Y-114705109D01*
X146419787Y-114705106D01*
X146419791Y-114705104D01*
X146570103Y-114554792D01*
X146570105Y-114554788D01*
X146570108Y-114554786D01*
X146695047Y-114382821D01*
X146695184Y-114382553D01*
X146699512Y-114374056D01*
X146747483Y-114323260D01*
X146815303Y-114306462D01*
X146881439Y-114328996D01*
X146920483Y-114374052D01*
X146924949Y-114382817D01*
X147049890Y-114554786D01*
X147200213Y-114705109D01*
X147372179Y-114830048D01*
X147372181Y-114830049D01*
X147372184Y-114830051D01*
X147561588Y-114926557D01*
X147763757Y-114992246D01*
X147973713Y-115025500D01*
X147973714Y-115025500D01*
X148186286Y-115025500D01*
X148186287Y-115025500D01*
X148396243Y-114992246D01*
X148598412Y-114926557D01*
X148787816Y-114830051D01*
X148811252Y-114813024D01*
X148959786Y-114705109D01*
X148959788Y-114705106D01*
X148959792Y-114705104D01*
X149110104Y-114554792D01*
X149110106Y-114554788D01*
X149110109Y-114554786D01*
X149235048Y-114382820D01*
X149235050Y-114382817D01*
X149235051Y-114382816D01*
X149331557Y-114193412D01*
X149397246Y-113991243D01*
X149430500Y-113781287D01*
X149430500Y-113568713D01*
X149397246Y-113358757D01*
X149331557Y-113156588D01*
X149235051Y-112967184D01*
X149235049Y-112967181D01*
X149235048Y-112967179D01*
X149110109Y-112795213D01*
X148959786Y-112644890D01*
X148787820Y-112519951D01*
X148784527Y-112518273D01*
X148752056Y-112501728D01*
X148701261Y-112453754D01*
X148684466Y-112385933D01*
X148707003Y-112319798D01*
X148720665Y-112303569D01*
X149270559Y-111753675D01*
X149331879Y-111720192D01*
X149401570Y-111725176D01*
X149457504Y-111767047D01*
X149481921Y-111832512D01*
X149472799Y-111888809D01*
X149430263Y-111991503D01*
X149430261Y-111991510D01*
X149399500Y-112146153D01*
X149399500Y-112303846D01*
X149430261Y-112458489D01*
X149430264Y-112458501D01*
X149490602Y-112604172D01*
X149490609Y-112604185D01*
X149578210Y-112735288D01*
X149578213Y-112735292D01*
X149689707Y-112846786D01*
X149689711Y-112846789D01*
X149820814Y-112934390D01*
X149820827Y-112934397D01*
X149922477Y-112976501D01*
X149966503Y-112994737D01*
X150049693Y-113011284D01*
X150111602Y-113043668D01*
X150146176Y-113104384D01*
X150149500Y-113132901D01*
X150149500Y-114624901D01*
X150129815Y-114691940D01*
X150113181Y-114712582D01*
X149949214Y-114876548D01*
X149949215Y-114876549D01*
X149844478Y-114981285D01*
X149800891Y-115056784D01*
X149800889Y-115056786D01*
X149765425Y-115118209D01*
X149765423Y-115118212D01*
X149747450Y-115185289D01*
X149724499Y-115270943D01*
X149724499Y-115270945D01*
X149724499Y-115439046D01*
X149724500Y-115439059D01*
X149724500Y-115758480D01*
X149715855Y-115787920D01*
X149709332Y-115817907D01*
X149705577Y-115822922D01*
X149704815Y-115825519D01*
X149688181Y-115846161D01*
X149587681Y-115946661D01*
X149526358Y-115980146D01*
X149456666Y-115975162D01*
X149412319Y-115946661D01*
X149310188Y-115844530D01*
X149266148Y-115817907D01*
X149164606Y-115756522D01*
X149002196Y-115705914D01*
X149002194Y-115705913D01*
X149002192Y-115705913D01*
X148952778Y-115701423D01*
X148931616Y-115699500D01*
X148418384Y-115699500D01*
X148399145Y-115701248D01*
X148347807Y-115705913D01*
X148185393Y-115756522D01*
X148039811Y-115844530D01*
X147919531Y-115964810D01*
X147919528Y-115964814D01*
X147865948Y-116053445D01*
X147814420Y-116100632D01*
X147791929Y-116109068D01*
X147768218Y-116115421D01*
X147768212Y-116115424D01*
X147631287Y-116194477D01*
X147631282Y-116194481D01*
X146706187Y-117119576D01*
X146692091Y-117143993D01*
X146685436Y-117155520D01*
X146627131Y-117256507D01*
X146586207Y-117409235D01*
X146586207Y-117409237D01*
X146586207Y-117577338D01*
X146586208Y-117577351D01*
X146586208Y-118545327D01*
X146566523Y-118612366D01*
X146518503Y-118655811D01*
X146478893Y-118675993D01*
X146478892Y-118675994D01*
X146306921Y-118800936D01*
X146156598Y-118951259D01*
X146031659Y-119123225D01*
X145935152Y-119312631D01*
X145869461Y-119514806D01*
X145836208Y-119724759D01*
X145836208Y-119937332D01*
X145854713Y-120054172D01*
X145869462Y-120147289D01*
X145916708Y-120292698D01*
X145935152Y-120349460D01*
X146031659Y-120538866D01*
X146156598Y-120710832D01*
X146306921Y-120861155D01*
X146467842Y-120978069D01*
X146478892Y-120986097D01*
X146578471Y-121036835D01*
X146633777Y-121065015D01*
X146684573Y-121112990D01*
X146701368Y-121180811D01*
X146678831Y-121246946D01*
X146624115Y-121290397D01*
X146577482Y-121299500D01*
X139092682Y-121299500D01*
X138880235Y-121330044D01*
X138880225Y-121330047D01*
X138674284Y-121390517D01*
X138479061Y-121479672D01*
X138479048Y-121479679D01*
X138298485Y-121595720D01*
X138136275Y-121736275D01*
X137995720Y-121898485D01*
X137879679Y-122079048D01*
X137879672Y-122079061D01*
X137790517Y-122274284D01*
X137730047Y-122480225D01*
X137730044Y-122480235D01*
X137699500Y-122692682D01*
X137699500Y-123293038D01*
X137698720Y-123306922D01*
X137698720Y-123306923D01*
X137688540Y-123397264D01*
X137682362Y-123424333D01*
X137654648Y-123503537D01*
X137642600Y-123528555D01*
X137597957Y-123599604D01*
X137580644Y-123621313D01*
X137521313Y-123680644D01*
X137499604Y-123697957D01*
X137428555Y-123742600D01*
X137403537Y-123754648D01*
X137324333Y-123782362D01*
X137297264Y-123788540D01*
X137217075Y-123797576D01*
X137206921Y-123798720D01*
X137193038Y-123799500D01*
X129806962Y-123799500D01*
X129793078Y-123798720D01*
X129780553Y-123797308D01*
X129702735Y-123788540D01*
X129675666Y-123782362D01*
X129596462Y-123754648D01*
X129571444Y-123742600D01*
X129500395Y-123697957D01*
X129478686Y-123680644D01*
X129419355Y-123621313D01*
X129402042Y-123599604D01*
X129357399Y-123528555D01*
X129345351Y-123503537D01*
X129317637Y-123424333D01*
X129311459Y-123397263D01*
X129301280Y-123306922D01*
X129300500Y-123293038D01*
X129300500Y-118967482D01*
X131129500Y-118967482D01*
X131129500Y-120767517D01*
X131140000Y-120870296D01*
X131195185Y-121036832D01*
X131195187Y-121036837D01*
X131223416Y-121082603D01*
X131287288Y-121186156D01*
X131411344Y-121310212D01*
X131560665Y-121402314D01*
X131727202Y-121457499D01*
X131829990Y-121468000D01*
X131829995Y-121468000D01*
X132286425Y-121468000D01*
X132353464Y-121487685D01*
X132399219Y-121540489D01*
X132409163Y-121609647D01*
X132380138Y-121673203D01*
X132355316Y-121695102D01*
X132219711Y-121785710D01*
X132219707Y-121785713D01*
X132108213Y-121897207D01*
X132108210Y-121897211D01*
X132020609Y-122028314D01*
X132020602Y-122028327D01*
X131960264Y-122173998D01*
X131960261Y-122174010D01*
X131929500Y-122328653D01*
X131929500Y-122486346D01*
X131960261Y-122640989D01*
X131960264Y-122641001D01*
X132020602Y-122786672D01*
X132020609Y-122786685D01*
X132108210Y-122917788D01*
X132108213Y-122917792D01*
X132219707Y-123029286D01*
X132219711Y-123029289D01*
X132350814Y-123116890D01*
X132350827Y-123116897D01*
X132496498Y-123177235D01*
X132496503Y-123177237D01*
X132651153Y-123207999D01*
X132651156Y-123208000D01*
X132651158Y-123208000D01*
X132808844Y-123208000D01*
X132808845Y-123207999D01*
X132963497Y-123177237D01*
X133109179Y-123116894D01*
X133240289Y-123029289D01*
X133351789Y-122917789D01*
X133439394Y-122786679D01*
X133499737Y-122640997D01*
X133530500Y-122486342D01*
X133530500Y-122328658D01*
X133530500Y-122328655D01*
X133530499Y-122328653D01*
X133499738Y-122174010D01*
X133499737Y-122174003D01*
X133460411Y-122079061D01*
X133439397Y-122028327D01*
X133439390Y-122028314D01*
X133351789Y-121897211D01*
X133351786Y-121897207D01*
X133240292Y-121785713D01*
X133240288Y-121785710D01*
X133104684Y-121695102D01*
X133059879Y-121641490D01*
X133051172Y-121572165D01*
X133081326Y-121509137D01*
X133140770Y-121472418D01*
X133173575Y-121468000D01*
X133630005Y-121468000D01*
X133630010Y-121468000D01*
X133732798Y-121457499D01*
X133899335Y-121402314D01*
X134048656Y-121310212D01*
X134172712Y-121186156D01*
X134172715Y-121186150D01*
X134177495Y-121181371D01*
X134238818Y-121147886D01*
X134308510Y-121152870D01*
X134338058Y-121168731D01*
X134431155Y-121236370D01*
X134451912Y-121246946D01*
X134655616Y-121350739D01*
X134655618Y-121350739D01*
X134655621Y-121350741D01*
X134895215Y-121428590D01*
X134926866Y-121433603D01*
X134928469Y-121433857D01*
X134991603Y-121463786D01*
X135028535Y-121523097D01*
X135027537Y-121592960D01*
X134988927Y-121651193D01*
X134956523Y-121670891D01*
X134890827Y-121698102D01*
X134890814Y-121698109D01*
X134759711Y-121785710D01*
X134759707Y-121785713D01*
X134648213Y-121897207D01*
X134648210Y-121897211D01*
X134560609Y-122028314D01*
X134560602Y-122028327D01*
X134500264Y-122173998D01*
X134500261Y-122174010D01*
X134469500Y-122328653D01*
X134469500Y-122486346D01*
X134500261Y-122640989D01*
X134500264Y-122641001D01*
X134560602Y-122786672D01*
X134560609Y-122786685D01*
X134648210Y-122917788D01*
X134648213Y-122917792D01*
X134759707Y-123029286D01*
X134759711Y-123029289D01*
X134890814Y-123116890D01*
X134890827Y-123116897D01*
X135036498Y-123177235D01*
X135036503Y-123177237D01*
X135191153Y-123207999D01*
X135191156Y-123208000D01*
X135191158Y-123208000D01*
X135348844Y-123208000D01*
X135348845Y-123207999D01*
X135503497Y-123177237D01*
X135649179Y-123116894D01*
X135780289Y-123029289D01*
X135891789Y-122917789D01*
X135979394Y-122786679D01*
X136039737Y-122640997D01*
X136070500Y-122486342D01*
X136070500Y-122328658D01*
X136070500Y-122328655D01*
X136070499Y-122328653D01*
X136039738Y-122174010D01*
X136039737Y-122174003D01*
X136000411Y-122079061D01*
X135979397Y-122028327D01*
X135979390Y-122028314D01*
X135891789Y-121897211D01*
X135891786Y-121897207D01*
X135780292Y-121785713D01*
X135780288Y-121785710D01*
X135649185Y-121698109D01*
X135649173Y-121698102D01*
X135583476Y-121670891D01*
X135529072Y-121627051D01*
X135507007Y-121560757D01*
X135524286Y-121493057D01*
X135575423Y-121445447D01*
X135611531Y-121433857D01*
X135644785Y-121428590D01*
X135644788Y-121428589D01*
X135884379Y-121350741D01*
X136108845Y-121236370D01*
X136312656Y-121088293D01*
X136490793Y-120910156D01*
X136638870Y-120706345D01*
X136753241Y-120481879D01*
X136831090Y-120242285D01*
X136870500Y-119993462D01*
X136870500Y-119741538D01*
X136831090Y-119492715D01*
X136753241Y-119253121D01*
X136753239Y-119253118D01*
X136753239Y-119253116D01*
X136691524Y-119131995D01*
X136638870Y-119028655D01*
X136593062Y-118965606D01*
X136490798Y-118824850D01*
X136490794Y-118824845D01*
X136312654Y-118646705D01*
X136312649Y-118646701D01*
X136108848Y-118498632D01*
X136108847Y-118498631D01*
X136108845Y-118498630D01*
X135992001Y-118439095D01*
X135884383Y-118384260D01*
X135644785Y-118306410D01*
X135395962Y-118267000D01*
X135144038Y-118267000D01*
X135077738Y-118277501D01*
X134895214Y-118306410D01*
X134655616Y-118384260D01*
X134431158Y-118498628D01*
X134431155Y-118498629D01*
X134431155Y-118498630D01*
X134338060Y-118566266D01*
X134272255Y-118589745D01*
X134204201Y-118573919D01*
X134177496Y-118553628D01*
X134048657Y-118424789D01*
X134048656Y-118424788D01*
X133924145Y-118347989D01*
X133899337Y-118332687D01*
X133899332Y-118332685D01*
X133897863Y-118332198D01*
X133732798Y-118277501D01*
X133732796Y-118277500D01*
X133630017Y-118267000D01*
X133630010Y-118267000D01*
X131829990Y-118267000D01*
X131829982Y-118267000D01*
X131727203Y-118277500D01*
X131727202Y-118277501D01*
X131644669Y-118304849D01*
X131560667Y-118332685D01*
X131560662Y-118332687D01*
X131411342Y-118424789D01*
X131287289Y-118548842D01*
X131195187Y-118698162D01*
X131195185Y-118698167D01*
X131173884Y-118762450D01*
X131140001Y-118864702D01*
X131140001Y-118864703D01*
X131140000Y-118864703D01*
X131129500Y-118967482D01*
X129300500Y-118967482D01*
X129300500Y-115402350D01*
X129320185Y-115335311D01*
X129372989Y-115289556D01*
X129442147Y-115279612D01*
X129493391Y-115299248D01*
X129620814Y-115384390D01*
X129620827Y-115384397D01*
X129752795Y-115439059D01*
X129766503Y-115444737D01*
X129921153Y-115475499D01*
X129921156Y-115475500D01*
X129921158Y-115475500D01*
X130078844Y-115475500D01*
X130078845Y-115475499D01*
X130233497Y-115444737D01*
X130379179Y-115384394D01*
X130510289Y-115296789D01*
X130621789Y-115185289D01*
X130709394Y-115054179D01*
X130769737Y-114908497D01*
X130800500Y-114753842D01*
X130800500Y-114596158D01*
X130800500Y-114596155D01*
X130800499Y-114596153D01*
X130769739Y-114441511D01*
X130769736Y-114441501D01*
X130767754Y-114436717D01*
X130736646Y-114361613D01*
X130727207Y-114314161D01*
X130727207Y-112203289D01*
X130746892Y-112136250D01*
X130799696Y-112090495D01*
X130864463Y-112080000D01*
X130878834Y-112081546D01*
X131974579Y-112081545D01*
X132034190Y-112075137D01*
X132034196Y-112075134D01*
X132041732Y-112073354D01*
X132042028Y-112074607D01*
X132103770Y-112070188D01*
X132117362Y-112074178D01*
X132119334Y-112074644D01*
X132178862Y-112081045D01*
X132178879Y-112081046D01*
X132476707Y-112081046D01*
X132976707Y-112081046D01*
X133274535Y-112081046D01*
X133274551Y-112081045D01*
X133334079Y-112074644D01*
X133334086Y-112074642D01*
X133468793Y-112024400D01*
X133468800Y-112024396D01*
X133583894Y-111938236D01*
X133583897Y-111938233D01*
X133670057Y-111823139D01*
X133670061Y-111823132D01*
X133720303Y-111688425D01*
X133720305Y-111688418D01*
X133726706Y-111628890D01*
X133726707Y-111628873D01*
X133726707Y-111081046D01*
X132976707Y-111081046D01*
X132976707Y-112081046D01*
X132476707Y-112081046D01*
X132476707Y-110955046D01*
X132496392Y-110888007D01*
X132549196Y-110842252D01*
X132600707Y-110831046D01*
X132726707Y-110831046D01*
X132726707Y-110705046D01*
X132746392Y-110638007D01*
X132799196Y-110592252D01*
X132850707Y-110581046D01*
X133726707Y-110581046D01*
X133726707Y-110033218D01*
X133726706Y-110033201D01*
X133720305Y-109973673D01*
X133720303Y-109973666D01*
X133670061Y-109838959D01*
X133670057Y-109838952D01*
X133583897Y-109723858D01*
X133583894Y-109723855D01*
X133468800Y-109637695D01*
X133468793Y-109637691D01*
X133334086Y-109587449D01*
X133334079Y-109587447D01*
X133274551Y-109581046D01*
X132883844Y-109581046D01*
X132816805Y-109561361D01*
X132771050Y-109508557D01*
X132761106Y-109439399D01*
X132767983Y-109414328D01*
X132767969Y-109414324D01*
X132768135Y-109413774D01*
X132769282Y-109409596D01*
X132769735Y-109408501D01*
X132769737Y-109408497D01*
X132800500Y-109253842D01*
X132800500Y-109096158D01*
X132800500Y-109096155D01*
X132800499Y-109096153D01*
X132788980Y-109038245D01*
X132769737Y-108941503D01*
X132752545Y-108899999D01*
X133199999Y-108899999D01*
X133249971Y-108899999D01*
X133249985Y-108899998D01*
X133352696Y-108889505D01*
X133519118Y-108834358D01*
X133519123Y-108834356D01*
X133668344Y-108742315D01*
X133792314Y-108618345D01*
X133884355Y-108469124D01*
X133884357Y-108469119D01*
X133939504Y-108302697D01*
X133939505Y-108302690D01*
X133949998Y-108199986D01*
X133949999Y-108199973D01*
X133949999Y-107925000D01*
X133199999Y-107925000D01*
X133199999Y-108899999D01*
X132752545Y-108899999D01*
X132752545Y-108899998D01*
X132709438Y-108795926D01*
X132699999Y-108748474D01*
X132699999Y-107425000D01*
X133199999Y-107425000D01*
X133949998Y-107425000D01*
X133949998Y-107150028D01*
X133949997Y-107150013D01*
X133939504Y-107047302D01*
X133884357Y-106880880D01*
X133884355Y-106880875D01*
X133792314Y-106731654D01*
X133668344Y-106607684D01*
X133519123Y-106515643D01*
X133519118Y-106515641D01*
X133352696Y-106460494D01*
X133352689Y-106460493D01*
X133249985Y-106450000D01*
X133199999Y-106450000D01*
X133199999Y-107425000D01*
X132699999Y-107425000D01*
X132699999Y-106487264D01*
X132708686Y-106457678D01*
X132715323Y-106427551D01*
X132718707Y-106423549D01*
X132719684Y-106420225D01*
X132736548Y-106399353D01*
X132742518Y-106393413D01*
X132743656Y-106392712D01*
X132867712Y-106268656D01*
X132959814Y-106119334D01*
X133014999Y-105952797D01*
X133020397Y-105899958D01*
X133021732Y-105886897D01*
X133048129Y-105822205D01*
X133105310Y-105782054D01*
X133145090Y-105775500D01*
X133413331Y-105775500D01*
X133413347Y-105775501D01*
X133420943Y-105775501D01*
X133579054Y-105775501D01*
X133579057Y-105775501D01*
X133731785Y-105734577D01*
X133791854Y-105699896D01*
X133868716Y-105655520D01*
X133980520Y-105543716D01*
X133980520Y-105543714D01*
X133990720Y-105533515D01*
X133990725Y-105533508D01*
X134187820Y-105336414D01*
X134249142Y-105302930D01*
X134318834Y-105307914D01*
G37*
%TD.AperFunction*%
%TA.AperFunction,Conductor*%
G36*
X141455539Y-80957265D02*
G01*
X141501294Y-81010069D01*
X141512500Y-81061580D01*
X141512500Y-81277007D01*
X144012500Y-81277007D01*
X144012500Y-81061580D01*
X144032185Y-80994541D01*
X144084989Y-80948786D01*
X144136500Y-80937580D01*
X155388500Y-80937580D01*
X155455539Y-80957265D01*
X155501294Y-81010069D01*
X155512500Y-81061580D01*
X155512500Y-81277007D01*
X158012500Y-81277007D01*
X158012500Y-81061580D01*
X158015050Y-81052894D01*
X158013762Y-81043933D01*
X158024740Y-81019892D01*
X158032185Y-80994541D01*
X158039025Y-80988613D01*
X158042787Y-80980377D01*
X158065021Y-80966087D01*
X158084989Y-80948786D01*
X158095503Y-80946498D01*
X158101565Y-80942603D01*
X158136500Y-80937580D01*
X158304724Y-80937580D01*
X158318607Y-80938360D01*
X158389384Y-80946334D01*
X158453797Y-80973400D01*
X158493352Y-81030995D01*
X158499500Y-81069554D01*
X158499500Y-81407317D01*
X158530044Y-81619764D01*
X158530047Y-81619774D01*
X158590517Y-81825715D01*
X158679672Y-82020938D01*
X158679679Y-82020951D01*
X158795720Y-82201514D01*
X158936275Y-82363724D01*
X159060277Y-82471172D01*
X159098487Y-82504281D01*
X159227531Y-82587211D01*
X159279048Y-82620320D01*
X159279061Y-82620327D01*
X159474284Y-82709482D01*
X159474288Y-82709483D01*
X159474290Y-82709484D01*
X159680231Y-82769954D01*
X159680232Y-82769954D01*
X159680235Y-82769955D01*
X159743584Y-82779062D01*
X159892682Y-82800500D01*
X159892683Y-82800500D01*
X164219897Y-82800500D01*
X164219901Y-82800501D01*
X164279705Y-82800500D01*
X164291856Y-82801097D01*
X164371085Y-82808899D01*
X164394926Y-82813641D01*
X164439789Y-82827249D01*
X164465258Y-82834975D01*
X164487714Y-82844276D01*
X164552534Y-82878922D01*
X164572740Y-82892422D01*
X164629091Y-82938668D01*
X164634217Y-82942875D01*
X164643233Y-82951047D01*
X178008957Y-96316771D01*
X178042442Y-96378094D01*
X178037458Y-96447786D01*
X177995586Y-96503719D01*
X177930122Y-96528136D01*
X177908027Y-96527742D01*
X177877873Y-96524500D01*
X177877865Y-96524500D01*
X176982129Y-96524500D01*
X176982123Y-96524501D01*
X176922516Y-96530908D01*
X176787671Y-96581202D01*
X176787664Y-96581206D01*
X176672455Y-96667452D01*
X176672452Y-96667455D01*
X176586206Y-96782664D01*
X176586202Y-96782671D01*
X176535908Y-96917517D01*
X176529651Y-96975723D01*
X176529501Y-96977123D01*
X176529500Y-96977135D01*
X176529500Y-98072870D01*
X176529501Y-98072876D01*
X176535908Y-98132483D01*
X176586202Y-98267328D01*
X176586206Y-98267335D01*
X176672452Y-98382544D01*
X176672455Y-98382547D01*
X176787664Y-98468793D01*
X176787671Y-98468797D01*
X176922517Y-98519091D01*
X176922516Y-98519091D01*
X176929444Y-98519835D01*
X176982127Y-98525500D01*
X177877872Y-98525499D01*
X177937483Y-98519091D01*
X178032167Y-98483775D01*
X178101858Y-98478792D01*
X178163181Y-98512277D01*
X178196666Y-98573600D01*
X178199500Y-98599958D01*
X178199500Y-103750041D01*
X178179815Y-103817080D01*
X178127011Y-103862835D01*
X178057853Y-103872779D01*
X178032168Y-103866223D01*
X177937485Y-103830909D01*
X177937483Y-103830908D01*
X177877883Y-103824501D01*
X177877881Y-103824500D01*
X177877873Y-103824500D01*
X177877864Y-103824500D01*
X176982129Y-103824500D01*
X176982123Y-103824501D01*
X176922516Y-103830908D01*
X176787671Y-103881202D01*
X176787664Y-103881206D01*
X176672455Y-103967452D01*
X176672452Y-103967455D01*
X176586206Y-104082664D01*
X176586202Y-104082671D01*
X176535908Y-104217517D01*
X176532074Y-104253186D01*
X176529501Y-104277123D01*
X176529500Y-104277135D01*
X176529500Y-105372870D01*
X176529501Y-105372876D01*
X176535908Y-105432483D01*
X176586202Y-105567328D01*
X176586206Y-105567335D01*
X176672452Y-105682544D01*
X176672455Y-105682547D01*
X176787664Y-105768793D01*
X176787671Y-105768797D01*
X176922517Y-105819091D01*
X176922516Y-105819091D01*
X176929444Y-105819835D01*
X176982127Y-105825500D01*
X177877872Y-105825499D01*
X177937483Y-105819091D01*
X178032167Y-105783775D01*
X178101858Y-105778792D01*
X178163181Y-105812277D01*
X178196666Y-105873600D01*
X178199500Y-105899958D01*
X178199500Y-113293038D01*
X178198720Y-113306922D01*
X178198720Y-113306923D01*
X178188540Y-113397264D01*
X178182362Y-113424333D01*
X178154648Y-113503537D01*
X178142600Y-113528555D01*
X178097957Y-113599604D01*
X178080644Y-113621313D01*
X178021313Y-113680644D01*
X177999604Y-113697957D01*
X177928555Y-113742600D01*
X177903537Y-113754648D01*
X177824333Y-113782362D01*
X177797264Y-113788540D01*
X177717075Y-113797576D01*
X177706921Y-113798720D01*
X177693038Y-113799500D01*
X171592682Y-113799500D01*
X171380235Y-113830044D01*
X171380225Y-113830047D01*
X171174284Y-113890517D01*
X170979061Y-113979672D01*
X170979048Y-113979679D01*
X170798485Y-114095720D01*
X170636275Y-114236275D01*
X170495720Y-114398485D01*
X170379679Y-114579048D01*
X170379672Y-114579061D01*
X170290517Y-114774284D01*
X170230047Y-114980225D01*
X170230044Y-114980235D01*
X170199500Y-115192682D01*
X170199500Y-123293038D01*
X170198720Y-123306922D01*
X170198720Y-123306923D01*
X170188540Y-123397264D01*
X170182362Y-123424333D01*
X170154648Y-123503537D01*
X170142600Y-123528555D01*
X170097957Y-123599604D01*
X170080644Y-123621313D01*
X170021313Y-123680644D01*
X169999604Y-123697957D01*
X169928555Y-123742600D01*
X169903537Y-123754648D01*
X169824333Y-123782362D01*
X169797264Y-123788540D01*
X169717075Y-123797576D01*
X169706921Y-123798720D01*
X169693038Y-123799500D01*
X162206962Y-123799500D01*
X162193078Y-123798720D01*
X162180553Y-123797308D01*
X162102735Y-123788540D01*
X162075666Y-123782362D01*
X161996462Y-123754648D01*
X161971444Y-123742600D01*
X161900395Y-123697957D01*
X161878686Y-123680644D01*
X161819355Y-123621313D01*
X161802042Y-123599604D01*
X161757399Y-123528555D01*
X161745351Y-123503537D01*
X161717637Y-123424333D01*
X161711459Y-123397263D01*
X161701280Y-123306922D01*
X161700500Y-123293038D01*
X161700500Y-122692683D01*
X161700500Y-122692682D01*
X161671153Y-122488567D01*
X161669955Y-122480235D01*
X161669952Y-122480225D01*
X161631705Y-122349966D01*
X161609484Y-122274290D01*
X161609483Y-122274288D01*
X161609482Y-122274284D01*
X161520327Y-122079061D01*
X161520320Y-122079048D01*
X161487211Y-122027531D01*
X161404281Y-121898487D01*
X161306559Y-121785710D01*
X161263724Y-121736275D01*
X161101514Y-121595720D01*
X161101513Y-121595719D01*
X161015573Y-121540489D01*
X160920951Y-121479679D01*
X160920938Y-121479672D01*
X160725715Y-121390517D01*
X160519774Y-121330047D01*
X160519764Y-121330044D01*
X160328754Y-121302582D01*
X160307318Y-121299500D01*
X160265892Y-121299500D01*
X153497448Y-121299500D01*
X153430409Y-121279815D01*
X153384654Y-121227011D01*
X153374710Y-121157853D01*
X153403735Y-121094297D01*
X153423136Y-121076234D01*
X153473897Y-121038233D01*
X153560057Y-120923139D01*
X153560061Y-120923132D01*
X153610303Y-120788425D01*
X153610305Y-120788418D01*
X153616706Y-120728890D01*
X153616707Y-120728873D01*
X153616707Y-120081046D01*
X152699719Y-120081046D01*
X152732632Y-120024039D01*
X152766707Y-119896872D01*
X152766707Y-119765220D01*
X152732632Y-119638053D01*
X152699719Y-119581046D01*
X153616707Y-119581046D01*
X153616707Y-118933218D01*
X153616706Y-118933201D01*
X153610305Y-118873673D01*
X153610303Y-118873666D01*
X153560061Y-118738959D01*
X153560057Y-118738952D01*
X153473897Y-118623858D01*
X153473894Y-118623855D01*
X153358800Y-118537695D01*
X153358793Y-118537691D01*
X153299783Y-118515682D01*
X153243849Y-118473811D01*
X153219432Y-118408346D01*
X153234284Y-118340073D01*
X153283689Y-118290668D01*
X153343116Y-118275500D01*
X154283285Y-118275500D01*
X154350324Y-118295185D01*
X154389401Y-118335349D01*
X154409888Y-118369238D01*
X154419530Y-118385188D01*
X154539811Y-118505469D01*
X154539813Y-118505470D01*
X154539815Y-118505472D01*
X154685394Y-118593478D01*
X154847804Y-118644086D01*
X154918384Y-118650500D01*
X154918387Y-118650500D01*
X155431613Y-118650500D01*
X155431616Y-118650500D01*
X155502196Y-118644086D01*
X155664606Y-118593478D01*
X155810185Y-118505472D01*
X155857955Y-118457702D01*
X155912319Y-118403339D01*
X155973642Y-118369854D01*
X156043334Y-118374838D01*
X156087681Y-118403339D01*
X156189811Y-118505469D01*
X156189813Y-118505470D01*
X156189815Y-118505472D01*
X156335394Y-118593478D01*
X156497804Y-118644086D01*
X156568384Y-118650500D01*
X156568387Y-118650500D01*
X156788289Y-118650500D01*
X156855328Y-118670185D01*
X156901083Y-118722989D01*
X156911027Y-118792147D01*
X156882002Y-118855703D01*
X156823224Y-118893477D01*
X156812480Y-118896117D01*
X156766510Y-118905261D01*
X156766498Y-118905264D01*
X156620827Y-118965602D01*
X156620814Y-118965609D01*
X156489711Y-119053210D01*
X156489707Y-119053213D01*
X156378213Y-119164707D01*
X156378210Y-119164711D01*
X156290609Y-119295814D01*
X156290602Y-119295827D01*
X156230264Y-119441498D01*
X156230261Y-119441510D01*
X156199500Y-119596153D01*
X156199500Y-119753846D01*
X156230261Y-119908489D01*
X156230264Y-119908501D01*
X156290602Y-120054172D01*
X156290609Y-120054185D01*
X156378210Y-120185288D01*
X156378213Y-120185292D01*
X156489707Y-120296786D01*
X156489711Y-120296789D01*
X156620814Y-120384390D01*
X156620827Y-120384397D01*
X156740260Y-120433867D01*
X156766503Y-120444737D01*
X156880196Y-120467352D01*
X156921153Y-120475499D01*
X156921156Y-120475500D01*
X156921158Y-120475500D01*
X157078844Y-120475500D01*
X157078845Y-120475499D01*
X157233497Y-120444737D01*
X157338372Y-120401296D01*
X157407838Y-120393828D01*
X157470318Y-120425103D01*
X157473503Y-120428176D01*
X157544608Y-120499281D01*
X157544610Y-120499282D01*
X157544611Y-120499283D01*
X157687703Y-120587544D01*
X157687706Y-120587545D01*
X157687712Y-120587549D01*
X157847314Y-120640436D01*
X157945825Y-120650500D01*
X157945830Y-120650500D01*
X158479168Y-120650500D01*
X158479173Y-120650500D01*
X158577684Y-120640436D01*
X158737286Y-120587549D01*
X158880390Y-120499281D01*
X158912319Y-120467352D01*
X158973642Y-120433867D01*
X159043334Y-120438851D01*
X159087681Y-120467352D01*
X159119609Y-120499280D01*
X159119613Y-120499283D01*
X159262705Y-120587544D01*
X159262708Y-120587545D01*
X159262714Y-120587549D01*
X159422316Y-120640436D01*
X159520827Y-120650500D01*
X159520832Y-120650500D01*
X160054170Y-120650500D01*
X160054175Y-120650500D01*
X160152686Y-120640436D01*
X160312288Y-120587549D01*
X160455392Y-120499281D01*
X160574282Y-120380391D01*
X160662550Y-120237287D01*
X160715437Y-120077685D01*
X160725501Y-119979174D01*
X160725501Y-119370826D01*
X160715437Y-119272315D01*
X160662550Y-119112713D01*
X160662546Y-119112707D01*
X160662545Y-119112704D01*
X160574284Y-118969612D01*
X160574281Y-118969608D01*
X160455391Y-118850718D01*
X160437209Y-118839503D01*
X160406079Y-118820302D01*
X160359356Y-118768356D01*
X160351404Y-118746863D01*
X160347078Y-118730717D01*
X160343791Y-118725024D01*
X160268025Y-118593791D01*
X160268022Y-118593787D01*
X160268021Y-118593785D01*
X160156217Y-118481981D01*
X160156216Y-118481980D01*
X160151886Y-118477650D01*
X160151875Y-118477640D01*
X158987590Y-117313355D01*
X158987588Y-117313352D01*
X158868717Y-117194481D01*
X158868716Y-117194480D01*
X158781269Y-117143993D01*
X158731785Y-117115423D01*
X158579057Y-117074499D01*
X158420943Y-117074499D01*
X158413347Y-117074499D01*
X158413331Y-117074500D01*
X157716715Y-117074500D01*
X157649676Y-117054815D01*
X157610598Y-117014650D01*
X157606439Y-117007770D01*
X157580472Y-116964815D01*
X157580470Y-116964813D01*
X157580469Y-116964811D01*
X157460188Y-116844530D01*
X157455905Y-116841941D01*
X157314606Y-116756522D01*
X157152196Y-116705914D01*
X157152194Y-116705913D01*
X157152192Y-116705913D01*
X157102778Y-116701423D01*
X157081616Y-116699500D01*
X156568384Y-116699500D01*
X156549145Y-116701248D01*
X156497807Y-116705913D01*
X156335393Y-116756522D01*
X156189811Y-116844530D01*
X156189810Y-116844531D01*
X156087681Y-116946661D01*
X156026358Y-116980146D01*
X155956666Y-116975162D01*
X155912319Y-116946661D01*
X155810188Y-116844530D01*
X155805905Y-116841941D01*
X155664606Y-116756522D01*
X155502196Y-116705914D01*
X155502194Y-116705913D01*
X155502192Y-116705913D01*
X155452778Y-116701423D01*
X155431616Y-116699500D01*
X154918384Y-116699500D01*
X154899145Y-116701248D01*
X154847807Y-116705913D01*
X154685393Y-116756522D01*
X154539813Y-116844529D01*
X154479087Y-116905255D01*
X154417763Y-116938739D01*
X154348072Y-116933754D01*
X154292138Y-116891883D01*
X154272183Y-116847129D01*
X154271506Y-116847335D01*
X154269869Y-116841941D01*
X154269787Y-116841756D01*
X154269737Y-116841503D01*
X154213575Y-116705914D01*
X154209397Y-116695827D01*
X154209387Y-116695809D01*
X154173473Y-116642059D01*
X154152595Y-116575382D01*
X154171080Y-116508002D01*
X154223059Y-116461312D01*
X154292029Y-116450136D01*
X154300751Y-116451549D01*
X154349831Y-116461312D01*
X154421156Y-116475500D01*
X154421158Y-116475500D01*
X154578844Y-116475500D01*
X154578845Y-116475499D01*
X154733497Y-116444737D01*
X154879179Y-116384394D01*
X155010289Y-116296789D01*
X155121789Y-116185289D01*
X155209394Y-116054179D01*
X155269737Y-115908497D01*
X155287757Y-115817907D01*
X155300638Y-115753151D01*
X155333023Y-115691240D01*
X155334510Y-115689724D01*
X155480520Y-115543716D01*
X155559577Y-115406784D01*
X155600501Y-115254057D01*
X155600501Y-115095942D01*
X155600501Y-115088339D01*
X155600500Y-115088329D01*
X155600500Y-114887318D01*
X155620185Y-114820279D01*
X155650186Y-114788053D01*
X155657544Y-114782546D01*
X155743794Y-114667331D01*
X155794089Y-114532483D01*
X155800498Y-114472873D01*
X155800497Y-112877128D01*
X155794089Y-112817517D01*
X155785999Y-112795827D01*
X155743795Y-112682671D01*
X155743791Y-112682664D01*
X155657545Y-112567455D01*
X155657544Y-112567454D01*
X155647222Y-112559727D01*
X155628690Y-112545854D01*
X155586819Y-112489922D01*
X155581835Y-112420230D01*
X155615318Y-112358909D01*
X156687814Y-111286413D01*
X156749136Y-111252930D01*
X156818828Y-111257914D01*
X156874761Y-111299786D01*
X156899178Y-111365250D01*
X156899494Y-111374096D01*
X156899494Y-113714324D01*
X156899493Y-113714342D01*
X156899493Y-113880048D01*
X156899492Y-113880048D01*
X156902297Y-113890516D01*
X156937247Y-114020950D01*
X156940417Y-114032778D01*
X156940418Y-114032781D01*
X156946733Y-114043718D01*
X156946734Y-114043720D01*
X157019471Y-114169706D01*
X157019475Y-114169711D01*
X157138343Y-114288579D01*
X157138349Y-114288584D01*
X157543477Y-114693712D01*
X157543479Y-114693715D01*
X157557756Y-114707992D01*
X157563186Y-114713422D01*
X157579341Y-114743011D01*
X157596667Y-114774742D01*
X157599501Y-114801098D01*
X157599501Y-114872868D01*
X157599502Y-114872875D01*
X157605909Y-114932482D01*
X157656203Y-115067327D01*
X157656207Y-115067334D01*
X157742453Y-115182543D01*
X157742456Y-115182546D01*
X157857665Y-115268792D01*
X157857672Y-115268796D01*
X157863434Y-115270945D01*
X157992518Y-115319090D01*
X158052128Y-115325499D01*
X158125500Y-115325498D01*
X158192538Y-115345182D01*
X158238294Y-115397985D01*
X158249500Y-115449498D01*
X158249500Y-115604055D01*
X158249499Y-115604055D01*
X158290424Y-115756786D01*
X158301229Y-115775500D01*
X158301230Y-115775503D01*
X158369476Y-115893710D01*
X158369482Y-115893718D01*
X158488350Y-116012586D01*
X158488356Y-116012591D01*
X160015139Y-117539374D01*
X160015149Y-117539385D01*
X160019479Y-117543715D01*
X160019480Y-117543716D01*
X160131284Y-117655520D01*
X160202765Y-117696789D01*
X160268215Y-117734577D01*
X160420943Y-117775501D01*
X160420946Y-117775501D01*
X160586653Y-117775501D01*
X160586669Y-117775500D01*
X165199903Y-117775500D01*
X165266942Y-117795185D01*
X165287584Y-117811819D01*
X165853537Y-118377772D01*
X165862477Y-118394144D01*
X165875488Y-118407515D01*
X165878875Y-118424175D01*
X165887022Y-118439095D01*
X165885691Y-118457702D01*
X165889408Y-118475984D01*
X165883250Y-118491829D01*
X165882038Y-118508787D01*
X165870857Y-118523722D01*
X165864101Y-118541109D01*
X165841044Y-118563546D01*
X165840166Y-118564720D01*
X165838807Y-118565724D01*
X165838126Y-118566218D01*
X165772337Y-118589740D01*
X165704273Y-118573959D01*
X165677496Y-118553628D01*
X165548657Y-118424789D01*
X165548656Y-118424788D01*
X165424145Y-118347989D01*
X165399337Y-118332687D01*
X165399332Y-118332685D01*
X165397863Y-118332198D01*
X165232798Y-118277501D01*
X165232796Y-118277500D01*
X165130017Y-118267000D01*
X165130010Y-118267000D01*
X163329990Y-118267000D01*
X163329982Y-118267000D01*
X163227203Y-118277500D01*
X163227202Y-118277501D01*
X163144669Y-118304849D01*
X163060667Y-118332685D01*
X163060662Y-118332687D01*
X162911342Y-118424789D01*
X162787289Y-118548842D01*
X162695187Y-118698162D01*
X162695185Y-118698167D01*
X162673884Y-118762450D01*
X162640001Y-118864702D01*
X162640001Y-118864703D01*
X162640000Y-118864703D01*
X162629500Y-118967482D01*
X162629500Y-120767517D01*
X162640000Y-120870296D01*
X162695185Y-121036832D01*
X162695187Y-121036837D01*
X162723416Y-121082603D01*
X162787288Y-121186156D01*
X162911344Y-121310212D01*
X163060665Y-121402314D01*
X163227202Y-121457499D01*
X163329990Y-121468000D01*
X163329995Y-121468000D01*
X163786425Y-121468000D01*
X163853464Y-121487685D01*
X163899219Y-121540489D01*
X163909163Y-121609647D01*
X163880138Y-121673203D01*
X163855316Y-121695102D01*
X163719711Y-121785710D01*
X163719707Y-121785713D01*
X163608213Y-121897207D01*
X163608210Y-121897211D01*
X163520609Y-122028314D01*
X163520602Y-122028327D01*
X163460264Y-122173998D01*
X163460261Y-122174010D01*
X163429500Y-122328653D01*
X163429500Y-122486346D01*
X163460261Y-122640989D01*
X163460264Y-122641001D01*
X163520602Y-122786672D01*
X163520609Y-122786685D01*
X163608210Y-122917788D01*
X163608213Y-122917792D01*
X163719707Y-123029286D01*
X163719711Y-123029289D01*
X163850814Y-123116890D01*
X163850827Y-123116897D01*
X163996498Y-123177235D01*
X163996503Y-123177237D01*
X164151153Y-123207999D01*
X164151156Y-123208000D01*
X164151158Y-123208000D01*
X164308844Y-123208000D01*
X164308845Y-123207999D01*
X164463497Y-123177237D01*
X164609179Y-123116894D01*
X164740289Y-123029289D01*
X164851789Y-122917789D01*
X164939394Y-122786679D01*
X164999737Y-122640997D01*
X165030500Y-122486342D01*
X165030500Y-122328658D01*
X165030500Y-122328655D01*
X165030499Y-122328653D01*
X164999738Y-122174010D01*
X164999737Y-122174003D01*
X164960411Y-122079061D01*
X164939397Y-122028327D01*
X164939390Y-122028314D01*
X164851789Y-121897211D01*
X164851786Y-121897207D01*
X164740292Y-121785713D01*
X164740288Y-121785710D01*
X164604684Y-121695102D01*
X164559879Y-121641490D01*
X164551172Y-121572165D01*
X164581326Y-121509137D01*
X164640770Y-121472418D01*
X164673575Y-121468000D01*
X165130005Y-121468000D01*
X165130010Y-121468000D01*
X165232798Y-121457499D01*
X165399335Y-121402314D01*
X165548656Y-121310212D01*
X165672712Y-121186156D01*
X165672715Y-121186150D01*
X165677495Y-121181371D01*
X165738818Y-121147886D01*
X165808510Y-121152870D01*
X165838058Y-121168731D01*
X165931155Y-121236370D01*
X165951912Y-121246946D01*
X166155616Y-121350739D01*
X166155618Y-121350739D01*
X166155621Y-121350741D01*
X166395215Y-121428590D01*
X166426866Y-121433603D01*
X166428469Y-121433857D01*
X166491603Y-121463786D01*
X166528535Y-121523097D01*
X166527537Y-121592960D01*
X166488927Y-121651193D01*
X166456523Y-121670891D01*
X166390827Y-121698102D01*
X166390814Y-121698109D01*
X166259711Y-121785710D01*
X166259707Y-121785713D01*
X166148213Y-121897207D01*
X166148210Y-121897211D01*
X166060609Y-122028314D01*
X166060602Y-122028327D01*
X166000264Y-122173998D01*
X166000261Y-122174010D01*
X165969500Y-122328653D01*
X165969500Y-122486346D01*
X166000261Y-122640989D01*
X166000264Y-122641001D01*
X166060602Y-122786672D01*
X166060609Y-122786685D01*
X166148210Y-122917788D01*
X166148213Y-122917792D01*
X166259707Y-123029286D01*
X166259711Y-123029289D01*
X166390814Y-123116890D01*
X166390827Y-123116897D01*
X166536498Y-123177235D01*
X166536503Y-123177237D01*
X166691153Y-123207999D01*
X166691156Y-123208000D01*
X166691158Y-123208000D01*
X166848844Y-123208000D01*
X166848845Y-123207999D01*
X167003497Y-123177237D01*
X167149179Y-123116894D01*
X167280289Y-123029289D01*
X167391789Y-122917789D01*
X167479394Y-122786679D01*
X167539737Y-122640997D01*
X167570500Y-122486342D01*
X167570500Y-122328658D01*
X167570500Y-122328655D01*
X167570499Y-122328653D01*
X167539738Y-122174010D01*
X167539737Y-122174003D01*
X167500411Y-122079061D01*
X167479397Y-122028327D01*
X167479390Y-122028314D01*
X167391789Y-121897211D01*
X167391786Y-121897207D01*
X167280292Y-121785713D01*
X167280288Y-121785710D01*
X167149185Y-121698109D01*
X167149173Y-121698102D01*
X167083476Y-121670891D01*
X167029072Y-121627051D01*
X167007007Y-121560757D01*
X167024286Y-121493057D01*
X167075423Y-121445447D01*
X167111531Y-121433857D01*
X167144785Y-121428590D01*
X167144788Y-121428589D01*
X167384379Y-121350741D01*
X167608845Y-121236370D01*
X167812656Y-121088293D01*
X167990793Y-120910156D01*
X168138870Y-120706345D01*
X168253241Y-120481879D01*
X168331090Y-120242285D01*
X168370500Y-119993462D01*
X168370500Y-119741538D01*
X168331090Y-119492715D01*
X168253241Y-119253121D01*
X168253239Y-119253118D01*
X168253239Y-119253116D01*
X168191524Y-119131995D01*
X168138870Y-119028655D01*
X168093062Y-118965606D01*
X167990798Y-118824850D01*
X167990794Y-118824845D01*
X167812654Y-118646705D01*
X167812649Y-118646701D01*
X167608848Y-118498632D01*
X167608847Y-118498631D01*
X167608845Y-118498630D01*
X167431933Y-118408489D01*
X167423180Y-118404029D01*
X167402663Y-118384651D01*
X167380096Y-118367705D01*
X167376190Y-118359648D01*
X167372384Y-118356054D01*
X167363228Y-118336702D01*
X167361205Y-118331254D01*
X167343989Y-118267000D01*
X167329577Y-118213215D01*
X167300639Y-118163095D01*
X167250520Y-118076284D01*
X167138716Y-117964480D01*
X167138715Y-117964479D01*
X167134385Y-117960149D01*
X167134374Y-117960139D01*
X165987590Y-116813355D01*
X165987588Y-116813352D01*
X165868717Y-116694481D01*
X165868716Y-116694480D01*
X165781904Y-116644360D01*
X165781904Y-116644359D01*
X165781900Y-116644358D01*
X165731785Y-116615423D01*
X165579057Y-116574499D01*
X165420943Y-116574499D01*
X165413347Y-116574499D01*
X165413331Y-116574500D01*
X160800097Y-116574500D01*
X160733058Y-116554815D01*
X160712416Y-116538181D01*
X159687937Y-115513702D01*
X159654452Y-115452379D01*
X159659436Y-115382687D01*
X159701308Y-115326754D01*
X159732283Y-115309840D01*
X159842332Y-115268795D01*
X159957547Y-115182545D01*
X160043797Y-115067330D01*
X160094092Y-114932482D01*
X160100501Y-114872872D01*
X160100500Y-113777127D01*
X160098955Y-113762754D01*
X160101734Y-113747348D01*
X160099507Y-113731854D01*
X160107812Y-113713667D01*
X160111362Y-113693996D01*
X160122027Y-113682539D01*
X160128532Y-113668298D01*
X160145350Y-113657489D01*
X160158972Y-113642859D01*
X160174927Y-113638481D01*
X160187310Y-113630524D01*
X160222245Y-113625501D01*
X160271982Y-113625501D01*
X160339021Y-113645186D01*
X160375083Y-113680608D01*
X160378211Y-113685290D01*
X160489707Y-113796786D01*
X160489711Y-113796789D01*
X160620814Y-113884390D01*
X160620827Y-113884397D01*
X160766498Y-113944735D01*
X160766503Y-113944737D01*
X160921153Y-113975499D01*
X160921156Y-113975500D01*
X160921158Y-113975500D01*
X161078844Y-113975500D01*
X161078845Y-113975499D01*
X161233497Y-113944737D01*
X161379179Y-113884394D01*
X161510289Y-113796789D01*
X161621789Y-113685289D01*
X161709394Y-113554179D01*
X161769737Y-113408497D01*
X161800500Y-113253842D01*
X161800500Y-113096158D01*
X161800500Y-113096155D01*
X161800499Y-113096153D01*
X161790033Y-113043537D01*
X161769737Y-112941503D01*
X161732750Y-112852207D01*
X161709397Y-112795827D01*
X161709390Y-112795814D01*
X161621789Y-112664711D01*
X161621786Y-112664707D01*
X161510292Y-112553213D01*
X161510288Y-112553210D01*
X161379185Y-112465609D01*
X161379172Y-112465602D01*
X161233501Y-112405264D01*
X161233489Y-112405261D01*
X161078845Y-112374500D01*
X161078842Y-112374500D01*
X160921158Y-112374500D01*
X160921155Y-112374500D01*
X160766510Y-112405261D01*
X160766502Y-112405263D01*
X160758526Y-112408567D01*
X160742844Y-112415062D01*
X160695394Y-112424501D01*
X160182792Y-112424501D01*
X160115753Y-112404816D01*
X160069998Y-112352012D01*
X160066610Y-112343834D01*
X160043798Y-112282672D01*
X160043794Y-112282665D01*
X159957548Y-112167456D01*
X159957545Y-112167453D01*
X159842336Y-112081207D01*
X159842329Y-112081203D01*
X159707483Y-112030909D01*
X159707484Y-112030909D01*
X159647884Y-112024502D01*
X159647882Y-112024501D01*
X159647874Y-112024501D01*
X159647866Y-112024501D01*
X159574501Y-112024501D01*
X159507462Y-112004816D01*
X159461707Y-111952012D01*
X159450501Y-111900501D01*
X159450501Y-110705084D01*
X173626207Y-110705084D01*
X173626207Y-110957008D01*
X173641488Y-111053489D01*
X173665617Y-111205831D01*
X173743467Y-111445429D01*
X173795335Y-111547224D01*
X173849985Y-111654481D01*
X173857839Y-111669894D01*
X174005908Y-111873695D01*
X174005912Y-111873700D01*
X174184052Y-112051840D01*
X174184057Y-112051844D01*
X174361824Y-112180998D01*
X174387862Y-112199916D01*
X174530891Y-112272793D01*
X174612323Y-112314285D01*
X174612325Y-112314285D01*
X174612328Y-112314287D01*
X174851922Y-112392136D01*
X175100745Y-112431546D01*
X175100746Y-112431546D01*
X175352668Y-112431546D01*
X175352669Y-112431546D01*
X175601492Y-112392136D01*
X175841086Y-112314287D01*
X176065552Y-112199916D01*
X176269363Y-112051839D01*
X176447500Y-111873702D01*
X176595577Y-111669891D01*
X176709948Y-111445425D01*
X176787797Y-111205831D01*
X176827207Y-110957008D01*
X176827207Y-110705084D01*
X176787797Y-110456261D01*
X176709948Y-110216667D01*
X176709946Y-110216664D01*
X176709946Y-110216662D01*
X176648897Y-110096848D01*
X176595577Y-109992201D01*
X176565109Y-109950265D01*
X176447505Y-109788396D01*
X176447501Y-109788391D01*
X176269361Y-109610251D01*
X176269356Y-109610247D01*
X176065555Y-109462178D01*
X176065554Y-109462177D01*
X176065552Y-109462176D01*
X175960201Y-109408497D01*
X175841090Y-109347806D01*
X175601492Y-109269956D01*
X175499778Y-109253846D01*
X175352669Y-109230546D01*
X175100745Y-109230546D01*
X174976333Y-109250251D01*
X174851921Y-109269956D01*
X174612323Y-109347806D01*
X174387858Y-109462178D01*
X174184057Y-109610247D01*
X174184052Y-109610251D01*
X174005912Y-109788391D01*
X174005908Y-109788396D01*
X173857839Y-109992197D01*
X173743467Y-110216662D01*
X173669362Y-110444735D01*
X173665617Y-110456261D01*
X173626207Y-110705084D01*
X159450501Y-110705084D01*
X159450501Y-110599500D01*
X159470186Y-110532461D01*
X159522990Y-110486706D01*
X159574501Y-110475500D01*
X159578844Y-110475500D01*
X159578845Y-110475499D01*
X159733497Y-110444737D01*
X159846166Y-110398067D01*
X159879172Y-110384397D01*
X159879172Y-110384396D01*
X159879179Y-110384394D01*
X160010289Y-110296789D01*
X160121789Y-110185289D01*
X160209394Y-110054179D01*
X160218095Y-110033174D01*
X160252436Y-109950265D01*
X160269737Y-109908497D01*
X160300500Y-109753842D01*
X160300500Y-109661265D01*
X160320185Y-109594226D01*
X160359400Y-109555728D01*
X160453044Y-109497968D01*
X160572968Y-109378044D01*
X160662003Y-109233697D01*
X160715349Y-109072708D01*
X160725500Y-108973345D01*
X160725499Y-108376656D01*
X160724497Y-108366850D01*
X160715349Y-108277292D01*
X160715348Y-108277289D01*
X160694883Y-108215529D01*
X160662003Y-108116303D01*
X160661999Y-108116297D01*
X160661998Y-108116294D01*
X160572970Y-107971959D01*
X160572967Y-107971955D01*
X160453044Y-107852032D01*
X160453040Y-107852029D01*
X160308705Y-107763001D01*
X160308699Y-107762998D01*
X160308697Y-107762997D01*
X160257228Y-107745942D01*
X160147709Y-107709651D01*
X160048352Y-107699500D01*
X160048345Y-107699500D01*
X159925098Y-107699500D01*
X159895657Y-107690855D01*
X159865671Y-107684332D01*
X159860655Y-107680577D01*
X159858059Y-107679815D01*
X159837417Y-107663181D01*
X159834573Y-107660337D01*
X159801088Y-107599014D01*
X159800637Y-107596847D01*
X159786227Y-107524403D01*
X159769737Y-107441503D01*
X159756759Y-107410170D01*
X159709397Y-107295827D01*
X159709390Y-107295814D01*
X159621789Y-107164711D01*
X159621786Y-107164707D01*
X159510292Y-107053213D01*
X159510288Y-107053210D01*
X159379185Y-106965609D01*
X159379172Y-106965602D01*
X159233501Y-106905264D01*
X159233489Y-106905261D01*
X159078845Y-106874500D01*
X159078842Y-106874500D01*
X158921158Y-106874500D01*
X158921155Y-106874500D01*
X158766511Y-106905260D01*
X158766510Y-106905261D01*
X158766507Y-106905262D01*
X158766503Y-106905263D01*
X158672447Y-106944221D01*
X158602980Y-106951689D01*
X158577546Y-106944220D01*
X158483495Y-106905263D01*
X158483485Y-106905260D01*
X158328842Y-106874500D01*
X158328839Y-106874500D01*
X158171155Y-106874500D01*
X158171152Y-106874500D01*
X158016508Y-106905260D01*
X158016507Y-106905261D01*
X158016504Y-106905262D01*
X158016500Y-106905263D01*
X157922444Y-106944221D01*
X157891918Y-106947502D01*
X157861717Y-106952946D01*
X157855664Y-106951400D01*
X157852977Y-106951689D01*
X157827521Y-106944211D01*
X157823945Y-106942729D01*
X157769550Y-106898878D01*
X157747497Y-106832580D01*
X157764789Y-106764884D01*
X157783734Y-106740500D01*
X160462417Y-104061819D01*
X160523740Y-104028334D01*
X160550098Y-104025500D01*
X173320249Y-104025500D01*
X173387288Y-104045185D01*
X173419515Y-104075188D01*
X173452949Y-104119849D01*
X173462454Y-104132546D01*
X173462457Y-104132548D01*
X173577664Y-104218793D01*
X173577671Y-104218797D01*
X173622618Y-104235561D01*
X173712517Y-104269091D01*
X173772127Y-104275500D01*
X174195500Y-104275499D01*
X174262539Y-104295183D01*
X174308294Y-104347987D01*
X174319500Y-104399499D01*
X174319500Y-105372870D01*
X174319501Y-105372876D01*
X174325908Y-105432483D01*
X174376202Y-105567328D01*
X174376206Y-105567335D01*
X174462452Y-105682544D01*
X174462455Y-105682547D01*
X174577664Y-105768793D01*
X174577671Y-105768797D01*
X174712517Y-105819091D01*
X174712516Y-105819091D01*
X174719444Y-105819835D01*
X174772127Y-105825500D01*
X175667872Y-105825499D01*
X175727483Y-105819091D01*
X175862331Y-105768796D01*
X175977546Y-105682546D01*
X176063796Y-105567331D01*
X176114091Y-105432483D01*
X176120500Y-105372873D01*
X176120499Y-104277128D01*
X176114229Y-104218797D01*
X176114091Y-104217516D01*
X176063797Y-104082671D01*
X176063793Y-104082664D01*
X175977548Y-103967456D01*
X175977546Y-103967455D01*
X175977546Y-103967454D01*
X175870185Y-103887084D01*
X175828317Y-103831153D01*
X175820499Y-103787825D01*
X175820499Y-103407677D01*
X175840184Y-103340640D01*
X175892988Y-103294885D01*
X175962146Y-103284941D01*
X175992020Y-103294746D01*
X175992560Y-103293444D01*
X176106503Y-103340640D01*
X176125672Y-103348580D01*
X176125676Y-103348580D01*
X176125677Y-103348581D01*
X176261004Y-103375500D01*
X176261007Y-103375500D01*
X176398995Y-103375500D01*
X176490041Y-103357389D01*
X176534328Y-103348580D01*
X176661811Y-103295775D01*
X176776542Y-103219114D01*
X176874114Y-103121542D01*
X176950775Y-103006811D01*
X177003580Y-102879328D01*
X177024752Y-102772892D01*
X177030500Y-102743995D01*
X177030500Y-102606004D01*
X177003581Y-102470677D01*
X177003580Y-102470676D01*
X177003580Y-102470672D01*
X176987053Y-102430771D01*
X176950778Y-102343195D01*
X176950771Y-102343182D01*
X176874114Y-102228458D01*
X176874111Y-102228454D01*
X176776545Y-102130888D01*
X176776541Y-102130885D01*
X176661817Y-102054228D01*
X176661804Y-102054221D01*
X176534332Y-102001421D01*
X176534322Y-102001418D01*
X176398995Y-101974500D01*
X176398993Y-101974500D01*
X176261007Y-101974500D01*
X176261005Y-101974500D01*
X176125677Y-102001418D01*
X176125667Y-102001421D01*
X175998195Y-102054221D01*
X175998182Y-102054228D01*
X175883458Y-102130885D01*
X175883454Y-102130888D01*
X175785888Y-102228454D01*
X175785885Y-102228458D01*
X175709228Y-102343182D01*
X175709221Y-102343195D01*
X175656421Y-102470667D01*
X175656418Y-102470676D01*
X175648621Y-102509876D01*
X175616235Y-102571787D01*
X175555519Y-102606360D01*
X175485749Y-102602619D01*
X175483672Y-102601865D01*
X175427485Y-102580909D01*
X175427483Y-102580908D01*
X175367883Y-102574501D01*
X175367881Y-102574500D01*
X175367873Y-102574500D01*
X175367864Y-102574500D01*
X173772129Y-102574500D01*
X173772123Y-102574501D01*
X173712516Y-102580908D01*
X173577671Y-102631202D01*
X173577664Y-102631206D01*
X173462457Y-102717451D01*
X173462451Y-102717457D01*
X173419515Y-102774812D01*
X173363581Y-102816682D01*
X173320249Y-102824500D01*
X160999097Y-102824500D01*
X160932058Y-102804815D01*
X160886303Y-102752011D01*
X160876359Y-102682853D01*
X160905384Y-102619297D01*
X160911416Y-102612819D01*
X161951629Y-101572606D01*
X163014662Y-100509572D01*
X163075983Y-100476089D01*
X163078150Y-100475638D01*
X163136085Y-100464113D01*
X163233497Y-100444737D01*
X163379179Y-100384394D01*
X163510289Y-100296789D01*
X163621789Y-100185289D01*
X163709394Y-100054179D01*
X163769737Y-99908497D01*
X163800500Y-99753842D01*
X163800500Y-99596158D01*
X163800500Y-99596155D01*
X163800499Y-99596153D01*
X163800350Y-99595402D01*
X163769737Y-99441503D01*
X163763425Y-99426264D01*
X163709397Y-99295827D01*
X163709390Y-99295814D01*
X163621789Y-99164711D01*
X163621786Y-99164707D01*
X163578337Y-99121258D01*
X163544852Y-99059935D01*
X163549836Y-98990243D01*
X163578335Y-98945898D01*
X164270898Y-98253335D01*
X164332219Y-98219852D01*
X164401911Y-98224836D01*
X164446258Y-98253337D01*
X164489707Y-98296786D01*
X164489711Y-98296789D01*
X164620814Y-98384390D01*
X164620827Y-98384397D01*
X164714302Y-98423115D01*
X164766503Y-98444737D01*
X164831147Y-98457595D01*
X164921849Y-98475638D01*
X164983760Y-98508023D01*
X164985339Y-98509574D01*
X167265139Y-100789374D01*
X167265149Y-100789385D01*
X167269479Y-100793715D01*
X167269480Y-100793716D01*
X167381284Y-100905520D01*
X167460786Y-100951420D01*
X167460787Y-100951421D01*
X167518209Y-100984574D01*
X167518210Y-100984574D01*
X167518215Y-100984577D01*
X167670942Y-101025500D01*
X167670943Y-101025500D01*
X173320249Y-101025500D01*
X173387288Y-101045185D01*
X173419515Y-101075188D01*
X173461509Y-101131284D01*
X173462454Y-101132546D01*
X173462457Y-101132548D01*
X173577664Y-101218793D01*
X173577671Y-101218797D01*
X173712517Y-101269091D01*
X173712516Y-101269091D01*
X173719444Y-101269835D01*
X173772127Y-101275500D01*
X175367872Y-101275499D01*
X175427483Y-101269091D01*
X175562331Y-101218796D01*
X175677546Y-101132546D01*
X175763796Y-101017331D01*
X175814091Y-100882483D01*
X175820500Y-100822873D01*
X175820499Y-100407677D01*
X175840183Y-100340640D01*
X175892987Y-100294885D01*
X175962146Y-100284941D01*
X175992020Y-100294746D01*
X175992560Y-100293444D01*
X176125667Y-100348578D01*
X176125672Y-100348580D01*
X176125676Y-100348580D01*
X176125677Y-100348581D01*
X176261004Y-100375500D01*
X176261007Y-100375500D01*
X176398995Y-100375500D01*
X176503274Y-100354757D01*
X176534328Y-100348580D01*
X176659370Y-100296786D01*
X176661804Y-100295778D01*
X176661804Y-100295777D01*
X176661811Y-100295775D01*
X176776542Y-100219114D01*
X176874114Y-100121542D01*
X176950775Y-100006811D01*
X176952519Y-100002602D01*
X176978634Y-99939552D01*
X177003580Y-99879328D01*
X177016050Y-99816638D01*
X177030500Y-99743995D01*
X177030500Y-99606004D01*
X177003581Y-99470677D01*
X177003580Y-99470676D01*
X177003580Y-99470672D01*
X177000229Y-99462582D01*
X176950778Y-99343195D01*
X176950771Y-99343182D01*
X176874114Y-99228458D01*
X176874111Y-99228454D01*
X176776545Y-99130888D01*
X176776541Y-99130885D01*
X176661817Y-99054228D01*
X176661804Y-99054221D01*
X176534332Y-99001421D01*
X176534322Y-99001418D01*
X176398995Y-98974500D01*
X176398993Y-98974500D01*
X176261007Y-98974500D01*
X176261005Y-98974500D01*
X176125677Y-99001418D01*
X176125667Y-99001421D01*
X175992560Y-99056556D01*
X175991531Y-99054072D01*
X175934468Y-99065914D01*
X175869240Y-99040870D01*
X175827907Y-98984538D01*
X175820499Y-98942320D01*
X175820499Y-98562181D01*
X175840184Y-98495142D01*
X175870188Y-98462915D01*
X175975077Y-98384394D01*
X175977546Y-98382546D01*
X176063796Y-98267331D01*
X176114091Y-98132483D01*
X176120500Y-98072873D01*
X176120499Y-96977128D01*
X176114434Y-96920704D01*
X176114091Y-96917516D01*
X176063797Y-96782671D01*
X176063793Y-96782664D01*
X175977547Y-96667455D01*
X175977544Y-96667452D01*
X175862335Y-96581206D01*
X175862328Y-96581202D01*
X175727482Y-96530908D01*
X175727483Y-96530908D01*
X175667883Y-96524501D01*
X175667881Y-96524500D01*
X175667873Y-96524500D01*
X175667864Y-96524500D01*
X174772129Y-96524500D01*
X174772123Y-96524501D01*
X174712516Y-96530908D01*
X174577671Y-96581202D01*
X174577664Y-96581206D01*
X174462455Y-96667452D01*
X174462452Y-96667455D01*
X174376206Y-96782664D01*
X174376202Y-96782671D01*
X174325908Y-96917517D01*
X174319651Y-96975723D01*
X174319501Y-96977123D01*
X174319500Y-96977135D01*
X174319500Y-97950500D01*
X174299815Y-98017539D01*
X174247011Y-98063294D01*
X174195500Y-98074500D01*
X173772129Y-98074500D01*
X173772123Y-98074501D01*
X173712516Y-98080908D01*
X173577671Y-98131202D01*
X173577664Y-98131206D01*
X173462455Y-98217452D01*
X173462452Y-98217455D01*
X173376206Y-98332664D01*
X173376202Y-98332671D01*
X173325908Y-98467517D01*
X173319501Y-98527116D01*
X173319500Y-98527135D01*
X173319500Y-99322870D01*
X173319501Y-99322876D01*
X173325908Y-99382483D01*
X173376202Y-99517328D01*
X173376204Y-99517331D01*
X173438605Y-99600688D01*
X173447840Y-99625446D01*
X173460505Y-99648641D01*
X173459859Y-99657669D01*
X173463023Y-99666151D01*
X173457406Y-99691973D01*
X173455521Y-99718333D01*
X173449124Y-99730047D01*
X173448172Y-99734425D01*
X173438606Y-99749310D01*
X173419516Y-99774811D01*
X173363582Y-99816682D01*
X173320249Y-99824500D01*
X168050097Y-99824500D01*
X167983058Y-99804815D01*
X167962416Y-99788181D01*
X165834574Y-97660339D01*
X165801089Y-97599016D01*
X165800638Y-97596849D01*
X165776400Y-97474999D01*
X165769737Y-97441503D01*
X165756062Y-97408489D01*
X165709397Y-97295827D01*
X165709390Y-97295814D01*
X165621789Y-97164711D01*
X165621786Y-97164707D01*
X165578337Y-97121258D01*
X165544852Y-97059935D01*
X165549836Y-96990243D01*
X165578335Y-96945899D01*
X167570350Y-94953886D01*
X167649407Y-94816954D01*
X167690331Y-94664227D01*
X167690331Y-94506112D01*
X167690331Y-94498517D01*
X167690330Y-94498499D01*
X167690330Y-94066776D01*
X167710015Y-93999737D01*
X167711228Y-93997885D01*
X167799220Y-93866196D01*
X167799220Y-93866195D01*
X167799224Y-93866190D01*
X167859567Y-93720508D01*
X167890330Y-93565853D01*
X167890330Y-93408169D01*
X167890330Y-93408166D01*
X167890329Y-93408164D01*
X167880586Y-93359183D01*
X167859567Y-93253514D01*
X167850387Y-93231351D01*
X167799227Y-93107838D01*
X167799220Y-93107825D01*
X167711619Y-92976722D01*
X167711616Y-92976718D01*
X167600122Y-92865224D01*
X167600118Y-92865221D01*
X167469015Y-92777620D01*
X167469002Y-92777613D01*
X167323331Y-92717275D01*
X167323321Y-92717272D01*
X167304361Y-92713501D01*
X167304360Y-92713500D01*
X167168675Y-92686511D01*
X167168672Y-92686511D01*
X167010988Y-92686511D01*
X167005914Y-92687520D01*
X166984932Y-92685641D01*
X166964082Y-92688639D01*
X166950830Y-92682587D01*
X166936323Y-92681288D01*
X166919689Y-92668365D01*
X166900526Y-92659614D01*
X166892650Y-92647359D01*
X166881148Y-92638423D01*
X166874140Y-92618557D01*
X166862752Y-92600836D01*
X166859216Y-92576247D01*
X166857906Y-92572532D01*
X166857729Y-92565901D01*
X166857729Y-92497536D01*
X166877414Y-92430497D01*
X166878627Y-92428645D01*
X166966619Y-92296956D01*
X166966619Y-92296955D01*
X166966623Y-92296950D01*
X167026966Y-92151268D01*
X167057729Y-91996613D01*
X167057729Y-91838929D01*
X167057729Y-91838926D01*
X167057728Y-91838924D01*
X167040888Y-91754264D01*
X167026966Y-91684274D01*
X166992581Y-91601260D01*
X166966626Y-91538598D01*
X166966619Y-91538585D01*
X166879018Y-91407482D01*
X166879015Y-91407478D01*
X166767521Y-91295984D01*
X166767517Y-91295981D01*
X166636414Y-91208380D01*
X166636401Y-91208373D01*
X166490730Y-91148035D01*
X166490718Y-91148032D01*
X166336074Y-91117271D01*
X166336071Y-91117271D01*
X166178387Y-91117271D01*
X166178384Y-91117271D01*
X166023739Y-91148032D01*
X166023727Y-91148035D01*
X165878056Y-91208373D01*
X165878043Y-91208380D01*
X165746940Y-91295981D01*
X165746936Y-91295984D01*
X165635442Y-91407478D01*
X165635439Y-91407482D01*
X165547838Y-91538585D01*
X165547831Y-91538598D01*
X165487493Y-91684269D01*
X165487490Y-91684281D01*
X165456729Y-91838924D01*
X165456729Y-91996617D01*
X165487490Y-92151260D01*
X165487493Y-92151272D01*
X165547831Y-92296943D01*
X165547838Y-92296956D01*
X165635831Y-92428645D01*
X165656709Y-92495322D01*
X165656729Y-92497536D01*
X165656729Y-94617673D01*
X165637044Y-94684712D01*
X165620410Y-94705354D01*
X160234626Y-100091137D01*
X160173303Y-100124622D01*
X160103611Y-100119638D01*
X160047678Y-100077766D01*
X160023261Y-100012302D01*
X160038113Y-99944029D01*
X160039528Y-99941508D01*
X160040629Y-99939603D01*
X160059577Y-99906784D01*
X160100501Y-99754056D01*
X160100501Y-99595942D01*
X160100501Y-99588347D01*
X160100500Y-99588329D01*
X160100500Y-88786846D01*
X166404118Y-88786846D01*
X166424598Y-88929301D01*
X166424599Y-88929305D01*
X166484385Y-89060216D01*
X166484386Y-89060217D01*
X166484387Y-89060219D01*
X166522006Y-89106902D01*
X166522009Y-89106905D01*
X166522014Y-89106911D01*
X167609594Y-90194488D01*
X167791790Y-90376684D01*
X167791794Y-90376687D01*
X167791796Y-90376689D01*
X167838472Y-90414305D01*
X167969386Y-90474092D01*
X167969387Y-90474092D01*
X167969389Y-90474093D01*
X168111846Y-90494574D01*
X168254303Y-90474093D01*
X168277190Y-90463640D01*
X168381885Y-90415828D01*
X168451044Y-90405884D01*
X168514599Y-90434909D01*
X168552374Y-90493687D01*
X168557397Y-90528622D01*
X168557397Y-90689183D01*
X168589228Y-90890160D01*
X168590651Y-90899140D01*
X168645297Y-91067323D01*
X168656341Y-91101311D01*
X168752848Y-91290717D01*
X168877787Y-91462683D01*
X169028110Y-91613006D01*
X169200076Y-91737945D01*
X169200078Y-91737946D01*
X169200081Y-91737948D01*
X169389485Y-91834454D01*
X169591654Y-91900143D01*
X169801610Y-91933397D01*
X169801611Y-91933397D01*
X170014183Y-91933397D01*
X170014184Y-91933397D01*
X170224140Y-91900143D01*
X170234077Y-91896913D01*
X170303918Y-91894917D01*
X170363751Y-91930997D01*
X170394581Y-91993697D01*
X170390329Y-92053159D01*
X170387191Y-92062817D01*
X170387190Y-92062821D01*
X170376717Y-92128948D01*
X171270936Y-92128948D01*
X171238023Y-92185955D01*
X171203948Y-92313122D01*
X171203948Y-92444774D01*
X171238023Y-92571941D01*
X171270936Y-92628948D01*
X170376717Y-92628948D01*
X170387190Y-92695074D01*
X170387190Y-92695077D01*
X170452852Y-92897165D01*
X170549327Y-93086505D01*
X170674220Y-93258407D01*
X170674224Y-93258412D01*
X170824483Y-93408671D01*
X170824488Y-93408675D01*
X170996390Y-93533568D01*
X171185730Y-93630043D01*
X171387819Y-93695705D01*
X171453948Y-93706179D01*
X171453948Y-92811960D01*
X171510955Y-92844873D01*
X171638122Y-92878948D01*
X171769774Y-92878948D01*
X171896941Y-92844873D01*
X171953948Y-92811960D01*
X171953948Y-93706178D01*
X172020074Y-93695705D01*
X172020080Y-93695704D01*
X172029733Y-93692568D01*
X172099574Y-93690571D01*
X172159407Y-93726651D01*
X172190237Y-93789351D01*
X172185985Y-93848813D01*
X172182753Y-93858758D01*
X172182753Y-93858759D01*
X172149500Y-94068713D01*
X172149500Y-94281286D01*
X172181292Y-94482016D01*
X172182754Y-94491243D01*
X172245616Y-94684712D01*
X172248444Y-94693414D01*
X172344951Y-94882820D01*
X172469890Y-95054786D01*
X172620213Y-95205109D01*
X172792179Y-95330048D01*
X172792181Y-95330049D01*
X172792184Y-95330051D01*
X172981588Y-95426557D01*
X173183757Y-95492246D01*
X173393713Y-95525500D01*
X173393714Y-95525500D01*
X173606286Y-95525500D01*
X173606287Y-95525500D01*
X173816243Y-95492246D01*
X174018412Y-95426557D01*
X174207816Y-95330051D01*
X174243081Y-95304430D01*
X174379786Y-95205109D01*
X174379788Y-95205106D01*
X174379792Y-95205104D01*
X174530104Y-95054792D01*
X174530106Y-95054788D01*
X174530109Y-95054786D01*
X174655048Y-94882820D01*
X174655047Y-94882820D01*
X174655051Y-94882816D01*
X174751557Y-94693412D01*
X174817246Y-94491243D01*
X174850500Y-94281287D01*
X174850500Y-94068713D01*
X174817246Y-93858757D01*
X174751557Y-93656588D01*
X174655051Y-93467184D01*
X174655049Y-93467181D01*
X174655048Y-93467179D01*
X174530109Y-93295213D01*
X174379786Y-93144890D01*
X174207820Y-93019951D01*
X174018414Y-92923444D01*
X174018413Y-92923443D01*
X174018412Y-92923443D01*
X173816243Y-92857754D01*
X173816241Y-92857753D01*
X173816240Y-92857753D01*
X173654957Y-92832208D01*
X173606287Y-92824500D01*
X173393713Y-92824500D01*
X173354202Y-92830757D01*
X173183759Y-92857753D01*
X173183758Y-92857753D01*
X173173813Y-92860985D01*
X173103972Y-92862978D01*
X173044140Y-92826897D01*
X173013314Y-92764195D01*
X173017568Y-92704733D01*
X173020704Y-92695080D01*
X173020705Y-92695074D01*
X173031179Y-92628948D01*
X172136960Y-92628948D01*
X172169873Y-92571941D01*
X172203948Y-92444774D01*
X172203948Y-92313122D01*
X172169873Y-92185955D01*
X172136960Y-92128948D01*
X173031179Y-92128948D01*
X173020705Y-92062821D01*
X173020705Y-92062818D01*
X172955043Y-91860730D01*
X172858568Y-91671390D01*
X172733675Y-91499488D01*
X172733671Y-91499483D01*
X172583412Y-91349224D01*
X172583407Y-91349220D01*
X172411505Y-91224327D01*
X172222163Y-91127851D01*
X172020072Y-91062189D01*
X171953948Y-91051716D01*
X171953948Y-91945936D01*
X171896941Y-91913023D01*
X171769774Y-91878948D01*
X171638122Y-91878948D01*
X171510955Y-91913023D01*
X171453948Y-91945936D01*
X171453948Y-91096402D01*
X171315755Y-91069036D01*
X171312258Y-91067210D01*
X171308317Y-91067323D01*
X171281543Y-91051177D01*
X171253816Y-91036703D01*
X171251861Y-91033277D01*
X171248485Y-91031241D01*
X171234689Y-91003181D01*
X171219191Y-90976017D01*
X171219398Y-90972078D01*
X171217659Y-90968540D01*
X171221913Y-90909079D01*
X171225143Y-90899140D01*
X171258397Y-90689184D01*
X171258397Y-90476610D01*
X171225143Y-90266654D01*
X171159454Y-90064485D01*
X171062948Y-89875081D01*
X171062946Y-89875078D01*
X171062945Y-89875076D01*
X170938006Y-89703110D01*
X170787683Y-89552787D01*
X170615717Y-89427848D01*
X170426311Y-89331341D01*
X170426310Y-89331340D01*
X170426309Y-89331340D01*
X170224140Y-89265651D01*
X170224138Y-89265650D01*
X170224137Y-89265650D01*
X170062854Y-89240105D01*
X170014184Y-89232397D01*
X169853622Y-89232397D01*
X169786583Y-89212712D01*
X169740828Y-89159908D01*
X169730884Y-89090750D01*
X169740828Y-89056885D01*
X169799092Y-88929305D01*
X169799091Y-88929305D01*
X169799093Y-88929303D01*
X169819574Y-88786846D01*
X169799093Y-88644389D01*
X169790184Y-88624882D01*
X169739306Y-88513475D01*
X169739305Y-88513474D01*
X169739305Y-88513473D01*
X169701686Y-88466790D01*
X169701681Y-88466785D01*
X169701677Y-88466780D01*
X168431905Y-87197011D01*
X168431899Y-87197006D01*
X168431895Y-87197002D01*
X168385219Y-87159386D01*
X168254305Y-87099599D01*
X168254301Y-87099598D01*
X168111846Y-87079118D01*
X167969390Y-87099598D01*
X167969386Y-87099599D01*
X167838475Y-87159385D01*
X167791780Y-87197014D01*
X166522011Y-88466786D01*
X166522002Y-88466796D01*
X166484386Y-88513472D01*
X166424599Y-88644386D01*
X166424598Y-88644390D01*
X166404118Y-88786846D01*
X160100500Y-88786846D01*
X160100500Y-88595945D01*
X160100500Y-88595943D01*
X160059577Y-88443216D01*
X160059573Y-88443209D01*
X159980524Y-88306290D01*
X159980521Y-88306286D01*
X159980520Y-88306284D01*
X159868716Y-88194480D01*
X159868715Y-88194479D01*
X159864385Y-88190149D01*
X159864374Y-88190139D01*
X158339497Y-86665262D01*
X158339495Y-86665259D01*
X158220624Y-86546388D01*
X158220623Y-86546387D01*
X158113067Y-86484290D01*
X158083692Y-86467330D01*
X158082995Y-86467143D01*
X158075572Y-86462910D01*
X158056520Y-86443140D01*
X158035141Y-86425911D01*
X158032622Y-86418342D01*
X158027088Y-86412600D01*
X158021747Y-86385666D01*
X158013078Y-86359616D01*
X158012999Y-86355246D01*
X158012999Y-85705084D01*
X161626207Y-85705084D01*
X161626207Y-85957007D01*
X161665617Y-86205831D01*
X161743467Y-86445429D01*
X161794909Y-86546388D01*
X161855478Y-86665262D01*
X161857839Y-86669894D01*
X162005908Y-86873695D01*
X162005912Y-86873700D01*
X162184052Y-87051840D01*
X162184057Y-87051844D01*
X162249787Y-87099599D01*
X162387862Y-87199916D01*
X162530891Y-87272793D01*
X162612323Y-87314285D01*
X162612325Y-87314285D01*
X162612328Y-87314287D01*
X162851922Y-87392136D01*
X163100745Y-87431546D01*
X163100746Y-87431546D01*
X163352668Y-87431546D01*
X163352669Y-87431546D01*
X163601492Y-87392136D01*
X163841086Y-87314287D01*
X164065552Y-87199916D01*
X164269363Y-87051839D01*
X164447500Y-86873702D01*
X164595577Y-86669891D01*
X164709948Y-86445425D01*
X164787797Y-86205831D01*
X164827207Y-85957008D01*
X164827207Y-85705084D01*
X164787797Y-85456261D01*
X164709948Y-85216667D01*
X164709946Y-85216664D01*
X164709946Y-85216662D01*
X164668454Y-85135230D01*
X164595577Y-84992201D01*
X164576659Y-84966163D01*
X164447505Y-84788396D01*
X164447501Y-84788391D01*
X164269361Y-84610251D01*
X164269356Y-84610247D01*
X164065555Y-84462178D01*
X164065554Y-84462177D01*
X164065552Y-84462176D01*
X163995454Y-84426459D01*
X163841090Y-84347806D01*
X163601492Y-84269956D01*
X163561968Y-84263696D01*
X163352669Y-84230546D01*
X163100745Y-84230546D01*
X162976333Y-84250251D01*
X162851921Y-84269956D01*
X162612323Y-84347806D01*
X162387858Y-84462178D01*
X162184057Y-84610247D01*
X162184052Y-84610251D01*
X162005912Y-84788391D01*
X162005908Y-84788396D01*
X161857839Y-84992197D01*
X161743467Y-85216662D01*
X161665617Y-85456260D01*
X161626207Y-85705084D01*
X158012999Y-85705084D01*
X158012999Y-85428935D01*
X158008830Y-85390153D01*
X158008830Y-85363653D01*
X158013000Y-85324880D01*
X158012999Y-84329135D01*
X158008814Y-84290203D01*
X158008814Y-84263703D01*
X158013000Y-84224780D01*
X158012999Y-83229035D01*
X158012999Y-83229034D01*
X158012998Y-83229018D01*
X158008820Y-83190160D01*
X158008820Y-83163652D01*
X158013000Y-83124780D01*
X158012999Y-82129035D01*
X158012999Y-82129031D01*
X158012998Y-82129018D01*
X158008573Y-82087863D01*
X158008573Y-82061349D01*
X158012499Y-82024837D01*
X158012500Y-82024826D01*
X158012500Y-81777007D01*
X157854740Y-81777007D01*
X157787701Y-81757322D01*
X157780428Y-81752273D01*
X157754831Y-81733111D01*
X157754828Y-81733109D01*
X157619982Y-81682815D01*
X157619983Y-81682815D01*
X157560383Y-81676408D01*
X157560381Y-81676407D01*
X157560373Y-81676407D01*
X157560365Y-81676407D01*
X155964629Y-81676407D01*
X155964623Y-81676408D01*
X155905016Y-81682815D01*
X155770171Y-81733109D01*
X155770168Y-81733111D01*
X155744572Y-81752273D01*
X155679107Y-81776691D01*
X155670260Y-81777007D01*
X155512500Y-81777007D01*
X155512500Y-82024836D01*
X155516426Y-82061355D01*
X155516426Y-82087863D01*
X155512000Y-82129031D01*
X155512000Y-83124776D01*
X155512001Y-83124785D01*
X155516179Y-83163652D01*
X155516179Y-83190158D01*
X155512000Y-83229030D01*
X155512000Y-84224774D01*
X155512001Y-84224789D01*
X155516184Y-84263704D01*
X155516184Y-84290206D01*
X155512000Y-84329127D01*
X155512000Y-85324876D01*
X155512001Y-85324887D01*
X155516168Y-85363653D01*
X155516168Y-85390157D01*
X155512000Y-85428929D01*
X155512000Y-86424674D01*
X155512001Y-86424689D01*
X155516184Y-86463604D01*
X155516184Y-86490106D01*
X155512000Y-86529027D01*
X155512000Y-87524774D01*
X155512001Y-87524789D01*
X155516184Y-87563704D01*
X155516184Y-87590206D01*
X155512000Y-87629127D01*
X155512000Y-88624876D01*
X155512001Y-88624887D01*
X155516168Y-88663653D01*
X155516168Y-88690157D01*
X155512000Y-88728929D01*
X155512000Y-89724674D01*
X155512001Y-89724689D01*
X155516184Y-89763604D01*
X155516184Y-89790106D01*
X155512000Y-89829027D01*
X155512000Y-90824776D01*
X155512001Y-90824785D01*
X155516179Y-90863652D01*
X155516179Y-90890158D01*
X155512000Y-90929030D01*
X155512000Y-91924774D01*
X155512001Y-91924789D01*
X155516184Y-91963704D01*
X155516184Y-91990206D01*
X155512000Y-92029127D01*
X155512000Y-93024876D01*
X155512001Y-93024887D01*
X155516168Y-93063653D01*
X155516168Y-93090157D01*
X155512000Y-93128929D01*
X155512000Y-94124674D01*
X155512001Y-94124689D01*
X155516184Y-94163604D01*
X155516846Y-94180309D01*
X155516708Y-94185230D01*
X155512000Y-94229034D01*
X155512000Y-94354140D01*
X155511952Y-94355862D01*
X155501686Y-94387529D01*
X155492315Y-94419446D01*
X155490960Y-94420619D01*
X155490407Y-94422327D01*
X155464647Y-94443420D01*
X155439511Y-94465201D01*
X155437518Y-94465634D01*
X155436348Y-94466593D01*
X155429454Y-94467388D01*
X155388000Y-94476407D01*
X154764732Y-94476407D01*
X154764717Y-94476408D01*
X154725802Y-94480591D01*
X154699300Y-94480591D01*
X154660375Y-94476407D01*
X153664630Y-94476407D01*
X153664619Y-94476408D01*
X153625753Y-94480586D01*
X153599248Y-94480586D01*
X153560374Y-94476407D01*
X152564630Y-94476407D01*
X152564619Y-94476408D01*
X152525798Y-94480581D01*
X152499296Y-94480581D01*
X152460473Y-94476407D01*
X152460465Y-94476407D01*
X151464729Y-94476407D01*
X151464723Y-94476408D01*
X151405116Y-94482815D01*
X151270271Y-94533109D01*
X151270264Y-94533113D01*
X151155055Y-94619359D01*
X151155052Y-94619362D01*
X151068806Y-94734571D01*
X151068802Y-94734578D01*
X151018508Y-94869424D01*
X151013206Y-94918743D01*
X151012101Y-94929030D01*
X151012100Y-94929042D01*
X151012100Y-96524777D01*
X151012101Y-96524783D01*
X151018508Y-96584390D01*
X151068802Y-96719235D01*
X151068806Y-96719242D01*
X151155052Y-96834451D01*
X151155055Y-96834454D01*
X151270264Y-96920700D01*
X151270271Y-96920704D01*
X151309609Y-96935376D01*
X151405117Y-96970998D01*
X151464727Y-96977407D01*
X151613403Y-96977406D01*
X151680441Y-96997090D01*
X151726196Y-97049894D01*
X151736140Y-97119052D01*
X151707115Y-97182608D01*
X151701083Y-97189087D01*
X151499569Y-97390601D01*
X151438246Y-97424086D01*
X151368554Y-97419102D01*
X151342997Y-97406022D01*
X151272479Y-97358903D01*
X151272466Y-97358896D01*
X151126795Y-97298558D01*
X151126783Y-97298555D01*
X150972139Y-97267794D01*
X150972136Y-97267794D01*
X150814452Y-97267794D01*
X150814449Y-97267794D01*
X150659804Y-97298555D01*
X150659792Y-97298558D01*
X150514121Y-97358896D01*
X150514108Y-97358903D01*
X150383005Y-97446504D01*
X150383003Y-97446506D01*
X150341329Y-97488181D01*
X150280006Y-97521667D01*
X150253647Y-97524501D01*
X148397757Y-97524501D01*
X148330718Y-97504816D01*
X148284963Y-97452012D01*
X148275019Y-97382854D01*
X148276140Y-97376310D01*
X148297725Y-97267794D01*
X148300500Y-97253842D01*
X148300500Y-97096158D01*
X148300500Y-97096155D01*
X148284017Y-97013294D01*
X148279460Y-96990383D01*
X148285687Y-96920794D01*
X148326767Y-96866926D01*
X148370146Y-96834453D01*
X148456396Y-96719238D01*
X148506691Y-96584390D01*
X148513100Y-96524780D01*
X148513099Y-94929035D01*
X148506691Y-94869424D01*
X148487123Y-94816960D01*
X148456397Y-94734578D01*
X148456393Y-94734571D01*
X148370147Y-94619362D01*
X148370144Y-94619359D01*
X148254935Y-94533113D01*
X148254928Y-94533109D01*
X148120082Y-94482815D01*
X148120083Y-94482815D01*
X148060483Y-94476408D01*
X148060481Y-94476407D01*
X148060473Y-94476407D01*
X148060464Y-94476407D01*
X147064732Y-94476407D01*
X147064717Y-94476408D01*
X147025802Y-94480591D01*
X146999300Y-94480591D01*
X146960375Y-94476407D01*
X145964632Y-94476407D01*
X145964617Y-94476408D01*
X145925702Y-94480591D01*
X145899200Y-94480591D01*
X145860275Y-94476407D01*
X144864532Y-94476407D01*
X144864517Y-94476408D01*
X144825752Y-94480575D01*
X144799249Y-94480575D01*
X144760477Y-94476407D01*
X144760473Y-94476407D01*
X144136999Y-94476407D01*
X144129984Y-94474347D01*
X144122780Y-94475589D01*
X144096910Y-94464635D01*
X144069960Y-94456722D01*
X144065173Y-94451197D01*
X144058440Y-94448347D01*
X144042598Y-94425144D01*
X144024205Y-94403918D01*
X144022195Y-94395262D01*
X144019042Y-94390644D01*
X144014606Y-94362581D01*
X144013047Y-94355863D01*
X144012999Y-94354141D01*
X144012999Y-94229035D01*
X144008288Y-94185218D01*
X144008152Y-94180310D01*
X144008814Y-94177796D01*
X144008814Y-94163603D01*
X144013000Y-94124680D01*
X144012999Y-93128935D01*
X144012998Y-93128929D01*
X144010730Y-93107825D01*
X144008830Y-93090153D01*
X144008830Y-93063653D01*
X144013000Y-93024880D01*
X144012999Y-92029135D01*
X144008814Y-91990203D01*
X144008814Y-91963703D01*
X144013000Y-91924780D01*
X144012999Y-90929035D01*
X144012999Y-90929034D01*
X144012998Y-90929018D01*
X144008820Y-90890160D01*
X144008820Y-90863652D01*
X144013000Y-90824780D01*
X144012999Y-89829035D01*
X144008814Y-89790103D01*
X144008814Y-89763603D01*
X144013000Y-89724680D01*
X144012999Y-88728935D01*
X144008830Y-88690153D01*
X144008830Y-88663653D01*
X144013000Y-88624880D01*
X144012999Y-87629135D01*
X144008814Y-87590203D01*
X144008814Y-87563703D01*
X144013000Y-87524780D01*
X144012999Y-86529035D01*
X144008814Y-86490103D01*
X144008814Y-86463603D01*
X144013000Y-86424680D01*
X144012999Y-85428935D01*
X144008830Y-85390153D01*
X144008830Y-85363653D01*
X144013000Y-85324880D01*
X144012999Y-84329135D01*
X144008814Y-84290203D01*
X144008814Y-84263703D01*
X144013000Y-84224780D01*
X144012999Y-83229035D01*
X144012999Y-83229034D01*
X144012998Y-83229018D01*
X144008820Y-83190160D01*
X144008820Y-83163652D01*
X144013000Y-83124780D01*
X144012999Y-82129035D01*
X144012999Y-82129031D01*
X144012998Y-82129018D01*
X144008573Y-82087863D01*
X144008573Y-82061349D01*
X144012499Y-82024837D01*
X144012500Y-82024826D01*
X144012500Y-81777007D01*
X143854740Y-81777007D01*
X143787701Y-81757322D01*
X143780428Y-81752273D01*
X143754831Y-81733111D01*
X143754828Y-81733109D01*
X143619982Y-81682815D01*
X143619983Y-81682815D01*
X143560383Y-81676408D01*
X143560381Y-81676407D01*
X143560373Y-81676407D01*
X143560365Y-81676407D01*
X141964629Y-81676407D01*
X141964623Y-81676408D01*
X141905016Y-81682815D01*
X141770171Y-81733109D01*
X141770168Y-81733111D01*
X141744572Y-81752273D01*
X141679107Y-81776691D01*
X141670260Y-81777007D01*
X141512500Y-81777007D01*
X141512500Y-82024836D01*
X141516426Y-82061355D01*
X141516426Y-82087863D01*
X141512000Y-82129031D01*
X141512000Y-83124776D01*
X141512001Y-83124785D01*
X141516179Y-83163652D01*
X141516179Y-83190158D01*
X141512000Y-83229030D01*
X141512000Y-84224774D01*
X141512001Y-84224789D01*
X141516184Y-84263704D01*
X141516184Y-84290206D01*
X141512000Y-84329127D01*
X141512000Y-85324876D01*
X141512001Y-85324887D01*
X141516168Y-85363653D01*
X141516168Y-85390157D01*
X141512000Y-85428929D01*
X141512000Y-86424674D01*
X141512001Y-86424689D01*
X141516184Y-86463604D01*
X141516184Y-86490106D01*
X141512000Y-86529027D01*
X141512000Y-87524774D01*
X141512001Y-87524789D01*
X141516184Y-87563704D01*
X141516184Y-87590206D01*
X141512000Y-87629127D01*
X141512000Y-88624876D01*
X141512001Y-88624887D01*
X141516168Y-88663653D01*
X141516168Y-88690157D01*
X141512000Y-88728929D01*
X141512000Y-89724674D01*
X141512001Y-89724689D01*
X141516184Y-89763604D01*
X141516184Y-89790106D01*
X141512000Y-89829027D01*
X141512000Y-90824776D01*
X141512001Y-90824785D01*
X141516179Y-90863652D01*
X141516179Y-90890158D01*
X141512000Y-90929030D01*
X141512000Y-91924774D01*
X141512001Y-91924789D01*
X141516184Y-91963704D01*
X141516184Y-91990206D01*
X141512000Y-92029127D01*
X141512000Y-92919672D01*
X141505809Y-92940754D01*
X141504303Y-92962680D01*
X141496157Y-92973624D01*
X141492315Y-92986711D01*
X141475710Y-93001099D01*
X141462588Y-93018731D01*
X141446066Y-93026785D01*
X141439511Y-93032466D01*
X141431659Y-93035732D01*
X141425965Y-93037873D01*
X141316408Y-93067230D01*
X141266288Y-93096167D01*
X141257474Y-93101255D01*
X141257473Y-93101256D01*
X141179478Y-93146286D01*
X141179475Y-93146288D01*
X140519481Y-93806282D01*
X140519479Y-93806285D01*
X140484895Y-93866188D01*
X140484894Y-93866190D01*
X140440423Y-93943214D01*
X140440423Y-93943215D01*
X140399499Y-94095943D01*
X140399499Y-94095945D01*
X140399499Y-94264046D01*
X140399500Y-94264059D01*
X140399500Y-95088330D01*
X140399499Y-95088348D01*
X140399499Y-95254054D01*
X140399498Y-95254054D01*
X140406821Y-95281383D01*
X140440423Y-95406785D01*
X140440424Y-95406786D01*
X140453714Y-95429807D01*
X140453715Y-95429808D01*
X140519475Y-95543709D01*
X140519481Y-95543717D01*
X140638349Y-95662585D01*
X140638355Y-95662590D01*
X142713584Y-97737819D01*
X142747069Y-97799142D01*
X142742085Y-97868834D01*
X142700213Y-97924767D01*
X142634749Y-97949184D01*
X142625903Y-97949500D01*
X142149998Y-97949500D01*
X142149980Y-97949501D01*
X142047203Y-97960000D01*
X142047200Y-97960001D01*
X141880668Y-98015185D01*
X141880663Y-98015187D01*
X141731342Y-98107289D01*
X141607288Y-98231343D01*
X141607283Y-98231349D01*
X141605241Y-98234661D01*
X141603247Y-98236453D01*
X141602807Y-98237011D01*
X141602711Y-98236935D01*
X141553291Y-98281383D01*
X141484328Y-98292602D01*
X141420247Y-98264755D01*
X141394168Y-98234656D01*
X141392319Y-98231659D01*
X141392316Y-98231655D01*
X141268345Y-98107684D01*
X141119124Y-98015643D01*
X141119119Y-98015641D01*
X140952697Y-97960494D01*
X140952690Y-97960493D01*
X140849986Y-97950000D01*
X140800000Y-97950000D01*
X140800000Y-99051000D01*
X140780315Y-99118039D01*
X140727511Y-99163794D01*
X140676000Y-99175000D01*
X140424000Y-99175000D01*
X140356961Y-99155315D01*
X140311206Y-99102511D01*
X140300000Y-99051000D01*
X140300000Y-97950000D01*
X140299999Y-97949999D01*
X140250029Y-97950000D01*
X140250011Y-97950001D01*
X140147302Y-97960494D01*
X139980880Y-98015641D01*
X139980875Y-98015643D01*
X139831654Y-98107684D01*
X139762181Y-98177158D01*
X139700858Y-98210643D01*
X139631166Y-98205659D01*
X139575233Y-98163787D01*
X139550816Y-98098323D01*
X139550500Y-98089477D01*
X139550500Y-97384797D01*
X139570185Y-97317758D01*
X139609403Y-97279258D01*
X139668656Y-97242712D01*
X139792712Y-97118656D01*
X139884814Y-96969334D01*
X139939999Y-96802797D01*
X139950500Y-96700009D01*
X139950499Y-95649992D01*
X139947325Y-95618924D01*
X139939999Y-95547203D01*
X139939998Y-95547200D01*
X139911276Y-95460524D01*
X139884814Y-95380666D01*
X139792712Y-95231344D01*
X139668656Y-95107288D01*
X139519334Y-95015186D01*
X139352797Y-94960001D01*
X139352795Y-94960000D01*
X139250010Y-94949500D01*
X138649998Y-94949500D01*
X138649980Y-94949501D01*
X138547203Y-94960000D01*
X138547200Y-94960001D01*
X138380668Y-95015185D01*
X138380663Y-95015187D01*
X138231342Y-95107289D01*
X138107288Y-95231343D01*
X138107283Y-95231349D01*
X138105241Y-95234661D01*
X138103247Y-95236453D01*
X138102807Y-95237011D01*
X138102711Y-95236935D01*
X138053291Y-95281383D01*
X137984328Y-95292602D01*
X137920247Y-95264755D01*
X137894168Y-95234656D01*
X137892319Y-95231659D01*
X137892316Y-95231655D01*
X137768345Y-95107684D01*
X137619124Y-95015643D01*
X137619119Y-95015641D01*
X137452697Y-94960494D01*
X137452690Y-94960493D01*
X137349986Y-94950000D01*
X137300000Y-94950000D01*
X137300000Y-96051000D01*
X137280315Y-96118039D01*
X137227511Y-96163794D01*
X137176000Y-96175000D01*
X137050000Y-96175000D01*
X137050000Y-96301000D01*
X137030315Y-96368039D01*
X136977511Y-96413794D01*
X136926000Y-96425000D01*
X136050001Y-96425000D01*
X136050001Y-96576404D01*
X136030316Y-96643443D01*
X135977512Y-96689198D01*
X135908354Y-96699142D01*
X135844798Y-96670117D01*
X135838320Y-96664085D01*
X134824248Y-95650013D01*
X136050000Y-95650013D01*
X136050000Y-95925000D01*
X136800000Y-95925000D01*
X136800000Y-94950000D01*
X136799999Y-94949999D01*
X136750029Y-94950000D01*
X136750011Y-94950001D01*
X136647302Y-94960494D01*
X136480880Y-95015641D01*
X136480875Y-95015643D01*
X136331654Y-95107684D01*
X136207684Y-95231654D01*
X136115643Y-95380875D01*
X136115641Y-95380880D01*
X136060494Y-95547302D01*
X136060493Y-95547309D01*
X136050000Y-95650013D01*
X134824248Y-95650013D01*
X134043455Y-94869220D01*
X134009970Y-94807897D01*
X134013206Y-94743220D01*
X134019868Y-94722720D01*
X134046966Y-94551630D01*
X134046966Y-94399028D01*
X134066651Y-94331989D01*
X134119455Y-94286234D01*
X134188613Y-94276290D01*
X134199564Y-94278371D01*
X134273018Y-94295781D01*
X134448340Y-94295781D01*
X134618945Y-94255346D01*
X134775620Y-94176661D01*
X134855658Y-94111460D01*
X134855665Y-94111454D01*
X134961721Y-94005398D01*
X134187672Y-93231351D01*
X134215596Y-93231351D01*
X134310971Y-93205795D01*
X134396481Y-93156426D01*
X134466301Y-93086606D01*
X134515670Y-93001096D01*
X134541226Y-92905721D01*
X134541226Y-92877797D01*
X135315272Y-93651845D01*
X135315273Y-93651845D01*
X135421321Y-93545797D01*
X135421330Y-93545787D01*
X135486531Y-93465750D01*
X135486540Y-93465737D01*
X135565221Y-93309070D01*
X135605656Y-93138465D01*
X135605656Y-92963145D01*
X135565221Y-92792540D01*
X135486536Y-92635865D01*
X135421335Y-92555827D01*
X135421319Y-92555809D01*
X135120819Y-92255310D01*
X135120818Y-92255310D01*
X134541226Y-92834902D01*
X134541226Y-92806981D01*
X134515670Y-92711606D01*
X134466301Y-92626096D01*
X134396481Y-92556276D01*
X134310971Y-92506907D01*
X134215596Y-92481351D01*
X134187671Y-92481351D01*
X134767266Y-91901757D01*
X134767266Y-91901756D01*
X134466768Y-91601260D01*
X134466747Y-91601241D01*
X134386716Y-91536045D01*
X134386703Y-91536036D01*
X134230036Y-91457355D01*
X134059431Y-91416921D01*
X133884112Y-91416921D01*
X133713506Y-91457355D01*
X133556831Y-91536040D01*
X133476788Y-91601245D01*
X133476779Y-91601252D01*
X133370730Y-91707302D01*
X134144779Y-92481351D01*
X134116856Y-92481351D01*
X134021481Y-92506907D01*
X133935971Y-92556276D01*
X133866151Y-92626096D01*
X133816782Y-92711606D01*
X133791226Y-92806981D01*
X133791226Y-92834904D01*
X133017178Y-92060856D01*
X132911126Y-92166909D01*
X132911116Y-92166920D01*
X132845920Y-92246951D01*
X132845911Y-92246964D01*
X132767230Y-92403631D01*
X132726796Y-92574236D01*
X132726796Y-92749556D01*
X132744206Y-92823014D01*
X132740512Y-92892786D01*
X132699683Y-92949485D01*
X132634682Y-92975110D01*
X132623548Y-92975611D01*
X132470947Y-92975611D01*
X132431286Y-92981892D01*
X132299860Y-93002708D01*
X132135110Y-93056239D01*
X131980769Y-93134879D01*
X131951113Y-93156426D01*
X131840630Y-93236697D01*
X131840628Y-93236699D01*
X131840627Y-93236699D01*
X131718146Y-93359180D01*
X131718146Y-93359181D01*
X131718144Y-93359183D01*
X131682189Y-93408671D01*
X131616326Y-93499322D01*
X131537686Y-93653663D01*
X131484155Y-93818413D01*
X131471816Y-93896319D01*
X131457058Y-93989500D01*
X131457058Y-94162722D01*
X131462332Y-94196021D01*
X131480672Y-94311819D01*
X131484156Y-94333812D01*
X131537672Y-94498517D01*
X131537686Y-94498558D01*
X131549358Y-94521466D01*
X131616326Y-94652899D01*
X131718144Y-94793039D01*
X132229538Y-95304433D01*
X132369678Y-95406251D01*
X132524021Y-95484892D01*
X132688765Y-95538421D01*
X132859855Y-95565519D01*
X132859856Y-95565519D01*
X132989922Y-95565519D01*
X133056961Y-95585204D01*
X133077603Y-95601838D01*
X134863181Y-97387416D01*
X134896666Y-97448739D01*
X134899500Y-97475097D01*
X134899500Y-98258487D01*
X134879815Y-98325526D01*
X134849288Y-98358143D01*
X134837036Y-98367214D01*
X134828571Y-98370721D01*
X134725882Y-98449516D01*
X134725019Y-98450156D01*
X134693168Y-98461845D01*
X134661548Y-98474070D01*
X134659645Y-98474149D01*
X134659428Y-98474229D01*
X134659161Y-98474169D01*
X134651231Y-98474500D01*
X133348769Y-98474500D01*
X133281730Y-98454815D01*
X133273283Y-98448876D01*
X133171429Y-98370721D01*
X133171426Y-98370719D01*
X133034472Y-98313991D01*
X133034470Y-98313990D01*
X132924401Y-98299500D01*
X132175596Y-98299500D01*
X132065536Y-98313988D01*
X132065525Y-98313992D01*
X132062942Y-98315062D01*
X132015492Y-98324500D01*
X129893370Y-98324500D01*
X129826331Y-98304815D01*
X129805689Y-98288181D01*
X125698814Y-94181306D01*
X125665329Y-94119983D01*
X125662778Y-94085259D01*
X125663470Y-94075016D01*
X125668138Y-94055324D01*
X125668138Y-94005990D01*
X125668421Y-94001805D01*
X125679112Y-93972794D01*
X125687823Y-93943132D01*
X125691088Y-93940302D01*
X125692583Y-93936247D01*
X125717269Y-93917616D01*
X125740627Y-93897377D01*
X125745489Y-93896319D01*
X125748353Y-93894158D01*
X125759176Y-93893341D01*
X125792138Y-93886171D01*
X125837292Y-93886171D01*
X125846991Y-93883872D01*
X125916763Y-93887562D01*
X125963273Y-93916847D01*
X126085800Y-94039374D01*
X126085810Y-94039385D01*
X126090140Y-94043715D01*
X126090141Y-94043716D01*
X126201945Y-94155520D01*
X126201947Y-94155521D01*
X126201948Y-94155522D01*
X126214419Y-94162722D01*
X126272520Y-94196266D01*
X126272758Y-94196403D01*
X126272760Y-94196405D01*
X126272761Y-94196405D01*
X126338876Y-94234577D01*
X126491603Y-94275500D01*
X126491604Y-94275500D01*
X126770564Y-94275500D01*
X126837603Y-94295185D01*
X126858245Y-94311819D01*
X127088187Y-94541761D01*
X127121672Y-94603084D01*
X127120904Y-94659114D01*
X127106968Y-94715660D01*
X127106968Y-94885771D01*
X127147677Y-95050940D01*
X127177252Y-95107289D01*
X127226734Y-95201568D01*
X127272106Y-95256011D01*
X127635016Y-95618921D01*
X127689459Y-95664293D01*
X127840086Y-95743349D01*
X128005255Y-95784059D01*
X128149694Y-95784059D01*
X128216733Y-95803744D01*
X128262488Y-95856548D01*
X128273694Y-95908059D01*
X128273694Y-96052498D01*
X128273870Y-96053211D01*
X128314403Y-96217666D01*
X128353932Y-96292980D01*
X128393460Y-96368294D01*
X128438832Y-96422737D01*
X128801742Y-96785647D01*
X128856185Y-96831019D01*
X129006812Y-96910075D01*
X129171981Y-96950785D01*
X129171982Y-96950785D01*
X129179426Y-96951689D01*
X129179032Y-96954927D01*
X129231964Y-96970470D01*
X129277719Y-97023274D01*
X129279476Y-97027309D01*
X129283690Y-97037483D01*
X129290605Y-97054178D01*
X129290609Y-97054185D01*
X129378210Y-97185288D01*
X129378213Y-97185292D01*
X129489709Y-97296788D01*
X129620814Y-97384390D01*
X129620827Y-97384397D01*
X129748027Y-97437084D01*
X129766503Y-97444737D01*
X129876149Y-97466547D01*
X129921153Y-97475499D01*
X129921156Y-97475500D01*
X129921158Y-97475500D01*
X130078844Y-97475500D01*
X130078845Y-97475499D01*
X130233497Y-97444737D01*
X130379179Y-97384394D01*
X130417329Y-97358903D01*
X130510291Y-97296788D01*
X130510292Y-97296786D01*
X130621786Y-97185292D01*
X130621789Y-97185289D01*
X130709394Y-97054179D01*
X130769737Y-96908497D01*
X130800500Y-96753842D01*
X130800500Y-96596158D01*
X130800500Y-96596155D01*
X130800499Y-96596153D01*
X130786304Y-96524790D01*
X130769737Y-96441503D01*
X130761962Y-96422732D01*
X130709397Y-96295827D01*
X130709390Y-96295814D01*
X130621789Y-96164711D01*
X130621786Y-96164707D01*
X130510292Y-96053213D01*
X130510288Y-96053210D01*
X130401555Y-95980557D01*
X130356750Y-95926945D01*
X130346446Y-95877455D01*
X130346446Y-95776320D01*
X130305736Y-95611151D01*
X130281197Y-95564396D01*
X130226680Y-95460524D01*
X130181308Y-95406081D01*
X129818398Y-95043171D01*
X129763955Y-94997799D01*
X129671930Y-94949500D01*
X129613327Y-94918742D01*
X129448159Y-94878033D01*
X129303720Y-94878033D01*
X129236681Y-94858348D01*
X129190926Y-94805544D01*
X129179720Y-94754033D01*
X129179720Y-94609594D01*
X129139010Y-94444425D01*
X129127412Y-94422327D01*
X129059954Y-94293798D01*
X129014582Y-94239355D01*
X128651672Y-93876445D01*
X128597229Y-93831073D01*
X128517735Y-93789351D01*
X128446601Y-93752016D01*
X128281433Y-93711307D01*
X128111321Y-93711307D01*
X128097993Y-93714591D01*
X128054775Y-93725243D01*
X127984973Y-93722172D01*
X127937422Y-93692526D01*
X127558251Y-93313355D01*
X127558249Y-93313352D01*
X127439378Y-93194481D01*
X127439377Y-93194480D01*
X127325848Y-93128934D01*
X127325848Y-93128933D01*
X127325843Y-93128932D01*
X127317678Y-93124217D01*
X127302447Y-93115423D01*
X127264264Y-93105192D01*
X127149718Y-93074499D01*
X126991604Y-93074499D01*
X126984008Y-93074499D01*
X126983992Y-93074500D01*
X126905639Y-93074500D01*
X126838600Y-93054815D01*
X126792845Y-93002011D01*
X126784491Y-92948853D01*
X126781832Y-92948853D01*
X126781832Y-92773496D01*
X126776158Y-92749556D01*
X126743057Y-92609890D01*
X126667598Y-92459637D01*
X126605057Y-92382863D01*
X126174890Y-91952696D01*
X126174878Y-91952686D01*
X126105129Y-91895867D01*
X126096451Y-91883227D01*
X126084178Y-91874039D01*
X126077080Y-91855009D01*
X126065585Y-91838265D01*
X126065118Y-91822940D01*
X126059761Y-91808575D01*
X126064078Y-91788728D01*
X126063461Y-91768427D01*
X126071575Y-91754264D01*
X126074613Y-91740302D01*
X126095761Y-91712051D01*
X132102728Y-85705084D01*
X134626207Y-85705084D01*
X134626207Y-85957007D01*
X134665617Y-86205831D01*
X134743467Y-86445429D01*
X134794909Y-86546388D01*
X134855478Y-86665262D01*
X134857839Y-86669894D01*
X135005908Y-86873695D01*
X135005912Y-86873700D01*
X135184052Y-87051840D01*
X135184057Y-87051844D01*
X135249787Y-87099599D01*
X135387862Y-87199916D01*
X135530891Y-87272793D01*
X135612323Y-87314285D01*
X135612325Y-87314285D01*
X135612328Y-87314287D01*
X135851922Y-87392136D01*
X136100745Y-87431546D01*
X136100746Y-87431546D01*
X136352668Y-87431546D01*
X136352669Y-87431546D01*
X136601492Y-87392136D01*
X136841086Y-87314287D01*
X137065552Y-87199916D01*
X137269363Y-87051839D01*
X137447500Y-86873702D01*
X137595577Y-86669891D01*
X137709948Y-86445425D01*
X137787797Y-86205831D01*
X137827207Y-85957008D01*
X137827207Y-85705084D01*
X137787797Y-85456261D01*
X137709948Y-85216667D01*
X137709946Y-85216664D01*
X137709946Y-85216662D01*
X137668454Y-85135230D01*
X137595577Y-84992201D01*
X137576659Y-84966163D01*
X137447505Y-84788396D01*
X137447501Y-84788391D01*
X137269361Y-84610251D01*
X137269356Y-84610247D01*
X137065555Y-84462178D01*
X137065554Y-84462177D01*
X137065552Y-84462176D01*
X136995454Y-84426459D01*
X136841090Y-84347806D01*
X136601492Y-84269956D01*
X136561968Y-84263696D01*
X136352669Y-84230546D01*
X136100745Y-84230546D01*
X135976333Y-84250251D01*
X135851921Y-84269956D01*
X135612323Y-84347806D01*
X135387858Y-84462178D01*
X135184057Y-84610247D01*
X135184052Y-84610251D01*
X135005912Y-84788391D01*
X135005908Y-84788396D01*
X134857839Y-84992197D01*
X134743467Y-85216662D01*
X134665617Y-85456260D01*
X134626207Y-85705084D01*
X132102728Y-85705084D01*
X134856699Y-82951113D01*
X134865695Y-82942959D01*
X134927272Y-82892426D01*
X134947466Y-82878932D01*
X135012293Y-82844283D01*
X135034737Y-82834986D01*
X135105084Y-82813647D01*
X135128907Y-82808909D01*
X135208248Y-82801096D01*
X135220393Y-82800500D01*
X135280099Y-82800501D01*
X135280103Y-82800500D01*
X139434108Y-82800500D01*
X139500000Y-82800500D01*
X139607318Y-82800500D01*
X139777851Y-82775980D01*
X139819764Y-82769955D01*
X139819765Y-82769954D01*
X139819769Y-82769954D01*
X140025710Y-82709484D01*
X140025713Y-82709482D01*
X140025715Y-82709482D01*
X140220938Y-82620327D01*
X140220944Y-82620323D01*
X140220950Y-82620321D01*
X140401513Y-82504281D01*
X140563724Y-82363724D01*
X140704281Y-82201513D01*
X140820321Y-82020950D01*
X140820323Y-82020944D01*
X140820327Y-82020938D01*
X140909482Y-81825715D01*
X140909482Y-81825713D01*
X140909484Y-81825710D01*
X140969954Y-81619769D01*
X141000500Y-81407318D01*
X141000500Y-81300000D01*
X141000500Y-81234108D01*
X141000500Y-81069554D01*
X141001054Y-81067664D01*
X141000558Y-81065759D01*
X141010858Y-81034277D01*
X141020185Y-81002515D01*
X141021672Y-81001226D01*
X141022285Y-80999354D01*
X141047978Y-80978431D01*
X141072989Y-80956760D01*
X141075419Y-80956086D01*
X141076464Y-80955236D01*
X141110613Y-80946334D01*
X141181393Y-80938359D01*
X141195276Y-80937580D01*
X141388500Y-80937580D01*
X141455539Y-80957265D01*
G37*
%TD.AperFunction*%
%TA.AperFunction,Conductor*%
G36*
X123625030Y-94285296D02*
G01*
X123677834Y-94323162D01*
X123712130Y-94365262D01*
X123734663Y-94392923D01*
X124164830Y-94823090D01*
X124241604Y-94885631D01*
X124391857Y-94961090D01*
X124555462Y-94999865D01*
X124555464Y-94999865D01*
X124723598Y-94999865D01*
X124733297Y-94997566D01*
X124803069Y-95001256D01*
X124849579Y-95030541D01*
X126382357Y-96563319D01*
X126415842Y-96624642D01*
X126410858Y-96694334D01*
X126368986Y-96750267D01*
X126303522Y-96774684D01*
X126294676Y-96775000D01*
X126120000Y-96775000D01*
X126120000Y-97425000D01*
X125620000Y-97425000D01*
X125620000Y-96775000D01*
X125026430Y-96775000D01*
X124842902Y-96811506D01*
X124842894Y-96811508D01*
X124670008Y-96883119D01*
X124669999Y-96883124D01*
X124514410Y-96987086D01*
X124514406Y-96987089D01*
X124382089Y-97119406D01*
X124382086Y-97119410D01*
X124278124Y-97274999D01*
X124278119Y-97275008D01*
X124206507Y-97447896D01*
X124206506Y-97447899D01*
X124201115Y-97474999D01*
X124201116Y-97475000D01*
X124953012Y-97475000D01*
X124935795Y-97484940D01*
X124879940Y-97540795D01*
X124840444Y-97609204D01*
X124820000Y-97685504D01*
X124820000Y-97764496D01*
X124840444Y-97840796D01*
X124879940Y-97909205D01*
X124935795Y-97965060D01*
X124953012Y-97975000D01*
X124201116Y-97975000D01*
X124206506Y-98002100D01*
X124206507Y-98002103D01*
X124278119Y-98174991D01*
X124278124Y-98175000D01*
X124382086Y-98330589D01*
X124382089Y-98330593D01*
X124514406Y-98462910D01*
X124514410Y-98462913D01*
X124675071Y-98570264D01*
X124674333Y-98571367D01*
X124719324Y-98615546D01*
X124734796Y-98683681D01*
X124725598Y-98723413D01*
X124682666Y-98827059D01*
X124682663Y-98827071D01*
X124650000Y-98991277D01*
X124650000Y-99158722D01*
X124681792Y-99318553D01*
X124675565Y-99388145D01*
X124635671Y-99441112D01*
X124631288Y-99444475D01*
X124124217Y-99951546D01*
X124124214Y-99951548D01*
X124124215Y-99951549D01*
X124019478Y-100056285D01*
X123986922Y-100112677D01*
X123976409Y-100130886D01*
X123940423Y-100193215D01*
X123899499Y-100345943D01*
X123899499Y-100345945D01*
X123899499Y-100514046D01*
X123899500Y-100514059D01*
X123899500Y-103588330D01*
X123899499Y-103588348D01*
X123899499Y-103754054D01*
X123899498Y-103754054D01*
X123940424Y-103906789D01*
X123940425Y-103906790D01*
X123962933Y-103945774D01*
X123962934Y-103945776D01*
X124019475Y-104043709D01*
X124019481Y-104043717D01*
X124631284Y-104655520D01*
X124635665Y-104658882D01*
X124676866Y-104715312D01*
X124681792Y-104781446D01*
X124650000Y-104941277D01*
X124650000Y-105108722D01*
X124682663Y-105272928D01*
X124682666Y-105272940D01*
X124725597Y-105376586D01*
X124733066Y-105446056D01*
X124701790Y-105508535D01*
X124674790Y-105529316D01*
X124675071Y-105529736D01*
X124514410Y-105637086D01*
X124514406Y-105637089D01*
X124382089Y-105769406D01*
X124382086Y-105769410D01*
X124278124Y-105924999D01*
X124278119Y-105925008D01*
X124206507Y-106097896D01*
X124206506Y-106097899D01*
X124201115Y-106124999D01*
X124201116Y-106125000D01*
X124953012Y-106125000D01*
X124935795Y-106134940D01*
X124879940Y-106190795D01*
X124840444Y-106259204D01*
X124820000Y-106335504D01*
X124820000Y-106414496D01*
X124840444Y-106490796D01*
X124879940Y-106559205D01*
X124935795Y-106615060D01*
X124953012Y-106625000D01*
X124201116Y-106625000D01*
X124206506Y-106652100D01*
X124206507Y-106652103D01*
X124278119Y-106824991D01*
X124278124Y-106825000D01*
X124382086Y-106980589D01*
X124382089Y-106980593D01*
X124514406Y-107112910D01*
X124514410Y-107112913D01*
X124669999Y-107216875D01*
X124670008Y-107216880D01*
X124842894Y-107288491D01*
X124842902Y-107288493D01*
X125026428Y-107324999D01*
X125026431Y-107325000D01*
X125620000Y-107325000D01*
X125620000Y-106675000D01*
X126120000Y-106675000D01*
X126120000Y-107325000D01*
X126713569Y-107325000D01*
X126713571Y-107324999D01*
X126897097Y-107288493D01*
X126897105Y-107288491D01*
X127069991Y-107216880D01*
X127070000Y-107216875D01*
X127225589Y-107112913D01*
X127225593Y-107112910D01*
X127357910Y-106980593D01*
X127357913Y-106980589D01*
X127461875Y-106825000D01*
X127461880Y-106824991D01*
X127533492Y-106652103D01*
X127533493Y-106652100D01*
X127538884Y-106625000D01*
X126786988Y-106625000D01*
X126804205Y-106615060D01*
X126860060Y-106559205D01*
X126899556Y-106490796D01*
X126920000Y-106414496D01*
X126920000Y-106335504D01*
X126899556Y-106259204D01*
X126860060Y-106190795D01*
X126804205Y-106134940D01*
X126786988Y-106125000D01*
X127538884Y-106125000D01*
X127538884Y-106124999D01*
X127533493Y-106097899D01*
X127533492Y-106097896D01*
X127461880Y-105925008D01*
X127461878Y-105925005D01*
X127411427Y-105849501D01*
X127355217Y-105843965D01*
X127290429Y-105817804D01*
X127279690Y-105808243D01*
X126850000Y-105378553D01*
X126421493Y-105807060D01*
X126360170Y-105840545D01*
X126290478Y-105835561D01*
X126246131Y-105807060D01*
X126175000Y-105735929D01*
X126103868Y-105807061D01*
X126042545Y-105840545D01*
X125972853Y-105835561D01*
X125928506Y-105807060D01*
X125410904Y-105289457D01*
X125406565Y-105281511D01*
X125399317Y-105276085D01*
X125390082Y-105251325D01*
X125377419Y-105228134D01*
X125378064Y-105219103D01*
X125374901Y-105210621D01*
X125379881Y-105187724D01*
X125386709Y-105194552D01*
X125460218Y-105225000D01*
X125539782Y-105225000D01*
X125613291Y-105194552D01*
X125669552Y-105138291D01*
X125700000Y-105064782D01*
X125700000Y-105002380D01*
X125744204Y-104993587D01*
X125813795Y-104999814D01*
X125856076Y-105027523D01*
X126175000Y-105346446D01*
X126175001Y-105346446D01*
X126493922Y-105027524D01*
X126555245Y-104994039D01*
X126605794Y-104993588D01*
X126650000Y-105002381D01*
X126650000Y-105064782D01*
X126680448Y-105138291D01*
X126736709Y-105194552D01*
X126810218Y-105225000D01*
X126889782Y-105225000D01*
X126963291Y-105194552D01*
X127019552Y-105138291D01*
X127050000Y-105064782D01*
X127050000Y-105002381D01*
X127094205Y-104993588D01*
X127163796Y-104999815D01*
X127206077Y-105027524D01*
X127604114Y-105425561D01*
X127620148Y-105386854D01*
X127640730Y-105361312D01*
X127660399Y-105335039D01*
X127662548Y-105334237D01*
X127663989Y-105332450D01*
X127695123Y-105322087D01*
X127725863Y-105310622D01*
X127728105Y-105311109D01*
X127730283Y-105310385D01*
X127762078Y-105318500D01*
X127794136Y-105325474D01*
X127796585Y-105327307D01*
X127797982Y-105327664D01*
X127822390Y-105346625D01*
X127938181Y-105462416D01*
X127971666Y-105523739D01*
X127974500Y-105550097D01*
X127974500Y-105850000D01*
X127974501Y-105850019D01*
X127985000Y-105952796D01*
X127985001Y-105952797D01*
X128040185Y-106119331D01*
X128040187Y-106119336D01*
X128062506Y-106155521D01*
X128132288Y-106268656D01*
X128256344Y-106392712D01*
X128405666Y-106484814D01*
X128414498Y-106487740D01*
X128434535Y-106501611D01*
X128456703Y-106511735D01*
X128462748Y-106521142D01*
X128471944Y-106527508D01*
X128481301Y-106550011D01*
X128494477Y-106570513D01*
X128496934Y-106587605D01*
X128498771Y-106592022D01*
X128499500Y-106605448D01*
X128499500Y-106688330D01*
X128499499Y-106688348D01*
X128499499Y-106854054D01*
X128499498Y-106854054D01*
X128540423Y-107006785D01*
X128563757Y-107047199D01*
X128563758Y-107047203D01*
X128619475Y-107143709D01*
X128619481Y-107143717D01*
X128738349Y-107262585D01*
X128738355Y-107262590D01*
X129515139Y-108039374D01*
X129515149Y-108039385D01*
X129519479Y-108043715D01*
X129519480Y-108043716D01*
X129631284Y-108155520D01*
X129631286Y-108155521D01*
X129631290Y-108155524D01*
X129699211Y-108194738D01*
X129699215Y-108194739D01*
X129699216Y-108194740D01*
X129733715Y-108214658D01*
X129768212Y-108234576D01*
X129768214Y-108234576D01*
X129768215Y-108234577D01*
X129920942Y-108275500D01*
X129920943Y-108275500D01*
X129961416Y-108275500D01*
X130028455Y-108295185D01*
X130074210Y-108347989D01*
X130079119Y-108360489D01*
X130100077Y-108423735D01*
X130115186Y-108469331D01*
X130115188Y-108469336D01*
X130135695Y-108502583D01*
X130207289Y-108618656D01*
X130331345Y-108742712D01*
X130480667Y-108834814D01*
X130647204Y-108889999D01*
X130749992Y-108900500D01*
X131087325Y-108900499D01*
X131107537Y-108906434D01*
X131128577Y-108907562D01*
X131140389Y-108916080D01*
X131154363Y-108920183D01*
X131168160Y-108936106D01*
X131185249Y-108948429D01*
X131190581Y-108961980D01*
X131200118Y-108972987D01*
X131203116Y-108993839D01*
X131210831Y-109013447D01*
X131209501Y-109038245D01*
X131210062Y-109042146D01*
X131208941Y-109048691D01*
X131199362Y-109096847D01*
X131166977Y-109158758D01*
X131165427Y-109160336D01*
X131117376Y-109208387D01*
X131057992Y-109267771D01*
X131057991Y-109267772D01*
X131050925Y-109274839D01*
X131050924Y-109274839D01*
X131050921Y-109274841D01*
X131050922Y-109274842D01*
X130946185Y-109379579D01*
X130902374Y-109455462D01*
X130902232Y-109455709D01*
X130902229Y-109455716D01*
X130867130Y-109516508D01*
X130866771Y-109517844D01*
X130862182Y-109525887D01*
X130842409Y-109544928D01*
X130825180Y-109566298D01*
X130817604Y-109568817D01*
X130811855Y-109574354D01*
X130784927Y-109579683D01*
X130758880Y-109588345D01*
X130743880Y-109587807D01*
X130743315Y-109587919D01*
X130742946Y-109587773D01*
X130741232Y-109587712D01*
X130674590Y-109580547D01*
X130674588Y-109580546D01*
X130674580Y-109580546D01*
X130674571Y-109580546D01*
X129578836Y-109580546D01*
X129578830Y-109580547D01*
X129519223Y-109586954D01*
X129384378Y-109637248D01*
X129384371Y-109637252D01*
X129269162Y-109723498D01*
X129269159Y-109723501D01*
X129182913Y-109838710D01*
X129182909Y-109838717D01*
X129132615Y-109973563D01*
X129126208Y-110033162D01*
X129126207Y-110033181D01*
X129126207Y-111628916D01*
X129126208Y-111628922D01*
X129132615Y-111688529D01*
X129182909Y-111823374D01*
X129182913Y-111823381D01*
X129269159Y-111938590D01*
X129269162Y-111938593D01*
X129384371Y-112024839D01*
X129384376Y-112024842D01*
X129445540Y-112047654D01*
X129501473Y-112089524D01*
X129525891Y-112154988D01*
X129526207Y-112163836D01*
X129526207Y-113965352D01*
X129506522Y-114032391D01*
X129489888Y-114053033D01*
X129378213Y-114164707D01*
X129378210Y-114164711D01*
X129290609Y-114295814D01*
X129290604Y-114295824D01*
X129243245Y-114410159D01*
X129199404Y-114464562D01*
X129133109Y-114486627D01*
X129065410Y-114469348D01*
X129024370Y-114429747D01*
X129004281Y-114398487D01*
X129004278Y-114398483D01*
X128863724Y-114236275D01*
X128701514Y-114095720D01*
X128701513Y-114095719D01*
X128635092Y-114053033D01*
X128520951Y-113979679D01*
X128520938Y-113979672D01*
X128325715Y-113890517D01*
X128119774Y-113830047D01*
X128119764Y-113830044D01*
X127928754Y-113802582D01*
X127907318Y-113799500D01*
X127907317Y-113799500D01*
X121806962Y-113799500D01*
X121793078Y-113798720D01*
X121775914Y-113796786D01*
X121702735Y-113788540D01*
X121675666Y-113782362D01*
X121596462Y-113754648D01*
X121571444Y-113742600D01*
X121500395Y-113697957D01*
X121478686Y-113680644D01*
X121419355Y-113621313D01*
X121402042Y-113599604D01*
X121373503Y-113554185D01*
X121357398Y-113528553D01*
X121345351Y-113503537D01*
X121317637Y-113424333D01*
X121311459Y-113397263D01*
X121307120Y-113358757D01*
X121301280Y-113306922D01*
X121300500Y-113293038D01*
X121300500Y-110705084D01*
X122626207Y-110705084D01*
X122626207Y-110957008D01*
X122641488Y-111053489D01*
X122665617Y-111205831D01*
X122743467Y-111445429D01*
X122795335Y-111547224D01*
X122849985Y-111654481D01*
X122857839Y-111669894D01*
X123005908Y-111873695D01*
X123005912Y-111873700D01*
X123184052Y-112051840D01*
X123184057Y-112051844D01*
X123361824Y-112180998D01*
X123387862Y-112199916D01*
X123530891Y-112272793D01*
X123612323Y-112314285D01*
X123612325Y-112314285D01*
X123612328Y-112314287D01*
X123851922Y-112392136D01*
X124100745Y-112431546D01*
X124100746Y-112431546D01*
X124352668Y-112431546D01*
X124352669Y-112431546D01*
X124601492Y-112392136D01*
X124841086Y-112314287D01*
X125065552Y-112199916D01*
X125269363Y-112051839D01*
X125447500Y-111873702D01*
X125595577Y-111669891D01*
X125709948Y-111445425D01*
X125787797Y-111205831D01*
X125827207Y-110957008D01*
X125827207Y-110705084D01*
X125787797Y-110456261D01*
X125709948Y-110216667D01*
X125709946Y-110216664D01*
X125709946Y-110216662D01*
X125648897Y-110096848D01*
X125595577Y-109992201D01*
X125565109Y-109950265D01*
X125447505Y-109788396D01*
X125447501Y-109788391D01*
X125269361Y-109610251D01*
X125269356Y-109610247D01*
X125065555Y-109462178D01*
X125065554Y-109462177D01*
X125065552Y-109462176D01*
X124960201Y-109408497D01*
X124841090Y-109347806D01*
X124601492Y-109269956D01*
X124499778Y-109253846D01*
X124352669Y-109230546D01*
X124100745Y-109230546D01*
X123976333Y-109250251D01*
X123851921Y-109269956D01*
X123612323Y-109347806D01*
X123387858Y-109462178D01*
X123184057Y-109610247D01*
X123184052Y-109610251D01*
X123005912Y-109788391D01*
X123005908Y-109788396D01*
X122857839Y-109992197D01*
X122743467Y-110216662D01*
X122669362Y-110444735D01*
X122665617Y-110456261D01*
X122626207Y-110705084D01*
X121300500Y-110705084D01*
X121300500Y-107222016D01*
X121320185Y-107154977D01*
X121372989Y-107109222D01*
X121442147Y-107099278D01*
X121493391Y-107118914D01*
X121639999Y-107216875D01*
X121640008Y-107216880D01*
X121812894Y-107288491D01*
X121812902Y-107288493D01*
X121996428Y-107324999D01*
X121996431Y-107325000D01*
X122240000Y-107325000D01*
X122240000Y-106675000D01*
X122740000Y-106675000D01*
X122740000Y-107325000D01*
X122983569Y-107325000D01*
X122983571Y-107324999D01*
X123167097Y-107288493D01*
X123167105Y-107288491D01*
X123339991Y-107216880D01*
X123340000Y-107216875D01*
X123495589Y-107112913D01*
X123495593Y-107112910D01*
X123627910Y-106980593D01*
X123627913Y-106980589D01*
X123731875Y-106825000D01*
X123731880Y-106824991D01*
X123803492Y-106652103D01*
X123803493Y-106652100D01*
X123808884Y-106625000D01*
X123056988Y-106625000D01*
X123074205Y-106615060D01*
X123130060Y-106559205D01*
X123169556Y-106490796D01*
X123190000Y-106414496D01*
X123190000Y-106335504D01*
X123169556Y-106259204D01*
X123130060Y-106190795D01*
X123074205Y-106134940D01*
X123056988Y-106125000D01*
X123808884Y-106125000D01*
X123808884Y-106124999D01*
X123803493Y-106097899D01*
X123803492Y-106097896D01*
X123731880Y-105925008D01*
X123731875Y-105924999D01*
X123627913Y-105769410D01*
X123627910Y-105769406D01*
X123495593Y-105637089D01*
X123495589Y-105637086D01*
X123340000Y-105533124D01*
X123339991Y-105533119D01*
X123167105Y-105461508D01*
X123167097Y-105461506D01*
X122983570Y-105425000D01*
X122740000Y-105425000D01*
X122740000Y-106075000D01*
X122240000Y-106075000D01*
X122240000Y-105425000D01*
X121996430Y-105425000D01*
X121812902Y-105461506D01*
X121812894Y-105461508D01*
X121640008Y-105533119D01*
X121639999Y-105533124D01*
X121493391Y-105631085D01*
X121426713Y-105651963D01*
X121359333Y-105633478D01*
X121312643Y-105581499D01*
X121300500Y-105527983D01*
X121300500Y-98572016D01*
X121320185Y-98504977D01*
X121372989Y-98459222D01*
X121442147Y-98449278D01*
X121493391Y-98468914D01*
X121639999Y-98566875D01*
X121640008Y-98566880D01*
X121812894Y-98638491D01*
X121812902Y-98638493D01*
X121996428Y-98674999D01*
X121996431Y-98675000D01*
X122240000Y-98675000D01*
X122240000Y-98025000D01*
X122740000Y-98025000D01*
X122740000Y-98675000D01*
X122983569Y-98675000D01*
X122983571Y-98674999D01*
X123167097Y-98638493D01*
X123167105Y-98638491D01*
X123339991Y-98566880D01*
X123340000Y-98566875D01*
X123495589Y-98462913D01*
X123495593Y-98462910D01*
X123627910Y-98330593D01*
X123627913Y-98330589D01*
X123731875Y-98175000D01*
X123731880Y-98174991D01*
X123803492Y-98002103D01*
X123803493Y-98002100D01*
X123808884Y-97975000D01*
X123056988Y-97975000D01*
X123074205Y-97965060D01*
X123130060Y-97909205D01*
X123169556Y-97840796D01*
X123190000Y-97764496D01*
X123190000Y-97685504D01*
X123169556Y-97609204D01*
X123130060Y-97540795D01*
X123074205Y-97484940D01*
X123056988Y-97475000D01*
X123808884Y-97475000D01*
X123808884Y-97474999D01*
X123803493Y-97447899D01*
X123803492Y-97447896D01*
X123731880Y-97275008D01*
X123731875Y-97274999D01*
X123627913Y-97119410D01*
X123627910Y-97119406D01*
X123495593Y-96987089D01*
X123495589Y-96987086D01*
X123340000Y-96883124D01*
X123339991Y-96883119D01*
X123167105Y-96811508D01*
X123167097Y-96811506D01*
X122983570Y-96775000D01*
X122740000Y-96775000D01*
X122740000Y-97425000D01*
X122240000Y-97425000D01*
X122240000Y-96775000D01*
X121996430Y-96775000D01*
X121812902Y-96811506D01*
X121812894Y-96811508D01*
X121640008Y-96883119D01*
X121639999Y-96883124D01*
X121493391Y-96981085D01*
X121483690Y-96984122D01*
X121476011Y-96990777D01*
X121450911Y-96994385D01*
X121426713Y-97001963D01*
X121416913Y-96999274D01*
X121406853Y-97000721D01*
X121383784Y-96990186D01*
X121359333Y-96983478D01*
X121352542Y-96975918D01*
X121343297Y-96971696D01*
X121329586Y-96950361D01*
X121312643Y-96931499D01*
X121310011Y-96919902D01*
X121305523Y-96912918D01*
X121300500Y-96877983D01*
X121300500Y-96780102D01*
X121300501Y-96780099D01*
X121300500Y-96720297D01*
X121301097Y-96708145D01*
X121308899Y-96628917D01*
X121313638Y-96605092D01*
X121334976Y-96534754D01*
X121344274Y-96512310D01*
X121378920Y-96447497D01*
X121392423Y-96427292D01*
X121396153Y-96422747D01*
X121443064Y-96365591D01*
X121451214Y-96356598D01*
X121454028Y-96353786D01*
X121493374Y-96314446D01*
X121493375Y-96314443D01*
X121499833Y-96307987D01*
X121499876Y-96307936D01*
X123494017Y-94313795D01*
X123555338Y-94280312D01*
X123625030Y-94285296D01*
G37*
%TD.AperFunction*%
%TA.AperFunction,Conductor*%
G36*
X156685546Y-107929459D02*
G01*
X156696505Y-107930243D01*
X156716168Y-107944963D01*
X156738083Y-107956059D01*
X156748616Y-107969254D01*
X156752438Y-107972115D01*
X156756265Y-107978835D01*
X156760102Y-107983642D01*
X156764450Y-107991049D01*
X156790600Y-108054179D01*
X156878205Y-108185289D01*
X156878908Y-108185992D01*
X156882425Y-108191982D01*
X156895056Y-108238443D01*
X156899474Y-108252551D01*
X156899181Y-108253616D01*
X156899494Y-108254765D01*
X156899494Y-109267098D01*
X156879809Y-109334137D01*
X156827005Y-109379892D01*
X156799686Y-109388715D01*
X156716502Y-109405261D01*
X156716492Y-109405264D01*
X156570821Y-109465602D01*
X156570808Y-109465609D01*
X156439705Y-109553210D01*
X156439701Y-109553213D01*
X156328207Y-109664707D01*
X156328204Y-109664711D01*
X156240603Y-109795814D01*
X156240596Y-109795827D01*
X156180258Y-109941498D01*
X156180255Y-109941508D01*
X156149356Y-110096848D01*
X156140590Y-110113604D01*
X156136571Y-110132083D01*
X156117828Y-110157119D01*
X156116971Y-110158759D01*
X156115420Y-110160337D01*
X155942362Y-110333395D01*
X155881039Y-110366880D01*
X155811347Y-110361896D01*
X155785790Y-110348816D01*
X155715272Y-110301697D01*
X155715260Y-110301690D01*
X155569589Y-110241352D01*
X155569577Y-110241349D01*
X155414933Y-110210588D01*
X155414930Y-110210588D01*
X155257246Y-110210588D01*
X155257243Y-110210588D01*
X155102598Y-110241349D01*
X155102586Y-110241352D01*
X154956915Y-110301690D01*
X154956902Y-110301697D01*
X154825799Y-110389298D01*
X154825795Y-110389301D01*
X154714301Y-110500795D01*
X154714298Y-110500799D01*
X154626697Y-110631902D01*
X154626690Y-110631915D01*
X154566352Y-110777586D01*
X154566349Y-110777596D01*
X154535450Y-110932936D01*
X154503065Y-110994847D01*
X154501514Y-110996425D01*
X153131286Y-112366654D01*
X153131283Y-112366657D01*
X153109756Y-112388183D01*
X153048432Y-112421667D01*
X153022079Y-112424500D01*
X152952130Y-112424500D01*
X152952120Y-112424501D01*
X152937752Y-112426046D01*
X152868993Y-112413639D01*
X152817857Y-112366027D01*
X152800500Y-112302756D01*
X152800500Y-112146155D01*
X152800499Y-112146153D01*
X152787648Y-112081546D01*
X152769737Y-111991503D01*
X152769735Y-111991498D01*
X152709397Y-111845827D01*
X152709390Y-111845814D01*
X152621398Y-111714125D01*
X152600520Y-111647447D01*
X152600500Y-111645234D01*
X152600500Y-110975096D01*
X152620185Y-110908057D01*
X152636815Y-110887419D01*
X153270898Y-110253335D01*
X153332219Y-110219852D01*
X153401910Y-110224836D01*
X153446258Y-110253337D01*
X153489707Y-110296786D01*
X153489711Y-110296789D01*
X153620814Y-110384390D01*
X153620827Y-110384397D01*
X153681046Y-110409340D01*
X153766503Y-110444737D01*
X153909163Y-110473114D01*
X153921153Y-110475499D01*
X153921156Y-110475500D01*
X153921158Y-110475500D01*
X154078844Y-110475500D01*
X154078845Y-110475499D01*
X154233497Y-110444737D01*
X154346166Y-110398067D01*
X154379172Y-110384397D01*
X154379172Y-110384396D01*
X154379179Y-110384394D01*
X154510289Y-110296789D01*
X154621789Y-110185289D01*
X154709394Y-110054179D01*
X154718095Y-110033174D01*
X154752436Y-109950265D01*
X154769737Y-109908497D01*
X154794398Y-109784520D01*
X154800638Y-109753150D01*
X154833023Y-109691239D01*
X154834518Y-109689716D01*
X156565492Y-107958742D01*
X156587047Y-107946972D01*
X156606245Y-107931647D01*
X156617172Y-107930522D01*
X156626813Y-107925259D01*
X156651314Y-107927011D01*
X156675748Y-107924498D01*
X156685546Y-107929459D01*
G37*
%TD.AperFunction*%
%TA.AperFunction,Conductor*%
G36*
X144952748Y-106164499D02*
G01*
X144999176Y-106193755D01*
X145638181Y-106832760D01*
X145671666Y-106894083D01*
X145674500Y-106920441D01*
X145674500Y-108734995D01*
X145654815Y-108802034D01*
X145615600Y-108840532D01*
X145596955Y-108852032D01*
X145587324Y-108861663D01*
X145526000Y-108895146D01*
X145456308Y-108890159D01*
X145411965Y-108861660D01*
X145402732Y-108852427D01*
X145402728Y-108852424D01*
X145258492Y-108763457D01*
X145258481Y-108763452D01*
X145097606Y-108710144D01*
X144998322Y-108700000D01*
X144975000Y-108700000D01*
X144975000Y-109551000D01*
X144972449Y-109559685D01*
X144973738Y-109568647D01*
X144962759Y-109592687D01*
X144955315Y-109618039D01*
X144948474Y-109623966D01*
X144944713Y-109632203D01*
X144922478Y-109646492D01*
X144902511Y-109663794D01*
X144891996Y-109666081D01*
X144885935Y-109669977D01*
X144851000Y-109675000D01*
X144724500Y-109675000D01*
X144657461Y-109655315D01*
X144611706Y-109602511D01*
X144600500Y-109551000D01*
X144600500Y-106704765D01*
X144620185Y-106637726D01*
X144621398Y-106635874D01*
X144627314Y-106627021D01*
X144709394Y-106504179D01*
X144769737Y-106358497D01*
X144784640Y-106283577D01*
X144789878Y-106257245D01*
X144822263Y-106195334D01*
X144882979Y-106160759D01*
X144952748Y-106164499D01*
G37*
%TD.AperFunction*%
%TA.AperFunction,Conductor*%
G36*
X150532514Y-106609501D02*
G01*
X150532674Y-106608905D01*
X150540524Y-106611008D01*
X150540526Y-106611008D01*
X150540528Y-106611009D01*
X150650599Y-106625500D01*
X150849400Y-106625499D01*
X150849401Y-106625499D01*
X150919621Y-106616255D01*
X150988656Y-106627021D01*
X151040911Y-106673401D01*
X151059796Y-106740670D01*
X151058744Y-106755378D01*
X151049500Y-106825596D01*
X151049500Y-107024403D01*
X151063989Y-107134468D01*
X151066094Y-107142322D01*
X151062814Y-107143200D01*
X151068581Y-107197073D01*
X151065517Y-107207522D01*
X151066095Y-107207677D01*
X151063990Y-107215529D01*
X151049500Y-107325597D01*
X151049500Y-107524403D01*
X151063989Y-107634468D01*
X151066094Y-107642322D01*
X151062814Y-107643200D01*
X151068581Y-107697073D01*
X151065517Y-107707522D01*
X151066095Y-107707677D01*
X151063990Y-107715529D01*
X151049500Y-107825598D01*
X151049500Y-108024403D01*
X151063989Y-108134468D01*
X151066094Y-108142322D01*
X151062814Y-108143200D01*
X151068581Y-108197073D01*
X151065517Y-108207522D01*
X151066095Y-108207677D01*
X151063990Y-108215529D01*
X151049500Y-108325598D01*
X151049500Y-108524403D01*
X151058744Y-108594622D01*
X151047977Y-108663657D01*
X151001596Y-108715912D01*
X150934327Y-108734796D01*
X150919620Y-108733744D01*
X150849402Y-108724500D01*
X150650596Y-108724500D01*
X150540531Y-108738989D01*
X150532678Y-108741094D01*
X150531802Y-108737824D01*
X150477853Y-108743567D01*
X150467477Y-108740518D01*
X150467323Y-108741095D01*
X150459470Y-108738990D01*
X150349401Y-108724500D01*
X150150596Y-108724500D01*
X150040531Y-108738989D01*
X150032678Y-108741094D01*
X150031802Y-108737824D01*
X149977853Y-108743567D01*
X149967477Y-108740518D01*
X149967323Y-108741095D01*
X149959470Y-108738990D01*
X149849401Y-108724500D01*
X149650596Y-108724500D01*
X149540531Y-108738989D01*
X149532678Y-108741094D01*
X149531802Y-108737824D01*
X149477853Y-108743567D01*
X149467477Y-108740518D01*
X149467323Y-108741095D01*
X149459470Y-108738990D01*
X149349401Y-108724500D01*
X149150596Y-108724500D01*
X149079864Y-108733812D01*
X149010829Y-108723046D01*
X148966157Y-108687456D01*
X148820981Y-108502583D01*
X148820779Y-108502078D01*
X148820114Y-108501466D01*
X148819347Y-108500466D01*
X148796222Y-108440613D01*
X148795058Y-108437700D01*
X148795070Y-108437633D01*
X148794166Y-108435292D01*
X148808218Y-108366850D01*
X148819391Y-108349476D01*
X148820162Y-108348472D01*
X148846086Y-108329558D01*
X148856580Y-108318569D01*
X148863417Y-108316915D01*
X148876607Y-108307293D01*
X148918506Y-108300000D01*
X148946626Y-108300000D01*
X148935521Y-108215659D01*
X148933418Y-108207807D01*
X148937041Y-108206835D01*
X148930919Y-108154884D01*
X148934495Y-108142484D01*
X148933905Y-108142326D01*
X148936008Y-108134475D01*
X148936008Y-108134474D01*
X148936009Y-108134472D01*
X148950500Y-108024401D01*
X148950499Y-107825600D01*
X148948837Y-107812978D01*
X148941248Y-107755329D01*
X148936009Y-107715528D01*
X148936008Y-107715525D01*
X148933905Y-107707674D01*
X148937207Y-107706789D01*
X148931392Y-107653075D01*
X148934501Y-107642485D01*
X148933905Y-107642326D01*
X148936008Y-107634475D01*
X148936008Y-107634474D01*
X148936009Y-107634472D01*
X148950500Y-107524401D01*
X148950499Y-107325600D01*
X148936009Y-107215528D01*
X148936008Y-107215525D01*
X148933905Y-107207674D01*
X148937207Y-107206789D01*
X148931392Y-107153075D01*
X148934501Y-107142485D01*
X148933905Y-107142326D01*
X148936008Y-107134475D01*
X148936008Y-107134474D01*
X148936009Y-107134472D01*
X148950500Y-107024401D01*
X148950499Y-106825600D01*
X148950498Y-106825596D01*
X148941255Y-106755378D01*
X148952021Y-106686343D01*
X148998402Y-106634088D01*
X149065671Y-106615203D01*
X149080370Y-106616254D01*
X149150599Y-106625500D01*
X149349400Y-106625499D01*
X149349401Y-106625499D01*
X149366087Y-106623302D01*
X149459472Y-106611009D01*
X149459475Y-106611007D01*
X149467326Y-106608905D01*
X149468210Y-106612207D01*
X149521925Y-106606392D01*
X149532514Y-106609501D01*
X149532674Y-106608905D01*
X149540524Y-106611008D01*
X149540526Y-106611008D01*
X149540528Y-106611009D01*
X149650599Y-106625500D01*
X149849400Y-106625499D01*
X149849401Y-106625499D01*
X149866087Y-106623302D01*
X149959472Y-106611009D01*
X149959475Y-106611007D01*
X149967326Y-106608905D01*
X149968210Y-106612207D01*
X150021925Y-106606392D01*
X150032514Y-106609501D01*
X150032674Y-106608905D01*
X150040524Y-106611008D01*
X150040526Y-106611008D01*
X150040528Y-106611009D01*
X150150599Y-106625500D01*
X150349400Y-106625499D01*
X150349401Y-106625499D01*
X150366087Y-106623302D01*
X150459472Y-106611009D01*
X150459475Y-106611007D01*
X150467326Y-106608905D01*
X150468210Y-106612207D01*
X150521925Y-106606392D01*
X150532514Y-106609501D01*
G37*
%TD.AperFunction*%
%TA.AperFunction,Conductor*%
G36*
X127698825Y-97896961D02*
G01*
X127745256Y-97926218D01*
X129108412Y-99289374D01*
X129108422Y-99289385D01*
X129112752Y-99293715D01*
X129112753Y-99293716D01*
X129224557Y-99405520D01*
X129286883Y-99441503D01*
X129311368Y-99455639D01*
X129311370Y-99455641D01*
X129337413Y-99470677D01*
X129361488Y-99484577D01*
X129514215Y-99525500D01*
X129514216Y-99525500D01*
X131541404Y-99525500D01*
X131570794Y-99534130D01*
X131600739Y-99540618D01*
X131604009Y-99543883D01*
X131608443Y-99545185D01*
X131628502Y-99568335D01*
X131650186Y-99589982D01*
X131651957Y-99595402D01*
X131654198Y-99597989D01*
X131662548Y-99623040D01*
X131667975Y-99647887D01*
X131666219Y-99672727D01*
X131668648Y-99697512D01*
X131665650Y-99707554D01*
X131666095Y-99707673D01*
X131663991Y-99715524D01*
X131649500Y-99825598D01*
X131649500Y-100024403D01*
X131663989Y-100134468D01*
X131666094Y-100142322D01*
X131662814Y-100143200D01*
X131668581Y-100197073D01*
X131665517Y-100207522D01*
X131666095Y-100207677D01*
X131663990Y-100215529D01*
X131649500Y-100325598D01*
X131649500Y-100524403D01*
X131663988Y-100634463D01*
X131663991Y-100634472D01*
X131720721Y-100771429D01*
X131799369Y-100873925D01*
X131810085Y-100901645D01*
X131823186Y-100928322D01*
X131822546Y-100933876D01*
X131824562Y-100939091D01*
X131818589Y-100968208D01*
X131815188Y-100997733D01*
X131811373Y-101003395D01*
X131810524Y-101007536D01*
X131796948Y-101027948D01*
X131793033Y-101032730D01*
X131694480Y-101131284D01*
X131656694Y-101196732D01*
X131651653Y-101205462D01*
X131651653Y-101205463D01*
X131627411Y-101247452D01*
X131615423Y-101268215D01*
X131574499Y-101420943D01*
X131574499Y-101420945D01*
X131574499Y-101589046D01*
X131574500Y-101589059D01*
X131574500Y-102258480D01*
X131554815Y-102325519D01*
X131538181Y-102346161D01*
X131419531Y-102464810D01*
X131419530Y-102464811D01*
X131331522Y-102610393D01*
X131280913Y-102772807D01*
X131276016Y-102826699D01*
X131274500Y-102843384D01*
X131274500Y-103506616D01*
X131280914Y-103577196D01*
X131298253Y-103632839D01*
X131318977Y-103699348D01*
X131320127Y-103769208D01*
X131283326Y-103828600D01*
X131239597Y-103853942D01*
X131212761Y-103862835D01*
X131205666Y-103865186D01*
X131205663Y-103865187D01*
X131056342Y-103957289D01*
X130932289Y-104081342D01*
X130840187Y-104230663D01*
X130840185Y-104230668D01*
X130812372Y-104314602D01*
X130785001Y-104397203D01*
X130785001Y-104397204D01*
X130785000Y-104397204D01*
X130774500Y-104499983D01*
X130774500Y-105850001D01*
X130774501Y-105850018D01*
X130785000Y-105952796D01*
X130785001Y-105952797D01*
X130840185Y-106119331D01*
X130840189Y-106119340D01*
X130927198Y-106260404D01*
X130945638Y-106327796D01*
X130924715Y-106394459D01*
X130871073Y-106439229D01*
X130821661Y-106449500D01*
X130750000Y-106449500D01*
X130749981Y-106449501D01*
X130647204Y-106460000D01*
X130647201Y-106460001D01*
X130480669Y-106515185D01*
X130480664Y-106515187D01*
X130331343Y-106607289D01*
X130207288Y-106731344D01*
X130174515Y-106784478D01*
X130157223Y-106800030D01*
X130143287Y-106818647D01*
X130131735Y-106822955D01*
X130122567Y-106831202D01*
X130099612Y-106834936D01*
X130077823Y-106843064D01*
X130065773Y-106840442D01*
X130053604Y-106842423D01*
X130032275Y-106833155D01*
X130009550Y-106828212D01*
X129993851Y-106816460D01*
X129989522Y-106814579D01*
X129981296Y-106807061D01*
X129821551Y-106647316D01*
X129788066Y-106585993D01*
X129793050Y-106516301D01*
X129834922Y-106460368D01*
X129844136Y-106454096D01*
X129858906Y-106444986D01*
X129943656Y-106392712D01*
X130067712Y-106268656D01*
X130159814Y-106119334D01*
X130214999Y-105952797D01*
X130225500Y-105850009D01*
X130225499Y-104499992D01*
X130219685Y-104443081D01*
X130214999Y-104397203D01*
X130214998Y-104397200D01*
X130198013Y-104345943D01*
X130159814Y-104230666D01*
X130067712Y-104081344D01*
X129943656Y-103957288D01*
X129850888Y-103900069D01*
X129794336Y-103865187D01*
X129794331Y-103865185D01*
X129760405Y-103853943D01*
X129627797Y-103810001D01*
X129627795Y-103810000D01*
X129525010Y-103799500D01*
X128674998Y-103799500D01*
X128674980Y-103799501D01*
X128572203Y-103810000D01*
X128572200Y-103810001D01*
X128405668Y-103865185D01*
X128405659Y-103865189D01*
X128262589Y-103953435D01*
X128234054Y-103961242D01*
X128206339Y-103971580D01*
X128200731Y-103970360D01*
X128195196Y-103971875D01*
X128166967Y-103963015D01*
X128138066Y-103956728D01*
X128131662Y-103951934D01*
X128128533Y-103950952D01*
X128109812Y-103935577D01*
X127987591Y-103813356D01*
X127987589Y-103813353D01*
X127868718Y-103694482D01*
X127868717Y-103694481D01*
X127761949Y-103632839D01*
X127743801Y-103622361D01*
X127711362Y-103588339D01*
X127695588Y-103571796D01*
X127695587Y-103571794D01*
X127695586Y-103571793D01*
X127689320Y-103539279D01*
X127682364Y-103503189D01*
X127684186Y-103490783D01*
X127687226Y-103475499D01*
X127700500Y-103408767D01*
X127700500Y-103241233D01*
X127667816Y-103076918D01*
X127614188Y-102947451D01*
X127606720Y-102877984D01*
X127614189Y-102852547D01*
X127667816Y-102723082D01*
X127700500Y-102558767D01*
X127700500Y-102391233D01*
X127667816Y-102226918D01*
X127614188Y-102097451D01*
X127606720Y-102027984D01*
X127614189Y-102002547D01*
X127667816Y-101873082D01*
X127700500Y-101708767D01*
X127700500Y-101541233D01*
X127667816Y-101376918D01*
X127614189Y-101247452D01*
X127606720Y-101177983D01*
X127614185Y-101152558D01*
X127667816Y-101023083D01*
X127700500Y-100858768D01*
X127700500Y-100691234D01*
X127667816Y-100526919D01*
X127614189Y-100397453D01*
X127606720Y-100327984D01*
X127614189Y-100302547D01*
X127616574Y-100296789D01*
X127667816Y-100173082D01*
X127700500Y-100008767D01*
X127700500Y-99841233D01*
X127667816Y-99676918D01*
X127613917Y-99546797D01*
X127606449Y-99477330D01*
X127613918Y-99451892D01*
X127667335Y-99322932D01*
X127667336Y-99322928D01*
X127699999Y-99158722D01*
X127700000Y-99158720D01*
X127700000Y-98991279D01*
X127699999Y-98991277D01*
X127667336Y-98827071D01*
X127667334Y-98827063D01*
X127604114Y-98674437D01*
X127206076Y-99072476D01*
X127144753Y-99105961D01*
X127094204Y-99106412D01*
X127050000Y-99097619D01*
X127050000Y-99035218D01*
X127019552Y-98961709D01*
X126963291Y-98905448D01*
X126889782Y-98875000D01*
X126810218Y-98875000D01*
X126736709Y-98905448D01*
X126680448Y-98961709D01*
X126650000Y-99035218D01*
X126650000Y-99097618D01*
X126605794Y-99106412D01*
X126536202Y-99100185D01*
X126493922Y-99072476D01*
X126175001Y-98753553D01*
X126175000Y-98753553D01*
X125856076Y-99072476D01*
X125851314Y-99075075D01*
X125848319Y-99079601D01*
X125820972Y-99091643D01*
X125794753Y-99105961D01*
X125788020Y-99106155D01*
X125784375Y-99107761D01*
X125760380Y-99106955D01*
X125749084Y-99107282D01*
X125746628Y-99106894D01*
X125700000Y-99097619D01*
X125700000Y-99035218D01*
X125669552Y-98961709D01*
X125613291Y-98905448D01*
X125539782Y-98875000D01*
X125460218Y-98875000D01*
X125386709Y-98905448D01*
X125378177Y-98913979D01*
X125382403Y-98854889D01*
X125410904Y-98810542D01*
X125928506Y-98292939D01*
X125989829Y-98259454D01*
X126059520Y-98264438D01*
X126103868Y-98292938D01*
X126175000Y-98364069D01*
X126246131Y-98292939D01*
X126307454Y-98259454D01*
X126377146Y-98264438D01*
X126421493Y-98292939D01*
X126849999Y-98721445D01*
X127279690Y-98291755D01*
X127341013Y-98258270D01*
X127355218Y-98256033D01*
X127411428Y-98250497D01*
X127461880Y-98174991D01*
X127533491Y-98002105D01*
X127533491Y-98002104D01*
X127535957Y-97989710D01*
X127568341Y-97927799D01*
X127629056Y-97893223D01*
X127698825Y-97896961D01*
G37*
%TD.AperFunction*%
%TA.AperFunction,Conductor*%
G36*
X144405705Y-99926774D02*
G01*
X144412183Y-99932806D01*
X144763682Y-100284305D01*
X144797167Y-100345628D01*
X144800001Y-100371986D01*
X144800001Y-100505683D01*
X144782733Y-100568803D01*
X144748257Y-100627099D01*
X144748254Y-100627106D01*
X144702402Y-100784926D01*
X144702401Y-100784932D01*
X144699500Y-100821798D01*
X144699500Y-101978201D01*
X144702401Y-102015067D01*
X144702402Y-102015073D01*
X144748254Y-102172893D01*
X144748255Y-102172896D01*
X144748256Y-102172898D01*
X144781346Y-102228851D01*
X144782733Y-102231195D01*
X144800001Y-102294316D01*
X144800001Y-102559796D01*
X144826248Y-102584059D01*
X144862114Y-102644020D01*
X144859869Y-102713854D01*
X144835471Y-102753514D01*
X144836702Y-102754469D01*
X144831917Y-102760637D01*
X144748255Y-102902103D01*
X144748254Y-102902106D01*
X144702402Y-103059926D01*
X144702401Y-103059932D01*
X144699500Y-103096798D01*
X144699500Y-104253201D01*
X144702401Y-104290067D01*
X144702402Y-104290073D01*
X144748254Y-104447893D01*
X144748255Y-104447896D01*
X144748256Y-104447898D01*
X144773147Y-104489987D01*
X144831917Y-104589362D01*
X144831923Y-104589370D01*
X144863180Y-104620626D01*
X144877885Y-104647556D01*
X144894477Y-104673373D01*
X144895368Y-104679571D01*
X144896666Y-104681948D01*
X144899500Y-104708308D01*
X144899500Y-104785672D01*
X144879815Y-104852711D01*
X144827011Y-104898466D01*
X144775500Y-104909672D01*
X144247139Y-104909672D01*
X144180100Y-104889987D01*
X144134345Y-104837183D01*
X144124401Y-104768025D01*
X144153426Y-104704469D01*
X144159458Y-104697991D01*
X144268078Y-104589370D01*
X144268083Y-104589365D01*
X144351746Y-104447898D01*
X144386910Y-104326865D01*
X144397599Y-104290073D01*
X144397600Y-104290067D01*
X144398618Y-104277128D01*
X144400502Y-104253194D01*
X144400502Y-103096806D01*
X144397600Y-103059931D01*
X144395005Y-103051000D01*
X144357567Y-102922137D01*
X144351746Y-102902102D01*
X144268083Y-102760635D01*
X144268080Y-102760632D01*
X144263300Y-102754469D01*
X144264984Y-102753162D01*
X144236759Y-102701472D01*
X144241743Y-102631780D01*
X144273754Y-102584058D01*
X144300001Y-102559795D01*
X144300001Y-102294316D01*
X144317269Y-102231195D01*
X144351746Y-102172898D01*
X144393883Y-102027863D01*
X144397599Y-102015073D01*
X144397600Y-102015067D01*
X144398946Y-101997968D01*
X144400502Y-101978194D01*
X144400502Y-100821806D01*
X144397600Y-100784931D01*
X144393677Y-100771429D01*
X144353887Y-100634472D01*
X144351746Y-100627102D01*
X144327846Y-100586689D01*
X144317269Y-100568803D01*
X144300001Y-100505683D01*
X144300001Y-100240203D01*
X144286145Y-100227399D01*
X144265893Y-100223153D01*
X144216119Y-100174119D01*
X144200502Y-100113878D01*
X144200502Y-100020487D01*
X144220187Y-99953448D01*
X144272991Y-99907693D01*
X144342149Y-99897749D01*
X144405705Y-99926774D01*
G37*
%TD.AperFunction*%
%TA.AperFunction,Conductor*%
G36*
X156817941Y-101295185D02*
G01*
X156863696Y-101347989D01*
X156873640Y-101417147D01*
X156844615Y-101480703D01*
X156838583Y-101487181D01*
X155467365Y-102858397D01*
X155406042Y-102891882D01*
X155336350Y-102886898D01*
X155310793Y-102873818D01*
X155240275Y-102826699D01*
X155240263Y-102826692D01*
X155094592Y-102766354D01*
X155094582Y-102766351D01*
X154939242Y-102735452D01*
X154877332Y-102703067D01*
X154875753Y-102701516D01*
X154817718Y-102643481D01*
X154817710Y-102643475D01*
X154698242Y-102574501D01*
X154698239Y-102574500D01*
X154680786Y-102564423D01*
X154663514Y-102559795D01*
X154528058Y-102523499D01*
X154369944Y-102523499D01*
X154362348Y-102523499D01*
X154362332Y-102523500D01*
X151413052Y-102523500D01*
X151372131Y-102534464D01*
X151372131Y-102534465D01*
X151334863Y-102544451D01*
X151260326Y-102564423D01*
X151260321Y-102564426D01*
X151123402Y-102643475D01*
X151123394Y-102643481D01*
X151011590Y-102755286D01*
X150199658Y-103567217D01*
X150138335Y-103600702D01*
X150068643Y-103595718D01*
X150024296Y-103567217D01*
X150010292Y-103553213D01*
X150010288Y-103553210D01*
X149879185Y-103465609D01*
X149879172Y-103465602D01*
X149733501Y-103405264D01*
X149733489Y-103405261D01*
X149578845Y-103374500D01*
X149578842Y-103374500D01*
X149421158Y-103374500D01*
X149421155Y-103374500D01*
X149266510Y-103405261D01*
X149266502Y-103405263D01*
X149219878Y-103424575D01*
X149150408Y-103432042D01*
X149087930Y-103400766D01*
X149052278Y-103340677D01*
X149054773Y-103270852D01*
X149084747Y-103222331D01*
X149121786Y-103185292D01*
X149121789Y-103185289D01*
X149209394Y-103054179D01*
X149269737Y-102908497D01*
X149300500Y-102753842D01*
X149300500Y-102596158D01*
X149300500Y-102596155D01*
X149300499Y-102596153D01*
X149277494Y-102480500D01*
X149269737Y-102441503D01*
X149248915Y-102391233D01*
X149233661Y-102354406D01*
X149226192Y-102284937D01*
X149257467Y-102222458D01*
X149317557Y-102186806D01*
X149348222Y-102182954D01*
X149505820Y-102182954D01*
X149505821Y-102182953D01*
X149660473Y-102152191D01*
X149792623Y-102097453D01*
X149806148Y-102091851D01*
X149806148Y-102091850D01*
X149806155Y-102091848D01*
X149937265Y-102004243D01*
X150048765Y-101892743D01*
X150056873Y-101880609D01*
X150110485Y-101835804D01*
X150159975Y-101825500D01*
X150420234Y-101825500D01*
X150487273Y-101845185D01*
X150489125Y-101846398D01*
X150620814Y-101934390D01*
X150620827Y-101934397D01*
X150751071Y-101988345D01*
X150766503Y-101994737D01*
X150910113Y-102023303D01*
X150921153Y-102025499D01*
X150921156Y-102025500D01*
X150921158Y-102025500D01*
X151078844Y-102025500D01*
X151078845Y-102025499D01*
X151233497Y-101994737D01*
X151379179Y-101934394D01*
X151510289Y-101846789D01*
X151621789Y-101735289D01*
X151709394Y-101604179D01*
X151769737Y-101458497D01*
X151778268Y-101415610D01*
X151786285Y-101375308D01*
X151818670Y-101313397D01*
X151879386Y-101278823D01*
X151907902Y-101275500D01*
X156750902Y-101275500D01*
X156817941Y-101295185D01*
G37*
%TD.AperFunction*%
%TA.AperFunction,Conductor*%
G36*
X138268834Y-97807914D02*
G01*
X138324767Y-97849786D01*
X138349184Y-97915250D01*
X138349500Y-97924096D01*
X138349500Y-98928778D01*
X138349499Y-98928796D01*
X138349499Y-99094502D01*
X138349498Y-99094502D01*
X138390423Y-99247234D01*
X138404391Y-99271425D01*
X138404392Y-99271430D01*
X138404394Y-99271430D01*
X138469479Y-99384162D01*
X138469481Y-99384165D01*
X138588349Y-99503033D01*
X138588355Y-99503038D01*
X139073636Y-99988319D01*
X139107121Y-100049642D01*
X139102137Y-100119334D01*
X139060265Y-100175267D01*
X139043467Y-100181532D01*
X139025000Y-100200000D01*
X139025000Y-100925000D01*
X139724999Y-100925000D01*
X139730837Y-100919161D01*
X139744684Y-100872005D01*
X139797488Y-100826250D01*
X139866646Y-100816306D01*
X139930202Y-100845331D01*
X139936680Y-100851363D01*
X140863181Y-101777864D01*
X140896666Y-101839187D01*
X140899500Y-101865545D01*
X140899500Y-102788444D01*
X140879815Y-102855483D01*
X140827011Y-102901238D01*
X140757853Y-102911182D01*
X140739575Y-102906202D01*
X140739324Y-102907031D01*
X140733500Y-102905264D01*
X140733497Y-102905263D01*
X140733492Y-102905262D01*
X140733489Y-102905261D01*
X140578845Y-102874500D01*
X140578842Y-102874500D01*
X140421158Y-102874500D01*
X140421155Y-102874500D01*
X140266510Y-102905261D01*
X140266498Y-102905264D01*
X140120828Y-102965602D01*
X140120814Y-102965610D01*
X140086608Y-102988465D01*
X140019930Y-103009341D01*
X139983125Y-103004437D01*
X139890073Y-102977402D01*
X139890067Y-102977401D01*
X139853201Y-102974500D01*
X139853194Y-102974500D01*
X138696806Y-102974500D01*
X138696798Y-102974500D01*
X138659932Y-102977401D01*
X138659926Y-102977402D01*
X138502106Y-103023254D01*
X138502103Y-103023255D01*
X138360637Y-103106917D01*
X138360629Y-103106923D01*
X138244423Y-103223129D01*
X138244414Y-103223140D01*
X138244229Y-103223455D01*
X138244019Y-103223650D01*
X138239639Y-103229298D01*
X138238727Y-103228591D01*
X138193157Y-103271136D01*
X138124415Y-103283637D01*
X138059827Y-103256988D01*
X138035643Y-103229078D01*
X138035361Y-103229298D01*
X138031323Y-103224092D01*
X138030771Y-103223455D01*
X138030585Y-103223140D01*
X138030576Y-103223129D01*
X137914370Y-103106923D01*
X137914362Y-103106917D01*
X137772896Y-103023255D01*
X137772893Y-103023254D01*
X137615073Y-102977402D01*
X137615067Y-102977401D01*
X137589036Y-102975353D01*
X137523747Y-102950469D01*
X137482277Y-102894238D01*
X137474765Y-102851735D01*
X137474765Y-102770420D01*
X137474764Y-102770418D01*
X137471754Y-102755284D01*
X137444002Y-102615768D01*
X137443756Y-102615173D01*
X137383662Y-102470092D01*
X137383655Y-102470079D01*
X137308213Y-102357173D01*
X137298725Y-102326874D01*
X137287631Y-102297124D01*
X137288360Y-102293771D01*
X137287335Y-102290496D01*
X137295735Y-102259873D01*
X137302485Y-102228851D01*
X137305264Y-102225138D01*
X137305819Y-102223116D01*
X137323637Y-102200598D01*
X137337421Y-102186815D01*
X137398745Y-102153332D01*
X137425099Y-102150499D01*
X137498338Y-102150499D01*
X137498344Y-102150499D01*
X137498352Y-102150498D01*
X137498355Y-102150498D01*
X137552760Y-102144940D01*
X137597708Y-102140349D01*
X137758697Y-102087003D01*
X137903044Y-101997968D01*
X137912668Y-101988343D01*
X137973987Y-101954856D01*
X138043679Y-101959835D01*
X138088034Y-101988339D01*
X138097267Y-101997572D01*
X138097271Y-101997575D01*
X138241507Y-102086542D01*
X138241518Y-102086547D01*
X138402393Y-102139855D01*
X138501683Y-102149999D01*
X139025000Y-102149999D01*
X139048308Y-102149999D01*
X139048322Y-102149998D01*
X139147607Y-102139855D01*
X139308481Y-102086547D01*
X139308492Y-102086542D01*
X139452728Y-101997575D01*
X139452732Y-101997572D01*
X139572572Y-101877732D01*
X139572575Y-101877728D01*
X139661542Y-101733492D01*
X139661547Y-101733481D01*
X139714855Y-101572606D01*
X139724999Y-101473322D01*
X139725000Y-101473309D01*
X139725000Y-101425000D01*
X139025000Y-101425000D01*
X139025000Y-102149999D01*
X138501683Y-102149999D01*
X138525000Y-102149998D01*
X138525000Y-100199999D01*
X138501693Y-100200000D01*
X138501674Y-100200001D01*
X138402392Y-100210144D01*
X138241518Y-100263452D01*
X138241507Y-100263457D01*
X138097271Y-100352424D01*
X138097265Y-100352428D01*
X138088031Y-100361663D01*
X138026707Y-100395146D01*
X137957015Y-100390159D01*
X137912672Y-100361660D01*
X137903044Y-100352032D01*
X137903040Y-100352029D01*
X137758705Y-100263001D01*
X137758699Y-100262998D01*
X137758697Y-100262997D01*
X137726714Y-100252399D01*
X137597709Y-100209651D01*
X137498346Y-100199500D01*
X136951662Y-100199500D01*
X136951644Y-100199501D01*
X136852292Y-100209650D01*
X136852289Y-100209651D01*
X136691305Y-100262996D01*
X136691294Y-100263001D01*
X136546961Y-100352028D01*
X136543510Y-100354757D01*
X136538628Y-100356726D01*
X136535245Y-100360755D01*
X136506566Y-100369659D01*
X136478713Y-100380895D01*
X136473543Y-100379912D01*
X136468518Y-100381473D01*
X136439571Y-100373457D01*
X136410072Y-100367852D01*
X136406255Y-100364231D01*
X136401182Y-100362827D01*
X136381164Y-100340433D01*
X136359378Y-100319770D01*
X136357181Y-100313604D01*
X136354617Y-100310736D01*
X136347108Y-100285331D01*
X136344151Y-100277029D01*
X136343888Y-100275385D01*
X136336009Y-100215528D01*
X136333287Y-100208959D01*
X136330987Y-100194541D01*
X136333639Y-100173829D01*
X136331392Y-100153075D01*
X136334501Y-100142485D01*
X136333905Y-100142326D01*
X136336008Y-100134475D01*
X136336008Y-100134474D01*
X136336009Y-100134472D01*
X136350500Y-100024401D01*
X136350499Y-99825600D01*
X136336009Y-99715528D01*
X136336008Y-99715525D01*
X136333905Y-99707674D01*
X136337091Y-99706820D01*
X136331075Y-99654918D01*
X136333394Y-99640782D01*
X136336009Y-99634472D01*
X136342409Y-99585856D01*
X136342723Y-99583945D01*
X136357047Y-99554158D01*
X136370412Y-99523947D01*
X136372118Y-99522821D01*
X136373005Y-99520978D01*
X136401166Y-99503660D01*
X136424516Y-99488258D01*
X136424279Y-99487686D01*
X136427248Y-99486455D01*
X136428736Y-99485475D01*
X136431609Y-99484649D01*
X136431782Y-99484577D01*
X136431785Y-99484577D01*
X136481904Y-99455639D01*
X136568716Y-99405520D01*
X136680520Y-99293716D01*
X136680520Y-99293714D01*
X136690728Y-99283507D01*
X136690729Y-99283504D01*
X138137820Y-97836413D01*
X138199142Y-97802930D01*
X138268834Y-97807914D01*
G37*
%TD.AperFunction*%
%TA.AperFunction,Conductor*%
G36*
X134718268Y-100895184D02*
G01*
X134726715Y-100901123D01*
X134828570Y-100979278D01*
X134828573Y-100979280D01*
X134853123Y-100989449D01*
X134965528Y-101036009D01*
X135075599Y-101050500D01*
X135174902Y-101050499D01*
X135241940Y-101070183D01*
X135262583Y-101086818D01*
X135715139Y-101539374D01*
X135715149Y-101539385D01*
X135719479Y-101543715D01*
X135719480Y-101543716D01*
X135831284Y-101655520D01*
X135897922Y-101693993D01*
X135906233Y-101698791D01*
X135929636Y-101723339D01*
X135954440Y-101749351D01*
X135954441Y-101749356D01*
X135954445Y-101749361D01*
X135960805Y-101782370D01*
X135967665Y-101817957D01*
X135967662Y-101817962D01*
X135967664Y-101817969D01*
X135954638Y-101850500D01*
X135941699Y-101882823D01*
X135941692Y-101882829D01*
X135941692Y-101882832D01*
X135941689Y-101882833D01*
X135931907Y-101893855D01*
X134933648Y-102892114D01*
X134872325Y-102925599D01*
X134802633Y-102920615D01*
X134746700Y-102878743D01*
X134722476Y-102815652D01*
X134718591Y-102772897D01*
X134718590Y-102772892D01*
X134668018Y-102610603D01*
X134580072Y-102465122D01*
X134459877Y-102344927D01*
X134314395Y-102256980D01*
X134314396Y-102256980D01*
X134152105Y-102206409D01*
X134152106Y-102206409D01*
X134081572Y-102200000D01*
X134075000Y-102200000D01*
X134075000Y-103051000D01*
X134055315Y-103118039D01*
X134002511Y-103163794D01*
X133951000Y-103175000D01*
X133699000Y-103175000D01*
X133631961Y-103155315D01*
X133586206Y-103102511D01*
X133575000Y-103051000D01*
X133575000Y-102200000D01*
X133574999Y-102199999D01*
X133568436Y-102200000D01*
X133568417Y-102200001D01*
X133497897Y-102206408D01*
X133497892Y-102206409D01*
X133335603Y-102256981D01*
X133190122Y-102344927D01*
X133190121Y-102344928D01*
X133088035Y-102447015D01*
X133080089Y-102451353D01*
X133074664Y-102458601D01*
X133049904Y-102467835D01*
X133026712Y-102480500D01*
X133017682Y-102479854D01*
X133009200Y-102483018D01*
X132983379Y-102477401D01*
X132957020Y-102475516D01*
X132947966Y-102469697D01*
X132940927Y-102468166D01*
X132912673Y-102447015D01*
X132811819Y-102346161D01*
X132778334Y-102284838D01*
X132775500Y-102258480D01*
X132775500Y-101800097D01*
X132795185Y-101733058D01*
X132811814Y-101712419D01*
X132908506Y-101615727D01*
X132908510Y-101615725D01*
X132918714Y-101605520D01*
X132918716Y-101605520D01*
X133030520Y-101493716D01*
X133097953Y-101376918D01*
X133109577Y-101356785D01*
X133150500Y-101204057D01*
X133150500Y-101056488D01*
X133151573Y-101052830D01*
X133150719Y-101049114D01*
X133161342Y-101019563D01*
X133170185Y-100989449D01*
X133173440Y-100985910D01*
X133174356Y-100983364D01*
X133199014Y-100958112D01*
X133207736Y-100951420D01*
X133273284Y-100901123D01*
X133338453Y-100875929D01*
X133348770Y-100875499D01*
X134651229Y-100875499D01*
X134718268Y-100895184D01*
G37*
%TD.AperFunction*%
%TA.AperFunction,Conductor*%
G36*
X158782042Y-96875780D02*
G01*
X158793252Y-96874179D01*
X158815288Y-96884265D01*
X158838771Y-96890259D01*
X158846487Y-96898546D01*
X158856783Y-96903259D01*
X158869867Y-96923657D01*
X158886383Y-96941395D01*
X158889379Y-96954075D01*
X158894507Y-96962069D01*
X158894495Y-96975723D01*
X158899500Y-96996902D01*
X158899500Y-99374901D01*
X158879815Y-99441940D01*
X158863181Y-99462582D01*
X158467365Y-99858397D01*
X158406042Y-99891882D01*
X158336350Y-99886898D01*
X158310793Y-99873818D01*
X158240275Y-99826699D01*
X158240263Y-99826692D01*
X158094592Y-99766354D01*
X158094580Y-99766351D01*
X157939936Y-99735590D01*
X157939933Y-99735590D01*
X157782249Y-99735590D01*
X157782246Y-99735590D01*
X157627601Y-99766351D01*
X157627589Y-99766354D01*
X157481918Y-99826692D01*
X157481905Y-99826699D01*
X157350802Y-99914300D01*
X157350798Y-99914303D01*
X157239301Y-100025800D01*
X157236543Y-100029162D01*
X157178799Y-100068498D01*
X157140688Y-100074500D01*
X150255766Y-100074500D01*
X150237622Y-100069172D01*
X150218713Y-100068835D01*
X150190495Y-100055334D01*
X150188727Y-100054815D01*
X150186875Y-100053602D01*
X150110548Y-100002602D01*
X150065743Y-99948990D01*
X150057036Y-99879665D01*
X150087190Y-99816638D01*
X150146633Y-99779918D01*
X150179439Y-99775500D01*
X156433512Y-99775500D01*
X156433528Y-99775501D01*
X156441124Y-99775501D01*
X156599235Y-99775501D01*
X156599238Y-99775501D01*
X156751966Y-99734577D01*
X156823605Y-99693216D01*
X156888897Y-99655520D01*
X157000701Y-99543716D01*
X157000701Y-99543714D01*
X157010905Y-99533511D01*
X157010909Y-99533506D01*
X158308506Y-98235909D01*
X158308511Y-98235905D01*
X158318714Y-98225701D01*
X158318716Y-98225701D01*
X158430520Y-98113897D01*
X158509577Y-97976965D01*
X158550500Y-97824238D01*
X158550500Y-97153765D01*
X158555537Y-97136608D01*
X158555553Y-97118728D01*
X158569602Y-97088710D01*
X158570185Y-97086726D01*
X158570242Y-97086636D01*
X158571688Y-97084389D01*
X158571789Y-97084289D01*
X158659394Y-96953179D01*
X158665205Y-96939147D01*
X158671242Y-96929773D01*
X158689571Y-96913917D01*
X158704778Y-96895047D01*
X158715520Y-96891471D01*
X158724085Y-96884063D01*
X158748078Y-96880634D01*
X158771072Y-96872981D01*
X158782042Y-96875780D01*
G37*
%TD.AperFunction*%
%TD*%
M02*
