%TF.GenerationSoftware,KiCad,Pcbnew,9.0.5*%
%TF.CreationDate,2025-10-31T19:38:18+05:30*%
%TF.ProjectId,MoistureSensor,4d6f6973-7475-4726-9553-656e736f722e,rev?*%
%TF.SameCoordinates,Original*%
%TF.FileFunction,Soldermask,Bot*%
%TF.FilePolarity,Negative*%
%FSLAX46Y46*%
G04 Gerber Fmt 4.6, Leading zero omitted, Abs format (unit mm)*
G04 Created by KiCad (PCBNEW 9.0.5) date 2025-10-31 19:38:18*
%MOMM*%
%LPD*%
G01*
G04 APERTURE LIST*
G04 Aperture macros list*
%AMRoundRect*
0 Rectangle with rounded corners*
0 $1 Rounding radius*
0 $2 $3 $4 $5 $6 $7 $8 $9 X,Y pos of 4 corners*
0 Add a 4 corners polygon primitive as box body*
4,1,4,$2,$3,$4,$5,$6,$7,$8,$9,$2,$3,0*
0 Add four circle primitives for the rounded corners*
1,1,$1+$1,$2,$3*
1,1,$1+$1,$4,$5*
1,1,$1+$1,$6,$7*
1,1,$1+$1,$8,$9*
0 Add four rect primitives between the rounded corners*
20,1,$1+$1,$2,$3,$4,$5,0*
20,1,$1+$1,$4,$5,$6,$7,0*
20,1,$1+$1,$6,$7,$8,$9,0*
20,1,$1+$1,$8,$9,$2,$3,0*%
%AMHorizOval*
0 Thick line with rounded ends*
0 $1 width*
0 $2 $3 position (X,Y) of the first rounded end (center of the circle)*
0 $4 $5 position (X,Y) of the second rounded end (center of the circle)*
0 Add line between two ends*
20,1,$1,$2,$3,$4,$5,0*
0 Add two circle primitives to create the rounded ends*
1,1,$1,$2,$3*
1,1,$1,$4,$5*%
%AMRotRect*
0 Rectangle, with rotation*
0 The origin of the aperture is its center*
0 $1 length*
0 $2 width*
0 $3 Rotation angle, in degrees counterclockwise*
0 Add horizontal line*
21,1,$1,$2,0,0,$3*%
G04 Aperture macros list end*
%ADD10C,2.700000*%
%ADD11C,1.100000*%
%ADD12RoundRect,0.249999X-0.850001X-0.850001X0.850001X-0.850001X0.850001X0.850001X-0.850001X0.850001X0*%
%ADD13C,2.200000*%
%ADD14RoundRect,0.250000X-0.194454X0.689429X-0.689429X0.194454X0.194454X-0.689429X0.689429X-0.194454X0*%
%ADD15HorizOval,1.200000X-0.194454X0.194454X0.194454X-0.194454X0*%
%ADD16R,1.700000X1.700000*%
%ADD17C,1.700000*%
%ADD18C,0.700000*%
%ADD19O,2.400000X0.900000*%
%ADD20O,1.700000X0.900000*%
%ADD21C,0.900000*%
%ADD22RotRect,1.700000X1.700000X45.000000*%
%ADD23RoundRect,0.200000X-0.200000X-0.275000X0.200000X-0.275000X0.200000X0.275000X-0.200000X0.275000X0*%
%ADD24RoundRect,0.200000X0.275000X-0.200000X0.275000X0.200000X-0.275000X0.200000X-0.275000X-0.200000X0*%
%ADD25R,1.000000X1.700000*%
%ADD26RoundRect,0.075000X0.337500X0.075000X-0.337500X0.075000X-0.337500X-0.075000X0.337500X-0.075000X0*%
%ADD27RoundRect,0.075000X0.075000X0.337500X-0.075000X0.337500X-0.075000X-0.337500X0.075000X-0.337500X0*%
%ADD28R,3.250000X3.250000*%
%ADD29RoundRect,0.200000X-0.335876X-0.053033X-0.053033X-0.335876X0.335876X0.053033X0.053033X0.335876X0*%
%ADD30RoundRect,0.200000X-0.275000X0.200000X-0.275000X-0.200000X0.275000X-0.200000X0.275000X0.200000X0*%
%ADD31RoundRect,0.200000X0.200000X0.275000X-0.200000X0.275000X-0.200000X-0.275000X0.200000X-0.275000X0*%
%ADD32RoundRect,0.218750X0.218750X0.256250X-0.218750X0.256250X-0.218750X-0.256250X0.218750X-0.256250X0*%
%ADD33RoundRect,0.200000X0.335876X0.053033X0.053033X0.335876X-0.335876X-0.053033X-0.053033X-0.335876X0*%
%ADD34RoundRect,0.225000X-0.225000X-0.250000X0.225000X-0.250000X0.225000X0.250000X-0.225000X0.250000X0*%
G04 APERTURE END LIST*
D10*
%TO.C,H3*%
X124226707Y-110831046D03*
%TD*%
D11*
%TO.C,J5*%
X132730000Y-122407500D03*
X135270000Y-122407500D03*
D12*
X132730000Y-119867500D03*
D13*
X135270000Y-119867500D03*
%TD*%
D14*
%TO.C,J3*%
X134166226Y-92856351D03*
D15*
X132752012Y-94270565D03*
%TD*%
D16*
%TO.C,J2*%
X152266707Y-119831046D03*
D17*
X149726707Y-119831046D03*
X147186708Y-119831046D03*
%TD*%
D18*
%TO.C,J1*%
X126850000Y-99075000D03*
X126850000Y-99925000D03*
X126850000Y-100775001D03*
X126850000Y-101625000D03*
X126850000Y-102475000D03*
X126850000Y-103325000D03*
X126850000Y-104175001D03*
X126850000Y-105025000D03*
X125500000Y-105025000D03*
X125500000Y-104175000D03*
X125500000Y-103325000D03*
X125500000Y-102475000D03*
X125500000Y-101625000D03*
X125500000Y-100775000D03*
X125500000Y-99925000D03*
X125500000Y-99075000D03*
D19*
X125870000Y-97725000D03*
D20*
X122490000Y-97725000D03*
D19*
X125870000Y-106375000D03*
D20*
X122490000Y-106375000D03*
%TD*%
D21*
%TO.C,SW_MAIN1*%
X176330000Y-102675000D03*
X176330000Y-99675000D03*
%TD*%
D10*
%TO.C,H4*%
X175226707Y-110831046D03*
%TD*%
%TO.C,H1*%
X136226707Y-85831046D03*
%TD*%
%TO.C,H2*%
X163226707Y-85831046D03*
%TD*%
D11*
%TO.C,J6*%
X164230000Y-122407500D03*
X166770000Y-122407500D03*
D12*
X164230000Y-119867500D03*
D13*
X166770000Y-119867500D03*
%TD*%
D22*
%TO.C,J7*%
X168111846Y-88786846D03*
D17*
X169907897Y-90582897D03*
X171703948Y-92378948D03*
X173500000Y-94175000D03*
%TD*%
D16*
%TO.C,J4*%
X140460000Y-113675000D03*
D17*
X143000000Y-113675000D03*
X145539999Y-113675000D03*
X148080000Y-113675000D03*
%TD*%
D23*
%TO.C,R1*%
X128675000Y-100675000D03*
X130325000Y-100675000D03*
%TD*%
D24*
%TO.C,R10*%
X163000000Y-104000000D03*
X163000000Y-102350000D03*
%TD*%
D25*
%TO.C,SW1*%
X167100000Y-106025001D03*
X167100000Y-112324999D03*
X170900000Y-106025001D03*
X170900000Y-112324999D03*
%TD*%
D26*
%TO.C,U1*%
X160737500Y-102937500D03*
X160737500Y-103587500D03*
X160737500Y-104237500D03*
X160737500Y-104887500D03*
X160737500Y-105537500D03*
D27*
X159600000Y-106675000D03*
X158950000Y-106675000D03*
X158300000Y-106675000D03*
X157650000Y-106675000D03*
X157000000Y-106675000D03*
D26*
X155862500Y-105537500D03*
X155862500Y-104887500D03*
X155862500Y-104237500D03*
X155862500Y-103587500D03*
X155862500Y-102937500D03*
D27*
X157000000Y-101800000D03*
X157650000Y-101800000D03*
X158300000Y-101800000D03*
X158950000Y-101800000D03*
X159600000Y-101800000D03*
D28*
X158300000Y-104237500D03*
%TD*%
D29*
%TO.C,R12*%
X167416637Y-92591637D03*
X168583363Y-93758363D03*
%TD*%
D30*
%TO.C,R9*%
X151500000Y-101850000D03*
X151500000Y-103500000D03*
%TD*%
D31*
%TO.C,R11*%
X140325000Y-110675000D03*
X138675000Y-110675000D03*
%TD*%
D30*
%TO.C,R7*%
X153500000Y-101850000D03*
X153500000Y-103500000D03*
%TD*%
D23*
%TO.C,R2*%
X127675000Y-108675000D03*
X129325000Y-108675000D03*
%TD*%
D30*
%TO.C,R6*%
X149500000Y-101850000D03*
X149500000Y-103500000D03*
%TD*%
D32*
%TO.C,FB1*%
X163787500Y-100675000D03*
X162212500Y-100675000D03*
%TD*%
D33*
%TO.C,R13*%
X166083363Y-91258363D03*
X164916637Y-90091637D03*
%TD*%
D34*
%TO.C,C6*%
X156225000Y-99175000D03*
X157775000Y-99175000D03*
%TD*%
%TO.C,C7*%
X159306052Y-99099451D03*
X160856052Y-99099451D03*
%TD*%
M02*
